<svg id="eclqpjieoew1" xmlns="http://www.w3.org/2000/svg" xmlns:xlink="http://www.w3.org/1999/xlink" viewBox="0 0 91 23" shape-rendering="geometricPrecision" text-rendering="geometricPrecision"><defs><filter id="eclqpjieoew2-filter" x="-400%" width="600%" y="-400%" height="600%"><feGaussianBlur id="eclqpjieoew2-filter-drop-shadow-0-blur" in="SourceAlpha" stdDeviation="2,2"/><feOffset id="eclqpjieoew2-filter-drop-shadow-0-offset" dx="0" dy="0" result="tmp"/><feFlood id="eclqpjieoew2-filter-drop-shadow-0-flood" flood-color="rgb(0,0,0)"/><feComposite id="eclqpjieoew2-filter-drop-shadow-0-composite" operator="in" in2="tmp"/><feMerge id="eclqpjieoew2-filter-drop-shadow-0-merge"><feMergeNode id="eclqpjieoew2-filter-drop-shadow-0-merge-node-1"/><feMergeNode id="eclqpjieoew2-filter-drop-shadow-0-merge-node-2" in="SourceGraphic"/></feMerge></filter></defs><path id="eclqpjieoew2" style="mix-blend-mode:darken" d="M15.966800,21.575200C15.966800,21.653300,15.918000,21.697300,15.820300,21.707000C15.722700,21.707000,15.620100,21.707000,15.512700,21.707000C15.463900,21.716800,15.415000,21.726600,15.366200,21.736300C15.317400,21.755900,15.263700,21.775400,15.205100,21.794900C15.156300,21.804700,15.107400,21.834000,15.058600,21.882800C15.078100,21.980500,15.083000,22.053700,15.073200,22.102500C15.073200,22.161100,15.073200,22.205100,15.073200,22.234400L15.058600,22.293000C15.029300,22.332000,14.970700,22.361300,14.882800,22.380900C14.794900,22.410200,14.702100,22.424800,14.604500,22.424800C14.585000,22.424800,14.555700,22.419900,14.516600,22.410200C14.448200,22.390600,14.379900,22.341800,14.311500,22.263700C14.145500,22.214800,13.950200,22.166000,13.725600,22.117200C13.608400,22.087900,13.481400,22.058600,13.344700,22.029300C13.237300,22,13.144500,21.921900,13.066400,21.794900C12.988300,21.668000,12.915000,21.521500,12.846700,21.355500C12.788100,21.179700,12.729500,21.003900,12.670900,20.828100C12.622100,20.642600,12.578100,20.481400,12.539100,20.344700L11.103500,15.818400C10.888700,15.818400,10.615200,15.823200,10.283200,15.833000C9.960940,15.833000,9.614260,15.837900,9.243160,15.847700C8.872070,15.847700,8.496090,15.857400,8.115230,15.877000C7.734380,15.886700,7.387700,15.896500,7.075200,15.906200L4.145510,16.052700L2.431640,20.535200C2.402340,20.584000,2.358400,20.681600,2.299800,20.828100C2.250980,20.974600,2.197270,21.130900,2.138670,21.296900C2.080080,21.453100,2.026370,21.604500,1.977540,21.751000C1.928710,21.887700,1.899410,21.970700,1.889650,22C1.870120,22.078100,1.811520,22.127000,1.713870,22.146500C1.616210,22.166000,1.533200,22.185500,1.464840,22.205100C1.406250,22.224600,1.357420,22.278300,1.318360,22.366200C1.279300,22.454100,1.220700,22.512700,1.142580,22.542000C1.064450,22.590800,0.966797,22.595700,0.849609,22.556600C0.732422,22.517600,0.629883,22.454100,0.541992,22.366200C0.463867,22.268600,0.434570,22.146500,0.454102,22C0.473633,21.843800,0.483398,21.682600,0.483398,21.516600C0.483398,21.350600,0.478516,21.194300,0.468750,21.047900C0.468750,20.901400,0.493164,20.759800,0.541992,20.623000C0.561523,20.564500,0.620117,20.383800,0.717773,20.081100C0.825195,19.768600,0.957031,19.397500,1.113280,18.967800C1.269530,18.528300,1.440430,18.054700,1.625980,17.546900C1.811520,17.029300,2.001950,16.531200,2.197270,16.052700C2.021480,16.052700,1.899410,16.003900,1.831050,15.906200C1.782230,15.828100,1.723630,15.784200,1.655270,15.774400C1.586910,15.754900,1.513670,15.730500,1.435550,15.701200C1.357420,15.681600,1.303710,15.637700,1.274410,15.569300C1.245120,15.501000,1.240230,15.442400,1.259770,15.393600C1.279300,15.335000,1.264650,15.286100,1.215820,15.247100C1.166990,15.208000,1.142580,15.120100,1.142580,14.983400C1.142580,14.924800,1.186520,14.871100,1.274410,14.822300C1.372070,14.763700,1.489260,14.714800,1.625980,14.675800C1.762700,14.636700,1.914060,14.602500,2.080080,14.573200C2.255860,14.543900,2.421880,14.519500,2.578120,14.500000C2.607420,14.500000,2.641600,14.500000,2.680660,14.500000C2.729490,14.500000,2.778320,14.490200,2.827150,14.470700C3.041990,13.953100,3.286130,13.396500,3.559570,12.800800C3.833010,12.195300,4.111330,11.580100,4.394530,10.955100C4.687500,10.330100,4.980470,9.705080,5.273440,9.080080C5.566410,8.455080,5.844730,7.869140,6.108400,7.322270C6.372070,6.765620,6.611330,6.257810,6.826170,5.798830C7.050780,5.339840,7.236330,4.958980,7.382810,4.656250C7.265620,4.294920,7.158200,3.962890,7.060550,3.660160C6.972660,3.357420,6.894530,3.093750,6.826170,2.869140C6.757810,2.644530,6.704100,2.468750,6.665040,2.341800C6.625980,2.205080,6.606450,2.126950,6.606450,2.107420C6.596680,2.087890,6.596680,2.068360,6.606450,2.048830C6.625980,2,6.674800,1.970700,6.752930,1.960940C6.674800,1.814450,6.635740,1.707030,6.635740,1.638670C6.635740,1.599610,6.645510,1.575200,6.665040,1.565430C6.684570,1.545900,6.733400,1.526370,6.811520,1.506840C6.889650,1.487300,6.972660,1.472660,7.060550,1.462890C7.148440,1.443360,7.231450,1.433590,7.309570,1.433590C7.387700,1.423830,7.441410,1.418950,7.470700,1.418950C7.480470,1.418950,7.504880,1.423830,7.543950,1.433590C7.602540,1.453120,7.685550,1.497070,7.792970,1.565430C7.802730,1.516600,7.812500,1.482420,7.822270,1.462890C7.841800,1.443360,7.861330,1.423830,7.880860,1.404300L7.924800,1.360350C7.983400,1.331050,8.046880,1.326170,8.115230,1.345700C8.183590,1.355470,8.247070,1.360350,8.305660,1.360350C8.364260,1.360350,8.403320,1.335940,8.422850,1.287110C8.452150,1.238280,8.515620,1.213870,8.613280,1.213870C8.740230,1.213870,8.847660,1.350590,8.935550,1.624020C8.945310,1.672850,9.013670,1.858400,9.140620,2.180660C9.267580,2.493160,9.428710,2.908200,9.624020,3.425780C9.819340,3.933590,10.043900,4.524410,10.297900,5.198240C10.561500,5.872070,10.835000,6.589840,11.118200,7.351560C11.401400,8.103520,11.684600,8.884770,11.967800,9.695310C12.260700,10.496100,12.539100,11.287100,12.802700,12.068400C13.349600,13.660200,13.808600,15.002900,14.179700,16.096700C14.550800,17.190400,14.848600,18.084000,15.073200,18.777300C15.307600,19.470700,15.478500,19.988300,15.585900,20.330100C15.703100,20.671900,15.776400,20.877000,15.805700,20.945300C15.854500,21.101600,15.893600,21.228500,15.922900,21.326200C15.952100,21.414100,15.966800,21.497100,15.966800,21.575200ZM9.653320,11.555700C9.399410,10.833000,9.121090,10.022500,8.818360,9.124020C8.525390,8.225590,8.237300,7.336910,7.954100,6.458010C7.788090,6.887700,7.587890,7.405270,7.353520,8.010740C7.119140,8.616210,6.870120,9.241210,6.606450,9.885740C6.352540,10.530300,6.103520,11.160200,5.859380,11.775400C5.615230,12.390600,5.400390,12.918000,5.214840,13.357400L4.804690,14.324200L7.441410,14.163100C7.666020,14.163100,7.934570,14.158200,8.247070,14.148400C8.774410,14.138700,9.536130,14.124000,10.532200,14.104500L9.653320,11.555700ZM21.298800,4.333980C21.298800,4.568360,21.293900,4.871090,21.284200,5.242190C21.274400,5.603520,21.259800,6.018550,21.240200,6.487300C21.230500,6.956050,21.215800,7.463870,21.196300,8.010740C21.176800,8.547850,21.162100,9.109380,21.152300,9.695310C21.435500,9.529300,21.772500,9.368160,22.163100,9.211910C22.563500,9.045900,22.978500,8.870120,23.408200,8.684570C23.847700,8.499020,24.282200,8.298830,24.711900,8.083980C25.151400,7.869140,25.551800,7.629880,25.913100,7.366210C26.801800,6.692380,27.465800,6.082030,27.905300,5.535160C28.354500,4.978520,28.579100,4.465820,28.579100,3.997070C28.579100,3.801760,28.544900,3.635740,28.476600,3.499020C28.418000,3.362300,28.344700,3.240230,28.256800,3.132810C28.032200,3.005860,27.695300,2.898440,27.246100,2.810550C26.806600,2.722660,26.264600,2.678710,25.620100,2.678710C25.014600,2.678710,24.404300,2.727540,23.789100,2.825200C23.183600,2.913090,22.597700,3.030270,22.031200,3.176760C21.464800,3.313480,20.932600,3.464840,20.434600,3.630860C19.946300,3.796870,19.511700,3.953120,19.130900,4.099610C18.750000,4.246090,18.442400,4.377930,18.208000,4.495120C17.973600,4.602540,17.832000,4.666020,17.783200,4.685550C17.734400,4.705080,17.675800,4.739260,17.607400,4.788090C17.548800,4.827150,17.490200,4.846680,17.431600,4.846680C17.304700,4.846680,17.216800,4.797850,17.168000,4.700200C17.119100,4.602540,17.104500,4.500000,17.124000,4.392580C17.045900,4.363280,16.982400,4.309570,16.933600,4.231450C16.884800,4.143550,16.845700,4.050780,16.816400,3.953120C16.787100,3.855470,16.767600,3.762700,16.757800,3.674800C16.748000,3.577150,16.743200,3.503910,16.743200,3.455080C16.743200,3.259770,16.826200,3.088870,16.992200,2.942380C17.168000,2.786130,17.392600,2.649410,17.666000,2.532230C17.734400,2.502930,17.880900,2.434570,18.105500,2.327150C18.339800,2.219730,18.632800,2.097660,18.984400,1.960940C19.345700,1.814450,19.751000,1.663090,20.200200,1.506840C20.649400,1.350590,21.127900,1.208980,21.635700,1.082030C22.143600,0.945313,22.666000,0.833008,23.203100,0.745117C23.740200,0.657227,24.272500,0.613281,24.799800,0.613281C25.180700,0.623047,25.585900,0.647461,26.015600,0.686523C26.445300,0.715820,26.870100,0.784180,27.290000,0.891602C27.710000,0.999023,28.100600,1.150390,28.461900,1.345700C28.833000,1.541020,29.145500,1.804690,29.399400,2.136720C29.672900,2.351560,29.912100,2.644530,30.117200,3.015620C30.332000,3.376950,30.439500,3.816410,30.439500,4.333980C30.439500,4.695310,30.405300,5.022460,30.336900,5.315430C30.278300,5.598630,30.224600,5.798830,30.175800,5.916020C29.921900,6.550780,29.594700,7.097660,29.194300,7.556640C28.803700,8.015620,28.378900,8.411130,27.919900,8.743160C27.470700,9.065430,27.016600,9.338870,26.557600,9.563480C26.098600,9.788090,25.683600,9.973630,25.312500,10.120100C25.722700,10.120100,26.142600,10.139600,26.572300,10.178700C27.011700,10.217800,27.441400,10.291000,27.861300,10.398400C28.291000,10.496100,28.701200,10.642600,29.091800,10.837900C29.482400,11.033200,29.843800,11.282200,30.175800,11.585000C30.390600,11.819300,30.585900,12.073200,30.761700,12.346700C30.908200,12.581100,31.040000,12.859400,31.157200,13.181600C31.284200,13.494100,31.347700,13.835900,31.347700,14.207000C31.406200,14.441400,31.435500,14.710000,31.435500,15.012700C31.435500,15.354500,31.406200,15.735400,31.347700,16.155300C31.298800,16.526400,31.176800,16.960900,30.981400,17.459000C30.786100,17.957000,30.483400,18.469700,30.073200,18.997100C29.663100,19.524400,29.126000,20.042000,28.461900,20.549800C27.807600,21.047900,26.987300,21.482400,26.001000,21.853500C25.385700,22.097700,24.824200,22.273400,24.316400,22.380900C23.808600,22.488300,23.349600,22.542000,22.939500,22.542000C22.744100,22.542000,22.529300,22.522500,22.294900,22.483400C22.070300,22.444300,21.855500,22.385700,21.650400,22.307600C21.455100,22.239300,21.289100,22.151400,21.152300,22.043900C21.025400,21.936500,20.961900,21.809600,20.961900,21.663100C20.961900,21.585000,20.937500,21.531200,20.888700,21.502000C20.839800,21.462900,20.786100,21.418900,20.727500,21.370100C20.678700,21.536100,20.620100,21.668000,20.551800,21.765600C20.493200,21.863300,20.429700,21.941400,20.361300,22C20.283200,22.068400,20.205100,22.117200,20.127000,22.146500C20.087900,22.146500,20.053700,22.136700,20.024400,22.117200C19.965800,22.107400,19.921900,22.068400,19.892600,22C19.853500,22.078100,19.799800,22.156200,19.731400,22.234400C19.672900,22.322300,19.614300,22.366200,19.555700,22.366200C19.526400,22.366200,19.482400,22.361300,19.423800,22.351600C19.375000,22.351600,19.321300,22.288100,19.262700,22.161100C19.213900,22.034200,19.160200,21.819300,19.101600,21.516600C19.052700,21.204100,19.003900,20.740200,18.955100,20.125000C18.916000,19.500000,18.881800,18.694300,18.852500,17.708000C18.823200,16.721700,18.808600,15.491200,18.808600,14.016600C18.808600,13.420900,18.808600,12.795900,18.808600,12.141600C18.808600,11.477500,18.813500,10.828100,18.823200,10.193400C18.833000,9.548830,18.847700,8.933590,18.867200,8.347660C18.896500,7.751950,18.930700,7.214840,18.969700,6.736330C19.018600,6.248050,19.077100,5.842770,19.145500,5.520510C19.213900,5.188480,19.301800,4.963870,19.409200,4.846680C19.487300,4.749020,19.624000,4.656250,19.819300,4.568360C20.024400,4.480470,20.224600,4.402340,20.419900,4.333980C20.615200,4.255860,20.786100,4.197270,20.932600,4.158200C21.079100,4.109380,21.142600,4.075200,21.123000,4.055660C21.171900,4.075200,21.210900,4.109380,21.240200,4.158200C21.279300,4.197270,21.298800,4.255860,21.298800,4.333980ZM21.811500,11.892600C21.743200,11.892600,21.640600,11.853500,21.503900,11.775400C21.377000,11.697300,21.235400,11.604500,21.079100,11.497100C21.049800,12.317400,21.020500,13.137700,20.991200,13.958000C20.961900,14.778300,20.932600,15.559600,20.903300,16.301800C20.874000,17.034200,20.849600,17.712900,20.830100,18.337900C20.820300,18.962900,20.815400,19.485400,20.815400,19.905300C20.932600,19.719700,21.059600,19.543900,21.196300,19.377900C21.333000,19.202100,21.464800,19.050800,21.591800,18.923800C21.728500,18.787100,21.850600,18.679700,21.958000,18.601600C22.075200,18.523400,22.163100,18.484400,22.221700,18.484400C22.241200,18.484400,22.260700,18.489300,22.280300,18.499000C22.299800,18.508800,22.343800,18.547900,22.412100,18.616200C22.431600,18.616200,22.451200,18.611300,22.470700,18.601600C22.490200,18.591800,22.509800,18.586900,22.529300,18.586900C22.607400,18.586900,22.666000,18.621100,22.705100,18.689500C22.744100,18.757800,22.763700,18.889600,22.763700,19.085000C22.763700,19.192400,22.734400,19.285200,22.675800,19.363300C22.617200,19.441400,22.548800,19.514600,22.470700,19.583000C22.402300,19.641600,22.329100,19.700200,22.251000,19.758800C22.182600,19.817400,22.133800,19.876000,22.104500,19.934600C22.182600,19.954100,22.260700,19.968800,22.338900,19.978500C22.417000,19.988300,22.539100,19.993200,22.705100,19.993200C22.793000,19.983400,22.968800,19.968800,23.232400,19.949200C23.505900,19.919900,23.852500,19.846700,24.272500,19.729500C24.692400,19.602500,25.175800,19.407200,25.722700,19.143600C26.279300,18.879900,26.884800,18.503900,27.539100,18.015600C28.095700,17.595700,28.544900,17.166000,28.886700,16.726600C29.228500,16.287100,29.487300,15.877000,29.663100,15.496100C29.848600,15.105500,29.970700,14.763700,30.029300,14.470700C30.087900,14.177700,30.117200,13.967800,30.117200,13.840800C30.078100,13.479500,29.921900,13.152300,29.648400,12.859400C29.384800,12.556600,29.028300,12.297900,28.579100,12.083000C28.139600,11.868200,27.622100,11.702100,27.026400,11.585000C26.430700,11.467800,25.791000,11.409200,25.107400,11.409200C24.648400,11.409200,24.243200,11.433600,23.891600,11.482400C23.540000,11.531200,23.227500,11.589800,22.954100,11.658200C22.690400,11.716800,22.465800,11.770500,22.280300,11.819300C22.094700,11.868200,21.938500,11.892600,21.811500,11.892600ZM52.251000,9.402340C52.260700,9.509770,52.265600,9.612300,52.265600,9.709960C52.265600,9.807620,52.265600,9.910160,52.265600,10.017600C52.265600,11.072300,52.119100,12.156200,51.826200,13.269500C51.543000,14.382800,51.137700,15.442400,50.610400,16.448200C50.083000,17.444300,49.443400,18.352500,48.691400,19.172900C47.939500,19.983400,47.099600,20.618200,46.171900,21.077100C45.625000,21.340800,45.034200,21.536100,44.399400,21.663100C43.764600,21.790000,43.125000,21.853500,42.480500,21.853500C42.011700,21.853500,41.547900,21.819300,41.088900,21.751000C40.639600,21.682600,40.210000,21.594700,39.799800,21.487300C38.881800,21.223600,38.056600,20.818400,37.324200,20.271500C36.601600,19.714800,35.981400,19.075200,35.463900,18.352500C34.946300,17.629900,34.536100,16.853500,34.233400,16.023400C33.940400,15.183600,33.769500,14.353500,33.720700,13.533200C33.710900,13.416000,33.701200,13.298800,33.691400,13.181600C33.691400,13.064500,33.691400,12.947300,33.691400,12.830100C33.691400,11.921900,33.803700,11.018600,34.028300,10.120100C34.252900,9.211910,34.555700,8.347660,34.936500,7.527340C35.327100,6.697270,35.776400,5.920900,36.284200,5.198240C36.801800,4.475590,37.348600,3.840820,37.924800,3.293950C38.510700,2.747070,39.106400,2.302730,39.711900,1.960940C40.327100,1.609380,40.927700,1.389650,41.513700,1.301760C41.591800,1.291990,41.640600,1.287110,41.660200,1.287110C41.689500,1.277340,41.709000,1.272460,41.718800,1.272460C41.728500,1.272460,41.738300,1.277340,41.748000,1.287110C41.757800,1.287110,41.782200,1.282230,41.821300,1.272460C42.045900,1.252930,42.207000,1.248050,42.304700,1.257810C42.402300,1.267580,42.460900,1.282230,42.480500,1.301760C42.500000,1.331050,42.495100,1.350590,42.465800,1.360350C42.446300,1.370120,42.412100,1.389650,42.363300,1.418950C42.343800,1.418950,42.319300,1.423830,42.290000,1.433590C42.270500,1.443360,42.270500,1.458010,42.290000,1.477540C42.309600,1.526370,42.290000,1.570310,42.231400,1.609380C42.172900,1.648440,42.133800,1.677730,42.114300,1.697270C42.094700,1.716800,42.089800,1.731450,42.099600,1.741210C42.109400,1.750980,42.114300,1.755860,42.114300,1.755860C42.124000,1.755860,42.124000,1.760740,42.114300,1.770510C42.114300,1.780270,42.094700,1.794920,42.055700,1.814450C41.938500,1.892580,41.811500,1.965820,41.674800,2.034180C41.547900,2.092770,41.416000,2.166020,41.279300,2.253910C40.576200,2.761720,39.956100,3.416020,39.418900,4.216800C38.881800,5.017580,38.432600,5.901370,38.071300,6.868160C37.710000,7.834960,37.436500,8.855470,37.251000,9.929690C37.065400,10.994100,36.972700,12.048800,36.972700,13.093800C36.972700,13.230500,36.972700,13.367200,36.972700,13.503900C36.972700,13.630900,36.977500,13.762700,36.987300,13.899400C37.006800,14.319300,37.075200,14.778300,37.192400,15.276400C37.309600,15.774400,37.465800,16.272500,37.661100,16.770500C37.866200,17.258800,38.110400,17.732400,38.393600,18.191400C38.686500,18.650400,39.018600,19.060500,39.389600,19.421900C39.760700,19.773400,40.175800,20.061500,40.634800,20.286100C41.093800,20.501000,41.596700,20.613300,42.143600,20.623000C42.963900,20.652300,43.701200,20.520500,44.355500,20.227500C45.009800,19.934600,45.585900,19.543900,46.084000,19.055700C46.591800,18.557600,47.026400,17.991200,47.387700,17.356400C47.749000,16.711900,48.046900,16.052700,48.281200,15.378900C48.525400,14.695300,48.715800,14.026400,48.852500,13.372100C48.989300,12.708000,49.082000,12.112300,49.130900,11.585000C49.150400,11.379900,49.165000,11.174800,49.174800,10.969700C49.184600,10.754900,49.189500,10.549800,49.189500,10.354500C49.189500,9.104490,49.023400,7.991210,48.691400,7.014650C48.369100,6.038090,47.934600,5.212890,47.387700,4.539060C46.850600,3.865230,46.230500,3.347660,45.527300,2.986330C44.824200,2.615230,44.096700,2.415040,43.344700,2.385740C43.266600,2.375980,43.173800,2.375980,43.066400,2.385740C42.959000,2.385740,42.846700,2.385740,42.729500,2.385740C42.622100,2.385740,42.524400,2.390620,42.436500,2.400390C42.358400,2.400390,42.309600,2.395510,42.290000,2.385740C42.163100,2.327150,42.085000,2.283200,42.055700,2.253910L42.026400,2.224610C42.026400,2.146480,42.045900,2.087890,42.085000,2.048830L42.231400,1.975590C42.280300,1.956050,42.324200,1.936520,42.363300,1.916990C42.412100,1.887700,42.451200,1.863280,42.480500,1.843750C42.500000,1.814450,42.495100,1.794920,42.465800,1.785160C42.436500,1.765630,42.421900,1.721680,42.421900,1.653320C42.402300,1.604490,42.417000,1.560550,42.465800,1.521480C42.514600,1.472660,42.548800,1.448240,42.568400,1.448240C42.656200,1.418950,42.714800,1.404300,42.744100,1.404300C42.783200,1.394530,42.832000,1.389650,42.890600,1.389650C42.988300,1.379880,43.066400,1.370120,43.125000,1.360350C43.193400,1.340820,43.252000,1.321290,43.300800,1.301760C43.359400,1.282230,43.422900,1.267580,43.491200,1.257810C43.559600,1.238280,43.652300,1.223630,43.769500,1.213870C43.857400,1.194340,43.955100,1.184570,44.062500,1.184570C44.169900,1.184570,44.331100,1.174800,44.545900,1.155270C45.385700,1.135740,46.152300,1.233400,46.845700,1.448240C47.548800,1.653320,48.178700,1.951170,48.735400,2.341800C49.301800,2.732420,49.794900,3.196290,50.214800,3.733400C50.634800,4.260740,50.986300,4.836910,51.269500,5.461910C51.562500,6.077150,51.787100,6.721680,51.943400,7.395510C52.109400,8.069340,52.211900,8.738280,52.251000,9.402340ZM69.521500,2.283200C69.502000,2.732420,69.477500,3.318360,69.448200,4.041020C69.428700,4.753910,69.404300,5.554690,69.375000,6.443360C69.355500,7.322270,69.331100,8.259770,69.301800,9.255860C69.282200,10.252000,69.262700,11.252900,69.243200,12.258800C69.223600,13.264600,69.209000,14.246100,69.199200,15.203100C69.189500,16.160200,69.184600,17.043900,69.184600,17.854500C69.184600,18.762700,69.189500,19.539100,69.199200,20.183600C69.218800,20.828100,69.243200,21.272500,69.272500,21.516600C69.292000,21.594700,69.292000,21.648400,69.272500,21.677700C69.262700,21.707000,69.243200,21.726600,69.213900,21.736300C69.184600,21.746100,69.150400,21.755900,69.111300,21.765600C69.072300,21.765600,69.038100,21.775400,69.008800,21.794900C68.979500,21.814500,68.964800,21.843800,68.964800,21.882800C68.964800,21.921900,68.964800,21.960900,68.964800,22C68.964800,22.039100,68.960000,22.073200,68.950200,22.102500C68.940400,22.131800,68.911100,22.146500,68.862300,22.146500C68.549800,22.146500,68.315400,22.117200,68.159200,22.058600C68.012700,22,67.876000,21.902300,67.749000,21.765600C67.602500,21.609400,67.470700,21.433600,67.353500,21.238300C67.246100,21.043000,67.177700,20.818400,67.148400,20.564500C67.138700,20.476600,67.124000,20.359400,67.104500,20.212900C67.085000,20.066400,67.060500,19.905300,67.031200,19.729500C67.011700,19.543900,66.992200,19.343800,66.972700,19.128900C66.962900,18.914100,66.962900,18.689500,66.972700,18.455100C66.972700,18.181600,66.967800,17.913100,66.958000,17.649400C66.948200,17.385700,66.933600,17.127000,66.914100,16.873000C66.796900,17.175800,66.660200,17.522500,66.503900,17.913100C66.347700,18.293900,66.157200,18.684600,65.932600,19.085000C65.708000,19.485400,65.449200,19.876000,65.156200,20.256800C64.873000,20.637700,64.541000,20.979500,64.160200,21.282200C63.789100,21.575200,63.369100,21.814500,62.900400,22C62.431600,22.175800,61.909200,22.263700,61.333000,22.263700C60.874000,22.263700,60.390600,22.205100,59.882800,22.087900C59.209000,21.912100,58.627900,21.653300,58.139600,21.311500C57.651400,20.969700,57.236300,20.554700,56.894500,20.066400C56.552700,19.568400,56.269500,19.006800,56.044900,18.381800C55.830100,17.747100,55.649400,17.053700,55.502900,16.301800C55.454100,16.028300,55.415000,15.730500,55.385700,15.408200C55.366200,15.076200,55.356400,14.705100,55.356400,14.294900C55.356400,13.464800,55.395500,12.542000,55.473600,11.526400C55.551800,10.510700,55.639600,9.480470,55.737300,8.435550C55.835000,7.390620,55.927700,6.370120,56.015600,5.374020C56.103500,4.368160,56.157200,3.469730,56.176800,2.678710C56.176800,2.424800,56.196300,2.229490,56.235400,2.092770C56.284200,1.946290,56.411100,1.833980,56.616200,1.755860C56.655300,1.746090,56.694300,1.750980,56.733400,1.770510C56.772500,1.780270,56.811500,1.790040,56.850600,1.799800C56.889600,1.799800,56.933600,1.790040,56.982400,1.770510C57.031200,1.750980,57.080100,1.711910,57.128900,1.653320C57.187500,1.565430,57.241200,1.521480,57.290000,1.521480C57.338900,1.511720,57.377900,1.526370,57.407200,1.565430C57.446300,1.604490,57.480500,1.648440,57.509800,1.697270C57.548800,1.746090,57.583000,1.775390,57.612300,1.785160C57.651400,1.804690,57.710000,1.853520,57.788100,1.931640C57.876000,2.009770,57.959000,2.102540,58.037100,2.209960C58.115200,2.307620,58.183600,2.410160,58.242200,2.517580C58.300800,2.615230,58.330100,2.698240,58.330100,2.766600C58.330100,2.844730,58.359400,2.986330,58.418000,3.191410C58.476600,3.396480,58.515600,3.684570,58.535200,4.055660C58.564500,4.534180,58.564500,5.115230,58.535200,5.798830C58.515600,6.472660,58.481400,7.200200,58.432600,7.981450C58.383800,8.752930,58.330100,9.543950,58.271500,10.354500C58.212900,11.165000,58.159200,11.946300,58.110400,12.698200C58.061500,13.450200,58.022500,14.143600,57.993200,14.778300C57.963900,15.403300,57.963900,15.920900,57.993200,16.331100C58.061500,17.268600,58.139600,18.005900,58.227500,18.543000C58.325200,19.070300,58.427700,19.363300,58.535200,19.421900C58.642600,19.480500,58.769500,19.519500,58.916000,19.539100C59.072300,19.558600,59.277300,19.568400,59.531200,19.568400C60.957000,19.500000,62.143600,19.236300,63.090800,18.777300C64.038100,18.308600,64.799800,17.620100,65.376000,16.711900C65.961900,15.803700,66.391600,14.656200,66.665000,13.269500C66.948200,11.873000,67.128900,10.212900,67.207000,8.289060C67.236300,7.488280,67.270500,6.775390,67.309600,6.150390C67.348600,5.525390,67.387700,4.958980,67.426800,4.451170C67.475600,3.943360,67.524400,3.479490,67.573200,3.059570C67.631800,2.639650,67.690400,2.234380,67.749000,1.843750C67.768600,1.785160,67.817400,1.736330,67.895500,1.697270C67.973600,1.658200,68.046900,1.624020,68.115200,1.594730C68.164100,1.545900,68.188500,1.501950,68.188500,1.462890C68.198200,1.414060,68.242200,1.379880,68.320300,1.360350C68.359400,1.350590,68.413100,1.340820,68.481400,1.331050C68.549800,1.311520,68.618200,1.311520,68.686500,1.331050C68.764600,1.340820,68.833000,1.365230,68.891600,1.404300C68.960000,1.443360,69.008800,1.506840,69.038100,1.594730C69.067400,1.663090,69.126000,1.711910,69.213900,1.741210C69.301800,1.770510,69.375000,1.814450,69.433600,1.873050C69.462900,1.921870,69.487300,1.975590,69.506800,2.034180C69.536100,2.092770,69.541000,2.175780,69.521500,2.283200ZM90.468800,2.385740C90.419900,2.483400,90.371100,2.561520,90.322300,2.620120C90.283200,2.678710,90.249000,2.722660,90.219700,2.751950C90.180700,2.791020,90.146500,2.815430,90.117200,2.825200C90.039100,2.844730,89.882800,2.874020,89.648400,2.913090C89.414100,2.942380,89.096700,2.966800,88.696300,2.986330C88.403300,3.005860,88.002900,3.049800,87.495100,3.118160C86.987300,3.176760,86.406200,3.254880,85.752000,3.352540C85.107400,3.440430,84.404300,3.533200,83.642600,3.630860C82.880900,3.728520,82.089800,3.811520,81.269500,3.879880C81.191400,5.247070,81.132800,6.643550,81.093800,8.069340C81.064500,9.495120,81.040000,10.930700,81.020500,12.376000C81.001000,13.811500,80.981400,15.247100,80.961900,16.682600C80.952100,18.108400,80.932600,19.509800,80.903300,20.886700C80.903300,20.935500,80.883800,20.984400,80.844700,21.033200C80.805700,21.072300,80.776400,21.106400,80.756800,21.135700C80.708000,21.331100,80.620100,21.502000,80.493200,21.648400C80.366200,21.785200,80.234400,21.853500,80.097700,21.853500C79.687500,21.853500,79.370100,21.790000,79.145500,21.663100C78.930700,21.536100,78.745100,21.399400,78.588900,21.252900C78.520500,21.165000,78.452100,21.038100,78.383800,20.872100C78.325200,20.696300,78.271500,20.505900,78.222700,20.300800C78.173800,20.085900,78.129900,19.861300,78.090800,19.627000C78.051800,19.382800,78.027300,19.153300,78.017600,18.938500C77.998000,18.723600,77.983400,18.513700,77.973600,18.308600C77.963900,18.103500,77.959000,17.893600,77.959000,17.678700C77.959000,17.210000,77.973600,16.751000,78.002900,16.301800C78.032200,15.852500,78.056600,15.432600,78.076200,15.042000C78.085900,14.797900,78.100600,14.451200,78.120100,14.002000C78.149400,13.552700,78.183600,13.040000,78.222700,12.463900C78.261700,11.887700,78.305700,11.272500,78.354500,10.618200C78.403300,9.954100,78.461900,9.290040,78.530300,8.625980C78.608400,7.961910,78.691400,7.317380,78.779300,6.692380C78.867200,6.057620,78.964800,5.481450,79.072300,4.963870C79.121100,4.807620,79.165000,4.656250,79.204100,4.509770C79.243200,4.353520,79.277300,4.192380,79.306600,4.026370C78.408200,4.084960,77.529300,4.114260,76.669900,4.114260C75.566400,4.114260,74.516600,4.050780,73.520500,3.923830C72.524400,3.787110,71.674800,3.552730,70.971700,3.220700C70.883800,3.171880,70.835000,3.083980,70.825200,2.957030C70.805700,2.830080,70.766600,2.698240,70.708000,2.561520C70.629900,2.454100,70.600600,2.336910,70.620100,2.209960C70.639600,2.073240,70.649400,1.960940,70.649400,1.873050C70.639600,1.785160,70.668900,1.726560,70.737300,1.697270C70.795900,1.667970,70.922900,1.658200,71.118200,1.667970C71.303700,1.667970,71.562500,1.677730,71.894500,1.697270C72.236300,1.716800,72.680700,1.726560,73.227500,1.726560C73.637700,1.726560,74.106400,1.716800,74.633800,1.697270C75.161100,1.677730,75.761700,1.643550,76.435500,1.594730C76.767600,1.565430,77.246100,1.521480,77.871100,1.462890C78.505900,1.394530,79.218800,1.331050,80.009800,1.272460C80.810500,1.204100,81.660200,1.145510,82.558600,1.096680C83.457000,1.047850,84.345700,1.023440,85.224600,1.023440C85.556600,1.023440,85.927700,1.042970,86.337900,1.082030C86.748000,1.111330,87.153300,1.155270,87.553700,1.213870C87.963900,1.272460,88.339800,1.340820,88.681600,1.418950C89.033200,1.497070,89.321300,1.575200,89.545900,1.653320C89.692400,1.711910,89.780300,1.765630,89.809600,1.814450C89.838900,1.853520,89.848600,1.887700,89.838900,1.916990C89.838900,1.946290,89.834000,1.970700,89.824200,1.990230C89.814500,2.009770,89.838900,2.029300,89.897500,2.048830C89.956100,2.068360,90.019500,2.083010,90.087900,2.092770C90.156200,2.102540,90.219700,2.122070,90.278300,2.151370C90.336900,2.170900,90.385700,2.200200,90.424800,2.239260C90.463900,2.278320,90.478500,2.327150,90.468800,2.385740Z" transform="matrix(1 0 0 1 -45.60821461350574 -11.91125551850575)" filter="url(#eclqpjieoew2-filter)" fill="rgb(0,0,0)" fill-opacity="0.97" stroke="none" stroke-width="1"/><script><![CDATA[!function(t,n){"object"==typeof exports&&"undefined"!=typeof module?module.exports=n():"function"==typeof define&&define.amd?define(n):(t=t||self).__SVGATOR_PLAYER__=n()}(this,(function(){"use strict";function t(n){return(t="function"==typeof Symbol&&"symbol"==typeof Symbol.iterator?function(t){return typeof t}:function(t){return t&&"function"==typeof Symbol&&t.constructor===Symbol&&t!==Symbol.prototype?"symbol":typeof t})(n)}function n(t,n){if(!(t instanceof n))throw new TypeError("Cannot call a class as a function")}function r(t,n){for(var r=0;r<n.length;r++){var e=n[r];e.enumerable=e.enumerable||!1,e.configurable=!0,"value"in e&&(e.writable=!0),Object.defineProperty(t,e.key,e)}}function e(t,n,e){return n&&r(t.prototype,n),e&&r(t,e),t}var i=Math.abs;function u(t){return t}function o(t,n,r){var e=1-r;return 3*r*e*(t*e+n*r)+r*r*r}function a(){var t=arguments.length>0&&void 0!==arguments[0]?arguments[0]:0,n=arguments.length>1&&void 0!==arguments[1]?arguments[1]:0,r=arguments.length>2&&void 0!==arguments[2]?arguments[2]:1,e=arguments.length>3&&void 0!==arguments[3]?arguments[3]:1;return t<0||t>1||r<0||r>1?null:i(t-n)<=1e-5&&i(r-e)<=1e-5?u:function(u){if(u<=0)return t>0?u*n/t:0===n&&r>0?u*e/r:0;if(u>=1)return r<1?1+(u-1)*(e-1)/(r-1):1===r&&t<1?1+(u-1)*(n-1)/(t-1):1;for(var a,l=0,f=1;l<f;){var s=o(t,r,a=(l+f)/2);if(i(u-s)<1e-5)break;s<u?l=a:f=a}return o(n,e,a)}}function l(){return 1}function f(t){return 1===t?1:0}function s(){var t=arguments.length>0&&void 0!==arguments[0]?arguments[0]:1,n=arguments.length>1&&void 0!==arguments[1]?arguments[1]:0;if(1===t){if(0===n)return f;if(1===n)return l}var r=1/t;return function(t){return t>=1?1:(t+=n*r)-t%r}}function c(t){var n=arguments.length>1&&void 0!==arguments[1]?arguments[1]:2;if(Number.isInteger(t))return t;var r=Math.pow(10,n);return Math.round(t*r)/r}var v=Math.PI/180;function h(t,n,r){return t>=.5?r:n}function y(t,n,r){return 0===t||n===r?n:t*(r-n)+n}function d(t,n,r){var e=y(t,n,r);return e<=0?0:e}function g(t,n,r){return 0===t?n:1===t?r:{x:y(t,n.x,r.x),y:y(t,n.y,r.y)}}function m(t,n,r){return 0===t?n:1===t?r:{x:d(t,n.x,r.x),y:d(t,n.y,r.y)}}function p(t,n,r){var e=function(t,n,r){return Math.round(y(t,n,r))}(t,n,r);return e<=0?0:e>=255?255:e}function b(t,n,r){return 0===t?n:1===t?r:{r:p(t,n.r,r.r),g:p(t,n.g,r.g),b:p(t,n.b,r.b),a:y(t,null==n.a?1:n.a,null==r.a?1:r.a)}}function w(t,n,r){if(0===t)return n;if(1===t)return r;var e=n.length;if(e!==r.length)return h(t,n,r);for(var i=[],u=0;u<e;u++)i.push(b(t,n[u],r[u]));return i}function A(t,n,r){var e=n.length;if(e!==r.length)return h(t,n,r);for(var i=new Array(e),u=0;u<e;u++)i[u]=y(t,n[u],r[u]);return i}function x(t,n){for(var r=[],e=0;e<t;e++)r.push(n);return r}function k(t,n){if(--n<=0)return t;var r=(t=Object.assign([],t)).length;do{for(var e=0;e<r;e++)t.push(t[e])}while(--n>0);return t}var S=/\.0+$/g;function _(t){return Number.isInteger(t)?t+"":t.toFixed(6).replace(S,"")}function M(t){var n=arguments.length>1&&void 0!==arguments[1]?arguments[1]:" ";return t&&t.length?t.map(_).join(n):""}function I(t){return _(t.x)+","+_(t.y)}function E(t){return t?null==t.a||t.a>=1?"rgb("+t.r+","+t.g+","+t.b+")":"rgba("+t.r+","+t.g+","+t.b+","+t.a+")":"transparent"}var F={f:null,i:m,u:function(t,n){return function(r){var e=n(r);t.setAttribute("rx",_(e.x)),t.setAttribute("ry",_(e.y))}}},B={f:null,i:function(t,n,r){return 0===t?n:1===t?r:{width:d(t,n.width,r.width),height:d(t,n.height,r.height)}},u:function(t,n){return function(r){var e=n(r);t.setAttribute("width",_(e.width)),t.setAttribute("height",_(e.height))}}},j=Math.sin,q=Math.cos,P=Math.acos,O=Math.asin,z=Math.tan,L=Math.atan2,C=Math.PI/180,R=180/Math.PI,T=Math.sqrt,V=function(){function t(){var r=arguments.length>0&&void 0!==arguments[0]?arguments[0]:1,e=arguments.length>1&&void 0!==arguments[1]?arguments[1]:0,i=arguments.length>2&&void 0!==arguments[2]?arguments[2]:0,u=arguments.length>3&&void 0!==arguments[3]?arguments[3]:1,o=arguments.length>4&&void 0!==arguments[4]?arguments[4]:0,a=arguments.length>5&&void 0!==arguments[5]?arguments[5]:0;n(this,t),this.m=[r,e,i,u,o,a],this.i=null,this.w=null,this.s=null}return e(t,[{key:"point",value:function(t,n){var r=this.m;return{x:r[0]*t+r[2]*n+r[4],y:r[1]*t+r[3]*n+r[5]}}},{key:"translateSelf",value:function(){var t=arguments.length>0&&void 0!==arguments[0]?arguments[0]:0,n=arguments.length>1&&void 0!==arguments[1]?arguments[1]:0;if(!t&&!n)return this;var r=this.m;return r[4]+=r[0]*t+r[2]*n,r[5]+=r[1]*t+r[3]*n,this.w=this.s=this.i=null,this}},{key:"rotateSelf",value:function(){var t=arguments.length>0&&void 0!==arguments[0]?arguments[0]:0;if(t%=360){var n=j(t*=C),r=q(t),e=this.m,i=e[0],u=e[1];e[0]=i*r+e[2]*n,e[1]=u*r+e[3]*n,e[2]=e[2]*r-i*n,e[3]=e[3]*r-u*n,this.w=this.s=this.i=null}return this}},{key:"scaleSelf",value:function(){var t=arguments.length>0&&void 0!==arguments[0]?arguments[0]:1,n=arguments.length>1&&void 0!==arguments[1]?arguments[1]:1;if(1!==t||1!==n){var r=this.m;r[0]*=t,r[1]*=t,r[2]*=n,r[3]*=n,this.w=this.s=this.i=null}return this}},{key:"skewSelf",value:function(t,n){if(n%=360,(t%=360)||n){var r=this.m,e=r[0],i=r[1],u=r[2],o=r[3];t&&(t=z(t*C),r[2]+=e*t,r[3]+=i*t),n&&(n=z(n*C),r[0]+=u*n,r[1]+=o*n),this.w=this.s=this.i=null}return this}},{key:"resetSelf",value:function(){var t=arguments.length>0&&void 0!==arguments[0]?arguments[0]:1,n=arguments.length>1&&void 0!==arguments[1]?arguments[1]:0,r=arguments.length>2&&void 0!==arguments[2]?arguments[2]:0,e=arguments.length>3&&void 0!==arguments[3]?arguments[3]:1,i=arguments.length>4&&void 0!==arguments[4]?arguments[4]:0,u=arguments.length>5&&void 0!==arguments[5]?arguments[5]:0,o=this.m;return o[0]=t,o[1]=n,o[2]=r,o[3]=e,o[4]=i,o[5]=u,this.w=this.s=this.i=null,this}},{key:"recomposeSelf",value:function(){var t=arguments.length>0&&void 0!==arguments[0]?arguments[0]:null,n=arguments.length>1&&void 0!==arguments[1]?arguments[1]:null,r=arguments.length>2&&void 0!==arguments[2]?arguments[2]:null,e=arguments.length>3&&void 0!==arguments[3]?arguments[3]:null,i=arguments.length>4&&void 0!==arguments[4]?arguments[4]:null;return this.isIdentity||this.resetSelf(),t&&(t.x||t.y)&&this.translateSelf(t.x,t.y),n&&this.rotateSelf(n),r&&(r.x&&this.skewSelf(r.x,0),r.y&&this.skewSelf(0,r.y)),!e||1===e.x&&1===e.y||this.scaleSelf(e.x,e.y),i&&(i.x||i.y)&&this.translateSelf(i.x,i.y),this}},{key:"decompose",value:function(){var t=arguments.length>0&&void 0!==arguments[0]?arguments[0]:0,n=arguments.length>1&&void 0!==arguments[1]?arguments[1]:0,r=this.m,e=r[0]*r[0]+r[1]*r[1],i=[[r[0],r[1]],[r[2],r[3]]],u=T(e);if(0===u)return{origin:{x:r[4],y:r[5]},translate:{x:t,y:n},scale:{x:0,y:0},skew:{x:0,y:0},rotate:0};i[0][0]/=u,i[0][1]/=u;var o=r[0]*r[3]-r[1]*r[2]<0;o&&(u=-u);var a=i[0][0]*i[1][0]+i[0][1]*i[1][1];i[1][0]-=i[0][0]*a,i[1][1]-=i[0][1]*a;var l=T(i[1][0]*i[1][0]+i[1][1]*i[1][1]);if(0===l)return{origin:{x:r[4],y:r[5]},translate:{x:t,y:n},scale:{x:u,y:0},skew:{x:0,y:0},rotate:0};i[1][0]/=l,i[1][1]/=l,a/=l;var f=0;return i[1][1]<0?(f=P(i[1][1])*R,i[0][1]<0&&(f=360-f)):f=O(i[0][1])*R,o&&(f=-f),a=L(a,T(i[0][0]*i[0][0]+i[0][1]*i[0][1]))*R,{origin:{x:r[4],y:r[5]},translate:{x:t,y:n},scale:{x:u,y:l},skew:{x:a,y:0},rotate:f}}},{key:"toString",value:function(){return null===this.s&&(this.s="matrix("+this.m.map(N).join(" ")+")"),this.s}},{key:"determinant",get:function(){var t=this.m;return t[0]*t[3]-t[1]*t[2]}},{key:"isIdentity",get:function(){if(null===this.i){var t=this.m;this.i=1===t[0]&&0===t[1]&&0===t[2]&&1===t[3]&&0===t[4]&&0===t[5]}return this.i}}]),t}(),D=/\.0+$/;function N(t){return Number.isInteger(t)?t:t.toFixed(14).replace(D,"")}Object.freeze({M:2,L:2,Z:0,H:1,V:1,C:6,Q:4,T:2,S:4,A:7});function G(t,n,r){return t+(n-t)*r}function $(t,n,r){var e=arguments.length>3&&void 0!==arguments[3]&&arguments[3],i={x:G(t.x,n.x,r),y:G(t.y,n.y,r)};return e&&(i.a=H(t,n)),i}function H(t,n){return Math.atan2(n.y-t.y,n.x-t.x)}function Q(t,n,r,e){var i=1-e;return i*i*t+2*i*e*n+e*e*r}function U(t,n,r,e){return 2*(1-e)*(n-t)+2*e*(r-n)}function Y(t,n,r,e){var i=arguments.length>4&&void 0!==arguments[4]&&arguments[4],u={x:Q(t.x,n.x,r.x,e),y:Q(t.y,n.y,r.y,e)};return i&&(u.a=Z(t,n,r,e)),u}function Z(t,n,r,e){return Math.atan2(U(t.y,n.y,r.y,e),U(t.x,n.x,r.x,e))}function J(t,n,r,e,i){var u=i*i;return i*u*(e-t+3*(n-r))+3*u*(t+r-2*n)+3*i*(n-t)+t}function K(t,n,r,e,i){var u=1-i;return 3*(u*u*(n-t)+2*u*i*(r-n)+i*i*(e-r))}function W(t,n,r,e,i){var u=arguments.length>5&&void 0!==arguments[5]&&arguments[5],o={x:J(t.x,n.x,r.x,e.x,i),y:J(t.y,n.y,r.y,e.y,i)};return u&&(o.a=X(t,n,r,e,i)),o}function X(t,n,r,e,i){return Math.atan2(K(t.y,n.y,r.y,e.y,i),K(t.x,n.x,r.x,e.x,i))}function tt(t,n,r){var e=arguments.length>3&&void 0!==arguments[3]&&arguments[3];if(rt(n)){if(et(r))return Y(n,r.start,r,t,e)}else if(rt(r)){if(n.end)return Y(n,n.end,r,t,e)}else{if(n.end)return r.start?W(n,n.end,r.start,r,t,e):Y(n,n.end,r,t,e);if(r.start)return Y(n,r.start,r,t,e)}return $(n,r,t,e)}function nt(t,n,r){var e=tt(t,n,r,!0);return e.a=function(t){var n=arguments.length>1&&void 0!==arguments[1]&&arguments[1];return n?t+Math.PI:t}(e.a)/v,e}function rt(t){return!t.type||"corner"===t.type}function et(t){return null!=t.start&&!rt(t)}var it=new V;var ut={f:function(t){return t?t.join(" "):""},i:function(n,r,e){if(0===n)return r;if(1===n)return e;var i=r.length;if(i!==e.length)return h(n,r,e);for(var u,o=new Array(i),a=0;a<i;a++){if((u=t(r[a]))!==t(e[a]))return h(n,r,e);if("number"===u)o[a]=y(n,r[a],e[a]);else{if(r[a]!==e[a])return h(n,r,e);o[a]=r[a]}}return o}},ot={f:null,i:A,u:function(t,n){return function(r){var e=n(r);t.setAttribute("x1",_(e[0])),t.setAttribute("y1",_(e[1])),t.setAttribute("x2",_(e[2])),t.setAttribute("y2",_(e[3]))}}},at={f:_,i:y},lt={f:_,i:function(t,n,r){var e=y(t,n,r);return e<=0?0:e>=1?1:e}},ft={f:M,i:function(t,n,r){var e,i,u,o=n.length,a=r.length;if(o!==a)if(0===o)n=x(o=a,0);else if(0===a)a=o,r=x(o,0);else{var l=(u=(e=o)*(i=a)/function(t,n){for(var r;n;)r=n,n=t%n,t=r;return t||1}(e,i))<0?-u:u;n=k(n,Math.floor(l/o)),r=k(r,Math.floor(l/a)),o=a=l}for(var f=[],s=0;s<o;s++)f.push(c(d(t,n[s],r[s]),6));return f}};function st(t,n,r,e,i,u,o,a){return n=function(t,n,r){for(var e,i,u,o=t.length-1,a={},l=0;l<=o;l++)(e=t[l]).e&&(e.e=n(e.e)),e.v&&"g"===(i=e.v).t&&i.r&&(u=r.getElementById(i.r))&&(a[i.r]=u.querySelectorAll("stop"));return a}(t,e,a),function(e){var i,u=r(e,t,ct);return u?"c"===u.t?E(u.v):"g"===u.t?(n[u.r]&&function(t,n){for(var r=0,e=t.length;r<e;r++)t[r].setAttribute("stop-color",E(n[r]))}(n[u.r],u.v),(i=u.r)?"url(#"+i+")":"none"):"none":"none"}}function ct(t,n,r){if(0===t)return n;if(1===t)return r;if(n&&r){var e=n.t;if(e===r.t)switch(n.t){case"c":return{t:e,v:b(t,n.v,r.v)};case"g":if(n.r===r.r)return{t:e,v:w(t,n.v,r.v),r:n.r}}}return h(t,n,r)}var vt={blur:m,brightness:d,contrast:d,"drop-shadow":function(t,n,r){return 0===t?n:1===t?r:{blur:m(t,n.blur,r.blur),offset:g(t,n.offset,r.offset),color:b(t,n.color,r.color)}},grayscale:d,"hue-rotate":y,invert:d,opacity:d,saturate:d,sepia:d};function ht(t,n,r){if(0===t)return n;if(1===t)return r;var e=n.length;if(e!==r.length)return h(t,n,r);for(var i,u=[],o=0;o<e;o++){if(n[o].type!==r[o].type)return n;if(!(i=vt[n[o].type]))return h(t,n,r);u.push({type:n.type,value:i(t,n[o].value,r[o].value)})}return u}var yt={blur:function(t){return t?function(n){t.setAttribute("stdDeviation",I(n))}:null},brightness:function(t,n,r){return(t=gt(r,n))?function(n){n=_(n),t.map((function(t){return t.setAttribute("slope",n)}))}:null},contrast:function(t,n,r){return(t=gt(r,n))?function(n){var r=_((1-n)/2);n=_(n),t.map((function(t){t.setAttribute("slope",n),t.setAttribute("intercept",r)}))}:null},"drop-shadow":function(t,n,r){var e=r.getElementById(n+"-blur");if(!e)return null;var i=r.getElementById(n+"-offset");if(!i)return null;var u=r.getElementById(n+"-flood");return u?function(t){e.setAttribute("stdDeviation",I(t.blur)),i.setAttribute("dx",_(t.offset.x)),i.setAttribute("dy",_(t.offset.y)),u.setAttribute("flood-color",E(t.color))}:null},grayscale:function(t){return t?function(n){t.setAttribute("values",M(function(t){return[.2126+.7874*(t=1-t),.7152-.7152*t,.0722-.0722*t,0,0,.2126-.2126*t,.7152+.2848*t,.0722-.0722*t,0,0,.2126-.2126*t,.7152-.7152*t,.0722+.9278*t,0,0,0,0,0,1,0]}(n)))}:null},"hue-rotate":function(t){return t?function(n){return t.setAttribute("values",_(n))}:null},invert:function(t,n,r){return(t=gt(r,n))?function(n){n=_(n)+" "+_(1-n),t.map((function(t){return t.setAttribute("tableValues",n)}))}:null},opacity:function(t,n,r){return(t=r.getElementById(n+"-A"))?function(n){return t.setAttribute("tableValues","0 "+_(n))}:null},saturate:function(t){return t?function(n){return t.setAttribute("values",_(n))}:null},sepia:function(t){return t?function(n){return t.setAttribute("values",M(function(t){return[.393+.607*(t=1-t),.769-.769*t,.189-.189*t,0,0,.349-.349*t,.686+.314*t,.168-.168*t,0,0,.272-.272*t,.534-.534*t,.131+.869*t,0,0,0,0,0,1,0]}(n)))}:null}};var dt=["R","G","B"];function gt(t,n){var r=dt.map((function(r){return t.getElementById(n+"-"+r)||null}));return-1!==r.indexOf(null)?null:r}var mt={fill:st,"fill-opacity":lt,stroke:st,"stroke-opacity":lt,"stroke-width":at,"stroke-dashoffset":{f:_,i:y},"stroke-dasharray":ft,opacity:lt,transform:function(n,r,e,i){if(!(n=function(n,r){if(!n||"object"!==t(n))return null;var e=!1;for(var i in n)n.hasOwnProperty(i)&&(n[i]&&n[i].length?(n[i].forEach((function(t){t.e&&(t.e=r(t.e))})),e=!0):delete n[i]);return e?n:null}(n,i)))return null;var u=function(t,i,u){var o=arguments.length>3&&void 0!==arguments[3]?arguments[3]:null;return n[t]?e(i,n[t],u):r&&r[t]?r[t]:o};return r&&r.a&&n.o?function(t){var r=e(t,n.o,nt);return it.recomposeSelf(r,u("r",t,y,0)+r.a,u("k",t,g),u("s",t,g),u("t",t,g)).toString()}:function(t){return it.recomposeSelf(u("o",t,tt,null),u("r",t,y,0),u("k",t,g),u("s",t,g),u("t",t,g)).toString()}},"#filter":function(t,n,r,e,i,u,o,a){if(!n.items||!t||!t.length)return null;var l=function(t,n){var r=(t=t.map((function(t){return t&&yt[t[0]]?(n.getElementById(t[1]),yt[t[0]](n.getElementById(t[1]),t[1],n)):null}))).length;return function(n){for(var e=0;e<r;e++)t[e]&&t[e](n[e].value)}}(n.items,a);return l?(t=function(t,n){return t.map((function(t){return t.e=n(t.e),t}))}(t,e),function(n){l(r(n,t,ht))}):null},"#line":ot,points:{f:M,i:A},d:ut,r:at,"#size":B,"#radius":F,_:function(t,n){if(Array.isArray(t))for(var r=0;r<t.length;r++)this[t[r]]=n;else this[t]=n}},pt=function(){function t(r){n(this,t),this.list=r,this.length=r.length}return e(t,[{key:"setAttribute",value:function(t,n){for(var r=this.list,e=0;e<this.length;e++)r[e].setAttribute(t,n)}},{key:"removeAttribute",value:function(t){for(var n=this.list,r=0;r<this.length;r++)n[r].removeAttribute(t)}},{key:"style",value:function(t,n){for(var r=this.list,e=0;e<this.length;e++)r[e].style[t]=n}}]),t}(),bt=/-./g,wt=function(t,n){return n.toUpperCase()};function At(t){return"function"==typeof t?t:h}function xt(t){return t?"function"==typeof t?t:Array.isArray(t)?function(t){var n=arguments.length>1&&void 0!==arguments[1]?arguments[1]:u;if(!Array.isArray(t))return n;switch(t.length){case 1:return s(t[0])||n;case 2:return s(t[0],t[1])||n;case 4:return a(t[0],t[1],t[2],t[3])||n}return n}(t,null):function(t,n){var r=arguments.length>2&&void 0!==arguments[2]?arguments[2]:u;switch(t){case"linear":return u;case"steps":return s(n.steps||1,n.jump||0)||r;case"bezier":case"cubic-bezier":return a(n.x1||0,n.y1||0,n.x2||0,n.y2||0)||r}return r}(t.type,t.value,null):null}function kt(t,n,r){var e=arguments.length>3&&void 0!==arguments[3]&&arguments[3],i=n.length-1;if(t<=n[0].t)return e?[0,0,n[0].v]:n[0].v;if(t>=n[i].t)return e?[i,1,n[i].v]:n[i].v;var u,o=n[0],a=null;for(u=1;u<=i;u++){if(!(t>n[u].t)){a=n[u];break}o=n[u]}return null==a?e?[i,1,n[i].v]:n[i].v:o.t===a.t?e?[u,1,a.v]:a.v:(t=(t-o.t)/(a.t-o.t),o.e&&(t=o.e(t)),e?[u,t,r(t,o.v,a.v)]:r(t,o.v,a.v))}function St(t,n){var r=arguments.length>2&&void 0!==arguments[2]?arguments[2]:null;return t&&t.length?"function"!=typeof n?null:("function"!=typeof r&&(r=null),function(e){var i=kt(e,t,n);return null!=i&&r&&(i=r(i)),i}):null}function _t(t,n){return t.t-n.t}function Mt(n,r,e,i,u){var o,a="@"===e[0],l="#"===e[0],f=mt[e],s=h;switch(a?(o=e.substr(1),e=o.replace(bt,wt)):l&&(e=e.substr(1)),t(f)){case"function":if(s=f(i,u,kt,xt,e,a,r,n),l)return s;break;case"string":s=St(i,At(f));break;case"object":if((s=St(i,At(f.i),f.f))&&"function"==typeof f.u)return f.u(r,s,e,a,n)}return s?function(t,n,r){var e=arguments.length>3&&void 0!==arguments[3]&&arguments[3];if(e)return t instanceof pt?function(e){return t.style(n,r(e))}:function(e){return t.style[n]=r(e)};if(Array.isArray(n)){var i=n.length;return function(e){var u=r(e);if(null==u)for(var o=0;o<i;o++)t[o].removeAttribute(n);else for(var a=0;a<i;a++)t[a].setAttribute(n,u)}}return function(e){var i=r(e);null==i?t.removeAttribute(n):t.setAttribute(n,i)}}(r,e,s,a):null}function It(n,r,e,i){if(!i||"object"!==t(i))return null;var u=null,o=null;return Array.isArray(i)?o=function(t){if(!t||!t.length)return null;for(var n=0;n<t.length;n++)t[n].e&&(t[n].e=xt(t[n].e));return t.sort(_t)}(i):(o=i.keys,u=i.data||null),o?Mt(n,r,e,o,u):null}function Et(t,n,r){if(!r)return null;var e=[];for(var i in r)if(r.hasOwnProperty(i)){var u=It(t,n,i,r[i]);u&&e.push(u)}return e.length?e:null}function Ft(t,n){if(!n.duration||n.duration<0)return null;var r=function(t,n){if(!n)return null;var r=[];if(Array.isArray(n))for(var e=n.length,i=0;i<e;i++){var u=n[i];if(2===u.length){var o=null;if("string"==typeof u[0])o=t.getElementById(u[0]);else if(Array.isArray(u[0])){o=[];for(var a=0;a<u[0].length;a++)if("string"==typeof u[0][a]){var l=t.getElementById(u[0][a]);l&&o.push(l)}o=o.length?1===o.length?o[0]:new pt(o):null}if(o){var f=Et(t,o,u[1]);f&&(r=r.concat(f))}}}else for(var s in n)if(n.hasOwnProperty(s)){var c=t.getElementById(s);if(c){var v=Et(t,c,n[s]);v&&(r=r.concat(v))}}return r.length?r:null}(t,n.elements);return r?function(t,n){var r=arguments.length>2&&void 0!==arguments[2]?arguments[2]:1/0,e=arguments.length>3&&void 0!==arguments[3]?arguments[3]:1,i=arguments.length>4&&void 0!==arguments[4]&&arguments[4],u=arguments.length>5&&void 0!==arguments[5]?arguments[5]:1,o=t.length,a=e>0?n:0;i&&r%2==0&&(a=n-a);var l=null;return function(f,s){var c=f%n,v=1+(f-c)/n;s*=e,i&&v%2==0&&(s=-s);var h=!1;if(v>r)c=a,h=!0,-1===u&&(c=e>0?0:n);else if(s<0&&(c=n-c),c===l)return!1;l=c;for(var y=0;y<o;y++)t[y](c);return h}}(r,n.duration,n.iterations||1/0,n.direction||1,!!n.alternate,n.fill||1):null}var Bt=function(){function t(r){var e=arguments.length>1&&void 0!==arguments[1]?arguments[1]:{};n(this,t),this._id=0,this._running=!1,this._animations=r,this.direction=e.direction||1,this.speed=e.speed||1,this.fps=e.fps||100,this.offset=e.offset||0}return e(t,[{key:"_start",value:function(){var t=this,n=arguments.length>0&&void 0!==arguments[0]?arguments[0]:0,r=-1/0,e=null,i={},u=function u(o){t._running=!0,null==e&&(e=o);var a=Math.round((o-e+n)*t.speed),l=t.fps?1e3/t.fps:0;if(a>r+l){t.offset=a,r=a;for(var f=t._animations,s=f.length,c=0,v=0;v<s;v++)i[v]?c++:(i[v]=f[v](a,t.direction),i[v]&&c++);if(c===s)return void t._stop()}t._id=window.requestAnimationFrame(u)};this._id=window.requestAnimationFrame(u)}},{key:"_stop",value:function(){this._id&&window.cancelAnimationFrame(this._id),this._running=!1}},{key:"play",value:function(){this._running||this._start(this.offset)}},{key:"stop",value:function(){this._stop(),this.offset=0;var t=this.direction,n=this._animations;requestAnimationFrame((function(){for(var r=0;r<n.length;r++)n[r](0,t)}))}},{key:"restart",value:function(){this._stop(),this.offset=0,this._start()}},{key:"pause",value:function(){this._stop()}},{key:"reverse",value:function(){this.direction=-this.direction}}],[{key:"build",value:function(n){if(!(n=function(t){if(!t||!t.root||!Array.isArray(t.animations))return null;var n=window.document.getElementById(t.root);if(!n)return null;var r=t.animations.map((function(t){return Ft(n,t)})).filter((function(t){return!!t}));return r.length?{element:n,animations:r,options:t.options||void 0}:null}(n)))return null;var r=n.element,e=n.options||{},i=new t(n.animations,n.options);return function(t,n,r){var e=arguments.length>3&&void 0!==arguments[3]?arguments[3]:null;if("click"===r){var i=function r(){n.removeEventListener("click",r),t.play()};return void n.addEventListener("click",i)}if("hover"===r)return n.addEventListener("mouseenter",(function(){return t.play()})),void n.addEventListener("mouseleave","freeze"===e?function(){return t.pause()}:function(){return t.stop()});t.play()}(i,r,e.start,e.hover),i}}]),t}();return function(){for(var t=0,n=["ms","moz","webkit","o"],r=0;r<n.length&&!window.requestAnimationFrame;++r)window.requestAnimationFrame=window[n[r]+"RequestAnimationFrame"],window.cancelAnimationFrame=window[n[r]+"CancelAnimationFrame"]||window[n[r]+"CancelRequestAnimationFrame"];window.requestAnimationFrame||(window.requestAnimationFrame=function(n){var r=Date.now(),e=Math.max(0,16-(r-t)),i=window.setTimeout((function(){n(r+e)}),e);return t=r+e,i},window.cancelAnimationFrame=window.clearTimeout)}(),Bt}));
__SVGATOR_PLAYER__.build({"root":"eclqpjieoew1","animations":[{"duration":5000,"direction":1,"iterations":0,"fill":1,"alternate":true,"elements":{"eclqpjieoew2":{"transform":{"keys":{"o":[{"t":0,"v":{"x":-0.14824227,"y":-0.313281,"type":"corner"}},{"t":200,"v":{"x":45.357707085,"y":11.330670529999999,"type":"corner"}},{"t":870,"v":{"x":0.05175773,"y":-0.11328099999999997,"type":"corner"}},{"t":1400,"v":{"x":0.55,"y":0.55,"type":"corner"}},{"t":2000,"v":{"x":45.56173008,"y":11.534693520000001,"type":"corner"}},{"t":2500,"v":{"x":44.461730079999995,"y":10.434693520000001,"type":"corner"}},{"t":3000,"v":{"x":44.461730079999995,"y":10.834693520000002,"type":"corner"}},{"t":4000,"v":{"x":44.26173007999999,"y":10.834693520000002,"type":"corner"}},{"t":5000,"v":{"x":45.51173007999999,"y":11.484693520000002,"type":"corner"}}],"r":[{"t":500,"v":360},{"t":1700,"v":720},{"t":2500,"v":1080},{"t":4000,"v":1440}],"t":[{"t":200,"v":{"x":-45.45997234350575,"y":-11.597974518505746}},{"t":1400,"v":{"x":-45.459972348505744,"y":-11.597974518505746}}]}}}}}],"options":{"start":"load","hover":"restart"}})]]></script></svg>