<svg width="91" height="23" viewBox="0 0 91 23" fill="none" xmlns="http://www.w3.org/2000/svg">
<path d="M15.9668 21.5752C15.9668 21.6533 15.918 21.6973 15.8203 21.707C15.7227 21.707 15.6201 21.707 15.5127 21.707C15.4639 21.7168 15.415 21.7266 15.3662 21.7363C15.3174 21.7559 15.2637 21.7754 15.2051 21.7949C15.1563 21.8047 15.1074 21.834 15.0586 21.8828C15.0781 21.9805 15.083 22.0537 15.0732 22.1025C15.0732 22.1611 15.0732 22.2051 15.0732 22.2344L15.0586 22.293C15.0293 22.332 14.9707 22.3613 14.8828 22.3809C14.7949 22.4102 14.7021 22.4248 14.6045 22.4248C14.585 22.4248 14.5557 22.4199 14.5166 22.4102C14.4482 22.3906 14.3799 22.3418 14.3115 22.2637C14.1455 22.2148 13.9502 22.166 13.7256 22.1172C13.6084 22.0879 13.4814 22.0586 13.3447 22.0293C13.2373 22 13.1445 21.9219 13.0664 21.7949C12.9883 21.668 12.915 21.5215 12.8467 21.3555C12.7881 21.1797 12.7295 21.0039 12.6709 20.8281C12.6221 20.6426 12.5781 20.4814 12.5391 20.3447L11.1035 15.8184C10.8887 15.8184 10.6152 15.8232 10.2832 15.833C9.96094 15.833 9.61426 15.8379 9.24316 15.8477C8.87207 15.8477 8.49609 15.8574 8.11523 15.877C7.73438 15.8867 7.3877 15.8965 7.0752 15.9062L4.14551 16.0527L2.43164 20.5352C2.40234 20.584 2.3584 20.6816 2.2998 20.8281C2.25098 20.9746 2.19727 21.1309 2.13867 21.2969C2.08008 21.4531 2.02637 21.6045 1.97754 21.751C1.92871 21.8877 1.89941 21.9707 1.88965 22C1.87012 22.0781 1.81152 22.127 1.71387 22.1465C1.61621 22.166 1.5332 22.1855 1.46484 22.2051C1.40625 22.2246 1.35742 22.2783 1.31836 22.3662C1.2793 22.4541 1.2207 22.5127 1.14258 22.542C1.06445 22.5908 0.966797 22.5957 0.849609 22.5566C0.732422 22.5176 0.629883 22.4541 0.541992 22.3662C0.463867 22.2686 0.43457 22.1465 0.454102 22C0.473633 21.8438 0.483398 21.6826 0.483398 21.5166C0.483398 21.3506 0.478516 21.1943 0.46875 21.0479C0.46875 20.9014 0.493164 20.7598 0.541992 20.623C0.561523 20.5645 0.620117 20.3838 0.717773 20.0811C0.825195 19.7686 0.957031 19.3975 1.11328 18.9678C1.26953 18.5283 1.44043 18.0547 1.62598 17.5469C1.81152 17.0293 2.00195 16.5312 2.19727 16.0527C2.02148 16.0527 1.89941 16.0039 1.83105 15.9062C1.78223 15.8281 1.72363 15.7842 1.65527 15.7744C1.58691 15.7549 1.51367 15.7305 1.43555 15.7012C1.35742 15.6816 1.30371 15.6377 1.27441 15.5693C1.24512 15.501 1.24023 15.4424 1.25977 15.3936C1.2793 15.335 1.26465 15.2861 1.21582 15.2471C1.16699 15.208 1.14258 15.1201 1.14258 14.9834C1.14258 14.9248 1.18652 14.8711 1.27441 14.8223C1.37207 14.7637 1.48926 14.7148 1.62598 14.6758C1.7627 14.6367 1.91406 14.6025 2.08008 14.5732C2.25586 14.5439 2.42188 14.5195 2.57812 14.5C2.60742 14.5 2.6416 14.5 2.68066 14.5C2.72949 14.5 2.77832 14.4902 2.82715 14.4707C3.04199 13.9531 3.28613 13.3965 3.55957 12.8008C3.83301 12.1953 4.11133 11.5801 4.39453 10.9551C4.6875 10.3301 4.98047 9.70508 5.27344 9.08008C5.56641 8.45508 5.84473 7.86914 6.1084 7.32227C6.37207 6.76562 6.61133 6.25781 6.82617 5.79883C7.05078 5.33984 7.23633 4.95898 7.38281 4.65625C7.26562 4.29492 7.1582 3.96289 7.06055 3.66016C6.97266 3.35742 6.89453 3.09375 6.82617 2.86914C6.75781 2.64453 6.7041 2.46875 6.66504 2.3418C6.62598 2.20508 6.60645 2.12695 6.60645 2.10742C6.59668 2.08789 6.59668 2.06836 6.60645 2.04883C6.62598 2 6.6748 1.9707 6.75293 1.96094C6.6748 1.81445 6.63574 1.70703 6.63574 1.63867C6.63574 1.59961 6.64551 1.5752 6.66504 1.56543C6.68457 1.5459 6.7334 1.52637 6.81152 1.50684C6.88965 1.4873 6.97266 1.47266 7.06055 1.46289C7.14844 1.44336 7.23145 1.43359 7.30957 1.43359C7.3877 1.42383 7.44141 1.41895 7.4707 1.41895C7.48047 1.41895 7.50488 1.42383 7.54395 1.43359C7.60254 1.45312 7.68555 1.49707 7.79297 1.56543C7.80273 1.5166 7.8125 1.48242 7.82227 1.46289C7.8418 1.44336 7.86133 1.42383 7.88086 1.4043L7.9248 1.36035C7.9834 1.33105 8.04688 1.32617 8.11523 1.3457C8.18359 1.35547 8.24707 1.36035 8.30566 1.36035C8.36426 1.36035 8.40332 1.33594 8.42285 1.28711C8.45215 1.23828 8.51562 1.21387 8.61328 1.21387C8.74023 1.21387 8.84766 1.35059 8.93555 1.62402C8.94531 1.67285 9.01367 1.8584 9.14062 2.18066C9.26758 2.49316 9.42871 2.9082 9.62402 3.42578C9.81934 3.93359 10.0439 4.52441 10.2979 5.19824C10.5615 5.87207 10.835 6.58984 11.1182 7.35156C11.4014 8.10352 11.6846 8.88477 11.9678 9.69531C12.2607 10.4961 12.5391 11.2871 12.8027 12.0684C13.3496 13.6602 13.8086 15.0029 14.1797 16.0967C14.5508 17.1904 14.8486 18.084 15.0732 18.7773C15.3076 19.4707 15.4785 19.9883 15.5859 20.3301C15.7031 20.6719 15.7764 20.877 15.8057 20.9453C15.8545 21.1016 15.8936 21.2285 15.9229 21.3262C15.9521 21.4141 15.9668 21.4971 15.9668 21.5752ZM9.65332 11.5557C9.39941 10.833 9.12109 10.0225 8.81836 9.12402C8.52539 8.22559 8.2373 7.33691 7.9541 6.45801C7.78809 6.8877 7.58789 7.40527 7.35352 8.01074C7.11914 8.61621 6.87012 9.24121 6.60645 9.88574C6.35254 10.5303 6.10352 11.1602 5.85938 11.7754C5.61523 12.3906 5.40039 12.918 5.21484 13.3574L4.80469 14.3242L7.44141 14.1631C7.66602 14.1631 7.93457 14.1582 8.24707 14.1484C8.77441 14.1387 9.53613 14.124 10.5322 14.1045L9.65332 11.5557ZM21.2988 4.33398C21.2988 4.56836 21.2939 4.87109 21.2842 5.24219C21.2744 5.60352 21.2598 6.01855 21.2402 6.4873C21.2305 6.95605 21.2158 7.46387 21.1963 8.01074C21.1768 8.54785 21.1621 9.10938 21.1523 9.69531C21.4355 9.5293 21.7725 9.36816 22.1631 9.21191C22.5635 9.0459 22.9785 8.87012 23.4082 8.68457C23.8477 8.49902 24.2822 8.29883 24.7119 8.08398C25.1514 7.86914 25.5518 7.62988 25.9131 7.36621C26.8018 6.69238 27.4658 6.08203 27.9053 5.53516C28.3545 4.97852 28.5791 4.46582 28.5791 3.99707C28.5791 3.80176 28.5449 3.63574 28.4766 3.49902C28.418 3.3623 28.3447 3.24023 28.2568 3.13281C28.0322 3.00586 27.6953 2.89844 27.2461 2.81055C26.8066 2.72266 26.2646 2.67871 25.6201 2.67871C25.0146 2.67871 24.4043 2.72754 23.7891 2.8252C23.1836 2.91309 22.5977 3.03027 22.0312 3.17676C21.4648 3.31348 20.9326 3.46484 20.4346 3.63086C19.9463 3.79687 19.5117 3.95312 19.1309 4.09961C18.75 4.24609 18.4424 4.37793 18.208 4.49512C17.9736 4.60254 17.832 4.66602 17.7832 4.68555C17.7344 4.70508 17.6758 4.73926 17.6074 4.78809C17.5488 4.82715 17.4902 4.84668 17.4316 4.84668C17.3047 4.84668 17.2168 4.79785 17.168 4.7002C17.1191 4.60254 17.1045 4.5 17.124 4.39258C17.0459 4.36328 16.9824 4.30957 16.9336 4.23145C16.8848 4.14355 16.8457 4.05078 16.8164 3.95312C16.7871 3.85547 16.7676 3.7627 16.7578 3.6748C16.748 3.57715 16.7432 3.50391 16.7432 3.45508C16.7432 3.25977 16.8262 3.08887 16.9922 2.94238C17.168 2.78613 17.3926 2.64941 17.666 2.53223C17.7344 2.50293 17.8809 2.43457 18.1055 2.32715C18.3398 2.21973 18.6328 2.09766 18.9844 1.96094C19.3457 1.81445 19.751 1.66309 20.2002 1.50684C20.6494 1.35059 21.1279 1.20898 21.6357 1.08203C22.1436 0.945313 22.666 0.833008 23.2031 0.745117C23.7402 0.657227 24.2725 0.613281 24.7998 0.613281C25.1807 0.623047 25.5859 0.647461 26.0156 0.686523C26.4453 0.71582 26.8701 0.78418 27.29 0.891602C27.71 0.999023 28.1006 1.15039 28.4619 1.3457C28.833 1.54102 29.1455 1.80469 29.3994 2.13672C29.6729 2.35156 29.9121 2.64453 30.1172 3.01562C30.332 3.37695 30.4395 3.81641 30.4395 4.33398C30.4395 4.69531 30.4053 5.02246 30.3369 5.31543C30.2783 5.59863 30.2246 5.79883 30.1758 5.91602C29.9219 6.55078 29.5947 7.09766 29.1943 7.55664C28.8037 8.01562 28.3789 8.41113 27.9199 8.74316C27.4707 9.06543 27.0166 9.33887 26.5576 9.56348C26.0986 9.78809 25.6836 9.97363 25.3125 10.1201C25.7227 10.1201 26.1426 10.1396 26.5723 10.1787C27.0117 10.2178 27.4414 10.291 27.8613 10.3984C28.291 10.4961 28.7012 10.6426 29.0918 10.8379C29.4824 11.0332 29.8438 11.2822 30.1758 11.585C30.3906 11.8193 30.5859 12.0732 30.7617 12.3467C30.9082 12.5811 31.04 12.8594 31.1572 13.1816C31.2842 13.4941 31.3477 13.8359 31.3477 14.207C31.4062 14.4414 31.4355 14.71 31.4355 15.0127C31.4355 15.3545 31.4062 15.7354 31.3477 16.1553C31.2988 16.5264 31.1768 16.9609 30.9814 17.459C30.7861 17.957 30.4834 18.4697 30.0732 18.9971C29.6631 19.5244 29.126 20.042 28.4619 20.5498C27.8076 21.0479 26.9873 21.4824 26.001 21.8535C25.3857 22.0977 24.8242 22.2734 24.3164 22.3809C23.8086 22.4883 23.3496 22.542 22.9395 22.542C22.7441 22.542 22.5293 22.5225 22.2949 22.4834C22.0703 22.4443 21.8555 22.3857 21.6504 22.3076C21.4551 22.2393 21.2891 22.1514 21.1523 22.0439C21.0254 21.9365 20.9619 21.8096 20.9619 21.6631C20.9619 21.585 20.9375 21.5312 20.8887 21.502C20.8398 21.4629 20.7861 21.4189 20.7275 21.3701C20.6787 21.5361 20.6201 21.668 20.5518 21.7656C20.4932 21.8633 20.4297 21.9414 20.3613 22C20.2832 22.0684 20.2051 22.1172 20.127 22.1465C20.0879 22.1465 20.0537 22.1367 20.0244 22.1172C19.9658 22.1074 19.9219 22.0684 19.8926 22C19.8535 22.0781 19.7998 22.1562 19.7314 22.2344C19.6729 22.3223 19.6143 22.3662 19.5557 22.3662C19.5264 22.3662 19.4824 22.3613 19.4238 22.3516C19.375 22.3516 19.3213 22.2881 19.2627 22.1611C19.2139 22.0342 19.1602 21.8193 19.1016 21.5166C19.0527 21.2041 19.0039 20.7402 18.9551 20.125C18.916 19.5 18.8818 18.6943 18.8525 17.708C18.8232 16.7217 18.8086 15.4912 18.8086 14.0166C18.8086 13.4209 18.8086 12.7959 18.8086 12.1416C18.8086 11.4775 18.8135 10.8281 18.8232 10.1934C18.833 9.54883 18.8477 8.93359 18.8672 8.34766C18.8965 7.75195 18.9307 7.21484 18.9697 6.73633C19.0186 6.24805 19.0771 5.84277 19.1455 5.52051C19.2139 5.18848 19.3018 4.96387 19.4092 4.84668C19.4873 4.74902 19.624 4.65625 19.8193 4.56836C20.0244 4.48047 20.2246 4.40234 20.4199 4.33398C20.6152 4.25586 20.7861 4.19727 20.9326 4.1582C21.0791 4.10938 21.1426 4.0752 21.123 4.05566C21.1719 4.0752 21.2109 4.10938 21.2402 4.1582C21.2793 4.19727 21.2988 4.25586 21.2988 4.33398ZM21.8115 11.8926C21.7432 11.8926 21.6406 11.8535 21.5039 11.7754C21.377 11.6973 21.2354 11.6045 21.0791 11.4971C21.0498 12.3174 21.0205 13.1377 20.9912 13.958C20.9619 14.7783 20.9326 15.5596 20.9033 16.3018C20.874 17.0342 20.8496 17.7129 20.8301 18.3379C20.8203 18.9629 20.8154 19.4854 20.8154 19.9053C20.9326 19.7197 21.0596 19.5439 21.1963 19.3779C21.333 19.2021 21.4648 19.0508 21.5918 18.9238C21.7285 18.7871 21.8506 18.6797 21.958 18.6016C22.0752 18.5234 22.1631 18.4844 22.2217 18.4844C22.2412 18.4844 22.2607 18.4893 22.2803 18.499C22.2998 18.5088 22.3438 18.5479 22.4121 18.6162C22.4316 18.6162 22.4512 18.6113 22.4707 18.6016C22.4902 18.5918 22.5098 18.5869 22.5293 18.5869C22.6074 18.5869 22.666 18.6211 22.7051 18.6895C22.7441 18.7578 22.7637 18.8896 22.7637 19.085C22.7637 19.1924 22.7344 19.2852 22.6758 19.3633C22.6172 19.4414 22.5488 19.5146 22.4707 19.583C22.4023 19.6416 22.3291 19.7002 22.251 19.7588C22.1826 19.8174 22.1338 19.876 22.1045 19.9346C22.1826 19.9541 22.2607 19.9688 22.3389 19.9785C22.417 19.9883 22.5391 19.9932 22.7051 19.9932C22.793 19.9834 22.9688 19.9688 23.2324 19.9492C23.5059 19.9199 23.8525 19.8467 24.2725 19.7295C24.6924 19.6025 25.1758 19.4072 25.7227 19.1436C26.2793 18.8799 26.8848 18.5039 27.5391 18.0156C28.0957 17.5957 28.5449 17.166 28.8867 16.7266C29.2285 16.2871 29.4873 15.877 29.6631 15.4961C29.8486 15.1055 29.9707 14.7637 30.0293 14.4707C30.0879 14.1777 30.1172 13.9678 30.1172 13.8408C30.0781 13.4795 29.9219 13.1523 29.6484 12.8594C29.3848 12.5566 29.0283 12.2979 28.5791 12.083C28.1396 11.8682 27.6221 11.7021 27.0264 11.585C26.4307 11.4678 25.791 11.4092 25.1074 11.4092C24.6484 11.4092 24.2432 11.4336 23.8916 11.4824C23.54 11.5312 23.2275 11.5898 22.9541 11.6582C22.6904 11.7168 22.4658 11.7705 22.2803 11.8193C22.0947 11.8682 21.9385 11.8926 21.8115 11.8926ZM52.251 9.40234C52.2607 9.50977 52.2656 9.6123 52.2656 9.70996C52.2656 9.80762 52.2656 9.91016 52.2656 10.0176C52.2656 11.0723 52.1191 12.1562 51.8262 13.2695C51.543 14.3828 51.1377 15.4424 50.6104 16.4482C50.083 17.4443 49.4434 18.3525 48.6914 19.1729C47.9395 19.9834 47.0996 20.6182 46.1719 21.0771C45.625 21.3408 45.0342 21.5361 44.3994 21.6631C43.7646 21.79 43.125 21.8535 42.4805 21.8535C42.0117 21.8535 41.5479 21.8193 41.0889 21.751C40.6396 21.6826 40.21 21.5947 39.7998 21.4873C38.8818 21.2236 38.0566 20.8184 37.3242 20.2715C36.6016 19.7148 35.9814 19.0752 35.4639 18.3525C34.9463 17.6299 34.5361 16.8535 34.2334 16.0234C33.9404 15.1836 33.7695 14.3535 33.7207 13.5332C33.7109 13.416 33.7012 13.2988 33.6914 13.1816C33.6914 13.0645 33.6914 12.9473 33.6914 12.8301C33.6914 11.9219 33.8037 11.0186 34.0283 10.1201C34.2529 9.21191 34.5557 8.34766 34.9365 7.52734C35.3271 6.69727 35.7764 5.9209 36.2842 5.19824C36.8018 4.47559 37.3486 3.84082 37.9248 3.29395C38.5107 2.74707 39.1064 2.30273 39.7119 1.96094C40.3271 1.60938 40.9277 1.38965 41.5137 1.30176C41.5918 1.29199 41.6406 1.28711 41.6602 1.28711C41.6895 1.27734 41.709 1.27246 41.7188 1.27246C41.7285 1.27246 41.7383 1.27734 41.748 1.28711C41.7578 1.28711 41.7822 1.28223 41.8213 1.27246C42.0459 1.25293 42.207 1.24805 42.3047 1.25781C42.4023 1.26758 42.4609 1.28223 42.4805 1.30176C42.5 1.33105 42.4951 1.35059 42.4658 1.36035C42.4463 1.37012 42.4121 1.38965 42.3633 1.41895C42.3438 1.41895 42.3193 1.42383 42.29 1.43359C42.2705 1.44336 42.2705 1.45801 42.29 1.47754C42.3096 1.52637 42.29 1.57031 42.2314 1.60938C42.1729 1.64844 42.1338 1.67773 42.1143 1.69727C42.0947 1.7168 42.0898 1.73145 42.0996 1.74121C42.1094 1.75098 42.1143 1.75586 42.1143 1.75586C42.124 1.75586 42.124 1.76074 42.1143 1.77051C42.1143 1.78027 42.0947 1.79492 42.0557 1.81445C41.9385 1.89258 41.8115 1.96582 41.6748 2.03418C41.5479 2.09277 41.416 2.16602 41.2793 2.25391C40.5762 2.76172 39.9561 3.41602 39.4189 4.2168C38.8818 5.01758 38.4326 5.90137 38.0713 6.86816C37.71 7.83496 37.4365 8.85547 37.251 9.92969C37.0654 10.9941 36.9727 12.0488 36.9727 13.0938C36.9727 13.2305 36.9727 13.3672 36.9727 13.5039C36.9727 13.6309 36.9775 13.7627 36.9873 13.8994C37.0068 14.3193 37.0752 14.7783 37.1924 15.2764C37.3096 15.7744 37.4658 16.2725 37.6611 16.7705C37.8662 17.2588 38.1104 17.7324 38.3936 18.1914C38.6865 18.6504 39.0186 19.0605 39.3896 19.4219C39.7607 19.7734 40.1758 20.0615 40.6348 20.2861C41.0938 20.501 41.5967 20.6133 42.1436 20.623C42.9639 20.6523 43.7012 20.5205 44.3555 20.2275C45.0098 19.9346 45.5859 19.5439 46.084 19.0557C46.5918 18.5576 47.0264 17.9912 47.3877 17.3564C47.749 16.7119 48.0469 16.0527 48.2812 15.3789C48.5254 14.6953 48.7158 14.0264 48.8525 13.3721C48.9893 12.708 49.082 12.1123 49.1309 11.585C49.1504 11.3799 49.165 11.1748 49.1748 10.9697C49.1846 10.7549 49.1895 10.5498 49.1895 10.3545C49.1895 9.10449 49.0234 7.99121 48.6914 7.01465C48.3691 6.03809 47.9346 5.21289 47.3877 4.53906C46.8506 3.86523 46.2305 3.34766 45.5273 2.98633C44.8242 2.61523 44.0967 2.41504 43.3447 2.38574C43.2666 2.37598 43.1738 2.37598 43.0664 2.38574C42.959 2.38574 42.8467 2.38574 42.7295 2.38574C42.6221 2.38574 42.5244 2.39062 42.4365 2.40039C42.3584 2.40039 42.3096 2.39551 42.29 2.38574C42.1631 2.32715 42.085 2.2832 42.0557 2.25391L42.0264 2.22461C42.0264 2.14648 42.0459 2.08789 42.085 2.04883L42.2314 1.97559C42.2803 1.95605 42.3242 1.93652 42.3633 1.91699C42.4121 1.8877 42.4512 1.86328 42.4805 1.84375C42.5 1.81445 42.4951 1.79492 42.4658 1.78516C42.4365 1.76563 42.4219 1.72168 42.4219 1.65332C42.4023 1.60449 42.417 1.56055 42.4658 1.52148C42.5146 1.47266 42.5488 1.44824 42.5684 1.44824C42.6562 1.41895 42.7148 1.4043 42.7441 1.4043C42.7832 1.39453 42.832 1.38965 42.8906 1.38965C42.9883 1.37988 43.0664 1.37012 43.125 1.36035C43.1934 1.34082 43.252 1.32129 43.3008 1.30176C43.3594 1.28223 43.4229 1.26758 43.4912 1.25781C43.5596 1.23828 43.6523 1.22363 43.7695 1.21387C43.8574 1.19434 43.9551 1.18457 44.0625 1.18457C44.1699 1.18457 44.3311 1.1748 44.5459 1.15527C45.3857 1.13574 46.1523 1.2334 46.8457 1.44824C47.5488 1.65332 48.1787 1.95117 48.7354 2.3418C49.3018 2.73242 49.7949 3.19629 50.2148 3.7334C50.6348 4.26074 50.9863 4.83691 51.2695 5.46191C51.5625 6.07715 51.7871 6.72168 51.9434 7.39551C52.1094 8.06934 52.2119 8.73828 52.251 9.40234ZM69.5215 2.2832C69.502 2.73242 69.4775 3.31836 69.4482 4.04102C69.4287 4.75391 69.4043 5.55469 69.375 6.44336C69.3555 7.32227 69.3311 8.25977 69.3018 9.25586C69.2822 10.252 69.2627 11.2529 69.2432 12.2588C69.2236 13.2646 69.209 14.2461 69.1992 15.2031C69.1895 16.1602 69.1846 17.0439 69.1846 17.8545C69.1846 18.7627 69.1895 19.5391 69.1992 20.1836C69.2188 20.8281 69.2432 21.2725 69.2725 21.5166C69.292 21.5947 69.292 21.6484 69.2725 21.6777C69.2627 21.707 69.2432 21.7266 69.2139 21.7363C69.1846 21.7461 69.1504 21.7559 69.1113 21.7656C69.0723 21.7656 69.0381 21.7754 69.0088 21.7949C68.9795 21.8145 68.9648 21.8438 68.9648 21.8828C68.9648 21.9219 68.9648 21.9609 68.9648 22C68.9648 22.0391 68.96 22.0732 68.9502 22.1025C68.9404 22.1318 68.9111 22.1465 68.8623 22.1465C68.5498 22.1465 68.3154 22.1172 68.1592 22.0586C68.0127 22 67.876 21.9023 67.749 21.7656C67.6025 21.6094 67.4707 21.4336 67.3535 21.2383C67.2461 21.043 67.1777 20.8184 67.1484 20.5645C67.1387 20.4766 67.124 20.3594 67.1045 20.2129C67.085 20.0664 67.0605 19.9053 67.0312 19.7295C67.0117 19.5439 66.9922 19.3438 66.9727 19.1289C66.9629 18.9141 66.9629 18.6895 66.9727 18.4551C66.9727 18.1816 66.9678 17.9131 66.958 17.6494C66.9482 17.3857 66.9336 17.127 66.9141 16.873C66.7969 17.1758 66.6602 17.5225 66.5039 17.9131C66.3477 18.2939 66.1572 18.6846 65.9326 19.085C65.708 19.4854 65.4492 19.876 65.1562 20.2568C64.873 20.6377 64.541 20.9795 64.1602 21.2822C63.7891 21.5752 63.3691 21.8145 62.9004 22C62.4316 22.1758 61.9092 22.2637 61.333 22.2637C60.874 22.2637 60.3906 22.2051 59.8828 22.0879C59.209 21.9121 58.6279 21.6533 58.1396 21.3115C57.6514 20.9697 57.2363 20.5547 56.8945 20.0664C56.5527 19.5684 56.2695 19.0068 56.0449 18.3818C55.8301 17.7471 55.6494 17.0537 55.5029 16.3018C55.4541 16.0283 55.415 15.7305 55.3857 15.4082C55.3662 15.0762 55.3564 14.7051 55.3564 14.2949C55.3564 13.4648 55.3955 12.542 55.4736 11.5264C55.5518 10.5107 55.6396 9.48047 55.7373 8.43555C55.835 7.39062 55.9277 6.37012 56.0156 5.37402C56.1035 4.36816 56.1572 3.46973 56.1768 2.67871C56.1768 2.4248 56.1963 2.22949 56.2354 2.09277C56.2842 1.94629 56.4111 1.83398 56.6162 1.75586C56.6553 1.74609 56.6943 1.75098 56.7334 1.77051C56.7725 1.78027 56.8115 1.79004 56.8506 1.7998C56.8896 1.7998 56.9336 1.79004 56.9824 1.77051C57.0312 1.75098 57.0801 1.71191 57.1289 1.65332C57.1875 1.56543 57.2412 1.52148 57.29 1.52148C57.3389 1.51172 57.3779 1.52637 57.4072 1.56543C57.4463 1.60449 57.4805 1.64844 57.5098 1.69727C57.5488 1.74609 57.583 1.77539 57.6123 1.78516C57.6514 1.80469 57.71 1.85352 57.7881 1.93164C57.876 2.00977 57.959 2.10254 58.0371 2.20996C58.1152 2.30762 58.1836 2.41016 58.2422 2.51758C58.3008 2.61523 58.3301 2.69824 58.3301 2.7666C58.3301 2.84473 58.3594 2.98633 58.418 3.19141C58.4766 3.39648 58.5156 3.68457 58.5352 4.05566C58.5645 4.53418 58.5645 5.11523 58.5352 5.79883C58.5156 6.47266 58.4814 7.2002 58.4326 7.98145C58.3838 8.75293 58.3301 9.54395 58.2715 10.3545C58.2129 11.165 58.1592 11.9463 58.1104 12.6982C58.0615 13.4502 58.0225 14.1436 57.9932 14.7783C57.9639 15.4033 57.9639 15.9209 57.9932 16.3311C58.0615 17.2686 58.1396 18.0059 58.2275 18.543C58.3252 19.0703 58.4277 19.3633 58.5352 19.4219C58.6426 19.4805 58.7695 19.5195 58.916 19.5391C59.0723 19.5586 59.2773 19.5684 59.5312 19.5684C60.957 19.5 62.1436 19.2363 63.0908 18.7773C64.0381 18.3086 64.7998 17.6201 65.376 16.7119C65.9619 15.8037 66.3916 14.6562 66.665 13.2695C66.9482 11.873 67.1289 10.2129 67.207 8.28906C67.2363 7.48828 67.2705 6.77539 67.3096 6.15039C67.3486 5.52539 67.3877 4.95898 67.4268 4.45117C67.4756 3.94336 67.5244 3.47949 67.5732 3.05957C67.6318 2.63965 67.6904 2.23438 67.749 1.84375C67.7686 1.78516 67.8174 1.73633 67.8955 1.69727C67.9736 1.6582 68.0469 1.62402 68.1152 1.59473C68.1641 1.5459 68.1885 1.50195 68.1885 1.46289C68.1982 1.41406 68.2422 1.37988 68.3203 1.36035C68.3594 1.35059 68.4131 1.34082 68.4814 1.33105C68.5498 1.31152 68.6182 1.31152 68.6865 1.33105C68.7646 1.34082 68.833 1.36523 68.8916 1.4043C68.96 1.44336 69.0088 1.50684 69.0381 1.59473C69.0674 1.66309 69.126 1.71191 69.2139 1.74121C69.3018 1.77051 69.375 1.81445 69.4336 1.87305C69.4629 1.92187 69.4873 1.97559 69.5068 2.03418C69.5361 2.09277 69.541 2.17578 69.5215 2.2832ZM90.4688 2.38574C90.4199 2.4834 90.3711 2.56152 90.3223 2.62012C90.2832 2.67871 90.249 2.72266 90.2197 2.75195C90.1807 2.79102 90.1465 2.81543 90.1172 2.8252C90.0391 2.84473 89.8828 2.87402 89.6484 2.91309C89.4141 2.94238 89.0967 2.9668 88.6963 2.98633C88.4033 3.00586 88.0029 3.0498 87.4951 3.11816C86.9873 3.17676 86.4062 3.25488 85.752 3.35254C85.1074 3.44043 84.4043 3.5332 83.6426 3.63086C82.8809 3.72852 82.0898 3.81152 81.2695 3.87988C81.1914 5.24707 81.1328 6.64355 81.0938 8.06934C81.0645 9.49512 81.04 10.9307 81.0205 12.376C81.001 13.8115 80.9814 15.2471 80.9619 16.6826C80.9521 18.1084 80.9326 19.5098 80.9033 20.8867C80.9033 20.9355 80.8838 20.9844 80.8447 21.0332C80.8057 21.0723 80.7764 21.1064 80.7568 21.1357C80.708 21.3311 80.6201 21.502 80.4932 21.6484C80.3662 21.7852 80.2344 21.8535 80.0977 21.8535C79.6875 21.8535 79.3701 21.79 79.1455 21.6631C78.9307 21.5361 78.7451 21.3994 78.5889 21.2529C78.5205 21.165 78.4521 21.0381 78.3838 20.8721C78.3252 20.6963 78.2715 20.5059 78.2227 20.3008C78.1738 20.0859 78.1299 19.8613 78.0908 19.627C78.0518 19.3828 78.0273 19.1533 78.0176 18.9385C77.998 18.7236 77.9834 18.5137 77.9736 18.3086C77.9639 18.1035 77.959 17.8936 77.959 17.6787C77.959 17.21 77.9736 16.751 78.0029 16.3018C78.0322 15.8525 78.0566 15.4326 78.0762 15.042C78.0859 14.7979 78.1006 14.4512 78.1201 14.002C78.1494 13.5527 78.1836 13.04 78.2227 12.4639C78.2617 11.8877 78.3057 11.2725 78.3545 10.6182C78.4033 9.9541 78.4619 9.29004 78.5303 8.62598C78.6084 7.96191 78.6914 7.31738 78.7793 6.69238C78.8672 6.05762 78.9648 5.48145 79.0723 4.96387C79.1211 4.80762 79.165 4.65625 79.2041 4.50977C79.2432 4.35352 79.2773 4.19238 79.3066 4.02637C78.4082 4.08496 77.5293 4.11426 76.6699 4.11426C75.5664 4.11426 74.5166 4.05078 73.5205 3.92383C72.5244 3.78711 71.6748 3.55273 70.9717 3.2207C70.8838 3.17188 70.835 3.08398 70.8252 2.95703C70.8057 2.83008 70.7666 2.69824 70.708 2.56152C70.6299 2.4541 70.6006 2.33691 70.6201 2.20996C70.6396 2.07324 70.6494 1.96094 70.6494 1.87305C70.6396 1.78516 70.6689 1.72656 70.7373 1.69727C70.7959 1.66797 70.9229 1.6582 71.1182 1.66797C71.3037 1.66797 71.5625 1.67773 71.8945 1.69727C72.2363 1.7168 72.6807 1.72656 73.2275 1.72656C73.6377 1.72656 74.1064 1.7168 74.6338 1.69727C75.1611 1.67773 75.7617 1.64355 76.4355 1.59473C76.7676 1.56543 77.2461 1.52148 77.8711 1.46289C78.5059 1.39453 79.2188 1.33105 80.0098 1.27246C80.8105 1.2041 81.6602 1.14551 82.5586 1.09668C83.457 1.04785 84.3457 1.02344 85.2246 1.02344C85.5566 1.02344 85.9277 1.04297 86.3379 1.08203C86.748 1.11133 87.1533 1.15527 87.5537 1.21387C87.9639 1.27246 88.3398 1.34082 88.6816 1.41895C89.0332 1.49707 89.3213 1.5752 89.5459 1.65332C89.6924 1.71191 89.7803 1.76563 89.8096 1.81445C89.8389 1.85352 89.8486 1.8877 89.8389 1.91699C89.8389 1.94629 89.834 1.9707 89.8242 1.99023C89.8145 2.00977 89.8389 2.0293 89.8975 2.04883C89.9561 2.06836 90.0195 2.08301 90.0879 2.09277C90.1562 2.10254 90.2197 2.12207 90.2783 2.15137C90.3369 2.1709 90.3857 2.2002 90.4248 2.23926C90.4639 2.27832 90.4785 2.32715 90.4688 2.38574Z" fill="black"/>
</svg>
