<svg width="127" height="23" viewBox="0 0 127 23" fill="none" xmlns="http://www.w3.org/2000/svg">
<path d="M11.1143 1.50684C11.4658 1.50684 11.8564 1.53613 12.2861 1.59473C12.7256 1.65332 13.1553 1.75098 13.5752 1.8877C14.0049 2.02441 14.4004 2.20508 14.7617 2.42969C15.123 2.64453 15.4014 2.91797 15.5967 3.25C15.8408 3.42578 16.0605 3.68457 16.2559 4.02637C16.4316 4.39746 16.5195 4.74902 16.5195 5.08105C16.5195 5.45215 16.4512 5.79395 16.3145 6.10645C16.1875 6.41895 16.0215 6.70215 15.8164 6.95605C15.6113 7.20996 15.3867 7.43457 15.1426 7.62988C14.9082 7.8252 14.6787 7.99121 14.4541 8.12793C14.2295 8.25488 14.0342 8.35254 13.8682 8.4209C13.7021 8.48926 13.5947 8.52344 13.5459 8.52344C13.4971 8.52344 13.4141 8.49902 13.2969 8.4502C13.1895 8.40137 13.082 8.34277 12.9746 8.27441C12.8477 8.20605 12.7109 8.12305 12.5645 8.02539C12.5645 8.01562 12.6572 7.95703 12.8428 7.84961C13.0283 7.74219 13.2334 7.57617 13.458 7.35156C13.6924 7.12695 13.9023 6.83398 14.0879 6.47266C14.2734 6.10156 14.3662 5.64746 14.3662 5.11035C14.2783 4.93457 14.1563 4.76855 14 4.6123C13.8438 4.44629 13.6436 4.30469 13.3994 4.1875C13.1553 4.06055 12.8574 3.95801 12.5059 3.87988C12.1641 3.80176 11.7539 3.7627 11.2754 3.7627C11.1094 3.7627 10.8555 3.78711 10.5137 3.83594C10.1719 3.88477 9.77637 3.97266 9.32715 4.09961C8.87793 4.22656 8.38965 4.40234 7.8623 4.62695C7.34473 4.8418 6.82227 5.12988 6.29492 5.49121C5.77734 5.84277 5.27441 6.27246 4.78613 6.78027C4.30762 7.27832 3.88281 7.86914 3.51172 8.55273C3.14062 9.22656 2.84277 10.0029 2.61816 10.8818C2.40332 11.7607 2.2959 12.7568 2.2959 13.8701C2.2959 14.4756 2.34473 15.0273 2.44238 15.5254C2.54004 16.0137 2.66699 16.458 2.82324 16.8584C2.98926 17.249 3.17969 17.6006 3.39453 17.9131C3.60938 18.2158 3.83398 18.4893 4.06836 18.7334C4.21484 18.8115 4.38086 18.9141 4.56641 19.041C4.75195 19.1582 5.00098 19.2754 5.31348 19.3926C5.63574 19.5 6.0459 19.5977 6.54395 19.6855C7.04199 19.7637 7.67676 19.8027 8.44824 19.8027C9.1123 19.8027 9.74219 19.7246 10.3379 19.5684C10.9434 19.4121 11.5049 19.2119 12.0225 18.9678C12.5498 18.7236 13.0332 18.4551 13.4727 18.1621C13.9121 17.8594 14.2979 17.5664 14.6299 17.2832C14.9717 16.9902 15.2549 16.7266 15.4795 16.4922C15.7041 16.248 15.8604 16.0625 15.9482 15.9355C16.1338 15.6816 16.2656 15.5205 16.3438 15.4521C16.4219 15.374 16.4902 15.335 16.5488 15.335C16.5977 15.335 16.6416 15.3398 16.6807 15.3496C16.7295 15.3594 16.7783 15.3643 16.8271 15.3643C16.915 15.3643 16.9688 15.3203 16.9883 15.2324C17.0078 15.1445 17.0322 15.1006 17.0615 15.1006C17.0811 15.1006 17.0957 15.1396 17.1055 15.2178C17.1152 15.2959 17.1201 15.3887 17.1201 15.4961C17.1201 15.5547 17.1152 15.6133 17.1055 15.6719C17.0957 15.7207 17.0908 15.7695 17.0908 15.8184C17.0811 15.877 17.0371 16.0771 16.959 16.4189C16.8906 16.751 16.7539 17.1514 16.5488 17.6201C16.3535 18.0791 16.0752 18.5723 15.7139 19.0996C15.3525 19.627 14.8838 20.1152 14.3076 20.5645C13.7412 21.0137 13.0479 21.3848 12.2275 21.6777C11.4072 21.9707 10.4404 22.1172 9.32715 22.1172C8.65332 22.1172 8.02832 22.0586 7.45215 21.9414C6.88574 21.8145 6.37305 21.6631 5.91406 21.4873C5.46484 21.3018 5.06445 21.1016 4.71289 20.8867C4.36133 20.6621 4.06836 20.4521 3.83398 20.2568C3.33594 19.9736 2.85742 19.6123 2.39844 19.1729C1.93945 18.7334 1.53418 18.2061 1.18262 17.5908C0.831055 16.9756 0.547852 16.2627 0.333008 15.4521C0.12793 14.6318 0.0253906 13.7041 0.0253906 12.6689C0.0253906 11.6338 0.162109 10.6377 0.435547 9.68066C0.708984 8.72363 1.08984 7.83008 1.57812 7C2.07617 6.16992 2.66699 5.41797 3.35059 4.74414C4.03418 4.07031 4.78613 3.49414 5.60645 3.01562C6.42676 2.53711 7.30078 2.16602 8.22852 1.90234C9.16602 1.63867 10.1279 1.50684 11.1143 1.50684ZM37.4814 9.40234C37.4912 9.50977 37.4961 9.6123 37.4961 9.70996C37.4961 9.80762 37.4961 9.91016 37.4961 10.0176C37.4961 11.0723 37.3496 12.1562 37.0566 13.2695C36.7734 14.3828 36.3682 15.4424 35.8408 16.4482C35.3135 17.4443 34.6738 18.3525 33.9219 19.1729C33.1699 19.9834 32.3301 20.6182 31.4023 21.0771C30.8555 21.3408 30.2646 21.5361 29.6299 21.6631C28.9951 21.79 28.3555 21.8535 27.7109 21.8535C27.2422 21.8535 26.7783 21.8193 26.3193 21.751C25.8701 21.6826 25.4404 21.5947 25.0303 21.4873C24.1123 21.2236 23.2871 20.8184 22.5547 20.2715C21.832 19.7148 21.2119 19.0752 20.6943 18.3525C20.1768 17.6299 19.7666 16.8535 19.4639 16.0234C19.1709 15.1836 19 14.3535 18.9512 13.5332C18.9414 13.416 18.9316 13.2988 18.9219 13.1816C18.9219 13.0645 18.9219 12.9473 18.9219 12.8301C18.9219 11.9219 19.0342 11.0186 19.2588 10.1201C19.4834 9.21191 19.7861 8.34766 20.167 7.52734C20.5576 6.69727 21.0068 5.9209 21.5146 5.19824C22.0322 4.47559 22.5791 3.84082 23.1553 3.29395C23.7412 2.74707 24.3369 2.30273 24.9424 1.96094C25.5576 1.60938 26.1582 1.38965 26.7441 1.30176C26.8223 1.29199 26.8711 1.28711 26.8906 1.28711C26.9199 1.27734 26.9395 1.27246 26.9492 1.27246C26.959 1.27246 26.9688 1.27734 26.9785 1.28711C26.9883 1.28711 27.0127 1.28223 27.0518 1.27246C27.2764 1.25293 27.4375 1.24805 27.5352 1.25781C27.6328 1.26758 27.6914 1.28223 27.7109 1.30176C27.7305 1.33105 27.7256 1.35059 27.6963 1.36035C27.6768 1.37012 27.6426 1.38965 27.5938 1.41895C27.5742 1.41895 27.5498 1.42383 27.5205 1.43359C27.501 1.44336 27.501 1.45801 27.5205 1.47754C27.54 1.52637 27.5205 1.57031 27.4619 1.60938C27.4033 1.64844 27.3643 1.67773 27.3447 1.69727C27.3252 1.7168 27.3203 1.73145 27.3301 1.74121C27.3398 1.75098 27.3447 1.75586 27.3447 1.75586C27.3545 1.75586 27.3545 1.76074 27.3447 1.77051C27.3447 1.78027 27.3252 1.79492 27.2861 1.81445C27.1689 1.89258 27.042 1.96582 26.9053 2.03418C26.7783 2.09277 26.6465 2.16602 26.5098 2.25391C25.8066 2.76172 25.1865 3.41602 24.6494 4.2168C24.1123 5.01758 23.6631 5.90137 23.3018 6.86816C22.9404 7.83496 22.667 8.85547 22.4814 9.92969C22.2959 10.9941 22.2031 12.0488 22.2031 13.0938C22.2031 13.2305 22.2031 13.3672 22.2031 13.5039C22.2031 13.6309 22.208 13.7627 22.2178 13.8994C22.2373 14.3193 22.3057 14.7783 22.4229 15.2764C22.54 15.7744 22.6963 16.2725 22.8916 16.7705C23.0967 17.2588 23.3408 17.7324 23.624 18.1914C23.917 18.6504 24.249 19.0605 24.6201 19.4219C24.9912 19.7734 25.4062 20.0615 25.8652 20.2861C26.3242 20.501 26.8271 20.6133 27.374 20.623C28.1943 20.6523 28.9316 20.5205 29.5859 20.2275C30.2402 19.9346 30.8164 19.5439 31.3145 19.0557C31.8223 18.5576 32.2568 17.9912 32.6182 17.3564C32.9795 16.7119 33.2773 16.0527 33.5117 15.3789C33.7559 14.6953 33.9463 14.0264 34.083 13.3721C34.2197 12.708 34.3125 12.1123 34.3613 11.585C34.3809 11.3799 34.3955 11.1748 34.4053 10.9697C34.415 10.7549 34.4199 10.5498 34.4199 10.3545C34.4199 9.10449 34.2539 7.99121 33.9219 7.01465C33.5996 6.03809 33.165 5.21289 32.6182 4.53906C32.0811 3.86523 31.4609 3.34766 30.7578 2.98633C30.0547 2.61523 29.3271 2.41504 28.5752 2.38574C28.4971 2.37598 28.4043 2.37598 28.2969 2.38574C28.1895 2.38574 28.0771 2.38574 27.96 2.38574C27.8525 2.38574 27.7549 2.39062 27.667 2.40039C27.5889 2.40039 27.54 2.39551 27.5205 2.38574C27.3936 2.32715 27.3154 2.2832 27.2861 2.25391L27.2568 2.22461C27.2568 2.14648 27.2764 2.08789 27.3154 2.04883L27.4619 1.97559C27.5107 1.95605 27.5547 1.93652 27.5938 1.91699C27.6426 1.8877 27.6816 1.86328 27.7109 1.84375C27.7305 1.81445 27.7256 1.79492 27.6963 1.78516C27.667 1.76563 27.6523 1.72168 27.6523 1.65332C27.6328 1.60449 27.6475 1.56055 27.6963 1.52148C27.7451 1.47266 27.7793 1.44824 27.7988 1.44824C27.8867 1.41895 27.9453 1.4043 27.9746 1.4043C28.0137 1.39453 28.0625 1.38965 28.1211 1.38965C28.2188 1.37988 28.2969 1.37012 28.3555 1.36035C28.4238 1.34082 28.4824 1.32129 28.5312 1.30176C28.5898 1.28223 28.6533 1.26758 28.7217 1.25781C28.79 1.23828 28.8828 1.22363 29 1.21387C29.0879 1.19434 29.1855 1.18457 29.293 1.18457C29.4004 1.18457 29.5615 1.1748 29.7764 1.15527C30.6162 1.13574 31.3828 1.2334 32.0762 1.44824C32.7793 1.65332 33.4092 1.95117 33.9658 2.3418C34.5322 2.73242 35.0254 3.19629 35.4453 3.7334C35.8652 4.26074 36.2168 4.83691 36.5 5.46191C36.793 6.07715 37.0176 6.72168 37.1738 7.39551C37.3398 8.06934 37.4424 8.73828 37.4814 9.40234ZM55.9531 1.44824C55.9727 1.62402 55.9824 1.99023 55.9824 2.54688C55.9824 3.09375 55.9727 3.76758 55.9531 4.56836C55.9434 5.36914 55.9238 6.2627 55.8945 7.24902C55.875 8.23535 55.8457 9.26074 55.8066 10.3252C55.7676 11.3799 55.7236 12.4443 55.6748 13.5186C55.6357 14.583 55.5918 15.5938 55.543 16.5508C55.4941 17.5078 55.4404 18.3818 55.3818 19.1729C55.3232 19.9541 55.2646 20.5889 55.2061 21.0771C55.2061 21.1357 55.1768 21.1895 55.1182 21.2383C55.0693 21.2773 55.0156 21.3506 54.957 21.458C54.8984 21.5557 54.8398 21.6094 54.7812 21.6191C54.7227 21.6289 54.6738 21.6289 54.6348 21.6191C54.5957 21.6094 54.5664 21.6094 54.5469 21.6191C54.5273 21.6289 54.5273 21.6777 54.5469 21.7656C54.5664 21.8242 54.5322 21.873 54.4443 21.9121C54.3662 21.9414 54.2979 21.9316 54.2393 21.8828C54.1611 21.8242 54.0684 21.7559 53.9609 21.6777C53.8535 21.5898 53.7852 21.5459 53.7559 21.5459C53.6973 21.5361 53.6777 21.5605 53.6973 21.6191C53.7168 21.6777 53.7412 21.7412 53.7705 21.8096C53.8096 21.8779 53.834 21.9414 53.8438 22C53.8633 22.0684 53.834 22.1074 53.7559 22.1172C53.6094 22.1367 53.4385 22.1025 53.2432 22.0146C53.0576 21.9268 52.8818 21.8242 52.7158 21.707C52.5791 21.5996 52.374 21.3604 52.1006 20.9893C51.8271 20.6182 51.5 20.1494 51.1191 19.583C50.748 19.0068 50.333 18.3525 49.874 17.6201C49.4248 16.8877 48.9561 16.1064 48.4678 15.2764C47.9795 14.4463 47.4814 13.5869 46.9736 12.6982C46.4658 11.8096 45.9727 10.9258 45.4941 10.0469C45.0156 9.1582 44.5566 8.29395 44.1172 7.4541C43.6777 6.61426 43.2822 5.83301 42.9307 5.11035C42.8916 5.52051 42.8574 6.08203 42.8281 6.79492C42.7988 7.49805 42.7695 8.28418 42.7402 9.15332C42.7207 10.0127 42.7012 10.9209 42.6816 11.8779C42.6621 12.835 42.6426 13.7773 42.623 14.7051C42.6133 15.6328 42.6035 16.5117 42.5938 17.3418C42.584 18.1719 42.5742 18.8848 42.5645 19.4805C42.5645 19.8711 42.5547 20.1494 42.5352 20.3154C42.5254 20.4717 42.5107 20.5791 42.4912 20.6377C42.4814 20.6963 42.4668 20.7402 42.4473 20.7695C42.4375 20.7891 42.4375 20.8574 42.4473 20.9746C42.4473 21.2871 42.4277 21.5752 42.3887 21.8389C42.3496 22.0928 42.2617 22.2344 42.125 22.2637C42.0469 22.3027 41.9736 22.2881 41.9053 22.2197C41.8369 22.1611 41.749 22.1465 41.6416 22.1758C41.6123 22.1758 41.5732 22.2002 41.5244 22.249C41.4854 22.3076 41.4121 22.3369 41.3047 22.3369C41.2168 22.3369 41.1094 22.2979 40.9824 22.2197C40.8555 22.1416 40.7725 22 40.7334 21.7949L40.6748 21.2529C40.665 21.1943 40.6504 21.1553 40.6309 21.1357C40.6211 21.1162 40.6064 21.0869 40.5869 21.0479C40.5771 21.0088 40.5674 20.9453 40.5576 20.8574C40.5479 20.7598 40.5381 20.5986 40.5283 20.374C40.5283 20.3154 40.5381 20.042 40.5576 19.5537C40.5771 19.0557 40.6016 18.416 40.6309 17.6348C40.6699 16.8535 40.709 15.9648 40.748 14.9688C40.7969 13.9727 40.8457 12.9424 40.8945 11.8779C40.9531 10.8135 41.0068 9.75391 41.0557 8.69922C41.1143 7.64453 41.1729 6.66797 41.2314 5.76953C41.2998 4.87109 41.3633 4.08984 41.4219 3.42578C41.4805 2.75195 41.5342 2.27344 41.583 1.99023C41.5342 1.87305 41.4951 1.76074 41.4658 1.65332C41.4463 1.5459 41.4365 1.44824 41.4365 1.36035C41.4268 1.30176 41.4316 1.2627 41.4512 1.24316C41.4805 1.22363 41.5146 1.20898 41.5537 1.19922C41.6025 1.17969 41.6514 1.16016 41.7002 1.14062C41.749 1.12109 41.7979 1.08203 41.8467 1.02344C41.8662 0.994141 41.8809 0.925781 41.8906 0.818359C41.9102 0.701172 41.9443 0.642578 41.9932 0.642578C42.1299 0.642578 42.2422 0.613281 42.3301 0.554688C42.418 0.486328 42.54 0.442383 42.6963 0.422852C42.6963 0.256836 42.7402 0.149414 42.8281 0.100586C42.8672 0.0712891 42.9111 0.0615234 42.96 0.0712891C43.126 0.0908203 43.2529 0.15918 43.3408 0.276367C43.4385 0.383789 43.5117 0.486328 43.5605 0.583984C43.6094 0.701172 43.6484 0.789062 43.6777 0.847656C43.707 0.90625 43.7461 0.989258 43.7949 1.09668C43.8633 1.2041 43.9951 1.43359 44.1904 1.78516C44.3955 2.13672 44.6445 2.57617 44.9375 3.10352C45.2305 3.63086 45.5625 4.22656 45.9336 4.89062C46.3047 5.54492 46.6904 6.24316 47.0908 6.98535C47.501 7.71777 47.9209 8.46973 48.3506 9.24121C48.7803 10.0029 49.2002 10.75 49.6104 11.4824C50.0205 12.2148 50.4111 12.9131 50.7822 13.5771C51.1533 14.2412 51.4902 14.8418 51.793 15.3789C52.0957 15.9062 52.3496 16.3506 52.5547 16.7119C52.7598 17.0635 52.9014 17.2979 52.9795 17.415C53.1748 17.6982 53.3115 17.8594 53.3896 17.8984C53.4678 17.9277 53.5605 17.835 53.668 17.6201C53.7168 17.5225 53.7607 17.2979 53.7998 16.9463C53.8486 16.585 53.8926 16.1309 53.9316 15.584C53.9805 15.0371 54.0195 14.417 54.0488 13.7236C54.0879 13.0303 54.1221 12.3027 54.1514 11.541C54.1807 10.7793 54.2051 9.99805 54.2246 9.19727C54.2441 8.39648 54.2539 7.62012 54.2539 6.86816C54.2637 6.11621 54.2637 5.4082 54.2539 4.74414C54.2539 4.08008 54.2393 3.49414 54.21 2.98633C54.2002 2.71289 54.1953 2.46875 54.1953 2.25391C54.1953 2.06836 54.2051 1.89746 54.2246 1.74121C54.2441 1.58496 54.2783 1.50684 54.3271 1.50684C54.3955 1.45801 54.4541 1.42871 54.5029 1.41895C54.5615 1.39941 54.6055 1.39453 54.6348 1.4043C54.6738 1.4043 54.708 1.40918 54.7373 1.41895C54.7666 1.42871 54.791 1.42871 54.8105 1.41895C54.8301 1.40918 54.8398 1.39453 54.8398 1.375C54.8398 1.35547 54.8398 1.33105 54.8398 1.30176C54.8496 1.27246 54.8643 1.24316 54.8838 1.21387C54.9033 1.1748 54.9473 1.14551 55.0156 1.12598C55.0938 1.09668 55.1523 1.08203 55.1914 1.08203C55.2402 1.07227 55.2793 1.07227 55.3086 1.08203C55.3379 1.0918 55.3623 1.10156 55.3818 1.11133C55.4014 1.12109 55.4307 1.11621 55.4697 1.09668C55.5479 1.05762 55.6113 1.02344 55.6602 0.994141C55.709 0.955078 55.7529 0.94043 55.792 0.950195C55.8311 0.959961 55.8604 1.00391 55.8799 1.08203C55.9092 1.15039 55.9336 1.27246 55.9531 1.44824ZM76.8711 2.38574C76.8223 2.4834 76.7734 2.56152 76.7246 2.62012C76.6855 2.67871 76.6514 2.72266 76.6221 2.75195C76.583 2.79102 76.5488 2.81543 76.5195 2.8252C76.4414 2.84473 76.2852 2.87402 76.0508 2.91309C75.8164 2.94238 75.499 2.9668 75.0986 2.98633C74.8057 3.00586 74.4053 3.0498 73.8975 3.11816C73.3896 3.17676 72.8086 3.25488 72.1543 3.35254C71.5098 3.44043 70.8066 3.5332 70.0449 3.63086C69.2832 3.72852 68.4922 3.81152 67.6719 3.87988C67.5938 5.24707 67.5352 6.64355 67.4961 8.06934C67.4668 9.49512 67.4424 10.9307 67.4229 12.376C67.4033 13.8115 67.3838 15.2471 67.3643 16.6826C67.3545 18.1084 67.335 19.5098 67.3057 20.8867C67.3057 20.9355 67.2861 20.9844 67.2471 21.0332C67.208 21.0723 67.1787 21.1064 67.1592 21.1357C67.1104 21.3311 67.0225 21.502 66.8955 21.6484C66.7686 21.7852 66.6367 21.8535 66.5 21.8535C66.0898 21.8535 65.7725 21.79 65.5479 21.6631C65.333 21.5361 65.1475 21.3994 64.9912 21.2529C64.9229 21.165 64.8545 21.0381 64.7861 20.8721C64.7275 20.6963 64.6738 20.5059 64.625 20.3008C64.5762 20.0859 64.5322 19.8613 64.4932 19.627C64.4541 19.3828 64.4297 19.1533 64.4199 18.9385C64.4004 18.7236 64.3857 18.5137 64.376 18.3086C64.3662 18.1035 64.3613 17.8936 64.3613 17.6787C64.3613 17.21 64.376 16.751 64.4053 16.3018C64.4346 15.8525 64.459 15.4326 64.4785 15.042C64.4883 14.7979 64.5029 14.4512 64.5225 14.002C64.5518 13.5527 64.5859 13.04 64.625 12.4639C64.6641 11.8877 64.708 11.2725 64.7568 10.6182C64.8057 9.9541 64.8643 9.29004 64.9326 8.62598C65.0107 7.96191 65.0938 7.31738 65.1816 6.69238C65.2695 6.05762 65.3672 5.48145 65.4746 4.96387C65.5234 4.80762 65.5674 4.65625 65.6064 4.50977C65.6455 4.35352 65.6797 4.19238 65.709 4.02637C64.8105 4.08496 63.9316 4.11426 63.0723 4.11426C61.9688 4.11426 60.9189 4.05078 59.9229 3.92383C58.9268 3.78711 58.0771 3.55273 57.374 3.2207C57.2861 3.17188 57.2373 3.08398 57.2275 2.95703C57.208 2.83008 57.1689 2.69824 57.1104 2.56152C57.0322 2.4541 57.0029 2.33691 57.0225 2.20996C57.042 2.07324 57.0518 1.96094 57.0518 1.87305C57.042 1.78516 57.0713 1.72656 57.1396 1.69727C57.1982 1.66797 57.3252 1.6582 57.5205 1.66797C57.7061 1.66797 57.9648 1.67773 58.2969 1.69727C58.6387 1.7168 59.083 1.72656 59.6299 1.72656C60.04 1.72656 60.5088 1.7168 61.0361 1.69727C61.5635 1.67773 62.1641 1.64355 62.8379 1.59473C63.1699 1.56543 63.6484 1.52148 64.2734 1.46289C64.9082 1.39453 65.6211 1.33105 66.4121 1.27246C67.2129 1.2041 68.0625 1.14551 68.9609 1.09668C69.8594 1.04785 70.748 1.02344 71.627 1.02344C71.959 1.02344 72.3301 1.04297 72.7402 1.08203C73.1504 1.11133 73.5557 1.15527 73.9561 1.21387C74.3662 1.27246 74.7422 1.34082 75.084 1.41895C75.4355 1.49707 75.7236 1.5752 75.9482 1.65332C76.0947 1.71191 76.1826 1.76563 76.2119 1.81445C76.2412 1.85352 76.251 1.8877 76.2412 1.91699C76.2412 1.94629 76.2363 1.9707 76.2266 1.99023C76.2168 2.00977 76.2412 2.0293 76.2998 2.04883C76.3584 2.06836 76.4219 2.08301 76.4902 2.09277C76.5586 2.10254 76.6221 2.12207 76.6807 2.15137C76.7393 2.1709 76.7881 2.2002 76.8271 2.23926C76.8662 2.27832 76.8809 2.32715 76.8711 2.38574ZM88.4727 21.5752C88.4727 21.6533 88.4238 21.6973 88.3262 21.707C88.2285 21.707 88.126 21.707 88.0186 21.707C87.9697 21.7168 87.9209 21.7266 87.8721 21.7363C87.8232 21.7559 87.7695 21.7754 87.7109 21.7949C87.6621 21.8047 87.6133 21.834 87.5645 21.8828C87.584 21.9805 87.5889 22.0537 87.5791 22.1025C87.5791 22.1611 87.5791 22.2051 87.5791 22.2344L87.5645 22.293C87.5352 22.332 87.4766 22.3613 87.3887 22.3809C87.3008 22.4102 87.208 22.4248 87.1104 22.4248C87.0908 22.4248 87.0615 22.4199 87.0225 22.4102C86.9541 22.3906 86.8857 22.3418 86.8174 22.2637C86.6514 22.2148 86.4561 22.166 86.2314 22.1172C86.1143 22.0879 85.9873 22.0586 85.8506 22.0293C85.7432 22 85.6504 21.9219 85.5723 21.7949C85.4941 21.668 85.4209 21.5215 85.3525 21.3555C85.2939 21.1797 85.2354 21.0039 85.1768 20.8281C85.1279 20.6426 85.084 20.4814 85.0449 20.3447L83.6094 15.8184C83.3945 15.8184 83.1211 15.8232 82.7891 15.833C82.4668 15.833 82.1201 15.8379 81.749 15.8477C81.3779 15.8477 81.002 15.8574 80.6211 15.877C80.2402 15.8867 79.8936 15.8965 79.5811 15.9062L76.6514 16.0527L74.9375 20.5352C74.9082 20.584 74.8643 20.6816 74.8057 20.8281C74.7568 20.9746 74.7031 21.1309 74.6445 21.2969C74.5859 21.4531 74.5322 21.6045 74.4834 21.751C74.4346 21.8877 74.4053 21.9707 74.3955 22C74.376 22.0781 74.3174 22.127 74.2197 22.1465C74.1221 22.166 74.0391 22.1855 73.9707 22.2051C73.9121 22.2246 73.8633 22.2783 73.8242 22.3662C73.7852 22.4541 73.7266 22.5127 73.6484 22.542C73.5703 22.5908 73.4727 22.5957 73.3555 22.5566C73.2383 22.5176 73.1357 22.4541 73.0479 22.3662C72.9697 22.2686 72.9404 22.1465 72.96 22C72.9795 21.8438 72.9893 21.6826 72.9893 21.5166C72.9893 21.3506 72.9844 21.1943 72.9746 21.0479C72.9746 20.9014 72.999 20.7598 73.0479 20.623C73.0674 20.5645 73.126 20.3838 73.2236 20.0811C73.3311 19.7686 73.4629 19.3975 73.6191 18.9678C73.7754 18.5283 73.9463 18.0547 74.1318 17.5469C74.3174 17.0293 74.5078 16.5312 74.7031 16.0527C74.5273 16.0527 74.4053 16.0039 74.3369 15.9062C74.2881 15.8281 74.2295 15.7842 74.1611 15.7744C74.0928 15.7549 74.0195 15.7305 73.9414 15.7012C73.8633 15.6816 73.8096 15.6377 73.7803 15.5693C73.751 15.501 73.7461 15.4424 73.7656 15.3936C73.7852 15.335 73.7705 15.2861 73.7217 15.2471C73.6729 15.208 73.6484 15.1201 73.6484 14.9834C73.6484 14.9248 73.6924 14.8711 73.7803 14.8223C73.8779 14.7637 73.9951 14.7148 74.1318 14.6758C74.2686 14.6367 74.4199 14.6025 74.5859 14.5732C74.7617 14.5439 74.9277 14.5195 75.084 14.5C75.1133 14.5 75.1475 14.5 75.1865 14.5C75.2354 14.5 75.2842 14.4902 75.333 14.4707C75.5479 13.9531 75.792 13.3965 76.0654 12.8008C76.3389 12.1953 76.6172 11.5801 76.9004 10.9551C77.1934 10.3301 77.4863 9.70508 77.7793 9.08008C78.0723 8.45508 78.3506 7.86914 78.6143 7.32227C78.8779 6.76562 79.1172 6.25781 79.332 5.79883C79.5566 5.33984 79.7422 4.95898 79.8887 4.65625C79.7715 4.29492 79.6641 3.96289 79.5664 3.66016C79.4785 3.35742 79.4004 3.09375 79.332 2.86914C79.2637 2.64453 79.21 2.46875 79.1709 2.3418C79.1318 2.20508 79.1123 2.12695 79.1123 2.10742C79.1025 2.08789 79.1025 2.06836 79.1123 2.04883C79.1318 2 79.1807 1.9707 79.2588 1.96094C79.1807 1.81445 79.1416 1.70703 79.1416 1.63867C79.1416 1.59961 79.1514 1.5752 79.1709 1.56543C79.1904 1.5459 79.2393 1.52637 79.3174 1.50684C79.3955 1.4873 79.4785 1.47266 79.5664 1.46289C79.6543 1.44336 79.7373 1.43359 79.8154 1.43359C79.8936 1.42383 79.9473 1.41895 79.9766 1.41895C79.9863 1.41895 80.0107 1.42383 80.0498 1.43359C80.1084 1.45312 80.1914 1.49707 80.2988 1.56543C80.3086 1.5166 80.3184 1.48242 80.3281 1.46289C80.3477 1.44336 80.3672 1.42383 80.3867 1.4043L80.4307 1.36035C80.4893 1.33105 80.5527 1.32617 80.6211 1.3457C80.6895 1.35547 80.7529 1.36035 80.8115 1.36035C80.8701 1.36035 80.9092 1.33594 80.9287 1.28711C80.958 1.23828 81.0215 1.21387 81.1191 1.21387C81.2461 1.21387 81.3535 1.35059 81.4414 1.62402C81.4512 1.67285 81.5195 1.8584 81.6465 2.18066C81.7734 2.49316 81.9346 2.9082 82.1299 3.42578C82.3252 3.93359 82.5498 4.52441 82.8037 5.19824C83.0674 5.87207 83.3408 6.58984 83.624 7.35156C83.9072 8.10352 84.1904 8.88477 84.4736 9.69531C84.7666 10.4961 85.0449 11.2871 85.3086 12.0684C85.8555 13.6602 86.3145 15.0029 86.6855 16.0967C87.0566 17.1904 87.3545 18.084 87.5791 18.7773C87.8135 19.4707 87.9844 19.9883 88.0918 20.3301C88.209 20.6719 88.2822 20.877 88.3115 20.9453C88.3604 21.1016 88.3994 21.2285 88.4287 21.3262C88.458 21.4141 88.4727 21.4971 88.4727 21.5752ZM82.1592 11.5557C81.9053 10.833 81.627 10.0225 81.3242 9.12402C81.0312 8.22559 80.7432 7.33691 80.46 6.45801C80.2939 6.8877 80.0938 7.40527 79.8594 8.01074C79.625 8.61621 79.376 9.24121 79.1123 9.88574C78.8584 10.5303 78.6094 11.1602 78.3652 11.7754C78.1211 12.3906 77.9062 12.918 77.7207 13.3574L77.3105 14.3242L79.9473 14.1631C80.1719 14.1631 80.4404 14.1582 80.7529 14.1484C81.2803 14.1387 82.042 14.124 83.0381 14.1045L82.1592 11.5557ZM101.026 1.50684C101.378 1.50684 101.769 1.53613 102.198 1.59473C102.638 1.65332 103.067 1.75098 103.487 1.8877C103.917 2.02441 104.312 2.20508 104.674 2.42969C105.035 2.64453 105.313 2.91797 105.509 3.25C105.753 3.42578 105.973 3.68457 106.168 4.02637C106.344 4.39746 106.432 4.74902 106.432 5.08105C106.432 5.45215 106.363 5.79395 106.227 6.10645C106.1 6.41895 105.934 6.70215 105.729 6.95605C105.523 7.20996 105.299 7.43457 105.055 7.62988C104.82 7.8252 104.591 7.99121 104.366 8.12793C104.142 8.25488 103.946 8.35254 103.78 8.4209C103.614 8.48926 103.507 8.52344 103.458 8.52344C103.409 8.52344 103.326 8.49902 103.209 8.4502C103.102 8.40137 102.994 8.34277 102.887 8.27441C102.76 8.20605 102.623 8.12305 102.477 8.02539C102.477 8.01562 102.569 7.95703 102.755 7.84961C102.94 7.74219 103.146 7.57617 103.37 7.35156C103.604 7.12695 103.814 6.83398 104 6.47266C104.186 6.10156 104.278 5.64746 104.278 5.11035C104.19 4.93457 104.068 4.76855 103.912 4.6123C103.756 4.44629 103.556 4.30469 103.312 4.1875C103.067 4.06055 102.77 3.95801 102.418 3.87988C102.076 3.80176 101.666 3.7627 101.188 3.7627C101.021 3.7627 100.768 3.78711 100.426 3.83594C100.084 3.88477 99.6885 3.97266 99.2393 4.09961C98.79 4.22656 98.3018 4.40234 97.7744 4.62695C97.2568 4.8418 96.7344 5.12988 96.207 5.49121C95.6895 5.84277 95.1865 6.27246 94.6982 6.78027C94.2197 7.27832 93.7949 7.86914 93.4238 8.55273C93.0527 9.22656 92.7549 10.0029 92.5303 10.8818C92.3154 11.7607 92.208 12.7568 92.208 13.8701C92.208 14.4756 92.2568 15.0273 92.3545 15.5254C92.4521 16.0137 92.5791 16.458 92.7354 16.8584C92.9014 17.249 93.0918 17.6006 93.3066 17.9131C93.5215 18.2158 93.7461 18.4893 93.9805 18.7334C94.127 18.8115 94.293 18.9141 94.4785 19.041C94.6641 19.1582 94.9131 19.2754 95.2256 19.3926C95.5479 19.5 95.958 19.5977 96.4561 19.6855C96.9541 19.7637 97.5889 19.8027 98.3604 19.8027C99.0244 19.8027 99.6543 19.7246 100.25 19.5684C100.855 19.4121 101.417 19.2119 101.935 18.9678C102.462 18.7236 102.945 18.4551 103.385 18.1621C103.824 17.8594 104.21 17.5664 104.542 17.2832C104.884 16.9902 105.167 16.7266 105.392 16.4922C105.616 16.248 105.772 16.0625 105.86 15.9355C106.046 15.6816 106.178 15.5205 106.256 15.4521C106.334 15.374 106.402 15.335 106.461 15.335C106.51 15.335 106.554 15.3398 106.593 15.3496C106.642 15.3594 106.69 15.3643 106.739 15.3643C106.827 15.3643 106.881 15.3203 106.9 15.2324C106.92 15.1445 106.944 15.1006 106.974 15.1006C106.993 15.1006 107.008 15.1396 107.018 15.2178C107.027 15.2959 107.032 15.3887 107.032 15.4961C107.032 15.5547 107.027 15.6133 107.018 15.6719C107.008 15.7207 107.003 15.7695 107.003 15.8184C106.993 15.877 106.949 16.0771 106.871 16.4189C106.803 16.751 106.666 17.1514 106.461 17.6201C106.266 18.0791 105.987 18.5723 105.626 19.0996C105.265 19.627 104.796 20.1152 104.22 20.5645C103.653 21.0137 102.96 21.3848 102.14 21.6777C101.319 21.9707 100.353 22.1172 99.2393 22.1172C98.5654 22.1172 97.9404 22.0586 97.3643 21.9414C96.7979 21.8145 96.2852 21.6631 95.8262 21.4873C95.377 21.3018 94.9766 21.1016 94.625 20.8867C94.2734 20.6621 93.9805 20.4521 93.7461 20.2568C93.248 19.9736 92.7695 19.6123 92.3105 19.1729C91.8516 18.7334 91.4463 18.2061 91.0947 17.5908C90.7432 16.9756 90.46 16.2627 90.2451 15.4521C90.04 14.6318 89.9375 13.7041 89.9375 12.6689C89.9375 11.6338 90.0742 10.6377 90.3477 9.68066C90.6211 8.72363 91.002 7.83008 91.4902 7C91.9883 6.16992 92.5791 5.41797 93.2627 4.74414C93.9463 4.07031 94.6982 3.49414 95.5186 3.01562C96.3389 2.53711 97.2129 2.16602 98.1406 1.90234C99.0781 1.63867 100.04 1.50684 101.026 1.50684ZM126.705 2.38574C126.656 2.4834 126.607 2.56152 126.559 2.62012C126.52 2.67871 126.485 2.72266 126.456 2.75195C126.417 2.79102 126.383 2.81543 126.354 2.8252C126.275 2.84473 126.119 2.87402 125.885 2.91309C125.65 2.94238 125.333 2.9668 124.933 2.98633C124.64 3.00586 124.239 3.0498 123.731 3.11816C123.224 3.17676 122.643 3.25488 121.988 3.35254C121.344 3.44043 120.641 3.5332 119.879 3.63086C119.117 3.72852 118.326 3.81152 117.506 3.87988C117.428 5.24707 117.369 6.64355 117.33 8.06934C117.301 9.49512 117.276 10.9307 117.257 12.376C117.237 13.8115 117.218 15.2471 117.198 16.6826C117.188 18.1084 117.169 19.5098 117.14 20.8867C117.14 20.9355 117.12 20.9844 117.081 21.0332C117.042 21.0723 117.013 21.1064 116.993 21.1357C116.944 21.3311 116.856 21.502 116.729 21.6484C116.603 21.7852 116.471 21.8535 116.334 21.8535C115.924 21.8535 115.606 21.79 115.382 21.6631C115.167 21.5361 114.981 21.3994 114.825 21.2529C114.757 21.165 114.688 21.0381 114.62 20.8721C114.562 20.6963 114.508 20.5059 114.459 20.3008C114.41 20.0859 114.366 19.8613 114.327 19.627C114.288 19.3828 114.264 19.1533 114.254 18.9385C114.234 18.7236 114.22 18.5137 114.21 18.3086C114.2 18.1035 114.195 17.8936 114.195 17.6787C114.195 17.21 114.21 16.751 114.239 16.3018C114.269 15.8525 114.293 15.4326 114.312 15.042C114.322 14.7979 114.337 14.4512 114.356 14.002C114.386 13.5527 114.42 13.04 114.459 12.4639C114.498 11.8877 114.542 11.2725 114.591 10.6182C114.64 9.9541 114.698 9.29004 114.767 8.62598C114.845 7.96191 114.928 7.31738 115.016 6.69238C115.104 6.05762 115.201 5.48145 115.309 4.96387C115.357 4.80762 115.401 4.65625 115.44 4.50977C115.479 4.35352 115.514 4.19238 115.543 4.02637C114.645 4.08496 113.766 4.11426 112.906 4.11426C111.803 4.11426 110.753 4.05078 109.757 3.92383C108.761 3.78711 107.911 3.55273 107.208 3.2207C107.12 3.17188 107.071 3.08398 107.062 2.95703C107.042 2.83008 107.003 2.69824 106.944 2.56152C106.866 2.4541 106.837 2.33691 106.856 2.20996C106.876 2.07324 106.886 1.96094 106.886 1.87305C106.876 1.78516 106.905 1.72656 106.974 1.69727C107.032 1.66797 107.159 1.6582 107.354 1.66797C107.54 1.66797 107.799 1.67773 108.131 1.69727C108.473 1.7168 108.917 1.72656 109.464 1.72656C109.874 1.72656 110.343 1.7168 110.87 1.69727C111.397 1.67773 111.998 1.64355 112.672 1.59473C113.004 1.56543 113.482 1.52148 114.107 1.46289C114.742 1.39453 115.455 1.33105 116.246 1.27246C117.047 1.2041 117.896 1.14551 118.795 1.09668C119.693 1.04785 120.582 1.02344 121.461 1.02344C121.793 1.02344 122.164 1.04297 122.574 1.08203C122.984 1.11133 123.39 1.15527 123.79 1.21387C124.2 1.27246 124.576 1.34082 124.918 1.41895C125.27 1.49707 125.558 1.5752 125.782 1.65332C125.929 1.71191 126.017 1.76563 126.046 1.81445C126.075 1.85352 126.085 1.8877 126.075 1.91699C126.075 1.94629 126.07 1.9707 126.061 1.99023C126.051 2.00977 126.075 2.0293 126.134 2.04883C126.192 2.06836 126.256 2.08301 126.324 2.09277C126.393 2.10254 126.456 2.12207 126.515 2.15137C126.573 2.1709 126.622 2.2002 126.661 2.23926C126.7 2.27832 126.715 2.32715 126.705 2.38574Z" fill="black"/>
</svg>
