<?xml version="1.0" standalone="no"?>
<!DOCTYPE svg PUBLIC "-//W3C//DTD SVG 20010904//EN"
 "http://www.w3.org/TR/2001/REC-SVG-20010904/DTD/svg10.dtd">
<svg version="1.0" xmlns="http://www.w3.org/2000/svg"
 width="500.000000pt" height="500.000000pt" viewBox="0 0 500.000000 500.000000"
 preserveAspectRatio="xMidYMid meet">

<g transform="translate(0.000000,500.000000) scale(0.100000,-0.100000)"
fill="#000000" stroke="none">
<path d="M0 4070 c0 -606 4 -930 10 -930 6 0 10 5 10 12 0 6 3 8 6 5 4 -4 1
-13 -6 -22 -7 -8 -9 -15 -5 -15 19 0 32 36 27 77 -4 36 -2 43 12 43 10 0 14
-4 11 -10 -3 -5 -1 -10 4 -10 6 0 11 14 11 30 0 25 -4 30 -25 30 -28 0 -26 20
6 55 18 20 17 65 -2 65 -5 0 -9 5 -9 11 0 6 7 9 15 5 9 -3 15 0 15 10 0 11 4
12 19 4 28 -15 31 -13 31 20 0 17 5 30 10 30 6 0 10 -10 10 -23 0 -16 6 -23
20 -23 11 0 20 4 20 8 0 4 -7 8 -15 8 -9 0 -14 8 -12 23 2 17 -4 23 -25 25
-24 3 -28 8 -28 33 0 18 4 28 10 24 13 -8 13 8 -1 22 -7 7 2 12 30 17 27 4 41
11 41 21 0 8 4 15 10 15 5 0 2 8 -8 18 -9 11 -19 18 -22 16 -3 -1 -11 4 -17
12 -15 15 -2 27 21 18 9 -4 16 -1 16 6 0 7 7 10 16 6 9 -3 24 0 35 7 18 13 18
14 -6 25 -15 7 -27 8 -30 2 -4 -6 -15 -10 -27 -10 -16 0 -18 3 -9 13 6 8 7 17
3 22 -4 4 4 5 18 2 22 -5 25 -3 25 18 0 14 -3 25 -7 25 -5 0 -8 7 -8 15 0 17
9 19 29 6 8 -5 11 -16 8 -24 -4 -11 -1 -14 9 -10 8 3 12 11 9 17 -3 6 -8 18
-11 28 -3 9 -15 19 -27 22 -17 4 -19 8 -9 18 6 6 12 20 12 30 0 10 4 18 9 18
5 0 11 10 14 21 4 16 10 20 24 14 10 -4 24 -10 32 -13 9 -3 12 -1 7 6 -3 6 -2
13 4 17 5 3 10 0 10 -7 0 -9 4 -8 15 3 12 12 14 21 6 42 -8 19 -7 27 0 27 8 0
7 5 -1 15 -10 12 -10 19 -2 27 9 9 12 9 12 0 0 -7 5 -12 10 -12 6 0 10 7 10
16 0 19 31 15 38 -5 3 -8 0 -11 -7 -7 -7 4 -9 2 -5 -8 9 -24 34 -28 34 -6 0
11 1 23 1 28 1 4 -9 12 -22 19 -18 9 -23 19 -21 40 4 31 18 50 28 40 4 -4 1
-13 -5 -21 -14 -17 -7 -36 14 -36 9 0 14 9 12 23 -2 17 3 22 21 20 36 -4 25
15 -13 23 -42 7 -44 18 -9 40 18 13 24 23 20 39 -5 18 3 26 42 46 40 20 44 24
24 27 -17 3 -22 8 -17 19 3 9 0 20 -7 24 -10 7 -10 11 0 21 9 9 15 9 20 2 4
-6 15 -13 25 -17 15 -6 17 -3 12 13 -5 16 -2 20 14 20 12 0 21 6 21 14 0 7 16
28 37 45 24 21 31 31 20 31 -10 0 -17 -5 -17 -11 0 -5 -4 -8 -10 -4 -5 3 -1
14 10 25 19 19 51 18 78 -3 9 -7 12 -4 12 11 0 17 -9 21 -52 27 -39 6 -48 10
-33 15 31 11 95 0 95 -16 0 -8 5 -14 10 -14 16 0 11 32 -7 47 -16 12 -13 13
27 9 35 -4 39 -3 20 4 l-25 9 25 -2 c19 -2 24 -7 22 -22 -3 -15 -1 -17 8 -9
20 20 3 49 -30 50 -16 1 -27 -3 -24 -8 4 -6 -2 -8 -12 -6 -21 4 -26 28 -9 40
15 11 47 9 40 -2 -3 -5 0 -10 8 -10 17 0 27 20 28 58 0 15 3 21 6 15 8 -22 35
-15 28 7 -5 14 -2 20 10 20 9 0 13 5 10 10 -3 6 -1 10 5 10 7 0 10 6 7 14 -4
10 0 12 14 9 24 -7 25 -33 2 -34 -15 0 -15 -2 2 -8 16 -7 23 -3 34 18 7 14 23
34 35 43 11 10 16 18 9 18 -6 0 -18 3 -27 6 -10 4 -16 1 -16 -9 0 -9 -4 -19
-10 -22 -14 -9 -12 8 3 29 7 9 23 18 36 19 14 1 26 9 29 19 2 10 10 18 17 18
7 0 15 5 17 12 5 13 28 2 28 -13 0 -6 -5 -7 -10 -4 -5 3 -10 2 -10 -4 0 -20
18 -20 36 0 16 17 16 22 4 29 -13 8 -12 10 3 10 9 0 17 7 17 16 0 10 6 14 15
10 8 -3 15 -2 15 3 0 4 10 7 22 7 13 -1 23 5 23 13 0 8 6 16 14 19 9 3 11 -1
7 -16 -5 -14 0 -25 16 -36 26 -18 38 -7 38 37 0 25 -3 27 -44 27 -26 0 -46 -5
-49 -12 -4 -9 -8 -10 -14 -2 -15 19 -84 17 -98 -3 -7 -10 -17 -14 -21 -10 -5
4 -2 12 6 17 9 6 -187 9 -503 10 l-517 0 0 -930z m965 880 c3 -5 1 -10 -4 -10
-6 0 -11 5 -11 10 0 6 2 10 4 10 3 0 8 -4 11 -10z m105 -10 c0 -5 -4 -10 -10
-10 -5 0 -10 5 -10 10 0 6 5 10 10 10 6 0 10 -4 10 -10z m-108 -52 c-7 -7 -12
-8 -12 -2 0 14 12 26 19 19 2 -3 -1 -11 -7 -17z m-92 -8 c0 -5 -2 -10 -4 -10
-3 0 -8 5 -11 10 -3 6 -1 10 4 10 6 0 11 -4 11 -10z m60 -10 c0 -5 -8 -10 -19
-10 -10 0 -21 -9 -24 -20 -3 -11 -11 -20 -19 -20 -11 0 -10 2 1 9 7 5 11 13 7
19 -3 6 2 15 11 21 23 13 43 14 43 1z m-120 -10 c0 -5 -4 -10 -10 -10 -5 0
-10 5 -10 10 0 6 5 10 10 10 6 0 10 -4 10 -10z m40 1 c0 -5 -7 -11 -14 -14
-10 -4 -13 -1 -9 9 6 15 23 19 23 5z m-36 -99 c3 -5 -1 -9 -9 -9 -8 0 -15 4
-15 9 0 4 4 8 9 8 6 0 12 -4 15 -8z m-29 -72 c3 -5 1 -10 -4 -10 -6 0 -11 5
-11 10 0 6 2 10 4 10 3 0 8 -4 11 -10z m-74 -80 c-3 -10 -8 -4 -11 15 -4 17
-4 34 -1 40 7 14 19 -37 12 -55z m-31 -2 c0 -5 -9 -8 -20 -8 -11 0 -20 5 -20
10 0 6 -7 10 -15 10 -8 0 -15 4 -15 9 0 4 16 3 35 -3 19 -6 35 -14 35 -18z
m-70 -78 c-24 -15 -37 -11 -16 5 11 8 22 12 25 9 3 -3 -1 -9 -9 -14z m-53 -12
c-3 -8 -6 -5 -6 6 -1 11 2 17 5 13 3 -3 4 -12 1 -19z m-47 -28 c0 -5 -5 -10
-11 -10 -5 0 -7 5 -4 10 3 6 8 10 11 10 2 0 4 -4 4 -10z m61 -37 c12 -15 12
-16 -4 -10 -10 4 -23 7 -28 7 -6 0 -7 5 -4 10 9 15 21 12 36 -7z m-96 -62 c-3
-6 -14 -11 -23 -11 -15 1 -15 2 2 15 21 16 32 13 21 -4z m-40 -111 c3 -5 1
-10 -4 -10 -6 0 -11 5 -11 10 0 6 2 10 4 10 3 0 8 -4 11 -10z m-85 -54 c0 -2
-7 -9 -15 -16 -13 -11 -14 -10 -9 4 5 14 24 23 24 12z m-150 -261 c0 -7 -30
-13 -34 -7 -3 4 4 9 15 9 10 1 19 0 19 -2z m-60 -145 c0 -5 -2 -10 -4 -10 -3
0 -8 5 -11 10 -3 6 -1 10 4 10 6 0 11 -4 11 -10z m13 -81 c-4 -15 -8 -17 -14
-8 -8 14 -3 29 11 29 4 0 6 -9 3 -21z m16 -102 c6 -8 8 -17 4 -20 -10 -11 -43
-8 -43 3 0 6 5 10 11 10 5 0 7 5 4 10 -9 15 11 12 24 -3z m-81 -102 c-3 -3 -9
2 -12 12 -6 14 -5 15 5 6 7 -7 10 -15 7 -18z m-10 -35 c-14 -22 -24 -25 -33
-11 -3 6 3 14 12 20 28 16 34 13 21 -9z m42 -20 c0 -11 -34 -30 -52 -29 -10 0
-10 2 0 6 6 2 12 10 12 17 0 6 9 12 20 13 11 1 20 -2 20 -7z m-70 -115 c0 -8
-4 -15 -10 -15 -5 0 -10 7 -10 15 0 8 5 15 10 15 6 0 10 -7 10 -15z m-28 -137
c-7 -7 -12 -8 -12 -2 0 14 12 26 19 19 2 -3 -1 -11 -7 -17z"/>
<path d="M1420 4984 c0 -8 5 -12 10 -9 6 3 10 1 10 -6 0 -7 2 -10 5 -7 8 7 -5
38 -16 38 -5 0 -9 -7 -9 -16z"/>
<path d="M1468 4993 c7 -3 16 -2 19 1 4 3 -2 6 -13 5 -11 0 -14 -3 -6 -6z"/>
<path d="M4250 4985 c7 -8 20 -15 30 -15 10 0 23 7 30 15 11 13 7 15 -30 15
-37 0 -41 -2 -30 -15z"/>
<path d="M4326 4983 c-6 -16 13 -63 26 -63 5 0 16 6 23 14 10 10 11 16 3 24
-7 7 -8 15 -3 19 4 5 10 2 12 -5 3 -6 9 -10 13 -7 5 3 7 12 4 20 -7 18 -71 17
-78 -2z m34 -18 c8 -10 10 -19 4 -25 -5 -5 -14 1 -21 16 -12 27 -2 32 17 9z"/>
<path d="M4425 4966 c2 -17 -2 -37 -8 -44 -12 -15 9 -35 30 -27 7 2 15 0 18
-6 4 -5 -7 -14 -24 -20 -17 -6 -31 -15 -31 -21 0 -6 6 -8 13 -5 49 18 57 18
57 0 0 -13 2 -15 9 -5 7 11 11 11 23 -2 17 -17 29 -11 22 9 -3 7 -1 16 4 19 6
4 10 -12 10 -40 0 -43 -1 -45 -24 -40 -13 4 -24 2 -24 -3 0 -10 51 -22 63 -14
4 2 5 13 2 24 -8 23 4 24 31 4 23 -17 34 -19 34 -5 0 6 -11 15 -25 20 -25 10
-33 34 -15 45 6 3 10 -4 10 -16 0 -17 3 -19 14 -10 12 10 15 6 21 -19 4 -16
11 -28 16 -24 5 3 12 -2 15 -11 4 -10 13 -14 28 -10 17 5 18 4 6 -4 -8 -6 -24
-8 -35 -5 -16 5 -18 4 -7 -7 10 -11 19 -11 50 0 20 8 40 18 43 23 4 6 9 6 13
-1 4 -6 -4 -15 -18 -21 -14 -5 -26 -13 -26 -17 0 -11 57 -40 93 -49 15 -3 26
-9 23 -12 -3 -3 -1 -11 5 -19 9 -10 7 -13 -10 -13 -27 0 -27 -8 1 -31 27 -24
57 -27 38 -4 -7 9 -9 19 -5 23 4 4 10 1 12 -5 3 -7 11 -13 19 -13 11 0 12 4 5
19 -9 16 -7 20 13 23 19 4 23 1 19 -11 -4 -9 -10 -22 -16 -29 -5 -6 -7 -26 -3
-42 6 -34 -16 -43 -33 -12 -6 9 -10 13 -11 7 0 -17 14 -32 38 -39 13 -4 22 -3
22 3 0 6 14 7 35 4 l34 -5 1 236 0 237 -288 -2 -289 -1 2 -32z m65 14 c0 -5
-4 -10 -10 -10 -5 0 -10 5 -10 10 0 6 5 10 10 10 6 0 10 -4 10 -10z m45 0 c3
-5 2 -10 -4 -10 -5 0 -13 5 -16 10 -3 6 -2 10 4 10 5 0 13 -4 16 -10z m105
-50 c0 -5 -2 -10 -4 -10 -3 0 -8 5 -11 10 -3 6 -1 10 4 10 6 0 11 -4 11 -10z
m-138 -45 c0 -5 -5 -11 -11 -13 -6 -2 -11 4 -11 13 0 9 5 15 11 13 6 -2 11 -8
11 -13z m78 -11 c0 -8 -5 -12 -10 -9 -6 4 -8 11 -5 16 9 14 15 11 15 -7z m116
-68 c18 -14 17 -15 -11 -12 -16 2 -31 8 -33 15 -5 16 20 14 44 -3z m106 -71
c3 -13 1 -22 -3 -19 -9 5 -13 44 -5 44 2 0 6 -11 8 -25z m85 -31 c-9 -9 -28 6
-21 18 4 6 10 6 17 -1 6 -6 8 -13 4 -17z m53 -4 c0 -5 -4 -10 -10 -10 -5 0
-10 5 -10 10 0 6 5 10 10 10 6 0 10 -4 10 -10z m50 -151 c0 -5 -7 -9 -15 -9
-8 0 -15 7 -15 15 0 9 6 12 15 9 8 -4 15 -10 15 -15z"/>
<path d="M1295 4980 c-3 -5 -1 -10 4 -10 6 0 11 5 11 10 0 6 -2 10 -4 10 -3 0
-8 -4 -11 -10z"/>
<path d="M2445 4980 c3 -5 -19 -7 -47 -5 -29 2 -42 1 -28 -2 14 -2 30 -9 35
-15 7 -7 6 -9 -1 -5 -15 9 -185 -34 -178 -44 3 -5 -1 -6 -9 -3 -8 3 -17 -2
-20 -10 -4 -9 -12 -16 -19 -16 -9 0 -8 3 2 10 8 5 11 10 6 10 -5 0 -18 -7 -27
-16 -10 -9 -37 -17 -59 -18 -23 0 -36 -2 -30 -4 12 -4 -35 -52 -51 -52 -6 0
-7 -4 -4 -10 3 -5 2 -10 -3 -10 -4 0 -16 -15 -25 -32 -14 -25 -17 -28 -13 -9
4 21 2 20 -25 -10 -16 -18 -29 -28 -29 -23 0 5 -9 -4 -20 -21 -26 -40 -26 -55
1 -21 26 32 33 33 47 1 17 -38 14 -43 -9 -16 -22 27 -39 19 -42 -18 -1 -13 -6
-20 -14 -17 -7 3 -13 2 -13 -2 0 -5 -17 -6 -37 -5 -37 4 -38 4 -13 -11 13 -8
32 -12 42 -11 11 3 16 0 12 -6 -3 -6 -15 -9 -25 -6 -10 3 -19 2 -21 -2 -2 -4
-19 -16 -38 -27 -20 -12 -35 -28 -35 -39 0 -11 -11 -22 -31 -29 -16 -6 -44
-21 -62 -34 -17 -13 -37 -20 -43 -16 -7 4 -9 3 -5 -4 10 -17 -44 -61 -89 -71
l-40 -9 35 -2 c31 -1 33 -2 13 -10 -13 -5 -23 -12 -23 -15 0 -4 5 -3 12 1 7 4
8 3 4 -4 -4 -7 -14 -12 -22 -12 -8 0 -12 5 -9 10 3 6 -1 10 -10 10 -9 0 -14
-4 -11 -9 3 -5 -4 -11 -15 -14 -19 -5 -21 -11 -15 -42 5 -26 3 -42 -7 -54 -21
-24 -30 -71 -15 -72 7 0 4 -4 -7 -9 -17 -7 -18 -9 -2 -9 15 -1 16 -7 11 -43
-4 -24 -11 -52 -17 -63 -9 -18 -9 -19 6 -6 15 12 17 11 17 -4 0 -10 -7 -26
-15 -35 -9 -10 -18 -27 -20 -39 -2 -13 -7 -30 -10 -40 -3 -12 0 -18 10 -18 8
0 15 3 16 6 3 28 10 56 15 60 8 8 -2 -55 -11 -68 -3 -6 -15 -11 -27 -11 -17 0
-19 5 -15 27 5 25 4 26 -8 10 -13 -18 -13 -18 -18 0 -4 16 -5 15 -6 -2 0 -12
-6 -26 -13 -33 -9 -9 -9 -12 0 -12 7 0 12 6 12 13 0 9 2 9 9 -1 7 -11 7 -33
-1 -89 -1 -7 -6 -9 -11 -6 -6 4 -8 -4 -4 -18 7 -26 2 -36 -25 -58 -25 -19 -22
-6 4 19 12 11 19 22 16 26 -10 9 -58 -38 -58 -57 0 -37 -102 -89 -174 -89 -20
0 -27 -3 -20 -10 6 -6 21 -6 42 -1 41 12 48 0 17 -29 -14 -13 -25 -28 -25 -34
0 -6 8 -1 18 11 9 12 30 27 46 33 25 9 27 9 17 -4 -9 -10 -9 -15 0 -18 6 -2
-3 -19 -22 -38 -32 -34 -65 -100 -49 -100 4 0 15 16 24 35 9 19 20 36 25 39
13 8 -1 -47 -16 -62 -7 -8 -10 -18 -7 -24 5 -7 2 -8 -6 -3 -10 6 -12 0 -8 -23
3 -22 1 -29 -9 -25 -8 3 -11 15 -8 32 l5 26 -12 -27 c-7 -16 -16 -28 -21 -28
-4 0 -5 -10 -2 -22 4 -14 3 -18 -2 -11 -13 19 -35 -1 -31 -28 2 -18 -1 -24
-15 -22 -12 0 -16 -4 -13 -13 3 -8 1 -14 -5 -14 -6 0 -8 -9 -4 -21 5 -13 3
-19 -3 -15 -5 3 -12 -3 -15 -13 -3 -12 1 -22 11 -26 13 -5 12 -8 -4 -21 -13
-11 -15 -17 -7 -20 9 -4 11 -28 8 -82 -3 -51 -1 -70 5 -57 l9 20 0 -20 c0 -25
-17 -67 -19 -45 0 12 -3 11 -11 -2 -5 -10 -20 -19 -32 -19 -17 -1 -18 -2 -4
-6 19 -5 21 -12 7 -33 -9 -13 -10 -13 -11 0 0 8 -6 3 -12 -11 -7 -15 -16 -28
-22 -30 -5 -2 -9 -8 -7 -13 2 -5 -5 -3 -14 5 -10 8 -15 9 -11 3 4 -7 -5 -20
-21 -30 -39 -25 -56 -44 -42 -44 8 0 6 -9 -5 -26 -9 -15 -12 -23 -6 -20 18 11
13 -26 -9 -73 -12 -23 -22 -55 -23 -71 -2 -35 -14 -40 -19 -8 -2 13 -11 23
-21 24 -11 1 -12 0 -3 -3 20 -6 31 -79 16 -98 -7 -8 -10 -20 -7 -27 4 -9 6 -8
6 3 1 9 8 22 16 29 12 10 15 9 15 -4 0 -9 7 -31 15 -49 l16 -32 -23 25 c-13
14 -22 23 -21 21 2 -2 -3 -11 -10 -19 -10 -13 -9 -15 6 -9 11 4 17 2 17 -8 0
-8 4 -15 10 -15 9 0 5 -48 -7 -80 -4 -8 -5 -20 -4 -27 1 -6 -3 -14 -9 -18 -5
-3 -10 -12 -10 -18 1 -7 9 -1 20 12 11 12 17 27 14 32 -3 5 4 9 16 9 20 0 19
-3 -10 -46 -18 -25 -33 -56 -35 -70 -4 -36 -15 -42 -15 -8 0 34 -14 61 -24 46
-3 -6 -1 -23 4 -38 8 -21 8 -29 -2 -36 -10 -6 -10 -8 0 -8 7 0 12 -15 12 -40
0 -30 -8 -48 -32 -76 -27 -30 -29 -35 -10 -25 12 6 22 15 22 19 0 4 9 13 21
20 19 12 19 12 8 -10 -22 -44 -60 -88 -75 -88 -8 0 -12 -5 -9 -10 7 -11 -16
-52 -43 -80 -13 -13 -15 -12 -10 10 3 14 9 34 12 45 5 13 2 12 -8 -5 l-15 -25
-2 25 -1 25 -7 -25 c-4 -14 -4 -28 1 -31 5 -3 6 -23 3 -45 -4 -21 -8 -48 -9
-58 -3 -24 -25 -33 -36 -16 -5 8 -9 3 -12 -14 -3 -14 -2 -26 1 -26 9 0 7 -67
-2 -76 -6 -7 -11 10 -8 28 2 13 -17 9 -22 -5 -3 -7 4 -19 14 -26 11 -6 17 -16
14 -21 -3 -5 -1 -11 5 -15 5 -3 10 -1 10 6 0 7 2 10 5 7 3 -3 2 -13 -1 -22 -5
-14 -9 -15 -16 -4 -7 9 -8 7 -5 -9 3 -13 2 -23 -3 -23 -4 0 -10 11 -12 25 -4
16 -1 22 6 18 6 -4 5 1 -3 10 -14 18 -22 22 -20 10 3 -19 -2 -33 -18 -49 -17
-17 -17 -17 4 -12 27 7 37 -15 24 -57 -4 -17 -6 -37 -3 -45 3 -8 1 -12 -3 -8
-4 4 -25 0 -48 -9 -38 -15 -41 -15 -53 2 -8 11 -12 28 -9 39 6 21 6 21 -10 1
-9 -11 -23 -29 -33 -41 -23 -27 -41 -56 -48 -74 -3 -8 -10 -23 -15 -32 -6 -11
-6 -18 0 -18 5 0 11 5 13 11 2 7 11 7 28 -1 23 -9 23 -10 2 -6 -12 2 -22 0
-22 -5 0 -5 11 -9 25 -9 14 0 25 -4 25 -9 0 -5 -9 -7 -20 -4 -11 3 -20 0 -20
-6 0 -6 5 -11 10 -11 14 0 13 -27 -2 -36 -7 -4 -8 -3 -4 5 4 6 1 17 -6 25 -11
11 -16 11 -26 0 -15 -16 -16 -28 -2 -19 23 14 8 -46 -20 -77 -16 -18 -30 -36
-30 -40 0 -14 18 -9 24 7 7 19 36 19 36 0 0 -8 -7 -15 -16 -15 -8 0 -13 -4
-10 -9 3 -5 -1 -14 -10 -21 -12 -11 -12 -15 -2 -21 9 -6 6 -9 -9 -9 -25 0 -39
-15 -23 -25 5 -3 10 -10 10 -14 0 -10 -31 -8 -49 3 -8 5 -17 3 -22 -5 -6 -10
-1 -16 19 -20 17 -4 20 -7 8 -8 -16 -1 -16 -3 -5 -17 11 -14 9 -15 -26 -8 -27
5 -36 4 -31 -5 4 -6 -2 -23 -13 -37 -15 -20 -21 -22 -21 -10 0 9 -4 16 -10 16
-5 0 -10 -4 -10 -10 0 -13 -47 -13 -55 -1 -3 5 -1 12 5 16 5 3 10 1 10 -4 0
-6 7 -11 15 -11 8 0 15 7 15 15 0 9 6 12 16 8 13 -5 15 -2 9 15 -4 14 -2 22 5
22 6 0 18 7 26 15 14 13 13 15 -5 15 -12 0 -21 -3 -21 -7 0 -5 -13 -15 -29
-25 -25 -14 -30 -14 -35 -2 -3 8 -13 14 -22 14 -13 0 -14 -3 -5 -14 8 -10 9
-16 1 -21 -7 -4 -10 -160 -10 -481 l0 -474 399 0 c353 0 400 2 405 16 3 8 1
24 -4 34 -13 25 -13 30 4 24 9 -4 13 2 11 20 -2 15 0 24 5 21 4 -2 6 -16 5
-30 -2 -14 1 -25 6 -25 22 0 19 32 -9 87 -47 90 -82 199 -82 251 0 58 17 170
30 197 31 68 45 138 55 290 3 44 13 119 21 167 8 48 17 106 20 130 6 46 41
158 53 171 4 4 36 9 72 11 111 7 342 58 416 93 59 27 146 117 165 171 l13 34
57 -4 c31 -2 55 -1 52 4 -13 21 25 4 61 -27 21 -19 41 -32 44 -30 2 3 11 -1
19 -8 13 -10 14 -9 7 2 -6 10 -4 12 6 6 7 -5 20 -10 29 -11 8 -1 30 -7 48 -12
35 -12 59 -10 91 8 18 9 20 8 15 -7 -4 -14 -1 -13 14 5 14 15 22 18 25 10 4
-10 6 -10 6 0 1 15 41 16 41 1 0 -6 12 -9 28 -7 27 3 62 32 62 52 0 6 4 5 9
-2 6 -10 10 -7 15 12 4 15 10 25 15 22 4 -3 14 3 23 12 19 21 57 52 63 52 3 0
5 -6 5 -14 0 -8 7 -17 16 -20 12 -5 14 -13 8 -38 -7 -34 -8 -41 0 -116 3 -28
1 -40 -7 -35 -6 4 -8 0 -4 -10 4 -11 1 -17 -8 -17 -28 0 -9 -58 31 -95 15 -14
21 -25 14 -25 -9 0 -7 -5 6 -15 19 -14 19 -14 -1 -15 -14 -1 -16 -3 -5 -7 8
-3 23 -15 35 -25 29 -27 121 -88 134 -88 22 0 97 -49 108 -71 7 -13 13 -52 13
-86 0 -40 4 -63 11 -63 8 0 7 -6 -2 -17 -12 -14 -12 -16 0 -8 11 6 13 3 8 -17
-5 -18 -1 -30 11 -42 10 -9 22 -13 25 -9 4 3 7 1 7 -6 0 -8 -7 -11 -15 -7 -8
3 -15 1 -15 -5 0 -6 -6 -9 -13 -6 -15 6 -45 -9 -36 -17 3 -3 23 -7 46 -8 27
-2 39 -7 36 -15 -3 -7 -8 -11 -12 -8 -4 2 -7 -12 -6 -31 2 -23 -2 -33 -9 -31
-8 3 -11 -12 -11 -43 0 -27 -3 -46 -7 -43 -16 9 -8 -104 7 -117 8 -7 15 -19
15 -26 0 -8 4 -14 9 -14 5 0 7 -9 4 -20 -5 -20 -25 -18 -22 3 1 7 1 21 -1 32
l-1 20 -8 -20 c-10 -24 8 -68 25 -61 7 3 15 -2 18 -10 3 -8 10 -14 16 -14 6 0
3 11 -6 25 -9 14 -14 25 -11 25 3 0 14 -14 25 -32 15 -23 18 -38 12 -54 -7
-18 -6 -22 5 -17 8 3 15 0 15 -6 0 -6 6 -11 13 -11 7 0 23 -14 35 -30 13 -16
18 -30 12 -30 -16 0 -11 -13 16 -45 15 -16 23 -23 19 -15 -4 8 5 2 19 -15 14
-16 29 -41 32 -55 4 -14 11 -30 16 -37 22 -27 49 -90 55 -126 l6 -37 83 0 83
0 -5 63 c-3 34 -7 73 -10 87 -2 14 -11 70 -20 124 -8 55 -16 102 -18 105 -2 3
-7 28 -11 56 -3 27 -10 55 -16 61 -5 6 -12 44 -15 85 -3 40 -7 76 -9 79 -4 6
-23 112 -31 172 -9 67 -25 163 -28 166 -2 2 0 18 4 37 6 26 3 44 -12 75 -11
22 -25 40 -32 40 -6 0 -4 5 4 10 9 6 11 10 3 10 -7 0 -10 7 -7 15 3 8 0 17 -7
20 -8 3 -15 22 -17 42 -1 21 -13 53 -25 73 -42 63 -65 183 -42 219 3 6 -5 16
-19 22 -29 14 -42 39 -20 39 14 0 14 2 0 16 -9 8 -14 19 -12 23 3 4 -8 22 -24
40 -17 18 -30 35 -30 38 0 5 -77 96 -125 148 -48 52 -85 107 -85 127 0 11 14
33 30 50 39 39 52 35 188 -48 98 -61 159 -87 150 -66 -1 6 -59 69 -127 141
-126 133 -161 178 -161 208 0 24 48 83 77 94 38 14 56 5 157 -80 97 -82 189
-151 201 -151 13 0 -8 66 -62 197 -46 109 -62 137 -92 160 -41 31 -174 162
-212 209 -14 17 -35 37 -47 43 -12 6 -22 18 -22 26 0 8 -4 15 -10 15 -5 0 -6
8 -3 18 6 15 5 15 -10 4 -8 -8 -13 -20 -10 -28 9 -25 -36 -16 -62 12 l-25 27
0 -45 c0 -30 7 -54 20 -71 23 -29 27 -69 6 -61 -8 3 -17 1 -21 -5 -4 -8 -12
-8 -26 -1 -11 6 -24 8 -29 5 -5 -3 -21 5 -35 19 -14 14 -25 22 -25 18 0 -4 -5
0 -10 8 -8 12 -10 12 -10 1 0 -8 -9 -2 -21 13 -12 15 -24 25 -26 22 -5 -4 -25
18 -81 89 -4 6 -17 26 -28 45 -10 19 -23 38 -28 41 -5 4 -6 14 -3 23 4 9 2 16
-3 16 -13 0 -25 133 -12 138 5 1 8 13 5 25 -4 18 -3 19 6 7 9 -12 11 -11 11 8
0 12 -7 25 -15 28 -8 4 -15 14 -15 23 0 9 -5 22 -11 28 -6 6 -11 28 -11 48 0
24 -3 33 -8 25 -6 -9 -12 -1 -19 26 -6 21 -11 45 -11 52 0 6 -6 12 -13 12 -18
0 -41 87 -38 145 1 28 2 72 2 98 0 27 7 65 16 85 9 20 17 39 17 42 1 3 13 23
28 45 38 58 87 102 133 118 45 16 171 31 225 28 19 -1 65 -3 103 -4 63 -2 67
-1 67 20 0 16 -13 30 -47 50 -44 25 -55 27 -148 26 -55 0 -113 -3 -130 -7 -74
-14 -108 -26 -128 -43 -12 -11 -35 -31 -51 -46 -16 -14 -33 -24 -38 -21 -4 3
-8 1 -8 -3 0 -5 -12 -25 -26 -44 -15 -19 -24 -26 -20 -15 5 14 2 17 -9 12 -9
-3 -15 0 -15 8 0 8 7 16 15 20 9 3 15 0 15 -10 0 -8 5 -12 11 -8 8 4 8 9 0 17
-6 6 -11 19 -11 30 0 10 -4 16 -10 12 -5 -3 -6 -13 -3 -23 6 -15 5 -16 -13 -2
-10 8 -21 15 -22 16 -6 4 34 41 48 46 9 3 8 8 -4 20 -19 20 -21 29 -3 22 8 -3
20 2 27 11 8 10 9 15 1 15 -6 0 -11 -5 -11 -12 0 -6 -2 -9 -5 -6 -3 3 -1 18 5
33 15 40 6 42 -13 3 -10 -19 -17 -26 -17 -16 0 9 5 20 10 23 6 3 10 15 10 26
0 12 4 17 11 13 6 -3 15 0 20 7 6 10 9 11 9 2 0 -7 9 -13 21 -13 15 0 19 4 15
15 -3 8 -9 23 -12 33 -5 14 -4 15 5 2 8 -11 11 -11 12 -2 1 6 2 16 3 21 0 6 7
16 14 23 6 6 12 21 12 33 0 16 2 17 10 5 8 -12 10 -11 10 8 0 12 5 22 10 22 6
0 9 3 9 8 -4 22 3 31 19 25 9 -3 14 -3 10 2 -7 7 47 65 61 65 3 0 17 10 31 23
14 12 32 23 40 23 38 4 85 16 90 23 10 14 106 29 178 28 39 -1 72 1 72 6 0 11
57 -21 92 -51 28 -25 76 -113 93 -172 4 -13 14 -30 21 -38 8 -7 14 -21 14 -31
0 -9 5 -22 12 -29 8 -8 8 -15 -2 -27 -7 -8 -9 -15 -5 -15 4 0 -5 -14 -19 -31
-43 -51 -29 -79 45 -88 5 0 8 -4 6 -8 -3 -5 1 -14 9 -21 8 -7 14 -9 14 -5 0 4
6 -1 12 -11 18 -31 19 -75 3 -106 -24 -46 -20 -60 18 -60 31 0 98 -39 68 -40
-19 0 49 -62 114 -104 28 -18 73 -58 102 -89 53 -59 128 -192 117 -209 -4 -6
-3 -13 2 -17 17 -11 34 -51 34 -75 0 -14 5 -28 10 -31 6 -3 10 2 10 12 1 17 1
17 11 0 22 -37 16 -55 -36 -125 -29 -39 -51 -73 -48 -76 3 -3 -2 -8 -11 -12
-9 -3 -13 -10 -10 -15 3 -5 0 -9 -6 -9 -6 0 -8 -4 -5 -10 3 -5 1 -10 -5 -10
-6 0 -8 -4 -5 -10 3 -5 1 -10 -6 -10 -7 0 -9 -8 -6 -21 3 -11 3 -27 0 -35 -4
-12 -8 -12 -21 -2 -9 7 -4 -3 10 -22 14 -19 46 -73 70 -120 l45 -85 -4 -95
c-2 -52 -5 -169 -7 -260 -3 -91 -7 -178 -10 -195 -5 -35 -7 -249 -2 -315 10
-129 16 -224 21 -310 8 -131 20 -184 75 -329 44 -118 59 -174 125 -456 14 -60
31 -113 38 -118 8 -6 9 -10 1 -13 -14 -6 15 -151 40 -204 l17 -35 -6 32 c-5
26 -3 33 10 33 10 0 13 -5 9 -12 -4 -7 -3 -8 4 -4 7 4 12 1 12 -8 0 -8 4 -17
9 -20 5 -3 3 15 -5 41 -17 57 -17 66 -1 57 9 -5 9 -4 1 5 -12 14 -8 77 8 131
14 47 74 165 109 216 15 23 25 45 21 48 -4 4 1 12 10 17 10 5 15 16 12 23 -3
8 3 20 13 27 39 29 83 129 102 233 6 33 16 65 23 73 15 18 16 27 23 127 2 43
1 76 -3 72 -8 -8 -9 -12 -12 -58 -2 -27 -4 -22 -15 27 -18 86 -28 204 -15 185
8 -13 10 -12 10 5 0 11 -5 27 -11 35 -9 13 -10 12 -5 -2 3 -10 0 -18 -5 -18
-7 0 -9 11 -6 27 3 15 1 37 -3 49 -9 22 -9 22 28 7 48 -20 64 -33 58 -49 -3
-8 0 -13 6 -11 14 2 17 -31 5 -57 -6 -13 -6 -16 2 -12 16 10 13 -6 -5 -32 -9
-13 -13 -30 -10 -39 4 -8 1 -23 -6 -32 -12 -15 -11 -15 6 -1 18 14 19 13 12
-5 -11 -30 -19 -75 -13 -75 6 0 67 190 67 208 0 13 16 16 22 5 2 -5 18 -21 36
-38 22 -19 31 -24 27 -12 -4 9 -11 17 -16 17 -5 0 -9 7 -9 15 0 8 -5 15 -11
15 -6 0 -9 7 -5 15 3 8 1 15 -4 15 -16 0 -11 30 7 48 15 16 16 15 10 -8 -3
-14 -2 -32 4 -40 19 -27 -1 152 -22 195 -36 78 -107 179 -115 165 -1 -3 -6 -1
-11 3 -4 5 -3 8 2 7 6 -1 24 -2 40 -1 29 1 29 2 -14 21 -50 23 -67 26 -31 5
14 -8 21 -14 16 -15 -20 0 -118 74 -126 96 -11 27 -25 33 -16 7 3 -10 -5 -4
-19 12 -41 50 -41 63 2 109 39 40 93 110 93 119 0 3 -17 -12 -38 -32 -22 -20
-36 -42 -34 -50 3 -8 1 -12 -5 -8 -6 4 -14 -3 -17 -16 l-6 -22 -19 23 c-12 13
-22 18 -26 12 -4 -6 -12 -5 -22 5 -11 11 -13 26 -9 53 6 36 6 36 -10 17 l-17
-20 8 20 c4 11 7 30 7 42 -1 12 3 25 10 29 7 5 9 0 6 -14 -4 -12 -1 -25 4 -29
6 -3 8 -2 5 3 -3 6 -2 16 4 24 6 11 9 12 9 2 0 -7 5 -10 10 -7 6 3 10 15 10
25 0 10 5 22 12 26 8 5 9 -2 4 -27 -16 -69 -16 -83 -2 -45 8 22 18 58 22 80 3
23 10 46 13 51 4 6 13 37 20 70 7 33 18 69 25 80 17 26 30 75 27 100 -2 17 0
18 9 5 9 -12 10 -10 5 8 -7 23 11 82 24 82 12 0 81 -61 81 -71 0 -6 -6 -7 -12
-4 -7 4 -4 -1 7 -10 44 -35 6 -210 -71 -328 -14 -22 -23 -41 -21 -43 7 -7 62
84 91 149 14 32 32 65 41 74 12 11 13 19 6 26 -6 6 -11 20 -10 32 0 18 1 18 8
2 4 -11 7 6 7 40 1 38 -2 51 -7 38 l-8 -20 -2 20 c-1 11 -2 29 -1 40 0 11 -2
14 -5 7 -7 -19 -35 22 -27 41 3 8 1 18 -5 22 -7 3 -8 0 -5 -9 3 -9 2 -16 -3
-16 -16 0 -32 22 -26 37 3 8 -4 21 -16 29 -22 16 -29 44 -11 44 6 0 10 -10 11
-22 1 -22 1 -22 8 2 4 14 4 36 1 50 -4 14 -3 38 3 53 5 15 7 31 3 34 -3 4 -6
-2 -6 -12 0 -23 -13 -11 -17 16 -2 12 1 18 7 14 5 -3 10 1 10 10 0 10 5 13 13
9 7 -5 7 -1 -3 12 -22 29 -24 30 -17 12 3 -10 2 -20 -3 -23 -10 -6 -25 53 -16
62 3 4 6 1 6 -6 0 -7 4 -10 9 -7 5 3 16 -4 24 -17 8 -12 31 -39 51 -59 30 -31
36 -44 36 -80 0 -29 3 -38 9 -29 5 8 7 21 3 30 -4 12 0 11 18 -4 l24 -20 -23
38 c-13 21 -18 37 -11 37 6 0 8 5 4 12 -4 7 -3 8 5 4 6 -4 9 -12 5 -17 -8 -13
26 -50 38 -43 5 3 4 -3 -3 -14 -10 -16 -9 -24 4 -43 10 -13 17 -19 17 -13 0 5
-5 15 -12 22 -9 9 -9 15 1 25 10 8 12 8 7 0 -3 -6 -2 -14 3 -18 6 -3 13 -27
16 -53 11 -81 14 -94 20 -100 5 -6 6 1 9 60 0 20 -2 34 -5 32 -4 -2 -12 20
-18 49 -17 80 -20 90 -32 120 -11 25 -13 26 -25 10 -13 -17 -13 -17 -14 3 0
11 -14 33 -31 50 -17 16 -35 39 -40 52 -5 12 -12 22 -16 21 -20 -3 -34 2 -28
11 4 6 11 8 16 5 5 -4 4 5 -3 19 -6 14 -16 26 -21 26 -5 0 -4 -7 3 -15 9 -11
10 -19 3 -26 -7 -7 -21 3 -44 33 -18 24 -36 45 -40 48 -8 6 -33 53 -34 62 0 3
-3 10 -7 14 -5 4 -8 16 -8 26 0 10 -5 18 -11 18 -6 0 -9 9 -6 20 3 11 1 18 -4
14 -11 -7 -11 7 0 24 6 11 12 10 26 -5 10 -10 28 -22 39 -28 11 -6 31 -28 43
-50 13 -22 28 -39 34 -37 6 2 9 -3 6 -11 -3 -8 -1 -20 4 -28 7 -12 9 -12 9 1
1 26 20 -11 20 -38 0 -13 4 -20 10 -17 6 3 7 -1 4 -9 -3 -9 -1 -16 4 -16 15 0
47 -70 44 -95 -2 -19 -1 -19 6 -1 7 17 10 15 22 -13 7 -17 14 -30 16 -28 7 7
-85 197 -111 231 -14 18 -25 39 -25 47 0 8 -5 20 -11 26 -5 5 -18 25 -27 44
-9 19 -21 32 -25 29 -4 -3 -17 13 -28 35 -11 22 -31 45 -45 52 -39 18 -37 -2
3 -28 20 -13 39 -31 41 -39 3 -8 -10 -2 -28 13 -23 20 -35 25 -40 17 -5 -9 -9
-9 -14 -1 -4 6 -2 11 5 11 7 0 5 8 -7 22 -10 12 -14 18 -8 15 22 -13 24 23 3
44 -11 11 -23 18 -26 15 -8 -8 8 -27 18 -21 5 4 9 -1 9 -9 0 -25 -35 1 -57 42
-17 32 -17 34 0 47 14 10 15 14 3 18 -16 6 -27 117 -12 117 4 0 2 10 -6 23 -8
12 -18 35 -22 51 -6 23 -10 27 -16 16 -5 -9 -5 -17 1 -21 6 -3 14 -37 19 -75
9 -68 6 -94 -6 -58 -3 10 -12 36 -20 58 -8 21 -12 41 -10 44 3 3 -2 11 -12 19
-16 13 -16 15 0 25 15 11 15 14 0 37 -13 19 -14 25 -4 29 10 3 9 7 -4 16 -9 7
-18 26 -20 42 -1 16 -12 36 -23 46 -12 9 -21 22 -21 29 0 7 13 1 28 -14 15
-15 32 -27 38 -27 5 1 -2 10 -16 21 -14 12 -25 24 -25 28 0 15 -55 72 -64 67
-5 -3 -14 1 -21 9 -7 8 -10 15 -7 15 4 0 3 10 -2 23 -5 12 -14 22 -21 22 -7 0
-19 9 -26 21 -13 18 -12 24 8 50 l23 29 -29 -22 c-28 -23 -46 -22 -46 0 0 7 4
6 11 -3 8 -12 9 -11 6 5 -2 11 -9 19 -15 18 -7 -2 -11 3 -9 10 1 6 -4 11 -11
9 -8 -1 -12 3 -10 10 3 7 -2 19 -11 26 -14 12 -14 13 2 8 23 -7 22 4 -7 43
-14 19 -27 28 -31 22 -3 -6 -2 -11 4 -11 6 0 16 -10 22 -22 l12 -23 -26 24
c-15 13 -24 31 -22 42 2 11 0 17 -4 15 -11 -7 -83 69 -74 79 5 4 2 5 -4 1 -7
-4 -13 -3 -13 3 0 5 -14 18 -30 28 -17 10 -28 23 -25 31 2 7 0 10 -5 7 -5 -3
-18 2 -28 12 -33 32 -101 83 -110 83 -5 0 -22 11 -38 26 -36 31 -70 51 -60 35
12 -19 -9 -12 -80 25 -205 108 -319 164 -334 164 -10 0 -34 7 -55 16 -20 8
-40 13 -42 10 -3 -3 -13 -1 -23 4 -9 5 -30 6 -46 1 -16 -4 -44 -4 -61 0 -18 4
-31 3 -28 -1z m-385 -173 c0 -2 -10 -12 -22 -23 l-23 -19 19 23 c18 21 26 27
26 19z m1080 -67 c0 -5 -2 -10 -4 -10 -3 0 -8 5 -11 10 -3 6 -1 10 4 10 6 0
11 -4 11 -10z m-1192 -116 c2 -1 -1 -5 -7 -8 -5 -4 -15 4 -22 16 -12 22 -11
22 7 8 10 -8 20 -15 22 -16z m-128 -78 c0 -11 -19 -15 -25 -6 -3 5 1 10 9 10
9 0 16 -2 16 -4z m-25 -36 c3 -6 -1 -7 -9 -4 -18 7 -21 14 -7 14 6 0 13 -4 16
-10z m-140 -100 c3 -6 -6 -15 -20 -20 -37 -14 -40 -13 -20 10 20 22 31 25 40
10z m2104 -323 c9 -12 8 -15 -6 -13 -12 1 -17 -5 -16 -18 1 -13 -2 -15 -10 -7
-7 7 -6 15 3 26 11 13 10 18 -6 31 -18 15 -18 15 2 5 11 -5 26 -16 33 -24z
m-2279 -20 c0 -2 -10 -12 -22 -23 l-23 -19 19 23 c18 21 26 27 26 19z m2301
-64 c8 -9 9 -14 3 -10 -7 4 -11 -5 -11 -23 0 -16 4 -27 8 -24 9 5 24 -15 16
-22 -2 -2 -12 -2 -21 2 -13 5 -16 14 -12 30 4 16 2 23 -5 22 -6 -2 -14 4 -16
12 -4 13 -3 13 7 0 10 -12 11 -11 7 8 -6 26 5 29 24 5z m-1728 -46 c-3 -4 -11
-3 -19 4 -7 6 -11 15 -8 20 3 5 11 3 18 -4 8 -6 12 -16 9 -20z m-23 -16 c0 -5
-7 -12 -16 -15 -14 -5 -15 -4 -4 9 14 17 20 19 20 6z m1790 -63 c0 -11 -4 -10
-31 5 -13 7 -25 18 -26 24 -2 7 9 5 27 -5 16 -9 30 -20 30 -24z m-73 -20 c-3
-8 -6 -5 -6 6 -1 11 2 17 5 13 3 -3 4 -12 1 -19z m41 -3 c-3 -3 -9 2 -12 12
-6 14 -5 15 5 6 7 -7 10 -15 7 -18z m31 -55 c11 -24 11 -24 -3 -6 -9 11 -16
24 -16 30 0 12 5 7 19 -24z m-19 -66 c0 -8 6 -13 13 -11 7 1 11 -7 10 -21 -2
-13 4 -25 12 -28 16 -6 21 -24 7 -24 -5 0 -15 12 -23 28 -8 15 -17 29 -20 32
-12 10 -22 53 -10 46 6 -4 11 -14 11 -22z m90 -69 c7 -9 8 -15 2 -15 -5 0 -12
7 -16 15 -3 8 -4 15 -2 15 2 0 9 -7 16 -15z m-20 -135 c0 -5 -2 -10 -4 -10 -3
0 -8 5 -11 10 -3 6 -1 10 4 10 6 0 11 -4 11 -10z m94 -65 c11 -20 16 -24 16
-12 0 21 13 22 30 2 9 -10 9 -15 1 -15 -6 0 -11 6 -11 13 0 7 -5 5 -11 -5 -5
-10 -16 -15 -24 -11 -13 4 -14 1 -5 -23 9 -22 9 -26 -1 -17 -6 6 -13 25 -15
41 -2 17 -4 34 -5 39 -6 34 4 29 25 -12z m118 -59 c-2 -9 1 -16 6 -16 6 0 13
-8 16 -17 6 -14 4 -14 -14 2 -33 30 -44 54 -22 50 10 -1 16 -9 14 -19z m-91
-58 c11 -21 11 -22 -4 -9 -10 7 -17 17 -17 22 0 15 9 10 21 -13z m-2881 -72
c0 -3 -4 -8 -10 -11 -5 -3 -10 -1 -10 4 0 6 5 11 10 11 6 0 10 -2 10 -4z
m2933 -76 c4 -17 3 -19 -9 -9 -8 6 -14 18 -14 26 0 20 16 8 23 -17z m-2992
-27 c8 -9 9 -14 2 -10 -6 4 -14 1 -16 -5 -3 -7 -6 -3 -6 10 -1 26 2 27 20 5z
m3057 -23 c26 -35 27 -41 7 -33 -17 6 -50 63 -37 63 4 0 18 -13 30 -30z m46
-31 c-10 -16 8 -32 18 -18 8 11 9 10 5 -2 -3 -9 0 -22 6 -28 8 -8 7 -14 -3
-23 -8 -7 -11 -9 -7 -4 4 5 -2 20 -14 32 -13 13 -19 30 -15 39 3 9 0 18 -9 21
-8 4 -15 11 -15 17 0 5 9 2 20 -8 11 -10 17 -22 14 -26z m139 -119 c3 -11 1
-18 -4 -14 -5 3 -9 12 -9 20 0 20 7 17 13 -6z m-2483 -20 c7 -16 20 -30 29
-30 11 -1 9 -5 -9 -16 -25 -15 -25 -15 -1 -8 14 4 21 2 17 -4 -3 -5 3 -12 14
-15 23 -6 55 26 47 47 -3 8 1 20 9 27 13 10 17 10 25 -2 5 -8 9 -23 9 -34 0
-11 14 -38 31 -59 44 -52 47 -87 9 -109 -15 -10 -48 -20 -73 -23 -38 -6 -46
-4 -50 12 -3 11 -10 40 -17 66 l-12 47 -34 -14 c-33 -14 -34 -13 -49 15 -20
38 -19 61 3 99 22 39 36 39 52 1z m2303 -70 c3 -11 1 -18 -4 -14 -5 3 -9 12
-9 20 0 20 7 17 13 -6z m-2299 -71 c-3 -5 -10 -7 -15 -3 -5 3 -7 10 -3 15 3 5
10 7 15 3 5 -3 7 -10 3 -15z m2287 -16 c13 -16 12 -17 -3 -4 -17 13 -22 21
-14 21 2 0 10 -8 17 -17z m-3211 -36 c0 -11 -50 -45 -55 -37 -3 5 7 16 22 24
31 17 33 18 33 13z m24 -22 c-4 -8 -13 -15 -22 -15 -13 0 -12 3 4 15 24 18 25
18 18 0z m-77 -57 c-3 -8 -6 -5 -6 6 -1 11 2 17 5 13 3 -3 4 -12 1 -19z m26
-63 c-3 -9 -8 -14 -10 -11 -3 3 -2 9 2 15 9 16 15 13 8 -4z m3113 -151 c-9
-26 -16 -58 -16 -71 0 -13 -5 -23 -11 -23 -6 0 -8 7 -5 16 3 8 2 12 -4 9 -6
-3 -10 -1 -10 4 0 6 5 11 10 11 6 0 10 5 10 11 0 5 -4 7 -10 4 -5 -3 -10 -2
-10 4 0 15 18 23 22 9 3 -7 10 9 18 35 7 26 15 45 18 43 2 -3 -3 -26 -12 -52z
m-3161 -34 c3 -18 2 -30 -2 -27 -3 4 -7 21 -9 38 -2 18 -1 30 2 27 3 -3 7 -20
9 -38z m40 -141 c11 -16 1 -19 -13 -3 -7 8 -8 14 -3 14 5 0 13 -5 16 -11z
m-22 -59 c3 -11 1 -18 -4 -14 -5 3 -9 12 -9 20 0 20 7 17 13 -6z m29 -12 c-7
-7 -12 -8 -12 -2 0 14 12 26 19 19 2 -3 -1 -11 -7 -17z m1510 3 c8 -10 24 -21
38 -23 22 -3 24 -8 28 -63 1 -33 2 -71 1 -85 -1 -14 -2 -32 -2 -40 -1 -8 2
-27 6 -42 6 -22 4 -28 -9 -28 -12 0 -14 -3 -6 -12 7 -9 6 -17 -4 -26 -9 -8
-14 -9 -14 -2 0 27 -18 -3 -24 -39 -3 -22 -9 -48 -12 -58 -4 -13 -3 -14 4 -5
7 11 10 9 14 -6 4 -15 1 -20 -11 -17 -22 4 -48 -11 -38 -22 5 -4 12 -2 16 6 7
10 9 9 14 -3 3 -8 2 -18 -2 -20 -5 -3 -7 -18 -5 -33 2 -16 1 -20 -2 -11 -3 9
-11 15 -19 12 -16 -7 -29 12 -15 21 6 4 8 10 5 15 -3 5 -21 -7 -40 -26 -38
-38 -63 -46 -43 -14 7 11 16 20 19 20 3 0 6 25 6 55 0 39 5 61 18 75 12 13 16
28 12 48 -3 16 -1 34 6 41 6 6 7 11 2 11 -6 0 -11 30 -11 66 -1 40 2 60 7 52
6 -9 9 -7 9 10 0 12 -4 22 -10 22 -14 0 -13 37 1 42 7 2 7 12 -2 32 -12 25
-11 29 11 47 31 23 36 23 52 0z m-1581 -54 c-10 -9 -11 -8 -5 6 3 10 9 15 12
12 3 -3 0 -11 -7 -18z m34 -17 c-3 -5 -12 -10 -18 -10 -7 0 -6 4 3 10 19 12
23 12 15 0z m3085 0 c0 -5 -4 -10 -10 -10 -5 0 -10 5 -10 10 0 6 5 10 10 10 6
0 10 -4 10 -10z m-3120 -44 c0 -3 -4 -8 -10 -11 -5 -3 -10 -1 -10 4 0 6 5 11
10 11 6 0 10 -2 10 -4z m3148 -121 c-3 -3 -9 2 -12 12 -6 14 -5 15 5 6 7 -7
10 -15 7 -18z m142 -80 c30 -22 58 -40 62 -40 4 0 8 -4 8 -10 0 -5 -6 -10 -12
-10 -19 1 -73 32 -73 42 0 4 -6 7 -12 7 -7 -1 -10 3 -7 8 3 5 -3 12 -15 15
-12 3 -21 10 -21 15 0 5 -4 7 -9 3 -5 -3 -13 0 -17 6 -4 8 -3 9 4 5 7 -4 12
-2 12 4 0 13 5 10 80 -45z m-3355 5 c3 -5 0 -10 -8 -10 -19 0 -29 -25 -21 -53
3 -16 -3 -30 -25 -51 -17 -16 -29 -32 -27 -35 1 -3 -8 -16 -21 -28 l-23 -22 0
30 c0 20 4 29 12 27 7 -3 27 11 45 31 27 30 30 38 18 47 -13 10 -12 14 5 34
11 13 20 27 20 32 0 11 17 10 25 -2z m-50 -80 c-3 -5 -10 -10 -16 -10 -5 0 -9
5 -9 10 0 6 7 10 16 10 8 0 12 -4 9 -10z m1185 6 c0 -2 -9 -6 -20 -9 -11 -3
-18 -1 -14 4 5 9 34 13 34 5z m2270 -27 c27 -17 50 -32 50 -35 0 -7 -35 9 -54
25 -10 9 -21 15 -25 15 -3 -1 -15 5 -26 12 -38 27 6 14 55 -17z m-48 -93 c7 4
8 2 4 -4 -4 -7 -2 -12 5 -12 7 0 10 -3 6 -6 -3 -3 -15 0 -26 8 -12 8 -18 18
-14 22 4 4 9 2 11 -3 2 -6 9 -8 14 -5z m127 -70 l-2 -31 -4 29 c-3 16 -11 39
-19 51 -8 12 -11 25 -8 28 11 11 34 -43 33 -77z m18 37 c-3 -10 -5 -4 -5 12 0
17 2 24 5 18 2 -7 2 -21 0 -30z m-3655 -13 c-5 -36 -7 -35 -16 3 -4 19 -3 27
7 27 9 0 12 -9 9 -30z m42 5 c-4 -8 -10 -15 -15 -15 -5 0 -9 -7 -9 -17 0 -9
-3 -13 -7 -10 -8 8 17 57 28 57 5 0 6 -7 3 -15z m3506 -10 c0 -2 -6 -5 -13 -8
-8 -3 -14 1 -14 8 0 7 6 11 14 8 7 -3 13 -6 13 -8z m127 -17 c-3 -8 -6 -5 -6
6 -1 11 2 17 5 13 3 -3 4 -12 1 -19z m-3636 -42 c-14 -36 -22 -33 -9 5 6 16
12 28 14 26 3 -2 0 -16 -5 -31z m869 17 c1 -17 1 -17 11 0 10 18 59 24 59 8 0
-81 -164 -205 -284 -216 -19 -2 -58 -10 -87 -19 -161 -46 -249 -59 -249 -37 0
15 96 127 133 155 30 23 183 92 257 116 14 5 55 9 93 9 57 1 67 -2 67 -16z
m-913 -25 c-3 -7 -5 -2 -5 12 0 14 2 19 5 13 2 -7 2 -19 0 -25z m-181 -205
c-10 -10 -19 5 -10 18 6 11 8 11 12 0 2 -7 1 -15 -2 -18z m34 -30 c0 -14 2
-14 14 3 8 10 18 16 22 11 4 -4 3 -7 -3 -7 -6 0 -9 -9 -5 -22 3 -14 2 -19 -7
-14 -7 4 -15 -2 -20 -16 -7 -17 -10 -19 -10 -5 -1 9 -5 17 -11 17 -5 0 -7 -8
-4 -17 5 -16 4 -16 -6 0 -8 13 -9 22 -1 31 20 24 -16 27 -46 3 l-28 -22 19 25
c23 30 86 40 86 13z m3640 -51 c0 -15 -2 -15 -10 -2 -13 20 -13 33 0 25 6 -3
10 -14 10 -23z m-3710 4 c0 -3 -4 -8 -10 -11 -5 -3 -10 -1 -10 4 0 6 5 11 10
11 6 0 10 -2 10 -4z m30 0 c0 -3 -4 -8 -10 -11 -5 -3 -10 -1 -10 4 0 6 5 11
10 11 6 0 10 -2 10 -4z m3677 -61 c0 -8 -4 -12 -9 -9 -5 3 -6 10 -3 15 9 13
12 11 12 -6z m-81 -44 c-4 -27 -15 -74 -26 -105 -10 -31 -15 -54 -10 -51 6 4
10 12 10 18 1 19 39 94 40 76 0 -9 -3 -19 -7 -22 -3 -4 -7 -17 -8 -30 -1 -12
-6 -31 -10 -41 -6 -14 -5 -17 4 -11 10 6 10 2 0 -16 -7 -13 -14 -26 -14 -29
-9 -37 -19 -60 -26 -60 -11 0 -11 3 1 34 5 14 7 33 4 41 -5 12 -10 11 -25 -8
l-19 -22 6 30 c3 17 12 50 19 75 33 117 39 130 47 118 5 -8 8 -1 8 20 0 17 3
32 6 32 4 0 4 -22 0 -49z m66 -8 c-3 -16 -7 -22 -10 -15 -4 13 4 42 11 42 2 0
2 -12 -1 -27z m56 2 c-3 -29 -18 -34 -18 -7 0 17 8 32 17 32 1 0 2 -11 1 -25z
m-96 -17 c-8 -8 -9 -4 -5 13 4 13 8 18 11 10 2 -7 -1 -18 -6 -23z m65 -20 c-3
-8 -6 -5 -6 6 -1 11 2 17 5 13 3 -3 4 -12 1 -19z m-3727 -38 c9 -16 8 -18 -5
-14 -8 4 -15 12 -15 20 0 20 7 17 20 -6z m3705 -21 c1 -21 -3 -35 -8 -32 -5 3
-6 -7 -3 -25 8 -32 -23 -99 -39 -84 -5 4 -5 2 -1 -5 9 -16 -27 -77 -48 -81
-14 -3 -15 0 -7 15 23 39 91 227 87 238 -2 7 1 12 7 12 7 0 12 -17 12 -38z
m12 -1 c-3 -8 -6 -5 -6 6 -1 11 2 17 5 13 3 -3 4 -12 1 -19z m-140 -216 c-11
-26 -16 -30 -27 -19 -10 10 -12 9 -7 -5 3 -9 0 -24 -7 -34 -21 -29 -24 -2 -5
41 10 22 19 33 19 25 0 -10 5 -8 17 7 23 28 26 23 10 -15z m-1210 22 c-3 -3
-12 -4 -19 -1 -8 3 -5 6 6 6 11 1 17 -2 13 -5z m1230 -75 c-2 -10 -9 -25 -15
-31 -7 -7 -12 -18 -12 -25 0 -8 -7 -16 -15 -19 -8 -3 -17 -16 -21 -27 -3 -12
-24 -58 -45 -103 -22 -44 -39 -88 -39 -97 0 -16 -1 -16 -20 0 -14 12 -16 19
-8 24 7 4 16 5 21 2 5 -3 4 4 -2 16 -10 17 -9 21 4 21 8 0 15 7 15 16 0 14 -3
14 -15 4 -13 -10 -15 -9 -15 9 0 11 2 21 4 21 2 0 12 3 22 7 13 5 15 3 9 -8
-4 -8 1 -5 12 6 11 11 19 23 17 26 -2 3 14 36 36 72 22 36 40 73 40 81 0 9 5
16 11 16 5 0 7 5 3 12 -4 7 -3 8 4 4 7 -4 10 -16 9 -27z m-93 -99 c-10 -16
-20 -28 -22 -26 -4 5 28 56 35 56 2 0 -4 -13 -13 -30z m-42 -62 c-7 -7 -12 -8
-12 -2 0 14 12 26 19 19 2 -3 -1 -11 -7 -17z m-85 -90 c-3 -7 -5 -2 -5 12 0
14 2 19 5 13 2 -7 2 -19 0 -25z m47 -6 c3 -5 -1 -9 -9 -9 -8 0 -12 4 -9 9 3 4
7 8 9 8 2 0 6 -4 9 -8z m13 -94 c-3 -8 -6 -5 -6 6 -1 11 2 17 5 13 3 -3 4 -12
1 -19z m-37 2 c0 -5 -5 -10 -11 -10 -5 0 -7 5 -4 10 3 6 8 10 11 10 2 0 4 -4
4 -10z m28 -97 c1 -22 0 -24 -8 -13 -12 18 -13 40 -2 40 4 0 9 -12 10 -27z"/>
<path d="M2370 2030 c0 -6 5 -10 10 -10 6 0 10 -9 10 -19 0 -11 4 -22 8 -25 5
-3 6 8 4 24 -4 26 -32 52 -32 30z"/>
<path d="M4006 1035 c-9 -26 -7 -32 5 -12 6 10 9 21 6 23 -2 3 -7 -2 -11 -11z"/>
<path d="M2760 4943 c8 -3 24 -10 35 -15 20 -9 20 -9 1 6 -11 9 -27 16 -35 15
-14 0 -14 -1 -1 -6z"/>
<path d="M1110 4915 c-7 -9 -8 -15 -2 -15 5 0 12 7 16 15 3 8 4 15 2 15 -2 0
-9 -7 -16 -15z"/>
<path d="M1155 4920 c-17 -7 -14 -9 13 -9 20 -1 31 3 27 9 -7 12 -13 12 -40 0z"/>
<path d="M4391 4914 c0 -11 3 -14 6 -6 3 7 2 16 -1 19 -3 4 -6 -2 -5 -13z"/>
<path d="M4295 4909 l-30 -7 28 -1 c19 -1 26 -5 21 -13 -4 -6 -3 -8 4 -4 5 3
12 0 15 -6 2 -7 6 -11 9 -8 3 3 0 14 -6 25 -9 16 -17 19 -41 14z"/>
<path d="M4358 4903 c7 -3 16 -2 19 1 4 3 -2 6 -13 5 -11 0 -14 -3 -6 -6z"/>
<path d="M4380 4880 c0 -5 5 -10 11 -10 5 0 7 5 4 10 -3 6 -8 10 -11 10 -2 0
-4 -4 -4 -10z"/>
<path d="M1117 4861 c-4 -17 -3 -21 5 -13 5 5 8 16 6 23 -3 8 -7 3 -11 -10z"/>
<path d="M1005 4843 c1 -10 -2 -24 -8 -31 -5 -7 -8 -13 -6 -15 40 -23 52 -27
57 -22 4 4 -1 11 -10 16 -18 10 -14 49 6 50 6 0 2 4 -9 9 -30 13 -34 12 -30
-7z"/>
<path d="M4327 4839 c7 -7 15 -10 18 -7 3 3 -2 9 -12 12 -14 6 -15 5 -6 -5z"/>
<path d="M4438 4813 c7 -3 16 -2 19 1 4 3 -2 6 -13 5 -11 0 -14 -3 -6 -6z"/>
<path d="M1068 4803 c7 -3 16 -2 19 1 4 3 -2 6 -13 5 -11 0 -14 -3 -6 -6z"/>
<path d="M960 4784 c0 -8 5 -12 10 -9 6 4 8 11 5 16 -9 14 -15 11 -15 -7z"/>
<path d="M4625 4762 c-6 -4 -10 -16 -9 -27 2 -38 6 -40 14 -5 9 39 9 42 -5 32z"/>
<path d="M1080 4750 c0 -5 5 -10 10 -10 6 0 10 5 10 10 0 6 -4 10 -10 10 -5 0
-10 -4 -10 -10z"/>
<path d="M946 4743 c5 -5 12 -12 16 -18 4 -6 8 -2 8 8 0 9 -7 17 -17 17 -9 0
-12 -3 -7 -7z"/>
<path d="M881 4728 c0 -9 -7 -18 -13 -21 -7 -2 -10 -8 -5 -12 11 -13 29 11 24
31 -4 16 -5 16 -6 2z"/>
<path d="M921 4716 c-10 -12 -8 -13 8 -9 12 3 18 9 15 14 -7 12 -10 11 -23 -5z"/>
<path d="M4690 4690 c-19 -4 -21 -7 -9 -12 9 -3 22 -2 30 2 19 13 8 18 -21 10z"/>
<path d="M4740 4690 c0 -5 5 -10 11 -10 5 0 7 5 4 10 -3 6 -8 10 -11 10 -2 0
-4 -4 -4 -10z"/>
<path d="M955 4680 c-2 -3 5 -7 16 -7 10 -1 19 2 19 6 0 9 -29 10 -35 1z"/>
<path d="M888 4643 c7 -3 16 -2 19 1 4 3 -2 6 -13 5 -11 0 -14 -3 -6 -6z"/>
<path d="M4786 4604 c-3 -8 1 -14 9 -14 20 0 28 17 11 23 -8 3 -17 -1 -20 -9z"/>
<path d="M765 4580 c3 -5 10 -10 16 -10 5 0 9 5 9 10 0 6 -7 10 -16 10 -8 0
-12 -4 -9 -10z"/>
<path d="M4825 4579 c-11 -17 1 -21 15 -4 8 9 8 15 2 15 -6 0 -14 -5 -17 -11z"/>
<path d="M710 4476 c0 -35 15 -40 16 -5 1 16 -3 29 -7 29 -5 0 -9 -11 -9 -24z"/>
<path d="M4825 4490 c-3 -5 -1 -10 4 -10 6 0 11 5 11 10 0 6 -2 10 -4 10 -3 0
-8 -4 -11 -10z"/>
<path d="M651 4479 c0 -9 -11 -23 -23 -32 -13 -8 -20 -18 -16 -22 12 -12 50
32 45 52 -4 14 -5 15 -6 2z"/>
<path d="M4785 4481 c-3 -5 -1 -12 5 -16 5 -3 10 1 10 9 0 18 -6 21 -15 7z"/>
<path d="M4900 4480 c0 -5 5 -10 10 -10 6 0 10 5 10 10 0 6 -4 10 -10 10 -5 0
-10 -4 -10 -10z"/>
<path d="M4968 4463 c7 -3 16 -2 19 1 4 3 -2 6 -13 5 -11 0 -14 -3 -6 -6z"/>
<path d="M4985 4440 c3 -5 8 -10 11 -10 2 0 4 5 4 10 0 6 -5 10 -11 10 -5 0
-7 -4 -4 -10z"/>
<path d="M4795 4430 c-3 -5 -1 -10 4 -10 6 0 11 5 11 10 0 6 -2 10 -4 10 -3 0
-8 -4 -11 -10z"/>
<path d="M4880 4420 c0 -19 3 -21 12 -12 9 9 9 15 0 24 -9 9 -12 7 -12 -12z"/>
<path d="M650 4416 c0 -10 9 -16 25 -16 14 0 25 5 25 11 0 5 -5 7 -10 4 -6 -4
-17 -1 -25 5 -12 10 -15 9 -15 -4z"/>
<path d="M580 4401 c0 -12 -4 -21 -10 -21 -5 0 -10 -4 -10 -9 0 -5 9 -7 20 -4
11 3 20 9 20 14 0 5 8 9 17 9 15 0 10 15 -5 15 -4 0 -13 4 -19 8 -9 6 -13 2
-13 -12z"/>
<path d="M530 4370 c0 -5 5 -10 10 -10 6 0 10 5 10 10 0 6 -4 10 -10 10 -5 0
-10 -4 -10 -10z"/>
<path d="M1465 4350 c-3 -5 -1 -10 4 -10 6 0 11 5 11 10 0 6 -2 10 -4 10 -3 0
-8 -4 -11 -10z"/>
<path d="M3585 4340 c3 -5 8 -10 11 -10 2 0 4 5 4 10 0 6 -5 10 -11 10 -5 0
-7 -4 -4 -10z"/>
<path d="M559 4325 c-1 -3 -2 -10 -3 -16 0 -6 -9 -17 -19 -24 -12 -8 -14 -15
-8 -20 6 -3 17 0 24 7 17 16 28 58 16 58 -5 0 -10 -2 -10 -5z"/>
<path d="M480 4290 c0 -5 5 -10 11 -10 5 0 7 5 4 10 -3 6 -8 10 -11 10 -2 0
-4 -4 -4 -10z"/>
<path d="M490 4260 c0 -5 5 -10 10 -10 6 0 10 5 10 10 0 6 -4 10 -10 10 -5 0
-10 -4 -10 -10z"/>
<path d="M554 4256 c-3 -8 0 -23 6 -33 9 -14 10 -14 7 -2 -3 9 -1 21 5 27 6 6
6 12 -1 17 -6 3 -14 0 -17 -9z"/>
<path d="M460 4219 c0 -5 5 -7 10 -4 6 3 10 8 10 11 0 2 -4 4 -10 4 -5 0 -10
-5 -10 -11z"/>
<path d="M490 4204 c0 -8 5 -12 10 -9 6 3 10 10 10 16 0 5 -4 9 -10 9 -5 0
-10 -7 -10 -16z"/>
<path d="M520 4165 c0 -8 5 -15 10 -15 6 0 10 7 10 15 0 8 -4 15 -10 15 -5 0
-10 -7 -10 -15z"/>
<path d="M3703 4165 c-7 -8 -9 -16 -4 -19 5 -3 12 1 15 10 8 22 4 25 -11 9z"/>
<path d="M1394 4052 c-6 -4 -14 -16 -18 -27 -7 -19 -5 -18 15 2 22 22 24 39 3
25z"/>
<path d="M431 4029 c-13 -11 -21 -23 -17 -26 4 -4 16 3 28 15 28 28 20 36 -11
11z"/>
<path d="M1382 3990 c3 -8 -1 -21 -9 -28 -7 -7 -13 -18 -13 -24 0 -6 10 1 21
16 17 22 19 30 9 39 -10 9 -11 9 -8 -3z"/>
<path d="M241 3924 c-6 -14 -9 -29 -6 -34 3 -5 -1 -11 -7 -13 -7 -3 -2 -6 11
-6 16 -1 22 3 17 14 -3 8 2 19 11 23 10 6 14 16 10 26 -9 23 -22 20 -36 -10z"/>
<path d="M305 3920 c-3 -5 -1 -10 4 -10 6 0 11 5 11 10 0 6 -2 10 -4 10 -3 0
-8 -4 -11 -10z"/>
<path d="M2080 3921 c0 -5 5 -13 10 -16 6 -3 10 -2 10 4 0 5 -4 13 -10 16 -5
3 -10 2 -10 -4z"/>
<path d="M3885 3890 c3 -5 8 -10 11 -10 2 0 4 5 4 10 0 6 -5 10 -11 10 -5 0
-7 -4 -4 -10z"/>
<path d="M3903 3855 c0 -8 4 -15 9 -15 4 0 8 4 8 9 0 6 -4 12 -8 15 -5 3 -9
-1 -9 -9z"/>
<path d="M285 3850 c4 -6 11 -8 16 -5 14 9 11 15 -7 15 -8 0 -12 -5 -9 -10z"/>
<path d="M2328 3798 c-21 -6 -38 -15 -38 -20 0 -6 -7 -8 -15 -4 -8 3 -15 1
-15 -5 0 -6 -4 -7 -10 -4 -6 4 -7 -1 -3 -11 4 -11 2 -15 -4 -11 -29 18 -128
-38 -136 -76 -1 -7 -6 -16 -12 -20 -6 -6 -6 -10 3 -14 6 -2 12 -13 12 -24 0
-10 7 -19 15 -19 8 0 15 -4 15 -10 0 -5 7 -10 16 -10 8 0 13 -4 10 -8 -2 -4
23 -7 57 -6 69 1 128 23 150 54 18 25 112 59 151 55 22 -3 78 14 105 32 2 2
-8 14 -22 29 -22 22 -29 24 -48 13 -19 -10 -25 -9 -36 7 -9 12 -16 15 -21 9
-4 -6 -14 -10 -22 -10 -8 1 -27 -5 -42 -12 -33 -16 -52 -17 -42 -1 5 8 2 9
-11 4 -18 -6 -18 -6 -2 11 10 12 13 23 7 33 -5 8 -6 18 -4 22 6 10 -10 9 -58
-4z"/>
<path d="M305 3790 c3 -5 8 -10 11 -10 2 0 4 5 4 10 0 6 -5 10 -11 10 -5 0 -7
-4 -4 -10z"/>
<path d="M2489 3793 c12 -4 12 -6 0 -15 -10 -7 -8 -8 9 -3 12 3 22 2 22 -3 0
-9 41 -25 47 -18 6 6 -45 35 -68 39 -13 2 -18 2 -10 0z"/>
<path d="M1299 3763 c-13 -16 -12 -17 4 -4 9 7 17 15 17 17 0 8 -8 3 -21 -13z"/>
<path d="M3910 3728 c0 -2 9 -11 20 -21 11 -9 20 -13 20 -7 0 5 -9 14 -20 20
-11 6 -20 9 -20 8z"/>
<path d="M280 3709 c0 -5 5 -7 10 -4 6 3 10 8 10 11 0 2 -4 4 -10 4 -5 0 -10
-5 -10 -11z"/>
<path d="M277 3633 c-4 -3 -7 -11 -7 -17 0 -6 5 -5 12 2 6 6 9 14 7 17 -3 3
-9 2 -12 -2z"/>
<path d="M2350 3573 c-14 -3 -29 -8 -34 -13 -7 -7 19 -4 89 13 16 4 14 5 -5 4
-14 0 -36 -2 -50 -4z"/>
<path d="M1132 3507 c-12 -13 -22 -28 -22 -34 0 -6 -7 -16 -15 -23 -15 -12
-50 -119 -42 -127 3 -2 13 20 22 49 10 29 31 71 48 93 17 22 35 46 40 53 17
22 -8 13 -31 -11z"/>
<path d="M3029 3480 c-24 -20 -24 -20 -5 -35 11 -8 28 -12 39 -9 11 4 23 1 28
-7 6 -10 11 -11 20 -2 8 8 4 19 -17 42 -32 37 -35 37 -65 11z"/>
<path d="M2841 3452 c-18 -8 -36 -23 -42 -33 -12 -23 -53 -25 -91 -5 -23 12
-28 13 -28 1 0 -17 47 -55 68 -55 8 0 20 7 26 15 17 23 135 50 158 36 23 -14
23 -3 0 25 -23 29 -54 34 -91 16z"/>
<path d="M1059 3443 c-13 -16 -12 -17 4 -4 9 7 17 15 17 17 0 8 -8 3 -21 -13z"/>
<path d="M86 3395 c-8 -22 4 -46 23 -43 22 4 27 38 6 38 -9 0 -13 5 -10 10 3
6 2 10 -3 10 -6 0 -12 -7 -16 -15z"/>
<path d="M4070 3331 c0 -6 5 -13 10 -16 6 -3 10 1 10 9 0 9 -4 16 -10 16 -5 0
-10 -4 -10 -9z"/>
<path d="M90 3300 c0 -19 3 -21 12 -12 9 9 9 15 0 24 -9 9 -12 7 -12 -12z"/>
<path d="M3399 3285 c35 -57 41 -63 41 -33 0 19 -10 34 -32 50 l-32 23 23 -40z"/>
<path d="M3076 3272 c-2 -4 -19 -9 -38 -10 -18 -1 -40 -11 -48 -21 -17 -21
-60 -38 -60 -23 0 14 -129 -7 -210 -35 -96 -33 -106 -38 -161 -84 -26 -22 -52
-39 -58 -39 -19 0 -12 -19 11 -31 13 -7 29 -18 36 -26 7 -7 22 -13 32 -13 10
0 20 -3 22 -7 12 -29 171 -78 200 -62 10 5 18 6 18 1 0 -12 50 -6 63 7 8 8 7
11 -4 11 -7 0 -23 8 -34 17 -20 15 -20 15 3 10 14 -3 22 0 22 7 0 8 -11 11
-30 8 -16 -2 -30 0 -30 4 0 5 -28 9 -62 9 l-63 0 -3 33 c-3 34 8 41 28 17 18
-21 32 -19 26 5 -3 11 -8 29 -11 39 -6 21 18 51 41 51 8 0 14 -6 13 -12 -3
-27 1 -38 15 -38 8 0 16 8 18 18 2 11 13 17 33 17 19 0 29 5 27 13 -8 39 240
65 255 26 3 -8 9 -11 14 -8 5 3 5 13 -1 25 -13 23 2 26 24 3 9 -8 16 -29 16
-45 0 -20 4 -28 11 -23 6 3 15 0 20 -7 14 -23 10 -69 -6 -75 -12 -5 -13 -9 -4
-20 10 -12 9 -13 -5 -8 -34 13 -14 -5 27 -25 24 -12 50 -32 57 -46 7 -14 18
-25 23 -25 6 0 3 8 -6 18 -18 20 -23 47 -7 37 6 -3 10 -2 10 3 0 5 9 19 20 32
11 13 20 28 21 34 2 32 11 63 24 83 10 14 11 24 4 28 -7 5 -6 11 1 20 7 8 9
19 5 26 -6 8 -2 8 14 0 17 -9 21 -9 21 3 0 17 -24 28 -45 20 -8 -4 -41 6 -73
21 -39 19 -78 29 -122 31 -36 2 -70 6 -77 9 -7 2 -14 1 -17 -3z"/>
<path d="M50 3189 c0 -5 5 -7 10 -4 6 3 10 8 10 11 0 2 -4 4 -10 4 -5 0 -10
-5 -10 -11z"/>
<path d="M50 3114 c0 -8 5 -12 10 -9 6 3 10 10 10 16 0 5 -4 9 -10 9 -5 0 -10
-7 -10 -16z"/>
<path d="M0 3093 c0 -16 6 -23 18 -23 10 0 23 -5 30 -12 9 -9 15 -9 24 0 9 9
8 12 -5 12 -9 0 -17 5 -17 11 0 6 -7 9 -15 5 -8 -3 -19 2 -24 12 -9 15 -10 14
-11 -5z"/>
<path d="M967 3090 c-5 -19 -9 -22 -16 -11 -5 7 -11 9 -14 5 -3 -5 1 -14 7
-20 9 -8 18 -7 34 6 21 18 31 37 13 26 -5 -4 -11 -1 -13 6 -3 7 -8 1 -11 -12z"/>
<path d="M0 3030 c0 -11 2 -20 4 -20 2 0 6 9 9 20 3 11 1 20 -4 20 -5 0 -9 -9
-9 -20z"/>
<path d="M960 3027 c0 -4 -4 -5 -10 -2 -5 3 -18 1 -27 -5 -17 -11 -17 -11 0
-6 9 3 24 3 32 -1 14 -5 14 -8 -2 -25 -12 -14 -13 -17 -2 -13 8 3 21 18 31 34
16 28 15 30 -3 28 -10 -1 -19 -5 -19 -10z"/>
<path d="M44 2999 c-3 -6 -1 -16 4 -21 8 -8 11 -5 9 11 -1 24 -3 25 -13 10z"/>
<path d="M3000 2995 c-11 -13 -7 -22 20 -56 38 -48 29 -63 -32 -54 -23 3 -38
1 -38 -5 0 -5 23 -10 51 -10 49 0 53 -2 113 -63 68 -68 119 -161 114 -205 -2
-22 -9 -28 -35 -30 -54 -5 -56 -20 -14 -108 21 -44 42 -90 45 -102 8 -24 21
-28 32 -11 3 6 15 9 25 6 15 -4 19 0 19 22 0 15 -3 31 -7 35 -4 3 -8 12 -9 19
-1 7 -5 19 -9 28 -3 10 -1 20 6 25 8 4 10 3 5 -4 -4 -7 -1 -12 7 -12 8 0 18 7
21 16 20 52 -13 136 -83 214 -22 25 -41 56 -42 70 -1 14 -3 30 -3 37 -1 7 -31
41 -68 77 -37 36 -74 79 -83 95 -18 36 -18 36 -35 16z"/>
<path d="M11 2984 c0 -11 3 -14 6 -6 3 7 2 16 -1 19 -3 4 -6 -2 -5 -13z"/>
<path d="M906 2985 c-9 -26 -7 -32 5 -12 6 10 9 21 6 23 -2 3 -7 -2 -11 -11z"/>
<path d="M981 2974 c0 -11 3 -14 6 -6 3 7 2 16 -1 19 -3 4 -6 -2 -5 -13z"/>
<path d="M886 2908 c-10 -39 -7 -44 9 -14 17 33 18 36 6 36 -5 0 -11 -10 -15
-22z"/>
<path d="M2667 2863 c-13 -12 -7 -26 6 -15 6 5 23 12 37 15 22 4 21 4 -6 6
-17 0 -34 -2 -37 -6z"/>
<path d="M6 2845 c-3 -8 -1 -15 4 -15 13 0 22 18 11 24 -5 3 -11 -1 -15 -9z"/>
<path d="M2 2640 c0 -14 2 -19 5 -12 2 6 2 18 0 25 -3 6 -5 1 -5 -13z"/>
<path d="M4312 2628 c-7 -7 -12 -16 -12 -21 0 -5 7 -1 16 8 9 9 14 18 12 20
-2 3 -10 -1 -16 -7z"/>
<path d="M4267 2527 l-17 -32 20 24 c17 20 26 41 18 41 -2 0 -11 -15 -21 -33z"/>
<path d="M750 2319 c0 -5 5 -7 10 -4 6 3 10 8 10 11 0 2 -4 4 -10 4 -5 0 -10
-5 -10 -11z"/>
<path d="M3912 2300 c0 -14 2 -19 5 -12 2 6 2 18 0 25 -3 6 -5 1 -5 -13z"/>
<path d="M714 2273 c3 -7 0 -13 -6 -13 -6 0 -9 -3 -6 -6 6 -6 48 17 48 26 0 3
-9 6 -20 6 -13 0 -19 -5 -16 -13z"/>
<path d="M636 2162 c-3 -5 1 -9 9 -9 8 0 12 4 9 9 -3 4 -7 8 -9 8 -2 0 -6 -4
-9 -8z"/>
<path d="M667 1969 c7 -7 15 -10 18 -7 3 3 -2 9 -12 12 -14 6 -15 5 -6 -5z"/>
<path d="M636 1943 c-6 -14 -5 -15 5 -6 7 7 10 15 7 18 -3 3 -9 -2 -12 -12z"/>
<path d="M542 1830 c0 -14 2 -19 5 -12 2 6 2 18 0 25 -3 6 -5 1 -5 -13z"/>
<path d="M485 1710 c-3 -5 -13 -7 -23 -4 -14 5 -14 4 -3 -4 14 -10 51 0 51 13
0 9 -19 5 -25 -5z"/>
<path d="M2310 1690 c-1 -8 -3 -23 -5 -32 -2 -11 2 -15 11 -11 16 6 16 10 4
38 -6 14 -9 15 -10 5z"/>
<path d="M4066 1637 c3 -10 9 -15 12 -12 3 3 0 11 -7 18 -10 9 -11 8 -5 -6z"/>
<path d="M358 1510 c-3 -17 -1 -33 4 -36 4 -3 8 11 8 30 0 44 -6 47 -12 6z"/>
<path d="M436 1525 c-2 -7 7 -10 25 -7 16 2 29 8 29 13 0 13 -49 7 -54 -6z"/>
<path d="M4233 1425 c0 -14 3 -28 8 -31 5 -3 9 9 9 25 0 17 -4 31 -9 31 -5 0
-8 -11 -8 -25z"/>
<path d="M0 1235 c0 -8 4 -15 8 -15 5 0 9 7 9 15 0 8 -4 15 -9 15 -4 0 -8 -7
-8 -15z"/>
<path d="M90 1070 c0 -5 5 -10 11 -10 5 0 7 5 4 10 -3 6 -8 10 -11 10 -2 0 -4
-4 -4 -10z"/>
<path d="M0 1059 c0 -5 5 -7 10 -4 5 3 10 8 10 11 0 2 -4 4 -10 4 -5 0 -10 -5
-10 -11z"/>
<path d="M81 1024 c0 -11 3 -14 6 -6 3 7 2 16 -1 19 -3 4 -6 -2 -5 -13z"/>
<path d="M1941 494 c0 -11 3 -14 6 -6 3 7 2 16 -1 19 -3 4 -6 -2 -5 -13z"/>
<path d="M1952 450 c0 -14 2 -19 5 -12 2 6 2 18 0 25 -3 6 -5 1 -5 -13z"/>
<path d="M1967 385 c2 -16 8 -79 14 -140 5 -60 14 -137 19 -170 5 -33 10 -63
10 -67 0 -5 5 -8 11 -8 7 0 8 7 4 17 -3 10 -11 70 -16 133 -5 63 -12 133 -16
155 -3 22 -6 53 -6 68 0 18 -3 24 -7 16 -6 -9 -9 -7 -13 7 -2 10 -2 6 0 -11z"/>
<path d="M3751 284 c0 -12 10 -66 24 -120 41 -158 43 -164 71 -164 13 0 24 5
24 11 0 8 5 8 15 -1 10 -8 15 -9 15 -1 0 6 -11 13 -25 17 -16 4 -31 19 -41 43
-9 20 -25 55 -36 78 -11 23 -20 60 -21 83 -1 22 -5 40 -9 40 -3 0 -9 8 -11 18
-4 13 -5 12 -6 -4z"/>
<path d="M849 68 c-7 -38 -4 -68 7 -68 16 0 20 55 4 65 -5 3 -10 5 -11 3z"/>
</g>
</svg>
