<svg id="evw3mi175tvq1" xmlns="http://www.w3.org/2000/svg" xmlns:xlink="http://www.w3.org/1999/xlink" viewBox="0 0 188 30" shape-rendering="geometricPrecision" text-rendering="geometricPrecision"><path id="evw3mi175tvq2" d="M17.948200,7.106450C17.948200,7.663090,17.860400,8.224610,17.684600,8.791020C17.508800,9.357420,17.250000,9.904300,16.908200,10.431600C16.576200,10.959000,16.170900,11.457000,15.692400,11.925800C15.223600,12.394500,14.696300,12.809600,14.110400,13.170900C13.534200,13.522500,12.909200,13.810500,12.235400,14.035200C11.561500,14.259800,10.858400,14.396500,10.126000,14.445300C9.989260,14.464800,9.852540,14.464800,9.715820,14.445300C9.588870,14.416000,9.471680,14.386700,9.364260,14.357400C9.286130,14.328100,9.173830,14.284200,9.027340,14.225600C8.890620,14.167000,8.802730,14.123000,8.763670,14.093800C8.705080,14.035200,8.622070,13.947300,8.514650,13.830100C8.416990,13.703100,8.343750,13.600600,8.294920,13.522500C8.265620,13.473600,8.250980,13.395500,8.250980,13.288100C8.260740,13.170900,8.265620,13.039100,8.265620,12.892600C8.265620,12.755900,8.260740,12.614300,8.250980,12.467800C8.250980,12.311500,8.265620,12.223600,8.294920,12.204100C8.314450,12.184600,8.358400,12.204100,8.426760,12.262700C8.504880,12.311500,8.651370,12.350600,8.866210,12.379900C8.954100,12.399400,9.051760,12.404300,9.159180,12.394500C9.276370,12.384800,9.388670,12.370100,9.496090,12.350600C9.837890,12.321300,10.233400,12.223600,10.682600,12.057600C11.131800,11.891600,11.590800,11.671900,12.059600,11.398400C12.538100,11.125000,13.006800,10.807600,13.465800,10.446300C13.924800,10.075200,14.330100,9.679690,14.681600,9.259770C15.043000,8.839840,15.331100,8.395510,15.545900,7.926760C15.770500,7.458010,15.882800,6.984380,15.882800,6.505860C15.882800,6.134770,15.809600,5.778320,15.663100,5.436520C15.516600,5.084960,15.287100,4.738280,14.974600,4.396480C14.779300,4.171880,14.398400,3.996090,13.832000,3.869140C13.265600,3.742190,12.586900,3.678710,11.795900,3.678710C11.122100,3.678710,10.399400,3.732420,9.627930,3.839840C8.856450,3.947270,8.089840,4.123050,7.328120,4.367190C6.673830,4.582030,6.117190,4.772460,5.658200,4.938480C5.199220,5.094730,4.803710,5.236330,4.471680,5.363280C4.149410,5.490230,3.880860,5.597660,3.666020,5.685550C3.460940,5.773440,3.280270,5.851560,3.124020,5.919920C2.967770,5.978520,2.826170,6.037110,2.699220,6.095700C2.572270,6.144530,2.435550,6.188480,2.289060,6.227540C2.152340,6.276370,2.044920,6.305660,1.966800,6.315430C1.888670,6.315430,1.825200,6.315430,1.776370,6.315430C1.698240,6.295900,1.639650,6.276370,1.600590,6.256840C1.571290,6.227540,1.532230,6.198240,1.483400,6.168950C1.444340,6.139650,1.405270,6.129880,1.366210,6.139650C1.327150,6.139650,1.288090,6.144530,1.249020,6.154300C1.219730,6.164060,1.185550,6.164060,1.146480,6.154300C1.107420,6.144530,1.068360,6.110350,1.029300,6.051760C0.970703,5.944340,0.931641,5.861330,0.912109,5.802730C0.882812,5.734370,0.868164,5.680660,0.868164,5.641600C0.858398,5.592770,0.858398,5.548830,0.868164,5.509770C0.877930,5.470700,0.892578,5.421880,0.912109,5.363280C0.921875,5.304690,0.921875,5.250980,0.912109,5.202150C0.902344,5.153320,0.897461,5.109380,0.897461,5.070310C0.887695,5.031250,0.892578,4.992190,0.912109,4.953120C0.921875,4.904300,0.960938,4.850590,1.029300,4.791990C1.166020,4.684570,1.390620,4.518550,1.703120,4.293950C2.015620,4.069340,2.401370,3.825200,2.860350,3.561520C3.329100,3.288090,3.861330,3.009770,4.457030,2.726560C5.062500,2.443360,5.716800,2.184570,6.419920,1.950200C7.132810,1.706050,7.889650,1.505860,8.690430,1.349610C9.500980,1.183590,10.345700,1.090820,11.224600,1.071290C12.103500,1.051760,12.875000,1.149410,13.539100,1.364260C14.212900,1.569340,14.798800,1.847660,15.296900,2.199220C15.794900,2.541020,16.210000,2.936520,16.542000,3.385740C16.883800,3.825200,17.157200,4.269530,17.362300,4.718750C17.567400,5.167970,17.713900,5.602540,17.801800,6.022460C17.889600,6.442380,17.938500,6.803710,17.948200,7.106450ZM7.899410,5.143550C7.889650,5.192380,7.870120,5.358400,7.840820,5.641600C7.821290,5.924800,7.791990,6.291020,7.752930,6.740230C7.723630,7.179690,7.689450,7.682620,7.650390,8.249020C7.611330,8.815430,7.572270,9.406250,7.533200,10.021500C7.494140,10.636700,7.455080,11.261700,7.416020,11.896500C7.386720,12.521500,7.367190,13.122100,7.357420,13.698200C7.337890,14.284200,7.323240,14.889600,7.313480,15.514600C7.303710,16.129900,7.298830,16.754900,7.298830,17.389600C7.298830,18.122100,7.313480,18.844700,7.342770,19.557600C7.381840,20.270500,7.445310,20.959000,7.533200,21.623000C7.572270,21.847700,7.557620,22.023400,7.489260,22.150400C7.420900,22.277300,7.386720,22.389600,7.386720,22.487300C7.386720,22.516600,7.401370,22.545900,7.430660,22.575200C7.459960,22.594700,7.464840,22.614300,7.445310,22.633800C7.416020,22.682600,7.362300,22.702100,7.284180,22.692400C7.215820,22.682600,7.152340,22.653300,7.093750,22.604500C7.064450,22.575200,7.040040,22.541000,7.020510,22.502000C7.000980,22.453100,6.981450,22.414100,6.961910,22.384800C6.942380,22.355500,6.917970,22.340800,6.888670,22.340800C6.859380,22.331100,6.815430,22.350600,6.756840,22.399400C6.708010,22.448200,6.649410,22.516600,6.581050,22.604500C6.522460,22.692400,6.458980,22.785200,6.390620,22.882800C6.322270,22.970700,6.253910,23.048800,6.185550,23.117200C6.117190,23.195300,6.048830,23.244100,5.980470,23.263700C5.921880,23.283200,5.848630,23.302700,5.760740,23.322300C5.682620,23.341800,5.633790,23.312500,5.614260,23.234400C5.594730,23.195300,5.575200,23.170900,5.555660,23.161100C5.536130,23.151400,5.511720,23.136700,5.482420,23.117200C5.453120,23.107400,5.423830,23.087900,5.394530,23.058600C5.375000,23.039100,5.360350,22.990200,5.350590,22.912100C5.301760,22.746100,5.243160,22.624000,5.174800,22.545900C5.116210,22.458000,5.086910,22.360400,5.086910,22.252900C5.067380,22.086900,5.018550,21.608400,4.940430,20.817400C4.872070,20.026400,4.837890,18.932600,4.837890,17.536100C4.837890,16.979500,4.842770,16.374000,4.852540,15.719700C4.872070,15.065400,4.906250,14.372100,4.955080,13.639600C5.003910,12.985400,5.062500,12.277300,5.130860,11.515600C5.199220,10.753900,5.267580,10.006800,5.335940,9.274410C5.414060,8.541990,5.482420,7.858400,5.541020,7.223630C5.599610,6.588870,5.643550,6.066410,5.672850,5.656250C5.682620,5.587890,5.707030,5.543950,5.746090,5.524410C5.785160,5.504880,5.838870,5.490230,5.907230,5.480470C5.975590,5.470700,6.063480,5.460940,6.170900,5.451170C6.278320,5.431640,6.405270,5.392580,6.551760,5.333980C6.668950,5.275390,6.805660,5.216800,6.961910,5.158200C7.127930,5.099610,7.279300,5.055660,7.416020,5.026370C7.562500,4.987300,7.679690,4.972660,7.767580,4.982420C7.865230,4.992190,7.909180,5.045900,7.899410,5.143550ZM23.514600,22.077100C23.524400,22.213900,23.485400,22.350600,23.397500,22.487300C23.319300,22.614300,23.221700,22.731400,23.104500,22.838900C22.997100,22.946300,22.884800,23.029300,22.767600,23.087900C22.660200,23.156200,22.577100,23.195300,22.518600,23.205100C22.381800,23.224600,22.230500,23.210000,22.064500,23.161100C21.898400,23.112300,21.771500,23.048800,21.683600,22.970700C21.615200,22.912100,21.566400,22.843800,21.537100,22.765600C21.517600,22.677700,21.493200,22.555700,21.463900,22.399400C21.415000,22.174800,21.366200,21.994100,21.317400,21.857400C21.278300,21.710900,21.244100,21.588900,21.214800,21.491200C21.185500,21.383800,21.156200,21.286100,21.127000,21.198200C21.107400,21.110400,21.092800,21.002900,21.083000,20.876000C20.975600,19.684600,20.912100,18.498000,20.892600,17.316400C20.873000,16.125000,20.882800,14.982400,20.921900,13.888700C20.960900,12.794900,21.019500,11.779300,21.097700,10.841800C21.185500,9.894530,21.268600,9.074220,21.346700,8.380860C21.434600,7.677730,21.512700,7.121090,21.581100,6.710940C21.649400,6.300780,21.693400,6.081050,21.712900,6.051760C21.742200,5.973630,21.825200,5.900390,21.961900,5.832030C22.108400,5.763670,22.274400,5.714840,22.460000,5.685550C22.596700,5.666020,22.699200,5.646480,22.767600,5.626950C22.835900,5.607420,22.894500,5.587890,22.943400,5.568360C22.992200,5.539060,23.045900,5.514650,23.104500,5.495120C23.172900,5.465820,23.275400,5.431640,23.412100,5.392580C23.529300,5.363280,23.597700,5.421880,23.617200,5.568360C23.636700,5.714840,23.631800,5.983400,23.602500,6.374020C23.573200,6.764650,23.529300,7.296880,23.470700,7.970700C23.421900,8.644530,23.382800,9.494140,23.353500,10.519500C23.460900,10.539100,23.578100,10.548800,23.705100,10.548800C23.841800,10.548800,23.988300,10.548800,24.144500,10.548800C24.662100,10.548800,25.262700,10.495100,25.946300,10.387700C26.629900,10.280300,27.313500,10.089800,27.997100,9.816410C28.690400,9.533200,29.344700,9.152340,29.960000,8.673830C30.575200,8.185550,31.073200,7.570310,31.454100,6.828120C31.512700,6.681640,31.542000,6.510740,31.542000,6.315430C31.542000,6.041990,31.449200,5.773440,31.263700,5.509770C31.087900,5.236330,30.804700,4.997070,30.414100,4.791990C30.023400,4.577150,29.515600,4.406250,28.890600,4.279300C28.265600,4.142580,27.513700,4.074220,26.634800,4.074220C26.117200,4.074220,25.580100,4.113280,25.023400,4.191410C24.466800,4.269530,23.900400,4.396480,23.324200,4.572270C22.748000,4.748050,22.167000,4.977540,21.581100,5.260740C20.995100,5.543950,20.418900,5.895510,19.852500,6.315430C19.823200,6.344730,19.769500,6.369140,19.691400,6.388670C19.613300,6.398440,19.535200,6.403320,19.457000,6.403320C19.310500,6.403320,19.168900,6.349610,19.032200,6.242190C18.895500,6.134770,18.827100,6.022460,18.827100,5.905270C18.827100,5.846680,18.846700,5.797850,18.885700,5.758790C18.924800,5.709960,18.968800,5.666020,19.017600,5.626950C19.076200,5.587890,19.125000,5.553710,19.164100,5.524410C19.203100,5.495120,19.222700,5.470700,19.222700,5.451170C19.222700,5.421880,19.203100,5.382810,19.164100,5.333980C19.125000,5.285160,19.105500,5.221680,19.105500,5.143550C19.105500,5.133790,19.081100,5.124020,19.032200,5.114260C18.983400,5.104490,18.924800,5.089840,18.856400,5.070310C18.797900,5.050780,18.744100,5.021480,18.695300,4.982420C18.646500,4.933590,18.622100,4.870120,18.622100,4.791990C18.622100,4.733400,18.651400,4.684570,18.710000,4.645510C18.778300,4.606450,18.856400,4.552730,18.944300,4.484380C19.061500,4.416020,19.266600,4.284180,19.559600,4.088870C19.852500,3.893550,20.204100,3.673830,20.614300,3.429690C21.034200,3.185550,21.498000,2.931640,22.005900,2.667970C22.513700,2.404300,23.045900,2.165040,23.602500,1.950200C24.168900,1.725590,24.745100,1.544920,25.331100,1.408200C25.917000,1.261720,26.488300,1.188480,27.044900,1.188480C27.611300,1.188480,28.153300,1.286130,28.670900,1.481450C29.188500,1.676760,29.671900,1.935550,30.121100,2.257810C30.570300,2.580080,30.975600,2.956050,31.336900,3.385740C31.698200,3.805660,32.005900,4.250000,32.259800,4.718750C32.523400,5.177730,32.723600,5.646480,32.860400,6.125000C33.006800,6.593750,33.080100,7.038090,33.080100,7.458010C33.080100,7.946290,32.918900,8.415040,32.596700,8.864260C32.284200,9.313480,31.878900,9.733400,31.380900,10.124000C30.892600,10.514600,30.355500,10.871100,29.769500,11.193400C29.183600,11.505900,28.627000,11.779300,28.099600,12.013700C27.601600,12.228500,27.088900,12.384800,26.561500,12.482400C26.043900,12.570300,25.565400,12.624000,25.126000,12.643600C25.614300,12.829100,26.127000,13.083000,26.664100,13.405300C27.210900,13.727500,27.748000,14.176800,28.275400,14.752900C28.539100,15.045900,28.797900,15.441400,29.051800,15.939500C29.305700,16.427700,29.559600,16.969700,29.813500,17.565400C30.067400,18.161100,30.321300,18.791000,30.575200,19.455100C30.838900,20.119100,31.112300,20.778300,31.395500,21.432600C31.688500,22.077100,31.996100,22.692400,32.318400,23.278300C32.650400,23.874000,33.002000,24.396500,33.373000,24.845700C33.753900,25.294900,34.159200,25.651400,34.588900,25.915000C35.028300,26.188500,35.506800,26.325200,36.024400,26.325200C36.493200,26.325200,37.001000,26.203100,37.547900,25.959000C38.104500,25.724600,38.705100,25.319300,39.349600,24.743200C39.593800,24.547900,39.750000,24.391600,39.818400,24.274400C39.896500,24.167000,39.950200,24.113300,39.979500,24.113300C40.008800,24.113300,40.028300,24.132800,40.038100,24.171900C40.057600,24.210900,40.067400,24.250000,40.067400,24.289100C40.077100,24.337900,40.082000,24.381800,40.082000,24.420900C40.082000,24.460000,40.086900,24.484400,40.096700,24.494100L40.096700,24.523400C40.096700,24.572300,40.077100,24.616200,40.038100,24.655300C40.067400,24.655300,40.086900,24.669900,40.096700,24.699200C40.116200,24.738300,40.126000,24.782200,40.126000,24.831100C40.126000,24.909200,40.106400,24.987300,40.067400,25.065400C39.999000,25.163100,39.916000,25.334000,39.818400,25.578100C39.720700,25.832000,39.588900,26.115200,39.422900,26.427700C39.266600,26.740200,39.071300,27.062500,38.836900,27.394500C38.602500,27.736300,38.314500,28.048800,37.972700,28.332000C37.640600,28.615200,37.240200,28.844700,36.771500,29.020500C36.302700,29.206100,35.760700,29.298800,35.145500,29.298800C34.774400,29.298800,34.388700,29.250000,33.988300,29.152300C33.597700,29.054700,33.202100,28.883800,32.801800,28.639600C32.411100,28.405300,32.020500,28.092800,31.629900,27.702100C31.239300,27.311500,30.863300,26.823200,30.502000,26.237300C30.316400,25.954100,30.121100,25.509800,29.916000,24.904300C29.720700,24.298800,29.510700,23.615200,29.286100,22.853500C29.071300,22.082000,28.841800,21.271500,28.597700,20.421900C28.353500,19.572300,28.089800,18.756800,27.806600,17.975600C27.523400,17.194300,27.215800,16.491200,26.883800,15.866200C26.561500,15.231400,26.214800,14.748000,25.843800,14.416000C25.638700,14.240200,25.428700,14.069300,25.213900,13.903300C24.999000,13.737300,24.784200,13.595700,24.569300,13.478500C24.364300,13.351600,24.159200,13.253900,23.954100,13.185500C23.749000,13.107400,23.558600,13.068400,23.382800,13.068400L23.324200,13.068400C23.324200,13.595700,23.324200,14.157200,23.324200,14.752900C23.334000,15.348600,23.338900,15.949200,23.338900,16.554700C23.348600,17.150400,23.358400,17.736300,23.368200,18.312500C23.377900,18.888700,23.387700,19.425800,23.397500,19.923800C23.417000,20.412100,23.436500,20.846700,23.456100,21.227500C23.475600,21.598600,23.495100,21.881800,23.514600,22.077100ZM40.418900,2.536130C40.418900,4.303710,40.384800,6.100590,40.316400,7.926760C40.248000,9.743160,40.199200,11.549800,40.169900,13.346700C40.160200,14.167000,40.165000,14.982400,40.184600,15.793000C40.213900,16.593800,40.243200,17.360400,40.272500,18.092800C40.311500,18.815400,40.345700,19.479500,40.375000,20.085000C40.404300,20.680700,40.418900,21.183600,40.418900,21.593800C40.418900,21.877000,40.409200,22.106400,40.389600,22.282200C40.370100,22.448200,40.335900,22.545900,40.287100,22.575200C40.238300,22.624000,40.194300,22.653300,40.155300,22.663100C40.116200,22.672900,40.077100,22.677700,40.038100,22.677700C39.999000,22.677700,39.955100,22.677700,39.906200,22.677700C39.867200,22.668000,39.818400,22.677700,39.759800,22.707000C39.691400,22.736300,39.647500,22.770500,39.627900,22.809600C39.608400,22.838900,39.588900,22.873000,39.569300,22.912100C39.549800,22.951200,39.520500,22.990200,39.481400,23.029300C39.442400,23.068400,39.374000,23.107400,39.276400,23.146500C39.149400,23.175800,39.027300,23.141600,38.910200,23.043900C38.802700,22.956100,38.695300,22.882800,38.587900,22.824200C38.421900,22.726600,38.285200,22.648400,38.177700,22.589800C38.080100,22.521500,37.987300,22.418900,37.899400,22.282200C37.831100,22.165000,37.772500,21.989300,37.723600,21.754900C37.674800,21.510700,37.635700,21.227500,37.606400,20.905300C37.577100,20.573200,37.557600,20.207000,37.547900,19.806600C37.538100,19.406200,37.533200,18.991200,37.533200,18.561500C37.533200,18.073200,37.538100,17.585000,37.547900,17.096700C37.557600,16.598600,37.567400,16.125000,37.577100,15.675800C37.596700,15.226600,37.611300,14.821300,37.621100,14.460000C37.630900,14.098600,37.640600,13.805700,37.650400,13.581100C37.669900,12.877900,37.694300,12.140600,37.723600,11.369100C37.762700,10.597700,37.796900,9.831050,37.826200,9.069340C37.865200,8.297850,37.904300,7.555660,37.943400,6.842770C37.982400,6.129880,38.021500,5.480470,38.060500,4.894530C38.099600,4.298830,38.133800,3.795900,38.163100,3.385740C38.202100,2.965820,38.241200,2.672850,38.280300,2.506840C38.338900,2.301760,38.441400,2.184570,38.587900,2.155270C38.656200,2.125980,38.710000,2.130860,38.749000,2.169920C38.797900,2.208980,38.851600,2.184570,38.910200,2.096680C38.929700,2.047850,38.959000,2.018550,38.998000,2.008790C39.037100,1.999020,39.076200,1.994140,39.115200,1.994140C39.154300,1.994140,39.193400,1.994140,39.232400,1.994140C39.271500,1.994140,39.305700,1.984370,39.335000,1.964840C39.393600,1.906250,39.452100,1.896480,39.510700,1.935550C39.579100,1.964840,39.627900,1.994140,39.657200,2.023440C39.686500,2.091800,39.725600,2.145510,39.774400,2.184570C39.823200,2.213870,39.877000,2.204100,39.935500,2.155270C39.964800,2.125980,40.003900,2.111330,40.052700,2.111330C40.111300,2.111330,40.150400,2.135740,40.169900,2.184570C40.199200,2.233400,40.248000,2.282230,40.316400,2.331050C40.384800,2.379880,40.418900,2.448240,40.418900,2.536130ZM59.242200,2.536130C59.310500,2.536130,59.349600,2.555660,59.359400,2.594730C59.369100,2.624020,59.320300,2.677730,59.212900,2.755860C59.193400,2.775390,59.183600,2.794920,59.183600,2.814450C59.183600,2.824220,59.183600,2.838870,59.183600,2.858400C59.183600,2.877930,59.173800,2.907230,59.154300,2.946290C59.144500,2.975590,59.115200,3.019530,59.066400,3.078120C58.978500,3.175780,58.817400,3.371090,58.583000,3.664060C58.348600,3.957030,58.070300,4.313480,57.748000,4.733400C57.425800,5.143550,57.069300,5.602540,56.678700,6.110350C56.297900,6.618160,55.902300,7.140620,55.492200,7.677730C55.091800,8.214840,54.691400,8.751950,54.291000,9.289060C53.900400,9.816410,53.534200,10.314500,53.192400,10.783200C52.850600,11.242200,52.552700,11.652300,52.298800,12.013700C52.044900,12.365200,51.859400,12.638700,51.742200,12.834000L51.742200,13.302700C51.742200,13.673800,51.732400,14.123000,51.712900,14.650400C51.703100,15.177700,51.688500,15.739300,51.668900,16.335000C51.649400,16.920900,51.629900,17.516600,51.610400,18.122100C51.590800,18.727500,51.571300,19.289100,51.551800,19.806600C51.532200,20.324200,51.512700,20.778300,51.493200,21.168900C51.483400,21.559600,51.478500,21.837900,51.478500,22.003900C51.478500,22.140600,51.468800,22.243200,51.449200,22.311500C51.439500,22.379900,51.419900,22.428700,51.390600,22.458000C51.361300,22.477500,51.317400,22.487300,51.258800,22.487300C51.210000,22.487300,51.141600,22.487300,51.053700,22.487300C50.965800,22.487300,50.917000,22.458000,50.907200,22.399400C50.897500,22.340800,50.877900,22.301800,50.848600,22.282200C50.819300,22.272500,50.799800,22.292000,50.790000,22.340800C50.780300,22.389600,50.775400,22.443400,50.775400,22.502000C50.775400,22.560500,50.770500,22.614300,50.760700,22.663100C50.760700,22.711900,50.751000,22.736300,50.731400,22.736300C50.672900,22.736300,50.609400,22.721700,50.541000,22.692400C50.482400,22.653300,50.423800,22.614300,50.365200,22.575200C50.316400,22.536100,50.267600,22.506800,50.218800,22.487300C50.179700,22.458000,50.150400,22.448200,50.130900,22.458000C50.111300,22.467800,50.106400,22.487300,50.116200,22.516600C50.126000,22.545900,50.130900,22.575200,50.130900,22.604500C50.130900,22.633800,50.126000,22.658200,50.116200,22.677700C50.106400,22.687500,50.082000,22.682600,50.043000,22.663100C49.994100,22.653300,49.945300,22.633800,49.896500,22.604500C49.847700,22.565400,49.803700,22.536100,49.764600,22.516600C49.725600,22.487300,49.691400,22.477500,49.662100,22.487300C49.642600,22.487300,49.627900,22.516600,49.618200,22.575200C49.598600,22.711900,49.584000,22.848600,49.574200,22.985400C49.564500,23.112300,49.530300,23.166000,49.471700,23.146500C49.374000,23.127000,49.247100,23.087900,49.090800,23.029300C48.934600,22.970700,48.841800,22.848600,48.812500,22.663100C48.793000,22.545900,48.783200,22.399400,48.783200,22.223600C48.783200,22.047900,48.783200,21.847700,48.783200,21.623000C48.783200,21.125000,48.793000,20.543900,48.812500,19.879900C48.841800,19.215800,48.871100,18.537100,48.900400,17.843800C48.929700,17.150400,48.954100,16.481400,48.973600,15.836900C49.002900,15.192400,49.017600,14.640600,49.017600,14.181600C49.017600,13.556600,48.988300,13.185500,48.929700,13.068400C48.880900,12.990200,48.729500,12.751000,48.475600,12.350600C48.221700,11.940400,47.904300,11.442400,47.523400,10.856400C47.152300,10.260700,46.737300,9.606450,46.278300,8.893550C45.829100,8.180660,45.384800,7.477540,44.945300,6.784180C44.515600,6.081050,44.110400,5.421880,43.729500,4.806640C43.358400,4.191410,43.060500,3.683590,42.835900,3.283200C42.796900,3.214840,42.767600,3.141600,42.748000,3.063480C42.728500,2.975590,42.713900,2.892580,42.704100,2.814450C42.694300,2.736330,42.694300,2.672850,42.704100,2.624020C42.713900,2.565430,42.728500,2.526370,42.748000,2.506840C42.787100,2.487300,42.840800,2.467770,42.909200,2.448240C42.967800,2.428710,43.041000,2.418950,43.128900,2.418950C43.216800,2.409180,43.329100,2.409180,43.465800,2.418950C43.504900,2.536130,43.539100,2.609380,43.568400,2.638670C43.597700,2.667970,43.627000,2.677730,43.656200,2.667970C43.685500,2.648440,43.714800,2.619140,43.744100,2.580080C43.773400,2.531250,43.802700,2.497070,43.832000,2.477540C43.939500,2.370120,44.007800,2.311520,44.037100,2.301760C44.066400,2.291990,44.134800,2.331050,44.242200,2.418950C44.339800,2.506840,44.413100,2.531250,44.461900,2.492190C44.510700,2.453120,44.579100,2.360350,44.667000,2.213870C44.754900,2.086910,44.852500,2.057620,44.960000,2.125980C45.077100,2.184570,45.209000,2.301760,45.355500,2.477540L45.575200,2.726560C45.692400,2.863280,45.873000,3.112300,46.117200,3.473630C46.361300,3.825200,46.639600,4.245120,46.952100,4.733400C47.274400,5.221680,47.616200,5.758790,47.977500,6.344730C48.348600,6.920900,48.714800,7.501950,49.076200,8.087890C49.437500,8.673830,49.784200,9.240230,50.116200,9.787110C50.448200,10.334000,50.741200,10.817400,50.995100,11.237300C51.200200,10.876000,51.473600,10.426800,51.815400,9.889650C52.167000,9.342770,52.543000,8.766600,52.943400,8.161130C53.343800,7.555660,53.758800,6.945310,54.188500,6.330080C54.618200,5.705080,55.023400,5.128910,55.404300,4.601560C55.785200,4.074220,56.122100,3.625000,56.415000,3.253910C56.717800,2.873050,56.942400,2.624020,57.088900,2.506840C57.157200,2.448240,57.215800,2.404300,57.264600,2.375000C57.323200,2.345700,57.372100,2.326170,57.411100,2.316410C57.460000,2.296880,57.503900,2.287110,57.543000,2.287110C57.591800,2.287110,57.640600,2.282230,57.689500,2.272460C57.835900,2.272460,57.928700,2.282230,57.967800,2.301760C58.016600,2.321290,58.045900,2.340820,58.055700,2.360350C58.075200,2.379880,58.089800,2.399410,58.099600,2.418950C58.119100,2.428710,58.163100,2.428710,58.231400,2.418950C58.377900,2.399410,58.519500,2.389650,58.656200,2.389650C58.793000,2.389650,58.871100,2.418950,58.890600,2.477540C58.890600,2.497070,58.905300,2.511720,58.934600,2.521480C58.963900,2.531250,59.066400,2.536130,59.242200,2.536130ZM72.748000,22.575200C72.748000,22.653300,72.699200,22.697300,72.601600,22.707000C72.503900,22.707000,72.401400,22.707000,72.293900,22.707000C72.245100,22.716800,72.196300,22.726600,72.147500,22.736300C72.098600,22.755900,72.044900,22.775400,71.986300,22.794900C71.937500,22.804700,71.888700,22.834000,71.839800,22.882800C71.859400,22.980500,71.864300,23.053700,71.854500,23.102500C71.854500,23.161100,71.854500,23.205100,71.854500,23.234400L71.839800,23.293000C71.810500,23.332000,71.752000,23.361300,71.664100,23.380900C71.576200,23.410200,71.483400,23.424800,71.385700,23.424800C71.366200,23.424800,71.336900,23.419900,71.297900,23.410200C71.229500,23.390600,71.161100,23.341800,71.092800,23.263700C70.926800,23.214800,70.731400,23.166000,70.506800,23.117200C70.389600,23.087900,70.262700,23.058600,70.126000,23.029300C70.018600,23,69.925800,22.921900,69.847700,22.794900C69.769500,22.668000,69.696300,22.521500,69.627900,22.355500C69.569300,22.179700,69.510700,22.003900,69.452100,21.828100C69.403300,21.642600,69.359400,21.481400,69.320300,21.344700L67.884800,16.818400C67.669900,16.818400,67.396500,16.823200,67.064500,16.833000C66.742200,16.833000,66.395500,16.837900,66.024400,16.847700C65.653300,16.847700,65.277300,16.857400,64.896500,16.877000C64.515600,16.886700,64.168900,16.896500,63.856400,16.906200L60.926800,17.052700L59.212900,21.535200C59.183600,21.584000,59.139600,21.681600,59.081100,21.828100C59.032200,21.974600,58.978500,22.130900,58.919900,22.296900C58.861300,22.453100,58.807600,22.604500,58.758800,22.751000C58.710000,22.887700,58.680700,22.970700,58.670900,23C58.651400,23.078100,58.592800,23.127000,58.495100,23.146500C58.397500,23.166000,58.314500,23.185500,58.246100,23.205100C58.187500,23.224600,58.138700,23.278300,58.099600,23.366200C58.060500,23.454100,58.002000,23.512700,57.923800,23.542000C57.845700,23.590800,57.748000,23.595700,57.630900,23.556600C57.513700,23.517600,57.411100,23.454100,57.323200,23.366200C57.245100,23.268600,57.215800,23.146500,57.235400,23C57.254900,22.843800,57.264600,22.682600,57.264600,22.516600C57.264600,22.350600,57.259800,22.194300,57.250000,22.047900C57.250000,21.901400,57.274400,21.759800,57.323200,21.623000C57.342800,21.564500,57.401400,21.383800,57.499000,21.081100C57.606400,20.768600,57.738300,20.397500,57.894500,19.967800C58.050800,19.528300,58.221700,19.054700,58.407200,18.546900C58.592800,18.029300,58.783200,17.531200,58.978500,17.052700C58.802700,17.052700,58.680700,17.003900,58.612300,16.906200C58.563500,16.828100,58.504900,16.784200,58.436500,16.774400C58.368200,16.754900,58.294900,16.730500,58.216800,16.701200C58.138700,16.681600,58.085000,16.637700,58.055700,16.569300C58.026400,16.501000,58.021500,16.442400,58.041000,16.393600C58.060500,16.335000,58.045900,16.286100,57.997100,16.247100C57.948200,16.208000,57.923800,16.120100,57.923800,15.983400C57.923800,15.924800,57.967800,15.871100,58.055700,15.822300C58.153300,15.763700,58.270500,15.714800,58.407200,15.675800C58.543900,15.636700,58.695300,15.602500,58.861300,15.573200C59.037100,15.543900,59.203100,15.519500,59.359400,15.500000C59.388700,15.500000,59.422900,15.500000,59.461900,15.500000C59.510700,15.500000,59.559600,15.490200,59.608400,15.470700C59.823200,14.953100,60.067400,14.396500,60.340800,13.800800C60.614300,13.195300,60.892600,12.580100,61.175800,11.955100C61.468800,11.330100,61.761700,10.705100,62.054700,10.080100C62.347700,9.455080,62.626000,8.869140,62.889600,8.322270C63.153300,7.765620,63.392600,7.257810,63.607400,6.798830C63.832000,6.339840,64.017600,5.958980,64.164100,5.656250C64.046900,5.294920,63.939500,4.962890,63.841800,4.660160C63.753900,4.357420,63.675800,4.093750,63.607400,3.869140C63.539100,3.644530,63.485400,3.468750,63.446300,3.341800C63.407200,3.205080,63.387700,3.126950,63.387700,3.107420C63.377900,3.087890,63.377900,3.068360,63.387700,3.048830C63.407200,3,63.456100,2.970700,63.534200,2.960940C63.456100,2.814450,63.417000,2.707030,63.417000,2.638670C63.417000,2.599610,63.426800,2.575200,63.446300,2.565430C63.465800,2.545900,63.514600,2.526370,63.592800,2.506840C63.670900,2.487300,63.753900,2.472660,63.841800,2.462890C63.929700,2.443360,64.012700,2.433590,64.090800,2.433590C64.168900,2.423830,64.222700,2.418950,64.252000,2.418950C64.261700,2.418950,64.286100,2.423830,64.325200,2.433590C64.383800,2.453120,64.466800,2.497070,64.574200,2.565430C64.584000,2.516600,64.593800,2.482420,64.603500,2.462890C64.623000,2.443360,64.642600,2.423830,64.662100,2.404300L64.706100,2.360350C64.764600,2.331050,64.828100,2.326170,64.896500,2.345700C64.964800,2.355470,65.028300,2.360350,65.086900,2.360350C65.145500,2.360350,65.184600,2.335940,65.204100,2.287110C65.233400,2.238280,65.296900,2.213870,65.394500,2.213870C65.521500,2.213870,65.628900,2.350590,65.716800,2.624020C65.726600,2.672850,65.794900,2.858400,65.921900,3.180660C66.048800,3.493160,66.210000,3.908200,66.405300,4.425780C66.600600,4.933590,66.825200,5.524410,67.079100,6.198240C67.342800,6.872070,67.616200,7.589840,67.899400,8.351560C68.182600,9.103520,68.465800,9.884770,68.749000,10.695300C69.042000,11.496100,69.320300,12.287100,69.584000,13.068400C70.130900,14.660200,70.589800,16.002900,70.960900,17.096700C71.332000,18.190400,71.629900,19.084000,71.854500,19.777300C72.088900,20.470700,72.259800,20.988300,72.367200,21.330100C72.484400,21.671900,72.557600,21.877000,72.586900,21.945300C72.635700,22.101600,72.674800,22.228500,72.704100,22.326200C72.733400,22.414100,72.748000,22.497100,72.748000,22.575200ZM66.434600,12.555700C66.180700,11.833000,65.902300,11.022500,65.599600,10.124000C65.306600,9.225590,65.018600,8.336910,64.735400,7.458010C64.569300,7.887700,64.369100,8.405270,64.134800,9.010740C63.900400,9.616210,63.651400,10.241200,63.387700,10.885700C63.133800,11.530300,62.884800,12.160200,62.640600,12.775400C62.396500,13.390600,62.181600,13.918000,61.996100,14.357400L61.585900,15.324200L64.222700,15.163100C64.447300,15.163100,64.715800,15.158200,65.028300,15.148400C65.555700,15.138700,66.317400,15.124000,67.313500,15.104500L66.434600,12.555700ZM90.560500,2.448240C90.580100,2.624020,90.589800,2.990230,90.589800,3.546880C90.589800,4.093750,90.580100,4.767580,90.560500,5.568360C90.550800,6.369140,90.531200,7.262700,90.502000,8.249020C90.482400,9.235350,90.453100,10.260700,90.414100,11.325200C90.375000,12.379900,90.331100,13.444300,90.282200,14.518600C90.243200,15.583000,90.199200,16.593800,90.150400,17.550800C90.101600,18.507800,90.047900,19.381800,89.989300,20.172900C89.930700,20.954100,89.872100,21.588900,89.813500,22.077100C89.813500,22.135700,89.784200,22.189500,89.725600,22.238300C89.676800,22.277300,89.623000,22.350600,89.564500,22.458000C89.505900,22.555700,89.447300,22.609400,89.388700,22.619100C89.330100,22.628900,89.281200,22.628900,89.242200,22.619100C89.203100,22.609400,89.173800,22.609400,89.154300,22.619100C89.134800,22.628900,89.134800,22.677700,89.154300,22.765600C89.173800,22.824200,89.139600,22.873000,89.051800,22.912100C88.973600,22.941400,88.905300,22.931600,88.846700,22.882800C88.768600,22.824200,88.675800,22.755900,88.568400,22.677700C88.460900,22.589800,88.392600,22.545900,88.363300,22.545900C88.304700,22.536100,88.285200,22.560500,88.304700,22.619100C88.324200,22.677700,88.348600,22.741200,88.377900,22.809600C88.417000,22.877900,88.441400,22.941400,88.451200,23C88.470700,23.068400,88.441400,23.107400,88.363300,23.117200C88.216800,23.136700,88.045900,23.102500,87.850600,23.014600C87.665000,22.926800,87.489300,22.824200,87.323200,22.707000C87.186500,22.599600,86.981400,22.360400,86.708000,21.989300C86.434600,21.618200,86.107400,21.149400,85.726600,20.583000C85.355500,20.006800,84.940400,19.352500,84.481400,18.620100C84.032200,17.887700,83.563500,17.106400,83.075200,16.276400C82.586900,15.446300,82.088900,14.586900,81.581100,13.698200C81.073200,12.809600,80.580100,11.925800,80.101600,11.046900C79.623000,10.158200,79.164100,9.293950,78.724600,8.454100C78.285200,7.614260,77.889600,6.833010,77.538100,6.110350C77.499000,6.520510,77.464800,7.082030,77.435500,7.794920C77.406200,8.498050,77.377000,9.284180,77.347700,10.153300C77.328100,11.012700,77.308600,11.920900,77.289100,12.877900C77.269500,13.835000,77.250000,14.777300,77.230500,15.705100C77.220700,16.632800,77.210900,17.511700,77.201200,18.341800C77.191400,19.171900,77.181600,19.884800,77.171900,20.480500C77.171900,20.871100,77.162100,21.149400,77.142600,21.315400C77.132800,21.471700,77.118200,21.579100,77.098600,21.637700C77.088900,21.696300,77.074200,21.740200,77.054700,21.769500C77.044900,21.789100,77.044900,21.857400,77.054700,21.974600C77.054700,22.287100,77.035200,22.575200,76.996100,22.838900C76.957000,23.092800,76.869100,23.234400,76.732400,23.263700C76.654300,23.302700,76.581100,23.288100,76.512700,23.219700C76.444300,23.161100,76.356400,23.146500,76.249000,23.175800C76.219700,23.175800,76.180700,23.200200,76.131800,23.249000C76.092800,23.307600,76.019500,23.336900,75.912100,23.336900C75.824200,23.336900,75.716800,23.297900,75.589800,23.219700C75.462900,23.141600,75.379900,23,75.340800,22.794900L75.282200,22.252900C75.272500,22.194300,75.257800,22.155300,75.238300,22.135700C75.228500,22.116200,75.213900,22.086900,75.194300,22.047900C75.184600,22.008800,75.174800,21.945300,75.165000,21.857400C75.155300,21.759800,75.145500,21.598600,75.135700,21.374000C75.135700,21.315400,75.145500,21.042000,75.165000,20.553700C75.184600,20.055700,75.209000,19.416000,75.238300,18.634800C75.277300,17.853500,75.316400,16.964800,75.355500,15.968800C75.404300,14.972700,75.453100,13.942400,75.502000,12.877900C75.560500,11.813500,75.614300,10.753900,75.663100,9.699220C75.721700,8.644530,75.780300,7.667970,75.838900,6.769530C75.907200,5.871090,75.970700,5.089840,76.029300,4.425780C76.087900,3.751950,76.141600,3.273440,76.190400,2.990230C76.141600,2.873050,76.102500,2.760740,76.073200,2.653320C76.053700,2.545900,76.043900,2.448240,76.043900,2.360350C76.034200,2.301760,76.039100,2.262700,76.058600,2.243160C76.087900,2.223630,76.122100,2.208980,76.161100,2.199220C76.210000,2.179690,76.258800,2.160160,76.307600,2.140620C76.356400,2.121090,76.405300,2.082030,76.454100,2.023440C76.473600,1.994140,76.488300,1.925780,76.498000,1.818360C76.517600,1.701170,76.551800,1.642580,76.600600,1.642580C76.737300,1.642580,76.849600,1.613280,76.937500,1.554690C77.025400,1.486330,77.147500,1.442380,77.303700,1.422850C77.303700,1.256840,77.347700,1.149410,77.435500,1.100590C77.474600,1.071290,77.518600,1.061520,77.567400,1.071290C77.733400,1.090820,77.860400,1.159180,77.948200,1.276370C78.045900,1.383790,78.119100,1.486330,78.168000,1.583980C78.216800,1.701170,78.255900,1.789060,78.285200,1.847660C78.314500,1.906250,78.353500,1.989260,78.402300,2.096680C78.470700,2.204100,78.602500,2.433590,78.797900,2.785160C79.002900,3.136720,79.252000,3.576170,79.544900,4.103520C79.837900,4.630860,80.169900,5.226560,80.541000,5.890620C80.912100,6.544920,81.297900,7.243160,81.698200,7.985350C82.108400,8.717770,82.528300,9.469730,82.958000,10.241200C83.387700,11.002900,83.807600,11.750000,84.217800,12.482400C84.627900,13.214800,85.018600,13.913100,85.389600,14.577100C85.760700,15.241200,86.097700,15.841800,86.400400,16.378900C86.703100,16.906200,86.957000,17.350600,87.162100,17.711900C87.367200,18.063500,87.508800,18.297900,87.586900,18.415000C87.782200,18.698200,87.918900,18.859400,87.997100,18.898400C88.075200,18.927700,88.168000,18.835000,88.275400,18.620100C88.324200,18.522500,88.368200,18.297900,88.407200,17.946300C88.456100,17.585000,88.500000,17.130900,88.539100,16.584000C88.587900,16.037100,88.627000,15.417000,88.656200,14.723600C88.695300,14.030300,88.729500,13.302700,88.758800,12.541000C88.788100,11.779300,88.812500,10.998000,88.832000,10.197300C88.851600,9.396480,88.861300,8.620120,88.861300,7.868160C88.871100,7.116210,88.871100,6.408200,88.861300,5.744140C88.861300,5.080080,88.846700,4.494140,88.817400,3.986330C88.807600,3.712890,88.802700,3.468750,88.802700,3.253910C88.802700,3.068360,88.812500,2.897460,88.832000,2.741210C88.851600,2.584960,88.885700,2.506840,88.934600,2.506840C89.002900,2.458010,89.061500,2.428710,89.110400,2.418950C89.168900,2.399410,89.212900,2.394530,89.242200,2.404300C89.281200,2.404300,89.315400,2.409180,89.344700,2.418950C89.374000,2.428710,89.398400,2.428710,89.418000,2.418950C89.437500,2.409180,89.447300,2.394530,89.447300,2.375000C89.447300,2.355470,89.447300,2.331050,89.447300,2.301760C89.457000,2.272460,89.471700,2.243160,89.491200,2.213870C89.510700,2.174800,89.554700,2.145510,89.623000,2.125980C89.701200,2.096680,89.759800,2.082030,89.798800,2.082030C89.847700,2.072270,89.886700,2.072270,89.916000,2.082030C89.945300,2.091800,89.969700,2.101560,89.989300,2.111330C90.008800,2.121090,90.038100,2.116210,90.077100,2.096680C90.155300,2.057620,90.218800,2.023440,90.267600,1.994140C90.316400,1.955080,90.360400,1.940430,90.399400,1.950200C90.438500,1.959960,90.467800,2.003910,90.487300,2.082030C90.516600,2.150390,90.541000,2.272460,90.560500,2.448240ZM98.309600,3.195310C98.290000,3.292970,98.260700,3.659180,98.221700,4.293950C98.192400,4.918950,98.153300,5.734370,98.104500,6.740230C98.055700,7.833980,97.987300,8.810550,97.899400,9.669920C97.811500,10.519500,97.738300,11.291000,97.679700,11.984400C98.060500,11.720700,98.485400,11.369100,98.954100,10.929700C99.422900,10.480500,99.901400,9.997070,100.390000,9.479490C100.888000,8.952150,101.376000,8.415040,101.854000,7.868160C102.343000,7.321290,102.787000,6.808590,103.188000,6.330080C103.588000,5.851560,103.935000,5.431640,104.228000,5.070310C104.521000,4.708980,104.721000,4.455080,104.828000,4.308590C105.043000,4.035160,105.272000,3.781250,105.517000,3.546880C105.771000,3.302730,106.010000,3.087890,106.234000,2.902340C106.459000,2.707030,106.664000,2.550780,106.850000,2.433590C107.045000,2.306640,107.191000,2.223630,107.289000,2.184570C107.357000,2.165040,107.416000,2.160160,107.465000,2.169920C107.514000,2.179690,107.553000,2.204100,107.582000,2.243160C107.621000,2.272460,107.641000,2.331050,107.641000,2.418950C107.709000,2.467770,107.729000,2.506840,107.699000,2.536130C107.670000,2.565430,107.670000,2.594730,107.699000,2.624020C107.729000,2.663090,107.758000,2.702150,107.787000,2.741210C107.816000,2.780270,107.807000,2.843750,107.758000,2.931640C107.680000,3.107420,107.597000,3.263670,107.509000,3.400390C107.421000,3.537110,107.299000,3.703130,107.143000,3.898440C106.986000,4.093750,106.771000,4.342770,106.498000,4.645510C106.234000,4.948240,105.878000,5.348630,105.429000,5.846680C104.989000,6.315430,104.481000,6.886720,103.905000,7.560550C103.329000,8.234380,102.709000,8.932620,102.045000,9.655270C101.391000,10.377900,100.702000,11.090800,99.979500,11.793900C99.256800,12.497100,98.529300,13.112300,97.796900,13.639600C98.080100,13.698200,98.397500,13.786100,98.749000,13.903300C99.110400,14.020500,99.496100,14.181600,99.906200,14.386700C100.326000,14.591800,100.771000,14.845700,101.239000,15.148400C101.718000,15.451200,102.221000,15.817400,102.748000,16.247100C103.354000,16.754900,103.944000,17.262700,104.521000,17.770500C105.097000,18.278300,105.678000,18.737300,106.264000,19.147500C106.850000,19.547900,107.450000,19.875000,108.065000,20.128900C108.681000,20.382800,109.330000,20.509800,110.014000,20.509800C110.463000,20.509800,110.932000,20.446300,111.420000,20.319300C111.918000,20.192400,112.440000,19.977500,112.987000,19.674800C113.114000,19.606400,113.207000,19.567400,113.266000,19.557600C113.334000,19.547900,113.373000,19.552700,113.383000,19.572300C113.402000,19.591800,113.402000,19.626000,113.383000,19.674800C113.363000,19.713900,113.339000,19.752900,113.310000,19.792000C113.290000,19.811500,113.256000,19.840800,113.207000,19.879900C113.158000,19.909200,113.100000,19.948200,113.031000,19.997100C112.973000,20.036100,112.914000,20.085000,112.855000,20.143600C112.797000,20.192400,112.748000,20.246100,112.709000,20.304700C112.680000,20.324200,112.680000,20.338900,112.709000,20.348600C112.738000,20.348600,112.763000,20.358400,112.782000,20.377900C112.812000,20.387700,112.821000,20.412100,112.812000,20.451200C112.802000,20.480500,112.738000,20.529300,112.621000,20.597700C112.562000,20.636700,112.514000,20.690400,112.475000,20.758800C112.436000,20.817400,112.396000,20.880900,112.357000,20.949200C112.328000,21.007800,112.289000,21.071300,112.240000,21.139600C112.191000,21.198200,112.128000,21.247100,112.050000,21.286100C111.874000,21.383800,111.737000,21.510700,111.640000,21.667000C111.552000,21.813500,111.479000,21.916000,111.420000,21.974600C111.342000,22.062500,111.171000,22.184600,110.907000,22.340800C110.644000,22.497100,110.326000,22.648400,109.955000,22.794900C109.594000,22.931600,109.193000,23.039100,108.754000,23.117200C108.314000,23.205100,107.875000,23.214800,107.436000,23.146500C106.771000,23.039100,106.142000,22.785200,105.546000,22.384800C104.960000,21.984400,104.389000,21.515600,103.832000,20.978500C103.285000,20.431600,102.753000,19.845700,102.235000,19.220700C101.718000,18.595700,101.205000,18.004900,100.697000,17.448200C100.189000,16.891600,99.676800,16.403300,99.159200,15.983400C98.651400,15.553700,98.128900,15.260700,97.591800,15.104500C97.591800,15.495100,97.596700,15.939500,97.606400,16.437500C97.626000,16.935500,97.640600,17.453100,97.650400,17.990200C97.669900,18.517600,97.684600,19.040000,97.694300,19.557600C97.713900,20.065400,97.728500,20.529300,97.738300,20.949200C97.757800,21.369100,97.772500,21.720700,97.782200,22.003900C97.801800,22.287100,97.816400,22.458000,97.826200,22.516600C97.865200,22.760700,97.865200,22.912100,97.826200,22.970700C97.787100,23.019500,97.709000,23.058600,97.591800,23.087900C97.543000,23.107400,97.489300,23.102500,97.430700,23.073200C97.381800,23.053700,97.328100,23.068400,97.269500,23.117200C97.240200,23.146500,97.220700,23.180700,97.210900,23.219700C97.201200,23.258800,97.186500,23.297900,97.167000,23.336900C97.147500,23.385700,97.113300,23.429700,97.064500,23.468800C97.025400,23.507800,96.952100,23.542000,96.844700,23.571300C96.795900,23.590800,96.742200,23.600600,96.683600,23.600600C96.634800,23.600600,96.576200,23.600600,96.507800,23.600600C96.429700,23.620100,96.327100,23.590800,96.200200,23.512700C96.083000,23.444300,95.975600,23.371100,95.877900,23.293000C95.829100,23.244100,95.780300,23.175800,95.731400,23.087900C95.682600,23.009800,95.633800,22.931600,95.585000,22.853500C95.536100,22.794900,95.477500,22.751000,95.409200,22.721700C95.350600,22.692400,95.306600,22.614300,95.277300,22.487300C95.169900,22.038100,95.096700,21.481400,95.057600,20.817400C95.028300,20.153300,95.013700,19.469700,95.013700,18.766600C95.013700,18.356400,95.018600,17.951200,95.028300,17.550800C95.038100,17.140600,95.047900,16.754900,95.057600,16.393600C95.077100,16.022500,95.091800,15.680700,95.101600,15.368200C95.121100,15.055700,95.140600,14.792000,95.160200,14.577100L94.530300,14.503900C94.354500,14.503900,94.227500,14.494100,94.149400,14.474600C94.071300,14.455100,94.007800,14.430700,93.959000,14.401400C93.919900,14.362300,93.880900,14.318400,93.841800,14.269500C93.802700,14.220700,93.744100,14.171900,93.666000,14.123000C93.509800,14.015600,93.417000,13.913100,93.387700,13.815400C93.358400,13.708000,93.451200,13.571300,93.666000,13.405300C93.812500,13.278300,94.012700,13.190400,94.266600,13.141600C94.520500,13.083000,94.857400,13,95.277300,12.892600C95.296900,12.423800,95.316400,11.896500,95.335900,11.310500C95.365200,10.724600,95.399400,10.119100,95.438500,9.494140C95.477500,8.859380,95.516600,8.224610,95.555700,7.589840C95.604500,6.945310,95.653300,6.334960,95.702100,5.758790C95.751000,5.182620,95.804700,4.655270,95.863300,4.176760C95.921900,3.698240,95.980500,3.302730,96.039100,2.990230C96.058600,2.853520,96.083000,2.755860,96.112300,2.697270C96.151400,2.638670,96.195300,2.594730,96.244100,2.565430C96.302700,2.555660,96.356400,2.575200,96.405300,2.624020C96.454100,2.672850,96.517600,2.672850,96.595700,2.624020C96.654300,2.594730,96.703100,2.570310,96.742200,2.550780C96.781200,2.521480,96.810500,2.506840,96.830100,2.506840C96.859400,2.497070,96.883800,2.506840,96.903300,2.536130C96.922900,2.565430,96.952100,2.619140,96.991200,2.697270C97.001000,2.707030,97.010700,2.707030,97.020500,2.697270C97.040000,2.687500,97.059600,2.672850,97.079100,2.653320L97.137700,2.594730C97.206100,2.565430,97.293900,2.545900,97.401400,2.536130C97.508800,2.516600,97.572300,2.545900,97.591800,2.624020C97.601600,2.692380,97.616200,2.721680,97.635700,2.711910C97.655300,2.692380,97.679700,2.663090,97.709000,2.624020C97.748000,2.584960,97.792000,2.545900,97.840800,2.506840C97.889600,2.467770,97.948200,2.458010,98.016600,2.477540C98.153300,2.526370,98.255900,2.609380,98.324200,2.726560C98.392600,2.833980,98.387700,2.990230,98.309600,3.195310ZM127.123000,22.575200C127.123000,22.653300,127.074000,22.697300,126.977000,22.707000C126.879000,22.707000,126.776000,22.707000,126.669000,22.707000C126.620000,22.716800,126.571000,22.726600,126.522000,22.736300C126.474000,22.755900,126.420000,22.775400,126.361000,22.794900C126.312000,22.804700,126.264000,22.834000,126.215000,22.882800C126.234000,22.980500,126.239000,23.053700,126.229000,23.102500C126.229000,23.161100,126.229000,23.205100,126.229000,23.234400L126.215000,23.293000C126.186000,23.332000,126.127000,23.361300,126.039000,23.380900C125.951000,23.410200,125.858000,23.424800,125.761000,23.424800C125.741000,23.424800,125.712000,23.419900,125.673000,23.410200C125.604000,23.390600,125.536000,23.341800,125.468000,23.263700C125.302000,23.214800,125.106000,23.166000,124.882000,23.117200C124.765000,23.087900,124.638000,23.058600,124.501000,23.029300C124.394000,23,124.301000,22.921900,124.223000,22.794900C124.145000,22.668000,124.071000,22.521500,124.003000,22.355500C123.944000,22.179700,123.886000,22.003900,123.827000,21.828100C123.778000,21.642600,123.734000,21.481400,123.695000,21.344700L122.260000,16.818400C122.045000,16.818400,121.771000,16.823200,121.439000,16.833000C121.117000,16.833000,120.771000,16.837900,120.399000,16.847700C120.028000,16.847700,119.652000,16.857400,119.271000,16.877000C118.891000,16.886700,118.544000,16.896500,118.231000,16.906200L115.302000,17.052700L113.588000,21.535200C113.559000,21.584000,113.515000,21.681600,113.456000,21.828100C113.407000,21.974600,113.354000,22.130900,113.295000,22.296900C113.236000,22.453100,113.183000,22.604500,113.134000,22.751000C113.085000,22.887700,113.056000,22.970700,113.046000,23C113.026000,23.078100,112.968000,23.127000,112.870000,23.146500C112.772000,23.166000,112.689000,23.185500,112.621000,23.205100C112.562000,23.224600,112.514000,23.278300,112.475000,23.366200C112.436000,23.454100,112.377000,23.512700,112.299000,23.542000C112.221000,23.590800,112.123000,23.595700,112.006000,23.556600C111.889000,23.517600,111.786000,23.454100,111.698000,23.366200C111.620000,23.268600,111.591000,23.146500,111.610000,23C111.630000,22.843800,111.640000,22.682600,111.640000,22.516600C111.640000,22.350600,111.635000,22.194300,111.625000,22.047900C111.625000,21.901400,111.649000,21.759800,111.698000,21.623000C111.718000,21.564500,111.776000,21.383800,111.874000,21.081100C111.981000,20.768600,112.113000,20.397500,112.270000,19.967800C112.426000,19.528300,112.597000,19.054700,112.782000,18.546900C112.968000,18.029300,113.158000,17.531200,113.354000,17.052700C113.178000,17.052700,113.056000,17.003900,112.987000,16.906200C112.938000,16.828100,112.880000,16.784200,112.812000,16.774400C112.743000,16.754900,112.670000,16.730500,112.592000,16.701200C112.514000,16.681600,112.460000,16.637700,112.431000,16.569300C112.401000,16.501000,112.396000,16.442400,112.416000,16.393600C112.436000,16.335000,112.421000,16.286100,112.372000,16.247100C112.323000,16.208000,112.299000,16.120100,112.299000,15.983400C112.299000,15.924800,112.343000,15.871100,112.431000,15.822300C112.528000,15.763700,112.646000,15.714800,112.782000,15.675800C112.919000,15.636700,113.070000,15.602500,113.236000,15.573200C113.412000,15.543900,113.578000,15.519500,113.734000,15.500000C113.764000,15.500000,113.798000,15.500000,113.837000,15.500000C113.886000,15.500000,113.935000,15.490200,113.983000,15.470700C114.198000,14.953100,114.442000,14.396500,114.716000,13.800800C114.989000,13.195300,115.268000,12.580100,115.551000,11.955100C115.844000,11.330100,116.137000,10.705100,116.430000,10.080100C116.723000,9.455080,117.001000,8.869140,117.265000,8.322270C117.528000,7.765620,117.768000,7.257810,117.982000,6.798830C118.207000,6.339840,118.393000,5.958980,118.539000,5.656250C118.422000,5.294920,118.314000,4.962890,118.217000,4.660160C118.129000,4.357420,118.051000,4.093750,117.982000,3.869140C117.914000,3.644530,117.860000,3.468750,117.821000,3.341800C117.782000,3.205080,117.763000,3.126950,117.763000,3.107420C117.753000,3.087890,117.753000,3.068360,117.763000,3.048830C117.782000,3,117.831000,2.970700,117.909000,2.960940C117.831000,2.814450,117.792000,2.707030,117.792000,2.638670C117.792000,2.599610,117.802000,2.575200,117.821000,2.565430C117.841000,2.545900,117.890000,2.526370,117.968000,2.506840C118.046000,2.487300,118.129000,2.472660,118.217000,2.462890C118.305000,2.443360,118.388000,2.433590,118.466000,2.433590C118.544000,2.423830,118.598000,2.418950,118.627000,2.418950C118.637000,2.418950,118.661000,2.423830,118.700000,2.433590C118.759000,2.453120,118.842000,2.497070,118.949000,2.565430C118.959000,2.516600,118.969000,2.482420,118.979000,2.462890C118.998000,2.443360,119.018000,2.423830,119.037000,2.404300L119.081000,2.360350C119.140000,2.331050,119.203000,2.326170,119.271000,2.345700C119.340000,2.355470,119.403000,2.360350,119.462000,2.360350C119.521000,2.360350,119.560000,2.335940,119.579000,2.287110C119.608000,2.238280,119.672000,2.213870,119.770000,2.213870C119.896000,2.213870,120.004000,2.350590,120.092000,2.624020C120.102000,2.672850,120.170000,2.858400,120.297000,3.180660C120.424000,3.493160,120.585000,3.908200,120.780000,4.425780C120.976000,4.933590,121.200000,5.524410,121.454000,6.198240C121.718000,6.872070,121.991000,7.589840,122.274000,8.351560C122.558000,9.103520,122.841000,9.884770,123.124000,10.695300C123.417000,11.496100,123.695000,12.287100,123.959000,13.068400C124.506000,14.660200,124.965000,16.002900,125.336000,17.096700C125.707000,18.190400,126.005000,19.084000,126.229000,19.777300C126.464000,20.470700,126.635000,20.988300,126.742000,21.330100C126.859000,21.671900,126.933000,21.877000,126.962000,21.945300C127.011000,22.101600,127.050000,22.228500,127.079000,22.326200C127.108000,22.414100,127.123000,22.497100,127.123000,22.575200ZM120.810000,12.555700C120.556000,11.833000,120.277000,11.022500,119.975000,10.124000C119.682000,9.225590,119.394000,8.336910,119.110000,7.458010C118.944000,7.887700,118.744000,8.405270,118.510000,9.010740C118.275000,9.616210,118.026000,10.241200,117.763000,10.885700C117.509000,11.530300,117.260000,12.160200,117.016000,12.775400C116.771000,13.390600,116.557000,13.918000,116.371000,14.357400L115.961000,15.324200L118.598000,15.163100C118.822000,15.163100,119.091000,15.158200,119.403000,15.148400C119.931000,15.138700,120.692000,15.124000,121.688000,15.104500L120.810000,12.555700ZM143.061000,1.818360C143.109000,2.160160,143.163000,2.628910,143.222000,3.224610C143.280000,3.820310,143.334000,4.499020,143.383000,5.260740C143.441000,6.022460,143.485000,6.852540,143.515000,7.750980C143.554000,8.649410,143.573000,9.572270,143.573000,10.519500C143.573000,11.574200,143.544000,12.638700,143.485000,13.712900C143.437000,14.777300,143.349000,15.807600,143.222000,16.803700C143.104000,17.790000,142.938000,18.717800,142.724000,19.586900C142.509000,20.446300,142.240000,21.193400,141.918000,21.828100C141.752000,22.150400,141.518000,22.511700,141.215000,22.912100C140.912000,23.312500,140.541000,23.673800,140.102000,23.996100C139.662000,24.318400,139.154000,24.567400,138.578000,24.743200C138.002000,24.918900,137.357000,24.948200,136.645000,24.831100C136.137000,24.743200,135.668000,24.552700,135.238000,24.259800C134.818000,23.966800,134.452000,23.605500,134.140000,23.175800C133.827000,22.755900,133.583000,22.292000,133.407000,21.784200C133.231000,21.266600,133.139000,20.753900,133.129000,20.246100C133.119000,19.669900,133.178000,19.137700,133.305000,18.649400C133.432000,18.151400,133.583000,17.711900,133.759000,17.331100C133.944000,16.950200,134.140000,16.632800,134.345000,16.378900C134.550000,16.125000,134.726000,15.944300,134.872000,15.836900C135.048000,15.710000,135.170000,15.636700,135.238000,15.617200C135.316000,15.597700,135.395000,15.578100,135.473000,15.558600C135.570000,15.539100,135.639000,15.534200,135.678000,15.543900C135.727000,15.543900,135.756000,15.553700,135.766000,15.573200C135.785000,15.583000,135.800000,15.602500,135.810000,15.631800C135.819000,15.651400,135.844000,15.666000,135.883000,15.675800C135.932000,15.695300,135.985000,15.705100,136.044000,15.705100C136.103000,15.705100,136.151000,15.705100,136.190000,15.705100C136.239000,15.705100,136.269000,15.714800,136.278000,15.734400C136.298000,15.744100,136.288000,15.778300,136.249000,15.836900C136.229000,15.866200,136.229000,15.885700,136.249000,15.895500C136.278000,15.905300,136.312000,15.915000,136.352000,15.924800C136.400000,15.924800,136.439000,15.934600,136.469000,15.954100C136.508000,15.973600,136.522000,16.002900,136.513000,16.042000C136.493000,16.071300,136.498000,16.115200,136.527000,16.173800C136.557000,16.222700,136.596000,16.237300,136.645000,16.217800C136.771000,16.188500,136.830000,16.183600,136.820000,16.203100C136.811000,16.212900,136.762000,16.256800,136.674000,16.335000C136.586000,16.403300,136.479000,16.501000,136.352000,16.627900C136.225000,16.754900,136.112000,16.911100,136.015000,17.096700C135.761000,17.594700,135.570000,18.127000,135.443000,18.693400C135.316000,19.259800,135.253000,19.816400,135.253000,20.363300C135.253000,20.724600,135.277000,21.066400,135.326000,21.388700C135.385000,21.701200,135.468000,21.979500,135.575000,22.223600C135.683000,22.467800,135.814000,22.668000,135.971000,22.824200C136.137000,22.970700,136.327000,23.058600,136.542000,23.087900C137.040000,23.156200,137.489000,23.029300,137.890000,22.707000C138.290000,22.375000,138.646000,21.925800,138.959000,21.359400C139.271000,20.793000,139.545000,20.143600,139.779000,19.411100C140.014000,18.678700,140.209000,17.946300,140.365000,17.213900C140.521000,16.471700,140.639000,15.763700,140.717000,15.089800C140.805000,14.406200,140.863000,13.835000,140.893000,13.376000C140.932000,12.731400,140.956000,12.086900,140.966000,11.442400C140.985000,10.797900,140.995000,10.158200,140.995000,9.523440C140.995000,8.390620,140.976000,7.311520,140.937000,6.286130C140.897000,5.250980,140.849000,4.328120,140.790000,3.517580C140.741000,2.707030,140.688000,2.042970,140.629000,1.525390C140.570000,0.998047,140.521000,0.675781,140.482000,0.558594C140.463000,0.509766,140.458000,0.470703,140.468000,0.441406C140.487000,0.412109,140.517000,0.392578,140.556000,0.382812C140.604000,0.363281,140.653000,0.358398,140.702000,0.368164C140.761000,0.377930,140.814000,0.392578,140.863000,0.412109C140.932000,0.431641,140.971000,0.412109,140.980000,0.353516C140.990000,0.285156,141.024000,0.236328,141.083000,0.207031C141.132000,0.187500,141.181000,0.197266,141.229000,0.236328C141.278000,0.275391,141.317000,0.294922,141.347000,0.294922C141.396000,0.294922,141.435000,0.275391,141.464000,0.236328C141.503000,0.197266,141.547000,0.187500,141.596000,0.207031C141.625000,0.226562,141.654000,0.246094,141.684000,0.265625C141.723000,0.285156,141.781000,0.285156,141.859000,0.265625C141.889000,0.255859,141.913000,0.236328,141.933000,0.207031C141.952000,0.167969,141.972000,0.133789,141.991000,0.104492C142.021000,0.065430,142.045000,0.041016,142.064000,0.031250C142.094000,0.021484,142.133000,0.036133,142.182000,0.075195C142.250000,0.153320,142.299000,0.197266,142.328000,0.207031C142.367000,0.207031,142.392000,0.197266,142.401000,0.177734C142.421000,0.148438,142.436000,0.119141,142.445000,0.089844C142.455000,0.050781,142.470000,0.036133,142.489000,0.045898C142.616000,0.104492,142.704000,0.153320,142.753000,0.192383C142.812000,0.231445,142.851000,0.304688,142.870000,0.412109C142.899000,0.519531,142.924000,0.680664,142.943000,0.895508C142.963000,1.110350,143.002000,1.417970,143.061000,1.818360ZM161.664000,22.575200C161.664000,22.653300,161.615000,22.697300,161.518000,22.707000C161.420000,22.707000,161.317000,22.707000,161.210000,22.707000C161.161000,22.716800,161.112000,22.726600,161.063000,22.736300C161.015000,22.755900,160.961000,22.775400,160.902000,22.794900C160.854000,22.804700,160.805000,22.834000,160.756000,22.882800C160.775000,22.980500,160.780000,23.053700,160.771000,23.102500C160.771000,23.161100,160.771000,23.205100,160.771000,23.234400L160.756000,23.293000C160.727000,23.332000,160.668000,23.361300,160.580000,23.380900C160.492000,23.410200,160.399000,23.424800,160.302000,23.424800C160.282000,23.424800,160.253000,23.419900,160.214000,23.410200C160.146000,23.390600,160.077000,23.341800,160.009000,23.263700C159.843000,23.214800,159.647000,23.166000,159.423000,23.117200C159.306000,23.087900,159.179000,23.058600,159.042000,23.029300C158.935000,23,158.842000,22.921900,158.764000,22.794900C158.686000,22.668000,158.612000,22.521500,158.544000,22.355500C158.485000,22.179700,158.427000,22.003900,158.368000,21.828100C158.319000,21.642600,158.275000,21.481400,158.236000,21.344700L156.801000,16.818400C156.586000,16.818400,156.312000,16.823200,155.980000,16.833000C155.658000,16.833000,155.312000,16.837900,154.940000,16.847700C154.569000,16.847700,154.193000,16.857400,153.812000,16.877000C153.432000,16.886700,153.085000,16.896500,152.772000,16.906200L149.843000,17.052700L148.129000,21.535200C148.100000,21.584000,148.056000,21.681600,147.997000,21.828100C147.948000,21.974600,147.895000,22.130900,147.836000,22.296900C147.777000,22.453100,147.724000,22.604500,147.675000,22.751000C147.626000,22.887700,147.597000,22.970700,147.587000,23C147.567000,23.078100,147.509000,23.127000,147.411000,23.146500C147.313000,23.166000,147.230000,23.185500,147.162000,23.205100C147.104000,23.224600,147.055000,23.278300,147.016000,23.366200C146.977000,23.454100,146.918000,23.512700,146.840000,23.542000C146.762000,23.590800,146.664000,23.595700,146.547000,23.556600C146.430000,23.517600,146.327000,23.454100,146.239000,23.366200C146.161000,23.268600,146.132000,23.146500,146.151000,23C146.171000,22.843800,146.181000,22.682600,146.181000,22.516600C146.181000,22.350600,146.176000,22.194300,146.166000,22.047900C146.166000,21.901400,146.190000,21.759800,146.239000,21.623000C146.259000,21.564500,146.317000,21.383800,146.415000,21.081100C146.522000,20.768600,146.654000,20.397500,146.811000,19.967800C146.967000,19.528300,147.138000,19.054700,147.323000,18.546900C147.509000,18.029300,147.699000,17.531200,147.895000,17.052700C147.719000,17.052700,147.597000,17.003900,147.528000,16.906200C147.479000,16.828100,147.421000,16.784200,147.353000,16.774400C147.284000,16.754900,147.211000,16.730500,147.133000,16.701200C147.055000,16.681600,147.001000,16.637700,146.972000,16.569300C146.942000,16.501000,146.938000,16.442400,146.957000,16.393600C146.977000,16.335000,146.962000,16.286100,146.913000,16.247100C146.864000,16.208000,146.840000,16.120100,146.840000,15.983400C146.840000,15.924800,146.884000,15.871100,146.972000,15.822300C147.069000,15.763700,147.187000,15.714800,147.323000,15.675800C147.460000,15.636700,147.611000,15.602500,147.777000,15.573200C147.953000,15.543900,148.119000,15.519500,148.275000,15.500000C148.305000,15.500000,148.339000,15.500000,148.378000,15.500000C148.427000,15.500000,148.476000,15.490200,148.524000,15.470700C148.739000,14.953100,148.983000,14.396500,149.257000,13.800800C149.530000,13.195300,149.809000,12.580100,150.092000,11.955100C150.385000,11.330100,150.678000,10.705100,150.971000,10.080100C151.264000,9.455080,151.542000,8.869140,151.806000,8.322270C152.069000,7.765620,152.309000,7.257810,152.523000,6.798830C152.748000,6.339840,152.934000,5.958980,153.080000,5.656250C152.963000,5.294920,152.855000,4.962890,152.758000,4.660160C152.670000,4.357420,152.592000,4.093750,152.523000,3.869140C152.455000,3.644530,152.401000,3.468750,152.362000,3.341800C152.323000,3.205080,152.304000,3.126950,152.304000,3.107420C152.294000,3.087890,152.294000,3.068360,152.304000,3.048830C152.323000,3,152.372000,2.970700,152.450000,2.960940C152.372000,2.814450,152.333000,2.707030,152.333000,2.638670C152.333000,2.599610,152.343000,2.575200,152.362000,2.565430C152.382000,2.545900,152.431000,2.526370,152.509000,2.506840C152.587000,2.487300,152.670000,2.472660,152.758000,2.462890C152.846000,2.443360,152.929000,2.433590,153.007000,2.433590C153.085000,2.423830,153.139000,2.418950,153.168000,2.418950C153.178000,2.418950,153.202000,2.423830,153.241000,2.433590C153.300000,2.453120,153.383000,2.497070,153.490000,2.565430C153.500000,2.516600,153.510000,2.482420,153.520000,2.462890C153.539000,2.443360,153.559000,2.423830,153.578000,2.404300L153.622000,2.360350C153.681000,2.331050,153.744000,2.326170,153.812000,2.345700C153.881000,2.355470,153.944000,2.360350,154.003000,2.360350C154.062000,2.360350,154.101000,2.335940,154.120000,2.287110C154.149000,2.238280,154.213000,2.213870,154.311000,2.213870C154.438000,2.213870,154.545000,2.350590,154.633000,2.624020C154.643000,2.672850,154.711000,2.858400,154.838000,3.180660C154.965000,3.493160,155.126000,3.908200,155.321000,4.425780C155.517000,4.933590,155.741000,5.524410,155.995000,6.198240C156.259000,6.872070,156.532000,7.589840,156.815000,8.351560C157.099000,9.103520,157.382000,9.884770,157.665000,10.695300C157.958000,11.496100,158.236000,12.287100,158.500000,13.068400C159.047000,14.660200,159.506000,16.002900,159.877000,17.096700C160.248000,18.190400,160.546000,19.084000,160.771000,19.777300C161.005000,20.470700,161.176000,20.988300,161.283000,21.330100C161.400000,21.671900,161.474000,21.877000,161.503000,21.945300C161.552000,22.101600,161.591000,22.228500,161.620000,22.326200C161.649000,22.414100,161.664000,22.497100,161.664000,22.575200ZM155.351000,12.555700C155.097000,11.833000,154.818000,11.022500,154.516000,10.124000C154.223000,9.225590,153.935000,8.336910,153.651000,7.458010C153.485000,7.887700,153.285000,8.405270,153.051000,9.010740C152.816000,9.616210,152.567000,10.241200,152.304000,10.885700C152.050000,11.530300,151.801000,12.160200,151.557000,12.775400C151.312000,13.390600,151.098000,13.918000,150.912000,14.357400L150.502000,15.324200L153.139000,15.163100C153.363000,15.163100,153.632000,15.158200,153.944000,15.148400C154.472000,15.138700,155.233000,15.124000,156.229000,15.104500L155.351000,12.555700ZM167.479000,2.536130C167.479000,4.303710,167.445000,6.100590,167.377000,7.926760C167.309000,9.743160,167.260000,11.549800,167.230000,13.346700C167.221000,14.167000,167.226000,14.982400,167.245000,15.793000C167.274000,16.593800,167.304000,17.360400,167.333000,18.092800C167.372000,18.815400,167.406000,19.479500,167.436000,20.085000C167.465000,20.680700,167.479000,21.183600,167.479000,21.593800C167.479000,21.877000,167.470000,22.106400,167.450000,22.282200C167.431000,22.448200,167.396000,22.545900,167.348000,22.575200C167.299000,22.624000,167.255000,22.653300,167.216000,22.663100C167.177000,22.672900,167.138000,22.677700,167.099000,22.677700C167.060000,22.677700,167.016000,22.677700,166.967000,22.677700C166.928000,22.668000,166.879000,22.677700,166.820000,22.707000C166.752000,22.736300,166.708000,22.770500,166.688000,22.809600C166.669000,22.838900,166.649000,22.873000,166.630000,22.912100C166.610000,22.951200,166.581000,22.990200,166.542000,23.029300C166.503000,23.068400,166.435000,23.107400,166.337000,23.146500C166.210000,23.175800,166.088000,23.141600,165.971000,23.043900C165.863000,22.956100,165.756000,22.882800,165.648000,22.824200C165.482000,22.726600,165.346000,22.648400,165.238000,22.589800C165.141000,22.521500,165.048000,22.418900,164.960000,22.282200C164.892000,22.165000,164.833000,21.989300,164.784000,21.754900C164.735000,21.510700,164.696000,21.227500,164.667000,20.905300C164.638000,20.573200,164.618000,20.207000,164.608000,19.806600C164.599000,19.406200,164.594000,18.991200,164.594000,18.561500C164.594000,18.073200,164.599000,17.585000,164.608000,17.096700C164.618000,16.598600,164.628000,16.125000,164.638000,15.675800C164.657000,15.226600,164.672000,14.821300,164.682000,14.460000C164.691000,14.098600,164.701000,13.805700,164.711000,13.581100C164.730000,12.877900,164.755000,12.140600,164.784000,11.369100C164.823000,10.597700,164.857000,9.831050,164.887000,9.069340C164.926000,8.297850,164.965000,7.555660,165.004000,6.842770C165.043000,6.129880,165.082000,5.480470,165.121000,4.894530C165.160000,4.298830,165.194000,3.795900,165.224000,3.385740C165.263000,2.965820,165.302000,2.672850,165.341000,2.506840C165.399000,2.301760,165.502000,2.184570,165.648000,2.155270C165.717000,2.125980,165.771000,2.130860,165.810000,2.169920C165.858000,2.208980,165.912000,2.184570,165.971000,2.096680C165.990000,2.047850,166.020000,2.018550,166.059000,2.008790C166.098000,1.999020,166.137000,1.994140,166.176000,1.994140C166.215000,1.994140,166.254000,1.994140,166.293000,1.994140C166.332000,1.994140,166.366000,1.984370,166.396000,1.964840C166.454000,1.906250,166.513000,1.896480,166.571000,1.935550C166.640000,1.964840,166.688000,1.994140,166.718000,2.023440C166.747000,2.091800,166.786000,2.145510,166.835000,2.184570C166.884000,2.213870,166.938000,2.204100,166.996000,2.155270C167.025000,2.125980,167.064000,2.111330,167.113000,2.111330C167.172000,2.111330,167.211000,2.135740,167.230000,2.184570C167.260000,2.233400,167.309000,2.282230,167.377000,2.331050C167.445000,2.379880,167.479000,2.448240,167.479000,2.536130ZM187.182000,2.448240C187.201000,2.624020,187.211000,2.990230,187.211000,3.546880C187.211000,4.093750,187.201000,4.767580,187.182000,5.568360C187.172000,6.369140,187.152000,7.262700,187.123000,8.249020C187.104000,9.235350,187.074000,10.260700,187.035000,11.325200C186.996000,12.379900,186.952000,13.444300,186.903000,14.518600C186.864000,15.583000,186.820000,16.593800,186.771000,17.550800C186.723000,18.507800,186.669000,19.381800,186.610000,20.172900C186.552000,20.954100,186.493000,21.588900,186.435000,22.077100C186.435000,22.135700,186.405000,22.189500,186.347000,22.238300C186.298000,22.277300,186.244000,22.350600,186.186000,22.458000C186.127000,22.555700,186.068000,22.609400,186.010000,22.619100C185.951000,22.628900,185.902000,22.628900,185.863000,22.619100C185.824000,22.609400,185.795000,22.609400,185.775000,22.619100C185.756000,22.628900,185.756000,22.677700,185.775000,22.765600C185.795000,22.824200,185.761000,22.873000,185.673000,22.912100C185.595000,22.941400,185.526000,22.931600,185.468000,22.882800C185.390000,22.824200,185.297000,22.755900,185.189000,22.677700C185.082000,22.589800,185.014000,22.545900,184.984000,22.545900C184.926000,22.536100,184.906000,22.560500,184.926000,22.619100C184.945000,22.677700,184.970000,22.741200,184.999000,22.809600C185.038000,22.877900,185.062000,22.941400,185.072000,23C185.092000,23.068400,185.062000,23.107400,184.984000,23.117200C184.838000,23.136700,184.667000,23.102500,184.472000,23.014600C184.286000,22.926800,184.110000,22.824200,183.944000,22.707000C183.808000,22.599600,183.603000,22.360400,183.329000,21.989300C183.056000,21.618200,182.729000,21.149400,182.348000,20.583000C181.977000,20.006800,181.562000,19.352500,181.103000,18.620100C180.653000,17.887700,180.185000,17.106400,179.696000,16.276400C179.208000,15.446300,178.710000,14.586900,178.202000,13.698200C177.694000,12.809600,177.201000,11.925800,176.723000,11.046900C176.244000,10.158200,175.785000,9.293950,175.346000,8.454100C174.906000,7.614260,174.511000,6.833010,174.159000,6.110350C174.120000,6.520510,174.086000,7.082030,174.057000,7.794920C174.027000,8.498050,173.998000,9.284180,173.969000,10.153300C173.949000,11.012700,173.930000,11.920900,173.910000,12.877900C173.891000,13.835000,173.871000,14.777300,173.852000,15.705100C173.842000,16.632800,173.832000,17.511700,173.822000,18.341800C173.812000,19.171900,173.803000,19.884800,173.793000,20.480500C173.793000,20.871100,173.783000,21.149400,173.764000,21.315400C173.754000,21.471700,173.739000,21.579100,173.720000,21.637700C173.710000,21.696300,173.695000,21.740200,173.676000,21.769500C173.666000,21.789100,173.666000,21.857400,173.676000,21.974600C173.676000,22.287100,173.656000,22.575200,173.617000,22.838900C173.578000,23.092800,173.490000,23.234400,173.354000,23.263700C173.275000,23.302700,173.202000,23.288100,173.134000,23.219700C173.065000,23.161100,172.978000,23.146500,172.870000,23.175800C172.841000,23.175800,172.802000,23.200200,172.753000,23.249000C172.714000,23.307600,172.641000,23.336900,172.533000,23.336900C172.445000,23.336900,172.338000,23.297900,172.211000,23.219700C172.084000,23.141600,172.001000,23,171.962000,22.794900L171.903000,22.252900C171.894000,22.194300,171.879000,22.155300,171.859000,22.135700C171.850000,22.116200,171.835000,22.086900,171.815000,22.047900C171.806000,22.008800,171.796000,21.945300,171.786000,21.857400C171.776000,21.759800,171.767000,21.598600,171.757000,21.374000C171.757000,21.315400,171.767000,21.042000,171.786000,20.553700C171.806000,20.055700,171.830000,19.416000,171.859000,18.634800C171.898000,17.853500,171.938000,16.964800,171.977000,15.968800C172.025000,14.972700,172.074000,13.942400,172.123000,12.877900C172.182000,11.813500,172.235000,10.753900,172.284000,9.699220C172.343000,8.644530,172.401000,7.667970,172.460000,6.769530C172.528000,5.871090,172.592000,5.089840,172.650000,4.425780C172.709000,3.751950,172.763000,3.273440,172.812000,2.990230C172.763000,2.873050,172.724000,2.760740,172.694000,2.653320C172.675000,2.545900,172.665000,2.448240,172.665000,2.360350C172.655000,2.301760,172.660000,2.262700,172.680000,2.243160C172.709000,2.223630,172.743000,2.208980,172.782000,2.199220C172.831000,2.179690,172.880000,2.160160,172.929000,2.140620C172.978000,2.121090,173.026000,2.082030,173.075000,2.023440C173.095000,1.994140,173.109000,1.925780,173.119000,1.818360C173.139000,1.701170,173.173000,1.642580,173.222000,1.642580C173.358000,1.642580,173.471000,1.613280,173.559000,1.554690C173.646000,1.486330,173.769000,1.442380,173.925000,1.422850C173.925000,1.256840,173.969000,1.149410,174.057000,1.100590C174.096000,1.071290,174.140000,1.061520,174.188000,1.071290C174.354000,1.090820,174.481000,1.159180,174.569000,1.276370C174.667000,1.383790,174.740000,1.486330,174.789000,1.583980C174.838000,1.701170,174.877000,1.789060,174.906000,1.847660C174.936000,1.906250,174.975000,1.989260,175.023000,2.096680C175.092000,2.204100,175.224000,2.433590,175.419000,2.785160C175.624000,3.136720,175.873000,3.576170,176.166000,4.103520C176.459000,4.630860,176.791000,5.226560,177.162000,5.890620C177.533000,6.544920,177.919000,7.243160,178.319000,7.985350C178.729000,8.717770,179.149000,9.469730,179.579000,10.241200C180.009000,11.002900,180.429000,11.750000,180.839000,12.482400C181.249000,13.214800,181.640000,13.913100,182.011000,14.577100C182.382000,15.241200,182.719000,15.841800,183.021000,16.378900C183.324000,16.906200,183.578000,17.350600,183.783000,17.711900C183.988000,18.063500,184.130000,18.297900,184.208000,18.415000C184.403000,18.698200,184.540000,18.859400,184.618000,18.898400C184.696000,18.927700,184.789000,18.835000,184.896000,18.620100C184.945000,18.522500,184.989000,18.297900,185.028000,17.946300C185.077000,17.585000,185.121000,17.130900,185.160000,16.584000C185.209000,16.037100,185.248000,15.417000,185.277000,14.723600C185.316000,14.030300,185.351000,13.302700,185.380000,12.541000C185.409000,11.779300,185.434000,10.998000,185.453000,10.197300C185.473000,9.396480,185.482000,8.620120,185.482000,7.868160C185.492000,7.116210,185.492000,6.408200,185.482000,5.744140C185.482000,5.080080,185.468000,4.494140,185.438000,3.986330C185.429000,3.712890,185.424000,3.468750,185.424000,3.253910C185.424000,3.068360,185.434000,2.897460,185.453000,2.741210C185.473000,2.584960,185.507000,2.506840,185.556000,2.506840C185.624000,2.458010,185.683000,2.428710,185.731000,2.418950C185.790000,2.399410,185.834000,2.394530,185.863000,2.404300C185.902000,2.404300,185.937000,2.409180,185.966000,2.418950C185.995000,2.428710,186.020000,2.428710,186.039000,2.418950C186.059000,2.409180,186.068000,2.394530,186.068000,2.375000C186.068000,2.355470,186.068000,2.331050,186.068000,2.301760C186.078000,2.272460,186.093000,2.243160,186.112000,2.213870C186.132000,2.174800,186.176000,2.145510,186.244000,2.125980C186.322000,2.096680,186.381000,2.082030,186.420000,2.082030C186.469000,2.072270,186.508000,2.072270,186.537000,2.082030C186.566000,2.091800,186.591000,2.101560,186.610000,2.111330C186.630000,2.121090,186.659000,2.116210,186.698000,2.096680C186.776000,2.057620,186.840000,2.023440,186.889000,1.994140C186.938000,1.955080,186.981000,1.940430,187.021000,1.950200C187.060000,1.959960,187.089000,2.003910,187.108000,2.082030C187.138000,2.150390,187.162000,2.272460,187.182000,2.448240Z" transform="matrix(1 0 0 1 -0.03083950000000 0.00167968000000)" fill="rgb(223,31,31)" stroke="none" stroke-width="1" stroke-opacity="0.43"/><script><![CDATA[!function(t,n){"object"==typeof exports&&"undefined"!=typeof module?module.exports=n():"function"==typeof define&&define.amd?define(n):(t=t||self).__SVGATOR_PLAYER__=n()}(this,(function(){"use strict";function t(n){return(t="function"==typeof Symbol&&"symbol"==typeof Symbol.iterator?function(t){return typeof t}:function(t){return t&&"function"==typeof Symbol&&t.constructor===Symbol&&t!==Symbol.prototype?"symbol":typeof t})(n)}function n(t,n){if(!(t instanceof n))throw new TypeError("Cannot call a class as a function")}function r(t,n){for(var r=0;r<n.length;r++){var e=n[r];e.enumerable=e.enumerable||!1,e.configurable=!0,"value"in e&&(e.writable=!0),Object.defineProperty(t,e.key,e)}}function e(t,n,e){return n&&r(t.prototype,n),e&&r(t,e),t}var i=Math.abs;function u(t){return t}function o(t,n,r){var e=1-r;return 3*r*e*(t*e+n*r)+r*r*r}function a(){var t=arguments.length>0&&void 0!==arguments[0]?arguments[0]:0,n=arguments.length>1&&void 0!==arguments[1]?arguments[1]:0,r=arguments.length>2&&void 0!==arguments[2]?arguments[2]:1,e=arguments.length>3&&void 0!==arguments[3]?arguments[3]:1;return t<0||t>1||r<0||r>1?null:i(t-n)<=1e-5&&i(r-e)<=1e-5?u:function(u){if(u<=0)return t>0?u*n/t:0===n&&r>0?u*e/r:0;if(u>=1)return r<1?1+(u-1)*(e-1)/(r-1):1===r&&t<1?1+(u-1)*(n-1)/(t-1):1;for(var a,l=0,f=1;l<f;){var s=o(t,r,a=(l+f)/2);if(i(u-s)<1e-5)break;s<u?l=a:f=a}return o(n,e,a)}}function l(){return 1}function f(t){return 1===t?1:0}function s(){var t=arguments.length>0&&void 0!==arguments[0]?arguments[0]:1,n=arguments.length>1&&void 0!==arguments[1]?arguments[1]:0;if(1===t){if(0===n)return f;if(1===n)return l}var r=1/t;return function(t){return t>=1?1:(t+=n*r)-t%r}}function c(t){var n=arguments.length>1&&void 0!==arguments[1]?arguments[1]:2;if(Number.isInteger(t))return t;var r=Math.pow(10,n);return Math.round(t*r)/r}var v=Math.PI/180;function h(t,n,r){return t>=.5?r:n}function y(t,n,r){return 0===t||n===r?n:t*(r-n)+n}function d(t,n,r){var e=y(t,n,r);return e<=0?0:e}function g(t,n,r){return 0===t?n:1===t?r:{x:y(t,n.x,r.x),y:y(t,n.y,r.y)}}function m(t,n,r){return 0===t?n:1===t?r:{x:d(t,n.x,r.x),y:d(t,n.y,r.y)}}function p(t,n,r){var e=function(t,n,r){return Math.round(y(t,n,r))}(t,n,r);return e<=0?0:e>=255?255:e}function b(t,n,r){return 0===t?n:1===t?r:{r:p(t,n.r,r.r),g:p(t,n.g,r.g),b:p(t,n.b,r.b),a:y(t,null==n.a?1:n.a,null==r.a?1:r.a)}}function w(t,n,r){if(0===t)return n;if(1===t)return r;var e=n.length;if(e!==r.length)return h(t,n,r);for(var i=[],u=0;u<e;u++)i.push(b(t,n[u],r[u]));return i}function A(t,n,r){var e=n.length;if(e!==r.length)return h(t,n,r);for(var i=new Array(e),u=0;u<e;u++)i[u]=y(t,n[u],r[u]);return i}function x(t,n){for(var r=[],e=0;e<t;e++)r.push(n);return r}function k(t,n){if(--n<=0)return t;var r=(t=Object.assign([],t)).length;do{for(var e=0;e<r;e++)t.push(t[e])}while(--n>0);return t}var S=/\.0+$/g;function _(t){return Number.isInteger(t)?t+"":t.toFixed(6).replace(S,"")}function M(t){var n=arguments.length>1&&void 0!==arguments[1]?arguments[1]:" ";return t&&t.length?t.map(_).join(n):""}function I(t){return _(t.x)+","+_(t.y)}function E(t){return t?null==t.a||t.a>=1?"rgb("+t.r+","+t.g+","+t.b+")":"rgba("+t.r+","+t.g+","+t.b+","+t.a+")":"transparent"}var F={f:null,i:m,u:function(t,n){return function(r){var e=n(r);t.setAttribute("rx",_(e.x)),t.setAttribute("ry",_(e.y))}}},B={f:null,i:function(t,n,r){return 0===t?n:1===t?r:{width:d(t,n.width,r.width),height:d(t,n.height,r.height)}},u:function(t,n){return function(r){var e=n(r);t.setAttribute("width",_(e.width)),t.setAttribute("height",_(e.height))}}},j=Math.sin,q=Math.cos,P=Math.acos,O=Math.asin,z=Math.tan,L=Math.atan2,C=Math.PI/180,R=180/Math.PI,T=Math.sqrt,V=function(){function t(){var r=arguments.length>0&&void 0!==arguments[0]?arguments[0]:1,e=arguments.length>1&&void 0!==arguments[1]?arguments[1]:0,i=arguments.length>2&&void 0!==arguments[2]?arguments[2]:0,u=arguments.length>3&&void 0!==arguments[3]?arguments[3]:1,o=arguments.length>4&&void 0!==arguments[4]?arguments[4]:0,a=arguments.length>5&&void 0!==arguments[5]?arguments[5]:0;n(this,t),this.m=[r,e,i,u,o,a],this.i=null,this.w=null,this.s=null}return e(t,[{key:"point",value:function(t,n){var r=this.m;return{x:r[0]*t+r[2]*n+r[4],y:r[1]*t+r[3]*n+r[5]}}},{key:"translateSelf",value:function(){var t=arguments.length>0&&void 0!==arguments[0]?arguments[0]:0,n=arguments.length>1&&void 0!==arguments[1]?arguments[1]:0;if(!t&&!n)return this;var r=this.m;return r[4]+=r[0]*t+r[2]*n,r[5]+=r[1]*t+r[3]*n,this.w=this.s=this.i=null,this}},{key:"rotateSelf",value:function(){var t=arguments.length>0&&void 0!==arguments[0]?arguments[0]:0;if(t%=360){var n=j(t*=C),r=q(t),e=this.m,i=e[0],u=e[1];e[0]=i*r+e[2]*n,e[1]=u*r+e[3]*n,e[2]=e[2]*r-i*n,e[3]=e[3]*r-u*n,this.w=this.s=this.i=null}return this}},{key:"scaleSelf",value:function(){var t=arguments.length>0&&void 0!==arguments[0]?arguments[0]:1,n=arguments.length>1&&void 0!==arguments[1]?arguments[1]:1;if(1!==t||1!==n){var r=this.m;r[0]*=t,r[1]*=t,r[2]*=n,r[3]*=n,this.w=this.s=this.i=null}return this}},{key:"skewSelf",value:function(t,n){if(n%=360,(t%=360)||n){var r=this.m,e=r[0],i=r[1],u=r[2],o=r[3];t&&(t=z(t*C),r[2]+=e*t,r[3]+=i*t),n&&(n=z(n*C),r[0]+=u*n,r[1]+=o*n),this.w=this.s=this.i=null}return this}},{key:"resetSelf",value:function(){var t=arguments.length>0&&void 0!==arguments[0]?arguments[0]:1,n=arguments.length>1&&void 0!==arguments[1]?arguments[1]:0,r=arguments.length>2&&void 0!==arguments[2]?arguments[2]:0,e=arguments.length>3&&void 0!==arguments[3]?arguments[3]:1,i=arguments.length>4&&void 0!==arguments[4]?arguments[4]:0,u=arguments.length>5&&void 0!==arguments[5]?arguments[5]:0,o=this.m;return o[0]=t,o[1]=n,o[2]=r,o[3]=e,o[4]=i,o[5]=u,this.w=this.s=this.i=null,this}},{key:"recomposeSelf",value:function(){var t=arguments.length>0&&void 0!==arguments[0]?arguments[0]:null,n=arguments.length>1&&void 0!==arguments[1]?arguments[1]:null,r=arguments.length>2&&void 0!==arguments[2]?arguments[2]:null,e=arguments.length>3&&void 0!==arguments[3]?arguments[3]:null,i=arguments.length>4&&void 0!==arguments[4]?arguments[4]:null;return this.isIdentity||this.resetSelf(),t&&(t.x||t.y)&&this.translateSelf(t.x,t.y),n&&this.rotateSelf(n),r&&(r.x&&this.skewSelf(r.x,0),r.y&&this.skewSelf(0,r.y)),!e||1===e.x&&1===e.y||this.scaleSelf(e.x,e.y),i&&(i.x||i.y)&&this.translateSelf(i.x,i.y),this}},{key:"decompose",value:function(){var t=arguments.length>0&&void 0!==arguments[0]?arguments[0]:0,n=arguments.length>1&&void 0!==arguments[1]?arguments[1]:0,r=this.m,e=r[0]*r[0]+r[1]*r[1],i=[[r[0],r[1]],[r[2],r[3]]],u=T(e);if(0===u)return{origin:{x:r[4],y:r[5]},translate:{x:t,y:n},scale:{x:0,y:0},skew:{x:0,y:0},rotate:0};i[0][0]/=u,i[0][1]/=u;var o=r[0]*r[3]-r[1]*r[2]<0;o&&(u=-u);var a=i[0][0]*i[1][0]+i[0][1]*i[1][1];i[1][0]-=i[0][0]*a,i[1][1]-=i[0][1]*a;var l=T(i[1][0]*i[1][0]+i[1][1]*i[1][1]);if(0===l)return{origin:{x:r[4],y:r[5]},translate:{x:t,y:n},scale:{x:u,y:0},skew:{x:0,y:0},rotate:0};i[1][0]/=l,i[1][1]/=l,a/=l;var f=0;return i[1][1]<0?(f=P(i[1][1])*R,i[0][1]<0&&(f=360-f)):f=O(i[0][1])*R,o&&(f=-f),a=L(a,T(i[0][0]*i[0][0]+i[0][1]*i[0][1]))*R,{origin:{x:r[4],y:r[5]},translate:{x:t,y:n},scale:{x:u,y:l},skew:{x:a,y:0},rotate:f}}},{key:"toString",value:function(){return null===this.s&&(this.s="matrix("+this.m.map(N).join(" ")+")"),this.s}},{key:"determinant",get:function(){var t=this.m;return t[0]*t[3]-t[1]*t[2]}},{key:"isIdentity",get:function(){if(null===this.i){var t=this.m;this.i=1===t[0]&&0===t[1]&&0===t[2]&&1===t[3]&&0===t[4]&&0===t[5]}return this.i}}]),t}(),D=/\.0+$/;function N(t){return Number.isInteger(t)?t:t.toFixed(14).replace(D,"")}Object.freeze({M:2,L:2,Z:0,H:1,V:1,C:6,Q:4,T:2,S:4,A:7});function G(t,n,r){return t+(n-t)*r}function $(t,n,r){var e=arguments.length>3&&void 0!==arguments[3]&&arguments[3],i={x:G(t.x,n.x,r),y:G(t.y,n.y,r)};return e&&(i.a=H(t,n)),i}function H(t,n){return Math.atan2(n.y-t.y,n.x-t.x)}function Q(t,n,r,e){var i=1-e;return i*i*t+2*i*e*n+e*e*r}function U(t,n,r,e){return 2*(1-e)*(n-t)+2*e*(r-n)}function Y(t,n,r,e){var i=arguments.length>4&&void 0!==arguments[4]&&arguments[4],u={x:Q(t.x,n.x,r.x,e),y:Q(t.y,n.y,r.y,e)};return i&&(u.a=Z(t,n,r,e)),u}function Z(t,n,r,e){return Math.atan2(U(t.y,n.y,r.y,e),U(t.x,n.x,r.x,e))}function J(t,n,r,e,i){var u=i*i;return i*u*(e-t+3*(n-r))+3*u*(t+r-2*n)+3*i*(n-t)+t}function K(t,n,r,e,i){var u=1-i;return 3*(u*u*(n-t)+2*u*i*(r-n)+i*i*(e-r))}function W(t,n,r,e,i){var u=arguments.length>5&&void 0!==arguments[5]&&arguments[5],o={x:J(t.x,n.x,r.x,e.x,i),y:J(t.y,n.y,r.y,e.y,i)};return u&&(o.a=X(t,n,r,e,i)),o}function X(t,n,r,e,i){return Math.atan2(K(t.y,n.y,r.y,e.y,i),K(t.x,n.x,r.x,e.x,i))}function tt(t,n,r){var e=arguments.length>3&&void 0!==arguments[3]&&arguments[3];if(rt(n)){if(et(r))return Y(n,r.start,r,t,e)}else if(rt(r)){if(n.end)return Y(n,n.end,r,t,e)}else{if(n.end)return r.start?W(n,n.end,r.start,r,t,e):Y(n,n.end,r,t,e);if(r.start)return Y(n,r.start,r,t,e)}return $(n,r,t,e)}function nt(t,n,r){var e=tt(t,n,r,!0);return e.a=function(t){var n=arguments.length>1&&void 0!==arguments[1]&&arguments[1];return n?t+Math.PI:t}(e.a)/v,e}function rt(t){return!t.type||"corner"===t.type}function et(t){return null!=t.start&&!rt(t)}var it=new V;var ut={f:function(t){return t?t.join(" "):""},i:function(n,r,e){if(0===n)return r;if(1===n)return e;var i=r.length;if(i!==e.length)return h(n,r,e);for(var u,o=new Array(i),a=0;a<i;a++){if((u=t(r[a]))!==t(e[a]))return h(n,r,e);if("number"===u)o[a]=y(n,r[a],e[a]);else{if(r[a]!==e[a])return h(n,r,e);o[a]=r[a]}}return o}},ot={f:null,i:A,u:function(t,n){return function(r){var e=n(r);t.setAttribute("x1",_(e[0])),t.setAttribute("y1",_(e[1])),t.setAttribute("x2",_(e[2])),t.setAttribute("y2",_(e[3]))}}},at={f:_,i:y},lt={f:_,i:function(t,n,r){var e=y(t,n,r);return e<=0?0:e>=1?1:e}},ft={f:M,i:function(t,n,r){var e,i,u,o=n.length,a=r.length;if(o!==a)if(0===o)n=x(o=a,0);else if(0===a)a=o,r=x(o,0);else{var l=(u=(e=o)*(i=a)/function(t,n){for(var r;n;)r=n,n=t%n,t=r;return t||1}(e,i))<0?-u:u;n=k(n,Math.floor(l/o)),r=k(r,Math.floor(l/a)),o=a=l}for(var f=[],s=0;s<o;s++)f.push(c(d(t,n[s],r[s]),6));return f}};function st(t,n,r,e,i,u,o,a){return n=function(t,n,r){for(var e,i,u,o=t.length-1,a={},l=0;l<=o;l++)(e=t[l]).e&&(e.e=n(e.e)),e.v&&"g"===(i=e.v).t&&i.r&&(u=r.getElementById(i.r))&&(a[i.r]=u.querySelectorAll("stop"));return a}(t,e,a),function(e){var i,u=r(e,t,ct);return u?"c"===u.t?E(u.v):"g"===u.t?(n[u.r]&&function(t,n){for(var r=0,e=t.length;r<e;r++)t[r].setAttribute("stop-color",E(n[r]))}(n[u.r],u.v),(i=u.r)?"url(#"+i+")":"none"):"none":"none"}}function ct(t,n,r){if(0===t)return n;if(1===t)return r;if(n&&r){var e=n.t;if(e===r.t)switch(n.t){case"c":return{t:e,v:b(t,n.v,r.v)};case"g":if(n.r===r.r)return{t:e,v:w(t,n.v,r.v),r:n.r}}}return h(t,n,r)}var vt={blur:m,brightness:d,contrast:d,"drop-shadow":function(t,n,r){return 0===t?n:1===t?r:{blur:m(t,n.blur,r.blur),offset:g(t,n.offset,r.offset),color:b(t,n.color,r.color)}},grayscale:d,"hue-rotate":y,invert:d,opacity:d,saturate:d,sepia:d};function ht(t,n,r){if(0===t)return n;if(1===t)return r;var e=n.length;if(e!==r.length)return h(t,n,r);for(var i,u=[],o=0;o<e;o++){if(n[o].type!==r[o].type)return n;if(!(i=vt[n[o].type]))return h(t,n,r);u.push({type:n.type,value:i(t,n[o].value,r[o].value)})}return u}var yt={blur:function(t){return t?function(n){t.setAttribute("stdDeviation",I(n))}:null},brightness:function(t,n,r){return(t=gt(r,n))?function(n){n=_(n),t.map((function(t){return t.setAttribute("slope",n)}))}:null},contrast:function(t,n,r){return(t=gt(r,n))?function(n){var r=_((1-n)/2);n=_(n),t.map((function(t){t.setAttribute("slope",n),t.setAttribute("intercept",r)}))}:null},"drop-shadow":function(t,n,r){var e=r.getElementById(n+"-blur");if(!e)return null;var i=r.getElementById(n+"-offset");if(!i)return null;var u=r.getElementById(n+"-flood");return u?function(t){e.setAttribute("stdDeviation",I(t.blur)),i.setAttribute("dx",_(t.offset.x)),i.setAttribute("dy",_(t.offset.y)),u.setAttribute("flood-color",E(t.color))}:null},grayscale:function(t){return t?function(n){t.setAttribute("values",M(function(t){return[.2126+.7874*(t=1-t),.7152-.7152*t,.0722-.0722*t,0,0,.2126-.2126*t,.7152+.2848*t,.0722-.0722*t,0,0,.2126-.2126*t,.7152-.7152*t,.0722+.9278*t,0,0,0,0,0,1,0]}(n)))}:null},"hue-rotate":function(t){return t?function(n){return t.setAttribute("values",_(n))}:null},invert:function(t,n,r){return(t=gt(r,n))?function(n){n=_(n)+" "+_(1-n),t.map((function(t){return t.setAttribute("tableValues",n)}))}:null},opacity:function(t,n,r){return(t=r.getElementById(n+"-A"))?function(n){return t.setAttribute("tableValues","0 "+_(n))}:null},saturate:function(t){return t?function(n){return t.setAttribute("values",_(n))}:null},sepia:function(t){return t?function(n){return t.setAttribute("values",M(function(t){return[.393+.607*(t=1-t),.769-.769*t,.189-.189*t,0,0,.349-.349*t,.686+.314*t,.168-.168*t,0,0,.272-.272*t,.534-.534*t,.131+.869*t,0,0,0,0,0,1,0]}(n)))}:null}};var dt=["R","G","B"];function gt(t,n){var r=dt.map((function(r){return t.getElementById(n+"-"+r)||null}));return-1!==r.indexOf(null)?null:r}var mt={fill:st,"fill-opacity":lt,stroke:st,"stroke-opacity":lt,"stroke-width":at,"stroke-dashoffset":{f:_,i:y},"stroke-dasharray":ft,opacity:lt,transform:function(n,r,e,i){if(!(n=function(n,r){if(!n||"object"!==t(n))return null;var e=!1;for(var i in n)n.hasOwnProperty(i)&&(n[i]&&n[i].length?(n[i].forEach((function(t){t.e&&(t.e=r(t.e))})),e=!0):delete n[i]);return e?n:null}(n,i)))return null;var u=function(t,i,u){var o=arguments.length>3&&void 0!==arguments[3]?arguments[3]:null;return n[t]?e(i,n[t],u):r&&r[t]?r[t]:o};return r&&r.a&&n.o?function(t){var r=e(t,n.o,nt);return it.recomposeSelf(r,u("r",t,y,0)+r.a,u("k",t,g),u("s",t,g),u("t",t,g)).toString()}:function(t){return it.recomposeSelf(u("o",t,tt,null),u("r",t,y,0),u("k",t,g),u("s",t,g),u("t",t,g)).toString()}},"#filter":function(t,n,r,e,i,u,o,a){if(!n.items||!t||!t.length)return null;var l=function(t,n){var r=(t=t.map((function(t){return t&&yt[t[0]]?(n.getElementById(t[1]),yt[t[0]](n.getElementById(t[1]),t[1],n)):null}))).length;return function(n){for(var e=0;e<r;e++)t[e]&&t[e](n[e].value)}}(n.items,a);return l?(t=function(t,n){return t.map((function(t){return t.e=n(t.e),t}))}(t,e),function(n){l(r(n,t,ht))}):null},"#line":ot,points:{f:M,i:A},d:ut,r:at,"#size":B,"#radius":F,_:function(t,n){if(Array.isArray(t))for(var r=0;r<t.length;r++)this[t[r]]=n;else this[t]=n}},pt=function(){function t(r){n(this,t),this.list=r,this.length=r.length}return e(t,[{key:"setAttribute",value:function(t,n){for(var r=this.list,e=0;e<this.length;e++)r[e].setAttribute(t,n)}},{key:"removeAttribute",value:function(t){for(var n=this.list,r=0;r<this.length;r++)n[r].removeAttribute(t)}},{key:"style",value:function(t,n){for(var r=this.list,e=0;e<this.length;e++)r[e].style[t]=n}}]),t}(),bt=/-./g,wt=function(t,n){return n.toUpperCase()};function At(t){return"function"==typeof t?t:h}function xt(t){return t?"function"==typeof t?t:Array.isArray(t)?function(t){var n=arguments.length>1&&void 0!==arguments[1]?arguments[1]:u;if(!Array.isArray(t))return n;switch(t.length){case 1:return s(t[0])||n;case 2:return s(t[0],t[1])||n;case 4:return a(t[0],t[1],t[2],t[3])||n}return n}(t,null):function(t,n){var r=arguments.length>2&&void 0!==arguments[2]?arguments[2]:u;switch(t){case"linear":return u;case"steps":return s(n.steps||1,n.jump||0)||r;case"bezier":case"cubic-bezier":return a(n.x1||0,n.y1||0,n.x2||0,n.y2||0)||r}return r}(t.type,t.value,null):null}function kt(t,n,r){var e=arguments.length>3&&void 0!==arguments[3]&&arguments[3],i=n.length-1;if(t<=n[0].t)return e?[0,0,n[0].v]:n[0].v;if(t>=n[i].t)return e?[i,1,n[i].v]:n[i].v;var u,o=n[0],a=null;for(u=1;u<=i;u++){if(!(t>n[u].t)){a=n[u];break}o=n[u]}return null==a?e?[i,1,n[i].v]:n[i].v:o.t===a.t?e?[u,1,a.v]:a.v:(t=(t-o.t)/(a.t-o.t),o.e&&(t=o.e(t)),e?[u,t,r(t,o.v,a.v)]:r(t,o.v,a.v))}function St(t,n){var r=arguments.length>2&&void 0!==arguments[2]?arguments[2]:null;return t&&t.length?"function"!=typeof n?null:("function"!=typeof r&&(r=null),function(e){var i=kt(e,t,n);return null!=i&&r&&(i=r(i)),i}):null}function _t(t,n){return t.t-n.t}function Mt(n,r,e,i,u){var o,a="@"===e[0],l="#"===e[0],f=mt[e],s=h;switch(a?(o=e.substr(1),e=o.replace(bt,wt)):l&&(e=e.substr(1)),t(f)){case"function":if(s=f(i,u,kt,xt,e,a,r,n),l)return s;break;case"string":s=St(i,At(f));break;case"object":if((s=St(i,At(f.i),f.f))&&"function"==typeof f.u)return f.u(r,s,e,a,n)}return s?function(t,n,r){var e=arguments.length>3&&void 0!==arguments[3]&&arguments[3];if(e)return t instanceof pt?function(e){return t.style(n,r(e))}:function(e){return t.style[n]=r(e)};if(Array.isArray(n)){var i=n.length;return function(e){var u=r(e);if(null==u)for(var o=0;o<i;o++)t[o].removeAttribute(n);else for(var a=0;a<i;a++)t[a].setAttribute(n,u)}}return function(e){var i=r(e);null==i?t.removeAttribute(n):t.setAttribute(n,i)}}(r,e,s,a):null}function It(n,r,e,i){if(!i||"object"!==t(i))return null;var u=null,o=null;return Array.isArray(i)?o=function(t){if(!t||!t.length)return null;for(var n=0;n<t.length;n++)t[n].e&&(t[n].e=xt(t[n].e));return t.sort(_t)}(i):(o=i.keys,u=i.data||null),o?Mt(n,r,e,o,u):null}function Et(t,n,r){if(!r)return null;var e=[];for(var i in r)if(r.hasOwnProperty(i)){var u=It(t,n,i,r[i]);u&&e.push(u)}return e.length?e:null}function Ft(t,n){if(!n.duration||n.duration<0)return null;var r=function(t,n){if(!n)return null;var r=[];if(Array.isArray(n))for(var e=n.length,i=0;i<e;i++){var u=n[i];if(2===u.length){var o=null;if("string"==typeof u[0])o=t.getElementById(u[0]);else if(Array.isArray(u[0])){o=[];for(var a=0;a<u[0].length;a++)if("string"==typeof u[0][a]){var l=t.getElementById(u[0][a]);l&&o.push(l)}o=o.length?1===o.length?o[0]:new pt(o):null}if(o){var f=Et(t,o,u[1]);f&&(r=r.concat(f))}}}else for(var s in n)if(n.hasOwnProperty(s)){var c=t.getElementById(s);if(c){var v=Et(t,c,n[s]);v&&(r=r.concat(v))}}return r.length?r:null}(t,n.elements);return r?function(t,n){var r=arguments.length>2&&void 0!==arguments[2]?arguments[2]:1/0,e=arguments.length>3&&void 0!==arguments[3]?arguments[3]:1,i=arguments.length>4&&void 0!==arguments[4]&&arguments[4],u=arguments.length>5&&void 0!==arguments[5]?arguments[5]:1,o=t.length,a=e>0?n:0;i&&r%2==0&&(a=n-a);var l=null;return function(f,s){var c=f%n,v=1+(f-c)/n;s*=e,i&&v%2==0&&(s=-s);var h=!1;if(v>r)c=a,h=!0,-1===u&&(c=e>0?0:n);else if(s<0&&(c=n-c),c===l)return!1;l=c;for(var y=0;y<o;y++)t[y](c);return h}}(r,n.duration,n.iterations||1/0,n.direction||1,!!n.alternate,n.fill||1):null}var Bt=function(){function t(r){var e=arguments.length>1&&void 0!==arguments[1]?arguments[1]:{};n(this,t),this._id=0,this._running=!1,this._animations=r,this.direction=e.direction||1,this.speed=e.speed||1,this.fps=e.fps||100,this.offset=e.offset||0}return e(t,[{key:"_start",value:function(){var t=this,n=arguments.length>0&&void 0!==arguments[0]?arguments[0]:0,r=-1/0,e=null,i={},u=function u(o){t._running=!0,null==e&&(e=o);var a=Math.round((o-e+n)*t.speed),l=t.fps?1e3/t.fps:0;if(a>r+l){t.offset=a,r=a;for(var f=t._animations,s=f.length,c=0,v=0;v<s;v++)i[v]?c++:(i[v]=f[v](a,t.direction),i[v]&&c++);if(c===s)return void t._stop()}t._id=window.requestAnimationFrame(u)};this._id=window.requestAnimationFrame(u)}},{key:"_stop",value:function(){this._id&&window.cancelAnimationFrame(this._id),this._running=!1}},{key:"play",value:function(){this._running||this._start(this.offset)}},{key:"stop",value:function(){this._stop(),this.offset=0;var t=this.direction,n=this._animations;requestAnimationFrame((function(){for(var r=0;r<n.length;r++)n[r](0,t)}))}},{key:"restart",value:function(){this._stop(),this.offset=0,this._start()}},{key:"pause",value:function(){this._stop()}},{key:"reverse",value:function(){this.direction=-this.direction}}],[{key:"build",value:function(n){if(!(n=function(t){if(!t||!t.root||!Array.isArray(t.animations))return null;var n=window.document.getElementById(t.root);if(!n)return null;var r=t.animations.map((function(t){return Ft(n,t)})).filter((function(t){return!!t}));return r.length?{element:n,animations:r,options:t.options||void 0}:null}(n)))return null;var r=n.element,e=n.options||{},i=new t(n.animations,n.options);return function(t,n,r){var e=arguments.length>3&&void 0!==arguments[3]?arguments[3]:null;if("click"===r){var i=function r(){n.removeEventListener("click",r),t.play()};return void n.addEventListener("click",i)}if("hover"===r)return n.addEventListener("mouseenter",(function(){return t.play()})),void n.addEventListener("mouseleave","freeze"===e?function(){return t.pause()}:function(){return t.stop()});t.play()}(i,r,e.start,e.hover),i}}]),t}();return function(){for(var t=0,n=["ms","moz","webkit","o"],r=0;r<n.length&&!window.requestAnimationFrame;++r)window.requestAnimationFrame=window[n[r]+"RequestAnimationFrame"],window.cancelAnimationFrame=window[n[r]+"CancelAnimationFrame"]||window[n[r]+"CancelRequestAnimationFrame"];window.requestAnimationFrame||(window.requestAnimationFrame=function(n){var r=Date.now(),e=Math.max(0,16-(r-t)),i=window.setTimeout((function(){n(r+e)}),e);return t=r+e,i},window.cancelAnimationFrame=window.clearTimeout)}(),Bt}));
__SVGATOR_PLAYER__.build({"root":"evw3mi175tvq1","animations":[{"duration":4000,"direction":-1,"iterations":0,"fill":1,"alternate":false,"elements":{"evw3mi175tvq2":{"transform":{"keys":{"o":[{"t":0,"v":{"x":-0.31083949999999994,"y":0.5216796800000001,"type":"corner"}},{"t":1000,"v":{"x":-0.03083950000000002,"y":0.0016796800000000722,"type":"corner"}},{"t":2000,"v":{"x":-0.03083950000000002,"y":0.97167968,"type":"corner"}},{"t":2900,"v":{"x":-0.03083950000000002,"y":0.02167968000000009,"type":"corner"}},{"t":4000,"v":{"x":-0.03083950000000002,"y":0.001679680000000086,"type":"corner"}}]}}}}}],"options":{"start":"hover","hover":"restart"}})]]></script></svg>