<svg width="188" height="30" viewBox="0 0 188 30" fill="none" xmlns="http://www.w3.org/2000/svg">
<path d="M17.9482 7.10645C17.9482 7.66309 17.8604 8.22461 17.6846 8.79102C17.5088 9.35742 17.25 9.9043 16.9082 10.4316C16.5762 10.959 16.1709 11.457 15.6924 11.9258C15.2236 12.3945 14.6963 12.8096 14.1104 13.1709C13.5342 13.5225 12.9092 13.8105 12.2354 14.0352C11.5615 14.2598 10.8584 14.3965 10.126 14.4453C9.98926 14.4648 9.85254 14.4648 9.71582 14.4453C9.58887 14.416 9.47168 14.3867 9.36426 14.3574C9.28613 14.3281 9.17383 14.2842 9.02734 14.2256C8.89062 14.167 8.80273 14.123 8.76367 14.0938C8.70508 14.0352 8.62207 13.9473 8.51465 13.8301C8.41699 13.7031 8.34375 13.6006 8.29492 13.5225C8.26562 13.4736 8.25098 13.3955 8.25098 13.2881C8.26074 13.1709 8.26562 13.0391 8.26562 12.8926C8.26562 12.7559 8.26074 12.6143 8.25098 12.4678C8.25098 12.3115 8.26562 12.2236 8.29492 12.2041C8.31445 12.1846 8.3584 12.2041 8.42676 12.2627C8.50488 12.3115 8.65137 12.3506 8.86621 12.3799C8.9541 12.3994 9.05176 12.4043 9.15918 12.3945C9.27637 12.3848 9.38867 12.3701 9.49609 12.3506C9.83789 12.3213 10.2334 12.2236 10.6826 12.0576C11.1318 11.8916 11.5908 11.6719 12.0596 11.3984C12.5381 11.125 13.0068 10.8076 13.4658 10.4463C13.9248 10.0752 14.3301 9.67969 14.6816 9.25977C15.043 8.83984 15.3311 8.39551 15.5459 7.92676C15.7705 7.45801 15.8828 6.98438 15.8828 6.50586C15.8828 6.13477 15.8096 5.77832 15.6631 5.43652C15.5166 5.08496 15.2871 4.73828 14.9746 4.39648C14.7793 4.17188 14.3984 3.99609 13.832 3.86914C13.2656 3.74219 12.5869 3.67871 11.7959 3.67871C11.1221 3.67871 10.3994 3.73242 9.62793 3.83984C8.85645 3.94727 8.08984 4.12305 7.32812 4.36719C6.67383 4.58203 6.11719 4.77246 5.6582 4.93848C5.19922 5.09473 4.80371 5.23633 4.47168 5.36328C4.14941 5.49023 3.88086 5.59766 3.66602 5.68555C3.46094 5.77344 3.28027 5.85156 3.12402 5.91992C2.96777 5.97852 2.82617 6.03711 2.69922 6.0957C2.57227 6.14453 2.43555 6.18848 2.28906 6.22754C2.15234 6.27637 2.04492 6.30566 1.9668 6.31543C1.88867 6.31543 1.8252 6.31543 1.77637 6.31543C1.69824 6.2959 1.63965 6.27637 1.60059 6.25684C1.57129 6.22754 1.53223 6.19824 1.4834 6.16895C1.44434 6.13965 1.40527 6.12988 1.36621 6.13965C1.32715 6.13965 1.28809 6.14453 1.24902 6.1543C1.21973 6.16406 1.18555 6.16406 1.14648 6.1543C1.10742 6.14453 1.06836 6.11035 1.0293 6.05176C0.970703 5.94434 0.931641 5.86133 0.912109 5.80273C0.882812 5.73437 0.868164 5.68066 0.868164 5.6416C0.858398 5.59277 0.858398 5.54883 0.868164 5.50977C0.87793 5.4707 0.892578 5.42188 0.912109 5.36328C0.921875 5.30469 0.921875 5.25098 0.912109 5.20215C0.902344 5.15332 0.897461 5.10938 0.897461 5.07031C0.887695 5.03125 0.892578 4.99219 0.912109 4.95312C0.921875 4.9043 0.960938 4.85059 1.0293 4.79199C1.16602 4.68457 1.39062 4.51855 1.70312 4.29395C2.01562 4.06934 2.40137 3.8252 2.86035 3.56152C3.3291 3.28809 3.86133 3.00977 4.45703 2.72656C5.0625 2.44336 5.7168 2.18457 6.41992 1.9502C7.13281 1.70605 7.88965 1.50586 8.69043 1.34961C9.50098 1.18359 10.3457 1.09082 11.2246 1.07129C12.1035 1.05176 12.875 1.14941 13.5391 1.36426C14.2129 1.56934 14.7988 1.84766 15.2969 2.19922C15.7949 2.54102 16.21 2.93652 16.542 3.38574C16.8838 3.8252 17.1572 4.26953 17.3623 4.71875C17.5674 5.16797 17.7139 5.60254 17.8018 6.02246C17.8896 6.44238 17.9385 6.80371 17.9482 7.10645ZM7.89941 5.14355C7.88965 5.19238 7.87012 5.3584 7.84082 5.6416C7.82129 5.9248 7.79199 6.29102 7.75293 6.74023C7.72363 7.17969 7.68945 7.68262 7.65039 8.24902C7.61133 8.81543 7.57227 9.40625 7.5332 10.0215C7.49414 10.6367 7.45508 11.2617 7.41602 11.8965C7.38672 12.5215 7.36719 13.1221 7.35742 13.6982C7.33789 14.2842 7.32324 14.8896 7.31348 15.5146C7.30371 16.1299 7.29883 16.7549 7.29883 17.3896C7.29883 18.1221 7.31348 18.8447 7.34277 19.5576C7.38184 20.2705 7.44531 20.959 7.5332 21.623C7.57227 21.8477 7.55762 22.0234 7.48926 22.1504C7.4209 22.2773 7.38672 22.3896 7.38672 22.4873C7.38672 22.5166 7.40137 22.5459 7.43066 22.5752C7.45996 22.5947 7.46484 22.6143 7.44531 22.6338C7.41602 22.6826 7.3623 22.7021 7.28418 22.6924C7.21582 22.6826 7.15234 22.6533 7.09375 22.6045C7.06445 22.5752 7.04004 22.541 7.02051 22.502C7.00098 22.4531 6.98145 22.4141 6.96191 22.3848C6.94238 22.3555 6.91797 22.3408 6.88867 22.3408C6.85938 22.3311 6.81543 22.3506 6.75684 22.3994C6.70801 22.4482 6.64941 22.5166 6.58105 22.6045C6.52246 22.6924 6.45898 22.7852 6.39062 22.8828C6.32227 22.9707 6.25391 23.0488 6.18555 23.1172C6.11719 23.1953 6.04883 23.2441 5.98047 23.2637C5.92188 23.2832 5.84863 23.3027 5.76074 23.3223C5.68262 23.3418 5.63379 23.3125 5.61426 23.2344C5.59473 23.1953 5.5752 23.1709 5.55566 23.1611C5.53613 23.1514 5.51172 23.1367 5.48242 23.1172C5.45312 23.1074 5.42383 23.0879 5.39453 23.0586C5.375 23.0391 5.36035 22.9902 5.35059 22.9121C5.30176 22.7461 5.24316 22.624 5.1748 22.5459C5.11621 22.458 5.08691 22.3604 5.08691 22.2529C5.06738 22.0869 5.01855 21.6084 4.94043 20.8174C4.87207 20.0264 4.83789 18.9326 4.83789 17.5361C4.83789 16.9795 4.84277 16.374 4.85254 15.7197C4.87207 15.0654 4.90625 14.3721 4.95508 13.6396C5.00391 12.9854 5.0625 12.2773 5.13086 11.5156C5.19922 10.7539 5.26758 10.0068 5.33594 9.27441C5.41406 8.54199 5.48242 7.8584 5.54102 7.22363C5.59961 6.58887 5.64355 6.06641 5.67285 5.65625C5.68262 5.58789 5.70703 5.54395 5.74609 5.52441C5.78516 5.50488 5.83887 5.49023 5.90723 5.48047C5.97559 5.4707 6.06348 5.46094 6.1709 5.45117C6.27832 5.43164 6.40527 5.39258 6.55176 5.33398C6.66895 5.27539 6.80566 5.2168 6.96191 5.1582C7.12793 5.09961 7.2793 5.05566 7.41602 5.02637C7.5625 4.9873 7.67969 4.97266 7.76758 4.98242C7.86523 4.99219 7.90918 5.0459 7.89941 5.14355ZM23.5146 22.0771C23.5244 22.2139 23.4854 22.3506 23.3975 22.4873C23.3193 22.6143 23.2217 22.7314 23.1045 22.8389C22.9971 22.9463 22.8848 23.0293 22.7676 23.0879C22.6602 23.1562 22.5771 23.1953 22.5186 23.2051C22.3818 23.2246 22.2305 23.21 22.0645 23.1611C21.8984 23.1123 21.7715 23.0488 21.6836 22.9707C21.6152 22.9121 21.5664 22.8438 21.5371 22.7656C21.5176 22.6777 21.4932 22.5557 21.4639 22.3994C21.415 22.1748 21.3662 21.9941 21.3174 21.8574C21.2783 21.7109 21.2441 21.5889 21.2148 21.4912C21.1855 21.3838 21.1562 21.2861 21.127 21.1982C21.1074 21.1104 21.0928 21.0029 21.083 20.876C20.9756 19.6846 20.9121 18.498 20.8926 17.3164C20.873 16.125 20.8828 14.9824 20.9219 13.8887C20.9609 12.7949 21.0195 11.7793 21.0977 10.8418C21.1855 9.89453 21.2686 9.07422 21.3467 8.38086C21.4346 7.67773 21.5127 7.12109 21.5811 6.71094C21.6494 6.30078 21.6934 6.08105 21.7129 6.05176C21.7422 5.97363 21.8252 5.90039 21.9619 5.83203C22.1084 5.76367 22.2744 5.71484 22.46 5.68555C22.5967 5.66602 22.6992 5.64648 22.7676 5.62695C22.8359 5.60742 22.8945 5.58789 22.9434 5.56836C22.9922 5.53906 23.0459 5.51465 23.1045 5.49512C23.1729 5.46582 23.2754 5.43164 23.4121 5.39258C23.5293 5.36328 23.5977 5.42188 23.6172 5.56836C23.6367 5.71484 23.6318 5.9834 23.6025 6.37402C23.5732 6.76465 23.5293 7.29688 23.4707 7.9707C23.4219 8.64453 23.3828 9.49414 23.3535 10.5195C23.4609 10.5391 23.5781 10.5488 23.7051 10.5488C23.8418 10.5488 23.9883 10.5488 24.1445 10.5488C24.6621 10.5488 25.2627 10.4951 25.9463 10.3877C26.6299 10.2803 27.3135 10.0898 27.9971 9.81641C28.6904 9.5332 29.3447 9.15234 29.96 8.67383C30.5752 8.18555 31.0732 7.57031 31.4541 6.82812C31.5127 6.68164 31.542 6.51074 31.542 6.31543C31.542 6.04199 31.4492 5.77344 31.2637 5.50977C31.0879 5.23633 30.8047 4.99707 30.4141 4.79199C30.0234 4.57715 29.5156 4.40625 28.8906 4.2793C28.2656 4.14258 27.5137 4.07422 26.6348 4.07422C26.1172 4.07422 25.5801 4.11328 25.0234 4.19141C24.4668 4.26953 23.9004 4.39648 23.3242 4.57227C22.748 4.74805 22.167 4.97754 21.5811 5.26074C20.9951 5.54395 20.4189 5.89551 19.8525 6.31543C19.8232 6.34473 19.7695 6.36914 19.6914 6.38867C19.6133 6.39844 19.5352 6.40332 19.457 6.40332C19.3105 6.40332 19.1689 6.34961 19.0322 6.24219C18.8955 6.13477 18.8271 6.02246 18.8271 5.90527C18.8271 5.84668 18.8467 5.79785 18.8857 5.75879C18.9248 5.70996 18.9688 5.66602 19.0176 5.62695C19.0762 5.58789 19.125 5.55371 19.1641 5.52441C19.2031 5.49512 19.2227 5.4707 19.2227 5.45117C19.2227 5.42188 19.2031 5.38281 19.1641 5.33398C19.125 5.28516 19.1055 5.22168 19.1055 5.14355C19.1055 5.13379 19.0811 5.12402 19.0322 5.11426C18.9834 5.10449 18.9248 5.08984 18.8564 5.07031C18.7979 5.05078 18.7441 5.02148 18.6953 4.98242C18.6465 4.93359 18.6221 4.87012 18.6221 4.79199C18.6221 4.7334 18.6514 4.68457 18.71 4.64551C18.7783 4.60645 18.8564 4.55273 18.9443 4.48438C19.0615 4.41602 19.2666 4.28418 19.5596 4.08887C19.8525 3.89355 20.2041 3.67383 20.6143 3.42969C21.0342 3.18555 21.498 2.93164 22.0059 2.66797C22.5137 2.4043 23.0459 2.16504 23.6025 1.9502C24.1689 1.72559 24.7451 1.54492 25.3311 1.4082C25.917 1.26172 26.4883 1.18848 27.0449 1.18848C27.6113 1.18848 28.1533 1.28613 28.6709 1.48145C29.1885 1.67676 29.6719 1.93555 30.1211 2.25781C30.5703 2.58008 30.9756 2.95605 31.3369 3.38574C31.6982 3.80566 32.0059 4.25 32.2598 4.71875C32.5234 5.17773 32.7236 5.64648 32.8604 6.125C33.0068 6.59375 33.0801 7.03809 33.0801 7.45801C33.0801 7.94629 32.9189 8.41504 32.5967 8.86426C32.2842 9.31348 31.8789 9.7334 31.3809 10.124C30.8926 10.5146 30.3555 10.8711 29.7695 11.1934C29.1836 11.5059 28.627 11.7793 28.0996 12.0137C27.6016 12.2285 27.0889 12.3848 26.5615 12.4824C26.0439 12.5703 25.5654 12.624 25.126 12.6436C25.6143 12.8291 26.127 13.083 26.6641 13.4053C27.2109 13.7275 27.748 14.1768 28.2754 14.7529C28.5391 15.0459 28.7979 15.4414 29.0518 15.9395C29.3057 16.4277 29.5596 16.9697 29.8135 17.5654C30.0674 18.1611 30.3213 18.791 30.5752 19.4551C30.8389 20.1191 31.1123 20.7783 31.3955 21.4326C31.6885 22.0771 31.9961 22.6924 32.3184 23.2783C32.6504 23.874 33.002 24.3965 33.373 24.8457C33.7539 25.2949 34.1592 25.6514 34.5889 25.915C35.0283 26.1885 35.5068 26.3252 36.0244 26.3252C36.4932 26.3252 37.001 26.2031 37.5479 25.959C38.1045 25.7246 38.7051 25.3193 39.3496 24.7432C39.5938 24.5479 39.75 24.3916 39.8184 24.2744C39.8965 24.167 39.9502 24.1133 39.9795 24.1133C40.0088 24.1133 40.0283 24.1328 40.0381 24.1719C40.0576 24.2109 40.0674 24.25 40.0674 24.2891C40.0771 24.3379 40.082 24.3818 40.082 24.4209C40.082 24.46 40.0869 24.4844 40.0967 24.4941V24.5234C40.0967 24.5723 40.0771 24.6162 40.0381 24.6553C40.0674 24.6553 40.0869 24.6699 40.0967 24.6992C40.1162 24.7383 40.126 24.7822 40.126 24.8311C40.126 24.9092 40.1064 24.9873 40.0674 25.0654C39.999 25.1631 39.916 25.334 39.8184 25.5781C39.7207 25.832 39.5889 26.1152 39.4229 26.4277C39.2666 26.7402 39.0713 27.0625 38.8369 27.3945C38.6025 27.7363 38.3145 28.0488 37.9727 28.332C37.6406 28.6152 37.2402 28.8447 36.7715 29.0205C36.3027 29.2061 35.7607 29.2988 35.1455 29.2988C34.7744 29.2988 34.3887 29.25 33.9883 29.1523C33.5977 29.0547 33.2021 28.8838 32.8018 28.6396C32.4111 28.4053 32.0205 28.0928 31.6299 27.7021C31.2393 27.3115 30.8633 26.8232 30.502 26.2373C30.3164 25.9541 30.1211 25.5098 29.916 24.9043C29.7207 24.2988 29.5107 23.6152 29.2861 22.8535C29.0713 22.082 28.8418 21.2715 28.5977 20.4219C28.3535 19.5723 28.0898 18.7568 27.8066 17.9756C27.5234 17.1943 27.2158 16.4912 26.8838 15.8662C26.5615 15.2314 26.2148 14.748 25.8438 14.416C25.6387 14.2402 25.4287 14.0693 25.2139 13.9033C24.999 13.7373 24.7842 13.5957 24.5693 13.4785C24.3643 13.3516 24.1592 13.2539 23.9541 13.1855C23.749 13.1074 23.5586 13.0684 23.3828 13.0684H23.3242C23.3242 13.5957 23.3242 14.1572 23.3242 14.7529C23.334 15.3486 23.3389 15.9492 23.3389 16.5547C23.3486 17.1504 23.3584 17.7363 23.3682 18.3125C23.3779 18.8887 23.3877 19.4258 23.3975 19.9238C23.417 20.4121 23.4365 20.8467 23.4561 21.2275C23.4756 21.5986 23.4951 21.8818 23.5146 22.0771ZM40.4189 2.53613C40.4189 4.30371 40.3848 6.10059 40.3164 7.92676C40.248 9.74316 40.1992 11.5498 40.1699 13.3467C40.1602 14.167 40.165 14.9824 40.1846 15.793C40.2139 16.5938 40.2432 17.3604 40.2725 18.0928C40.3115 18.8154 40.3457 19.4795 40.375 20.085C40.4043 20.6807 40.4189 21.1836 40.4189 21.5938C40.4189 21.877 40.4092 22.1064 40.3896 22.2822C40.3701 22.4482 40.3359 22.5459 40.2871 22.5752C40.2383 22.624 40.1943 22.6533 40.1553 22.6631C40.1162 22.6729 40.0771 22.6777 40.0381 22.6777C39.999 22.6777 39.9551 22.6777 39.9062 22.6777C39.8672 22.668 39.8184 22.6777 39.7598 22.707C39.6914 22.7363 39.6475 22.7705 39.6279 22.8096C39.6084 22.8389 39.5889 22.873 39.5693 22.9121C39.5498 22.9512 39.5205 22.9902 39.4814 23.0293C39.4424 23.0684 39.374 23.1074 39.2764 23.1465C39.1494 23.1758 39.0273 23.1416 38.9102 23.0439C38.8027 22.9561 38.6953 22.8828 38.5879 22.8242C38.4219 22.7266 38.2852 22.6484 38.1777 22.5898C38.0801 22.5215 37.9873 22.4189 37.8994 22.2822C37.8311 22.165 37.7725 21.9893 37.7236 21.7549C37.6748 21.5107 37.6357 21.2275 37.6064 20.9053C37.5771 20.5732 37.5576 20.207 37.5479 19.8066C37.5381 19.4062 37.5332 18.9912 37.5332 18.5615C37.5332 18.0732 37.5381 17.585 37.5479 17.0967C37.5576 16.5986 37.5674 16.125 37.5771 15.6758C37.5967 15.2266 37.6113 14.8213 37.6211 14.46C37.6309 14.0986 37.6406 13.8057 37.6504 13.5811C37.6699 12.8779 37.6943 12.1406 37.7236 11.3691C37.7627 10.5977 37.7969 9.83105 37.8262 9.06934C37.8652 8.29785 37.9043 7.55566 37.9434 6.84277C37.9824 6.12988 38.0215 5.48047 38.0605 4.89453C38.0996 4.29883 38.1338 3.7959 38.1631 3.38574C38.2021 2.96582 38.2412 2.67285 38.2803 2.50684C38.3389 2.30176 38.4414 2.18457 38.5879 2.15527C38.6562 2.12598 38.71 2.13086 38.749 2.16992C38.7979 2.20898 38.8516 2.18457 38.9102 2.09668C38.9297 2.04785 38.959 2.01855 38.998 2.00879C39.0371 1.99902 39.0762 1.99414 39.1152 1.99414C39.1543 1.99414 39.1934 1.99414 39.2324 1.99414C39.2715 1.99414 39.3057 1.98437 39.335 1.96484C39.3936 1.90625 39.4521 1.89648 39.5107 1.93555C39.5791 1.96484 39.6279 1.99414 39.6572 2.02344C39.6865 2.0918 39.7256 2.14551 39.7744 2.18457C39.8232 2.21387 39.877 2.2041 39.9355 2.15527C39.9648 2.12598 40.0039 2.11133 40.0527 2.11133C40.1113 2.11133 40.1504 2.13574 40.1699 2.18457C40.1992 2.2334 40.248 2.28223 40.3164 2.33105C40.3848 2.37988 40.4189 2.44824 40.4189 2.53613ZM59.2422 2.53613C59.3105 2.53613 59.3496 2.55566 59.3594 2.59473C59.3691 2.62402 59.3203 2.67773 59.2129 2.75586C59.1934 2.77539 59.1836 2.79492 59.1836 2.81445C59.1836 2.82422 59.1836 2.83887 59.1836 2.8584C59.1836 2.87793 59.1738 2.90723 59.1543 2.94629C59.1445 2.97559 59.1152 3.01953 59.0664 3.07812C58.9785 3.17578 58.8174 3.37109 58.583 3.66406C58.3486 3.95703 58.0703 4.31348 57.748 4.7334C57.4258 5.14355 57.0693 5.60254 56.6787 6.11035C56.2979 6.61816 55.9023 7.14062 55.4922 7.67773C55.0918 8.21484 54.6914 8.75195 54.291 9.28906C53.9004 9.81641 53.5342 10.3145 53.1924 10.7832C52.8506 11.2422 52.5527 11.6523 52.2988 12.0137C52.0449 12.3652 51.8594 12.6387 51.7422 12.834V13.3027C51.7422 13.6738 51.7324 14.123 51.7129 14.6504C51.7031 15.1777 51.6885 15.7393 51.6689 16.335C51.6494 16.9209 51.6299 17.5166 51.6104 18.1221C51.5908 18.7275 51.5713 19.2891 51.5518 19.8066C51.5322 20.3242 51.5127 20.7783 51.4932 21.1689C51.4834 21.5596 51.4785 21.8379 51.4785 22.0039C51.4785 22.1406 51.4688 22.2432 51.4492 22.3115C51.4395 22.3799 51.4199 22.4287 51.3906 22.458C51.3613 22.4775 51.3174 22.4873 51.2588 22.4873C51.21 22.4873 51.1416 22.4873 51.0537 22.4873C50.9658 22.4873 50.917 22.458 50.9072 22.3994C50.8975 22.3408 50.8779 22.3018 50.8486 22.2822C50.8193 22.2725 50.7998 22.292 50.79 22.3408C50.7803 22.3896 50.7754 22.4434 50.7754 22.502C50.7754 22.5605 50.7705 22.6143 50.7607 22.6631C50.7607 22.7119 50.751 22.7363 50.7314 22.7363C50.6729 22.7363 50.6094 22.7217 50.541 22.6924C50.4824 22.6533 50.4238 22.6143 50.3652 22.5752C50.3164 22.5361 50.2676 22.5068 50.2188 22.4873C50.1797 22.458 50.1504 22.4482 50.1309 22.458C50.1113 22.4678 50.1064 22.4873 50.1162 22.5166C50.126 22.5459 50.1309 22.5752 50.1309 22.6045C50.1309 22.6338 50.126 22.6582 50.1162 22.6777C50.1064 22.6875 50.082 22.6826 50.043 22.6631C49.9941 22.6533 49.9453 22.6338 49.8965 22.6045C49.8477 22.5654 49.8037 22.5361 49.7646 22.5166C49.7256 22.4873 49.6914 22.4775 49.6621 22.4873C49.6426 22.4873 49.6279 22.5166 49.6182 22.5752C49.5986 22.7119 49.584 22.8486 49.5742 22.9854C49.5645 23.1123 49.5303 23.166 49.4717 23.1465C49.374 23.127 49.2471 23.0879 49.0908 23.0293C48.9346 22.9707 48.8418 22.8486 48.8125 22.6631C48.793 22.5459 48.7832 22.3994 48.7832 22.2236C48.7832 22.0479 48.7832 21.8477 48.7832 21.623C48.7832 21.125 48.793 20.5439 48.8125 19.8799C48.8418 19.2158 48.8711 18.5371 48.9004 17.8438C48.9297 17.1504 48.9541 16.4814 48.9736 15.8369C49.0029 15.1924 49.0176 14.6406 49.0176 14.1816C49.0176 13.5566 48.9883 13.1855 48.9297 13.0684C48.8809 12.9902 48.7295 12.751 48.4756 12.3506C48.2217 11.9404 47.9043 11.4424 47.5234 10.8564C47.1523 10.2607 46.7373 9.60645 46.2783 8.89355C45.8291 8.18066 45.3848 7.47754 44.9453 6.78418C44.5156 6.08105 44.1104 5.42188 43.7295 4.80664C43.3584 4.19141 43.0605 3.68359 42.8359 3.2832C42.7969 3.21484 42.7676 3.1416 42.748 3.06348C42.7285 2.97559 42.7139 2.89258 42.7041 2.81445C42.6943 2.73633 42.6943 2.67285 42.7041 2.62402C42.7139 2.56543 42.7285 2.52637 42.748 2.50684C42.7871 2.4873 42.8408 2.46777 42.9092 2.44824C42.9678 2.42871 43.041 2.41895 43.1289 2.41895C43.2168 2.40918 43.3291 2.40918 43.4658 2.41895C43.5049 2.53613 43.5391 2.60938 43.5684 2.63867C43.5977 2.66797 43.627 2.67773 43.6562 2.66797C43.6855 2.64844 43.7148 2.61914 43.7441 2.58008C43.7734 2.53125 43.8027 2.49707 43.832 2.47754C43.9395 2.37012 44.0078 2.31152 44.0371 2.30176C44.0664 2.29199 44.1348 2.33105 44.2422 2.41895C44.3398 2.50684 44.4131 2.53125 44.4619 2.49219C44.5107 2.45312 44.5791 2.36035 44.667 2.21387C44.7549 2.08691 44.8525 2.05762 44.96 2.12598C45.0771 2.18457 45.209 2.30176 45.3555 2.47754L45.5752 2.72656C45.6924 2.86328 45.873 3.1123 46.1172 3.47363C46.3613 3.8252 46.6396 4.24512 46.9521 4.7334C47.2744 5.22168 47.6162 5.75879 47.9775 6.34473C48.3486 6.9209 48.7148 7.50195 49.0762 8.08789C49.4375 8.67383 49.7842 9.24023 50.1162 9.78711C50.4482 10.334 50.7412 10.8174 50.9951 11.2373C51.2002 10.876 51.4736 10.4268 51.8154 9.88965C52.167 9.34277 52.543 8.7666 52.9434 8.16113C53.3438 7.55566 53.7588 6.94531 54.1885 6.33008C54.6182 5.70508 55.0234 5.12891 55.4043 4.60156C55.7852 4.07422 56.1221 3.625 56.415 3.25391C56.7178 2.87305 56.9424 2.62402 57.0889 2.50684C57.1572 2.44824 57.2158 2.4043 57.2646 2.375C57.3232 2.3457 57.3721 2.32617 57.4111 2.31641C57.46 2.29688 57.5039 2.28711 57.543 2.28711C57.5918 2.28711 57.6406 2.28223 57.6895 2.27246C57.8359 2.27246 57.9287 2.28223 57.9678 2.30176C58.0166 2.32129 58.0459 2.34082 58.0557 2.36035C58.0752 2.37988 58.0898 2.39941 58.0996 2.41895C58.1191 2.42871 58.1631 2.42871 58.2314 2.41895C58.3779 2.39941 58.5195 2.38965 58.6562 2.38965C58.793 2.38965 58.8711 2.41895 58.8906 2.47754C58.8906 2.49707 58.9053 2.51172 58.9346 2.52148C58.9639 2.53125 59.0664 2.53613 59.2422 2.53613ZM72.748 22.5752C72.748 22.6533 72.6992 22.6973 72.6016 22.707C72.5039 22.707 72.4014 22.707 72.2939 22.707C72.2451 22.7168 72.1963 22.7266 72.1475 22.7363C72.0986 22.7559 72.0449 22.7754 71.9863 22.7949C71.9375 22.8047 71.8887 22.834 71.8398 22.8828C71.8594 22.9805 71.8643 23.0537 71.8545 23.1025C71.8545 23.1611 71.8545 23.2051 71.8545 23.2344L71.8398 23.293C71.8105 23.332 71.752 23.3613 71.6641 23.3809C71.5762 23.4102 71.4834 23.4248 71.3857 23.4248C71.3662 23.4248 71.3369 23.4199 71.2979 23.4102C71.2295 23.3906 71.1611 23.3418 71.0928 23.2637C70.9268 23.2148 70.7314 23.166 70.5068 23.1172C70.3896 23.0879 70.2627 23.0586 70.126 23.0293C70.0186 23 69.9258 22.9219 69.8477 22.7949C69.7695 22.668 69.6963 22.5215 69.6279 22.3555C69.5693 22.1797 69.5107 22.0039 69.4521 21.8281C69.4033 21.6426 69.3594 21.4814 69.3203 21.3447L67.8848 16.8184C67.6699 16.8184 67.3965 16.8232 67.0645 16.833C66.7422 16.833 66.3955 16.8379 66.0244 16.8477C65.6533 16.8477 65.2773 16.8574 64.8965 16.877C64.5156 16.8867 64.1689 16.8965 63.8564 16.9062L60.9268 17.0527L59.2129 21.5352C59.1836 21.584 59.1396 21.6816 59.0811 21.8281C59.0322 21.9746 58.9785 22.1309 58.9199 22.2969C58.8613 22.4531 58.8076 22.6045 58.7588 22.751C58.71 22.8877 58.6807 22.9707 58.6709 23C58.6514 23.0781 58.5928 23.127 58.4951 23.1465C58.3975 23.166 58.3145 23.1855 58.2461 23.2051C58.1875 23.2246 58.1387 23.2783 58.0996 23.3662C58.0605 23.4541 58.002 23.5127 57.9238 23.542C57.8457 23.5908 57.748 23.5957 57.6309 23.5566C57.5137 23.5176 57.4111 23.4541 57.3232 23.3662C57.2451 23.2686 57.2158 23.1465 57.2354 23C57.2549 22.8438 57.2646 22.6826 57.2646 22.5166C57.2646 22.3506 57.2598 22.1943 57.25 22.0479C57.25 21.9014 57.2744 21.7598 57.3232 21.623C57.3428 21.5645 57.4014 21.3838 57.499 21.0811C57.6064 20.7686 57.7383 20.3975 57.8945 19.9678C58.0508 19.5283 58.2217 19.0547 58.4072 18.5469C58.5928 18.0293 58.7832 17.5312 58.9785 17.0527C58.8027 17.0527 58.6807 17.0039 58.6123 16.9062C58.5635 16.8281 58.5049 16.7842 58.4365 16.7744C58.3682 16.7549 58.2949 16.7305 58.2168 16.7012C58.1387 16.6816 58.085 16.6377 58.0557 16.5693C58.0264 16.501 58.0215 16.4424 58.041 16.3936C58.0605 16.335 58.0459 16.2861 57.9971 16.2471C57.9482 16.208 57.9238 16.1201 57.9238 15.9834C57.9238 15.9248 57.9678 15.8711 58.0557 15.8223C58.1533 15.7637 58.2705 15.7148 58.4072 15.6758C58.5439 15.6367 58.6953 15.6025 58.8613 15.5732C59.0371 15.5439 59.2031 15.5195 59.3594 15.5C59.3887 15.5 59.4229 15.5 59.4619 15.5C59.5107 15.5 59.5596 15.4902 59.6084 15.4707C59.8232 14.9531 60.0674 14.3965 60.3408 13.8008C60.6143 13.1953 60.8926 12.5801 61.1758 11.9551C61.4688 11.3301 61.7617 10.7051 62.0547 10.0801C62.3477 9.45508 62.626 8.86914 62.8896 8.32227C63.1533 7.76562 63.3926 7.25781 63.6074 6.79883C63.832 6.33984 64.0176 5.95898 64.1641 5.65625C64.0469 5.29492 63.9395 4.96289 63.8418 4.66016C63.7539 4.35742 63.6758 4.09375 63.6074 3.86914C63.5391 3.64453 63.4854 3.46875 63.4463 3.3418C63.4072 3.20508 63.3877 3.12695 63.3877 3.10742C63.3779 3.08789 63.3779 3.06836 63.3877 3.04883C63.4072 3 63.4561 2.9707 63.5342 2.96094C63.4561 2.81445 63.417 2.70703 63.417 2.63867C63.417 2.59961 63.4268 2.5752 63.4463 2.56543C63.4658 2.5459 63.5146 2.52637 63.5928 2.50684C63.6709 2.4873 63.7539 2.47266 63.8418 2.46289C63.9297 2.44336 64.0127 2.43359 64.0908 2.43359C64.1689 2.42383 64.2227 2.41895 64.252 2.41895C64.2617 2.41895 64.2861 2.42383 64.3252 2.43359C64.3838 2.45312 64.4668 2.49707 64.5742 2.56543C64.584 2.5166 64.5938 2.48242 64.6035 2.46289C64.623 2.44336 64.6426 2.42383 64.6621 2.4043L64.7061 2.36035C64.7646 2.33105 64.8281 2.32617 64.8965 2.3457C64.9648 2.35547 65.0283 2.36035 65.0869 2.36035C65.1455 2.36035 65.1846 2.33594 65.2041 2.28711C65.2334 2.23828 65.2969 2.21387 65.3945 2.21387C65.5215 2.21387 65.6289 2.35059 65.7168 2.62402C65.7266 2.67285 65.7949 2.8584 65.9219 3.18066C66.0488 3.49316 66.21 3.9082 66.4053 4.42578C66.6006 4.93359 66.8252 5.52441 67.0791 6.19824C67.3428 6.87207 67.6162 7.58984 67.8994 8.35156C68.1826 9.10352 68.4658 9.88477 68.749 10.6953C69.042 11.4961 69.3203 12.2871 69.584 13.0684C70.1309 14.6602 70.5898 16.0029 70.9609 17.0967C71.332 18.1904 71.6299 19.084 71.8545 19.7773C72.0889 20.4707 72.2598 20.9883 72.3672 21.3301C72.4844 21.6719 72.5576 21.877 72.5869 21.9453C72.6357 22.1016 72.6748 22.2285 72.7041 22.3262C72.7334 22.4141 72.748 22.4971 72.748 22.5752ZM66.4346 12.5557C66.1807 11.833 65.9023 11.0225 65.5996 10.124C65.3066 9.22559 65.0186 8.33691 64.7354 7.45801C64.5693 7.8877 64.3691 8.40527 64.1348 9.01074C63.9004 9.61621 63.6514 10.2412 63.3877 10.8857C63.1338 11.5303 62.8848 12.1602 62.6406 12.7754C62.3965 13.3906 62.1816 13.918 61.9961 14.3574L61.5859 15.3242L64.2227 15.1631C64.4473 15.1631 64.7158 15.1582 65.0283 15.1484C65.5557 15.1387 66.3174 15.124 67.3135 15.1045L66.4346 12.5557ZM90.5605 2.44824C90.5801 2.62402 90.5898 2.99023 90.5898 3.54688C90.5898 4.09375 90.5801 4.76758 90.5605 5.56836C90.5508 6.36914 90.5312 7.2627 90.502 8.24902C90.4824 9.23535 90.4531 10.2607 90.4141 11.3252C90.375 12.3799 90.3311 13.4443 90.2822 14.5186C90.2432 15.583 90.1992 16.5938 90.1504 17.5508C90.1016 18.5078 90.0479 19.3818 89.9893 20.1729C89.9307 20.9541 89.8721 21.5889 89.8135 22.0771C89.8135 22.1357 89.7842 22.1895 89.7256 22.2383C89.6768 22.2773 89.623 22.3506 89.5645 22.458C89.5059 22.5557 89.4473 22.6094 89.3887 22.6191C89.3301 22.6289 89.2812 22.6289 89.2422 22.6191C89.2031 22.6094 89.1738 22.6094 89.1543 22.6191C89.1348 22.6289 89.1348 22.6777 89.1543 22.7656C89.1738 22.8242 89.1396 22.873 89.0518 22.9121C88.9736 22.9414 88.9053 22.9316 88.8467 22.8828C88.7686 22.8242 88.6758 22.7559 88.5684 22.6777C88.4609 22.5898 88.3926 22.5459 88.3633 22.5459C88.3047 22.5361 88.2852 22.5605 88.3047 22.6191C88.3242 22.6777 88.3486 22.7412 88.3779 22.8096C88.417 22.8779 88.4414 22.9414 88.4512 23C88.4707 23.0684 88.4414 23.1074 88.3633 23.1172C88.2168 23.1367 88.0459 23.1025 87.8506 23.0146C87.665 22.9268 87.4893 22.8242 87.3232 22.707C87.1865 22.5996 86.9814 22.3604 86.708 21.9893C86.4346 21.6182 86.1074 21.1494 85.7266 20.583C85.3555 20.0068 84.9404 19.3525 84.4814 18.6201C84.0322 17.8877 83.5635 17.1064 83.0752 16.2764C82.5869 15.4463 82.0889 14.5869 81.5811 13.6982C81.0732 12.8096 80.5801 11.9258 80.1016 11.0469C79.623 10.1582 79.1641 9.29395 78.7246 8.4541C78.2852 7.61426 77.8896 6.83301 77.5381 6.11035C77.499 6.52051 77.4648 7.08203 77.4355 7.79492C77.4062 8.49805 77.377 9.28418 77.3477 10.1533C77.3281 11.0127 77.3086 11.9209 77.2891 12.8779C77.2695 13.835 77.25 14.7773 77.2305 15.7051C77.2207 16.6328 77.2109 17.5117 77.2012 18.3418C77.1914 19.1719 77.1816 19.8848 77.1719 20.4805C77.1719 20.8711 77.1621 21.1494 77.1426 21.3154C77.1328 21.4717 77.1182 21.5791 77.0986 21.6377C77.0889 21.6963 77.0742 21.7402 77.0547 21.7695C77.0449 21.7891 77.0449 21.8574 77.0547 21.9746C77.0547 22.2871 77.0352 22.5752 76.9961 22.8389C76.957 23.0928 76.8691 23.2344 76.7324 23.2637C76.6543 23.3027 76.5811 23.2881 76.5127 23.2197C76.4443 23.1611 76.3564 23.1465 76.249 23.1758C76.2197 23.1758 76.1807 23.2002 76.1318 23.249C76.0928 23.3076 76.0195 23.3369 75.9121 23.3369C75.8242 23.3369 75.7168 23.2979 75.5898 23.2197C75.4629 23.1416 75.3799 23 75.3408 22.7949L75.2822 22.2529C75.2725 22.1943 75.2578 22.1553 75.2383 22.1357C75.2285 22.1162 75.2139 22.0869 75.1943 22.0479C75.1846 22.0088 75.1748 21.9453 75.165 21.8574C75.1553 21.7598 75.1455 21.5986 75.1357 21.374C75.1357 21.3154 75.1455 21.042 75.165 20.5537C75.1846 20.0557 75.209 19.416 75.2383 18.6348C75.2773 17.8535 75.3164 16.9648 75.3555 15.9688C75.4043 14.9727 75.4531 13.9424 75.502 12.8779C75.5605 11.8135 75.6143 10.7539 75.6631 9.69922C75.7217 8.64453 75.7803 7.66797 75.8389 6.76953C75.9072 5.87109 75.9707 5.08984 76.0293 4.42578C76.0879 3.75195 76.1416 3.27344 76.1904 2.99023C76.1416 2.87305 76.1025 2.76074 76.0732 2.65332C76.0537 2.5459 76.0439 2.44824 76.0439 2.36035C76.0342 2.30176 76.0391 2.2627 76.0586 2.24316C76.0879 2.22363 76.1221 2.20898 76.1611 2.19922C76.21 2.17969 76.2588 2.16016 76.3076 2.14062C76.3564 2.12109 76.4053 2.08203 76.4541 2.02344C76.4736 1.99414 76.4883 1.92578 76.498 1.81836C76.5176 1.70117 76.5518 1.64258 76.6006 1.64258C76.7373 1.64258 76.8496 1.61328 76.9375 1.55469C77.0254 1.48633 77.1475 1.44238 77.3037 1.42285C77.3037 1.25684 77.3477 1.14941 77.4355 1.10059C77.4746 1.07129 77.5186 1.06152 77.5674 1.07129C77.7334 1.09082 77.8604 1.15918 77.9482 1.27637C78.0459 1.38379 78.1191 1.48633 78.168 1.58398C78.2168 1.70117 78.2559 1.78906 78.2852 1.84766C78.3145 1.90625 78.3535 1.98926 78.4023 2.09668C78.4707 2.2041 78.6025 2.43359 78.7979 2.78516C79.0029 3.13672 79.252 3.57617 79.5449 4.10352C79.8379 4.63086 80.1699 5.22656 80.541 5.89062C80.9121 6.54492 81.2979 7.24316 81.6982 7.98535C82.1084 8.71777 82.5283 9.46973 82.958 10.2412C83.3877 11.0029 83.8076 11.75 84.2178 12.4824C84.6279 13.2148 85.0186 13.9131 85.3896 14.5771C85.7607 15.2412 86.0977 15.8418 86.4004 16.3789C86.7031 16.9062 86.957 17.3506 87.1621 17.7119C87.3672 18.0635 87.5088 18.2979 87.5869 18.415C87.7822 18.6982 87.9189 18.8594 87.9971 18.8984C88.0752 18.9277 88.168 18.835 88.2754 18.6201C88.3242 18.5225 88.3682 18.2979 88.4072 17.9463C88.4561 17.585 88.5 17.1309 88.5391 16.584C88.5879 16.0371 88.627 15.417 88.6562 14.7236C88.6953 14.0303 88.7295 13.3027 88.7588 12.541C88.7881 11.7793 88.8125 10.998 88.832 10.1973C88.8516 9.39648 88.8613 8.62012 88.8613 7.86816C88.8711 7.11621 88.8711 6.4082 88.8613 5.74414C88.8613 5.08008 88.8467 4.49414 88.8174 3.98633C88.8076 3.71289 88.8027 3.46875 88.8027 3.25391C88.8027 3.06836 88.8125 2.89746 88.832 2.74121C88.8516 2.58496 88.8857 2.50684 88.9346 2.50684C89.0029 2.45801 89.0615 2.42871 89.1104 2.41895C89.1689 2.39941 89.2129 2.39453 89.2422 2.4043C89.2812 2.4043 89.3154 2.40918 89.3447 2.41895C89.374 2.42871 89.3984 2.42871 89.418 2.41895C89.4375 2.40918 89.4473 2.39453 89.4473 2.375C89.4473 2.35547 89.4473 2.33105 89.4473 2.30176C89.457 2.27246 89.4717 2.24316 89.4912 2.21387C89.5107 2.1748 89.5547 2.14551 89.623 2.12598C89.7012 2.09668 89.7598 2.08203 89.7988 2.08203C89.8477 2.07227 89.8867 2.07227 89.916 2.08203C89.9453 2.0918 89.9697 2.10156 89.9893 2.11133C90.0088 2.12109 90.0381 2.11621 90.0771 2.09668C90.1553 2.05762 90.2188 2.02344 90.2676 1.99414C90.3164 1.95508 90.3604 1.94043 90.3994 1.9502C90.4385 1.95996 90.4678 2.00391 90.4873 2.08203C90.5166 2.15039 90.541 2.27246 90.5605 2.44824ZM98.3096 3.19531C98.29 3.29297 98.2607 3.65918 98.2217 4.29395C98.1924 4.91895 98.1533 5.73437 98.1045 6.74023C98.0557 7.83398 97.9873 8.81055 97.8994 9.66992C97.8115 10.5195 97.7383 11.291 97.6797 11.9844C98.0605 11.7207 98.4854 11.3691 98.9541 10.9297C99.4229 10.4805 99.9014 9.99707 100.39 9.47949C100.888 8.95215 101.376 8.41504 101.854 7.86816C102.343 7.32129 102.787 6.80859 103.188 6.33008C103.588 5.85156 103.935 5.43164 104.228 5.07031C104.521 4.70898 104.721 4.45508 104.828 4.30859C105.043 4.03516 105.272 3.78125 105.517 3.54688C105.771 3.30273 106.01 3.08789 106.234 2.90234C106.459 2.70703 106.664 2.55078 106.85 2.43359C107.045 2.30664 107.191 2.22363 107.289 2.18457C107.357 2.16504 107.416 2.16016 107.465 2.16992C107.514 2.17969 107.553 2.2041 107.582 2.24316C107.621 2.27246 107.641 2.33105 107.641 2.41895C107.709 2.46777 107.729 2.50684 107.699 2.53613C107.67 2.56543 107.67 2.59473 107.699 2.62402C107.729 2.66309 107.758 2.70215 107.787 2.74121C107.816 2.78027 107.807 2.84375 107.758 2.93164C107.68 3.10742 107.597 3.26367 107.509 3.40039C107.421 3.53711 107.299 3.70313 107.143 3.89844C106.986 4.09375 106.771 4.34277 106.498 4.64551C106.234 4.94824 105.878 5.34863 105.429 5.84668C104.989 6.31543 104.481 6.88672 103.905 7.56055C103.329 8.23438 102.709 8.93262 102.045 9.65527C101.391 10.3779 100.702 11.0908 99.9795 11.7939C99.2568 12.4971 98.5293 13.1123 97.7969 13.6396C98.0801 13.6982 98.3975 13.7861 98.749 13.9033C99.1104 14.0205 99.4961 14.1816 99.9062 14.3867C100.326 14.5918 100.771 14.8457 101.239 15.1484C101.718 15.4512 102.221 15.8174 102.748 16.2471C103.354 16.7549 103.944 17.2627 104.521 17.7705C105.097 18.2783 105.678 18.7373 106.264 19.1475C106.85 19.5479 107.45 19.875 108.065 20.1289C108.681 20.3828 109.33 20.5098 110.014 20.5098C110.463 20.5098 110.932 20.4463 111.42 20.3193C111.918 20.1924 112.44 19.9775 112.987 19.6748C113.114 19.6064 113.207 19.5674 113.266 19.5576C113.334 19.5479 113.373 19.5527 113.383 19.5723C113.402 19.5918 113.402 19.626 113.383 19.6748C113.363 19.7139 113.339 19.7529 113.31 19.792C113.29 19.8115 113.256 19.8408 113.207 19.8799C113.158 19.9092 113.1 19.9482 113.031 19.9971C112.973 20.0361 112.914 20.085 112.855 20.1436C112.797 20.1924 112.748 20.2461 112.709 20.3047C112.68 20.3242 112.68 20.3389 112.709 20.3486C112.738 20.3486 112.763 20.3584 112.782 20.3779C112.812 20.3877 112.821 20.4121 112.812 20.4512C112.802 20.4805 112.738 20.5293 112.621 20.5977C112.562 20.6367 112.514 20.6904 112.475 20.7588C112.436 20.8174 112.396 20.8809 112.357 20.9492C112.328 21.0078 112.289 21.0713 112.24 21.1396C112.191 21.1982 112.128 21.2471 112.05 21.2861C111.874 21.3838 111.737 21.5107 111.64 21.667C111.552 21.8135 111.479 21.916 111.42 21.9746C111.342 22.0625 111.171 22.1846 110.907 22.3408C110.644 22.4971 110.326 22.6484 109.955 22.7949C109.594 22.9316 109.193 23.0391 108.754 23.1172C108.314 23.2051 107.875 23.2148 107.436 23.1465C106.771 23.0391 106.142 22.7852 105.546 22.3848C104.96 21.9844 104.389 21.5156 103.832 20.9785C103.285 20.4316 102.753 19.8457 102.235 19.2207C101.718 18.5957 101.205 18.0049 100.697 17.4482C100.189 16.8916 99.6768 16.4033 99.1592 15.9834C98.6514 15.5537 98.1289 15.2607 97.5918 15.1045C97.5918 15.4951 97.5967 15.9395 97.6064 16.4375C97.626 16.9355 97.6406 17.4531 97.6504 17.9902C97.6699 18.5176 97.6846 19.04 97.6943 19.5576C97.7139 20.0654 97.7285 20.5293 97.7383 20.9492C97.7578 21.3691 97.7725 21.7207 97.7822 22.0039C97.8018 22.2871 97.8164 22.458 97.8262 22.5166C97.8652 22.7607 97.8652 22.9121 97.8262 22.9707C97.7871 23.0195 97.709 23.0586 97.5918 23.0879C97.543 23.1074 97.4893 23.1025 97.4307 23.0732C97.3818 23.0537 97.3281 23.0684 97.2695 23.1172C97.2402 23.1465 97.2207 23.1807 97.2109 23.2197C97.2012 23.2588 97.1865 23.2979 97.167 23.3369C97.1475 23.3857 97.1133 23.4297 97.0645 23.4688C97.0254 23.5078 96.9521 23.542 96.8447 23.5713C96.7959 23.5908 96.7422 23.6006 96.6836 23.6006C96.6348 23.6006 96.5762 23.6006 96.5078 23.6006C96.4297 23.6201 96.3271 23.5908 96.2002 23.5127C96.083 23.4443 95.9756 23.3711 95.8779 23.293C95.8291 23.2441 95.7803 23.1758 95.7314 23.0879C95.6826 23.0098 95.6338 22.9316 95.585 22.8535C95.5361 22.7949 95.4775 22.751 95.4092 22.7217C95.3506 22.6924 95.3066 22.6143 95.2773 22.4873C95.1699 22.0381 95.0967 21.4814 95.0576 20.8174C95.0283 20.1533 95.0137 19.4697 95.0137 18.7666C95.0137 18.3564 95.0186 17.9512 95.0283 17.5508C95.0381 17.1406 95.0479 16.7549 95.0576 16.3936C95.0771 16.0225 95.0918 15.6807 95.1016 15.3682C95.1211 15.0557 95.1406 14.792 95.1602 14.5771L94.5303 14.5039C94.3545 14.5039 94.2275 14.4941 94.1494 14.4746C94.0713 14.4551 94.0078 14.4307 93.959 14.4014C93.9199 14.3623 93.8809 14.3184 93.8418 14.2695C93.8027 14.2207 93.7441 14.1719 93.666 14.123C93.5098 14.0156 93.417 13.9131 93.3877 13.8154C93.3584 13.708 93.4512 13.5713 93.666 13.4053C93.8125 13.2783 94.0127 13.1904 94.2666 13.1416C94.5205 13.083 94.8574 13 95.2773 12.8926C95.2969 12.4238 95.3164 11.8965 95.3359 11.3105C95.3652 10.7246 95.3994 10.1191 95.4385 9.49414C95.4775 8.85938 95.5166 8.22461 95.5557 7.58984C95.6045 6.94531 95.6533 6.33496 95.7021 5.75879C95.751 5.18262 95.8047 4.65527 95.8633 4.17676C95.9219 3.69824 95.9805 3.30273 96.0391 2.99023C96.0586 2.85352 96.083 2.75586 96.1123 2.69727C96.1514 2.63867 96.1953 2.59473 96.2441 2.56543C96.3027 2.55566 96.3564 2.5752 96.4053 2.62402C96.4541 2.67285 96.5176 2.67285 96.5957 2.62402C96.6543 2.59473 96.7031 2.57031 96.7422 2.55078C96.7812 2.52148 96.8105 2.50684 96.8301 2.50684C96.8594 2.49707 96.8838 2.50684 96.9033 2.53613C96.9229 2.56543 96.9521 2.61914 96.9912 2.69727C97.001 2.70703 97.0107 2.70703 97.0205 2.69727C97.04 2.6875 97.0596 2.67285 97.0791 2.65332L97.1377 2.59473C97.2061 2.56543 97.2939 2.5459 97.4014 2.53613C97.5088 2.5166 97.5723 2.5459 97.5918 2.62402C97.6016 2.69238 97.6162 2.72168 97.6357 2.71191C97.6553 2.69238 97.6797 2.66309 97.709 2.62402C97.748 2.58496 97.792 2.5459 97.8408 2.50684C97.8896 2.46777 97.9482 2.45801 98.0166 2.47754C98.1533 2.52637 98.2559 2.60938 98.3242 2.72656C98.3926 2.83398 98.3877 2.99023 98.3096 3.19531ZM127.123 22.5752C127.123 22.6533 127.074 22.6973 126.977 22.707C126.879 22.707 126.776 22.707 126.669 22.707C126.62 22.7168 126.571 22.7266 126.522 22.7363C126.474 22.7559 126.42 22.7754 126.361 22.7949C126.312 22.8047 126.264 22.834 126.215 22.8828C126.234 22.9805 126.239 23.0537 126.229 23.1025C126.229 23.1611 126.229 23.2051 126.229 23.2344L126.215 23.293C126.186 23.332 126.127 23.3613 126.039 23.3809C125.951 23.4102 125.858 23.4248 125.761 23.4248C125.741 23.4248 125.712 23.4199 125.673 23.4102C125.604 23.3906 125.536 23.3418 125.468 23.2637C125.302 23.2148 125.106 23.166 124.882 23.1172C124.765 23.0879 124.638 23.0586 124.501 23.0293C124.394 23 124.301 22.9219 124.223 22.7949C124.145 22.668 124.071 22.5215 124.003 22.3555C123.944 22.1797 123.886 22.0039 123.827 21.8281C123.778 21.6426 123.734 21.4814 123.695 21.3447L122.26 16.8184C122.045 16.8184 121.771 16.8232 121.439 16.833C121.117 16.833 120.771 16.8379 120.399 16.8477C120.028 16.8477 119.652 16.8574 119.271 16.877C118.891 16.8867 118.544 16.8965 118.231 16.9062L115.302 17.0527L113.588 21.5352C113.559 21.584 113.515 21.6816 113.456 21.8281C113.407 21.9746 113.354 22.1309 113.295 22.2969C113.236 22.4531 113.183 22.6045 113.134 22.751C113.085 22.8877 113.056 22.9707 113.046 23C113.026 23.0781 112.968 23.127 112.87 23.1465C112.772 23.166 112.689 23.1855 112.621 23.2051C112.562 23.2246 112.514 23.2783 112.475 23.3662C112.436 23.4541 112.377 23.5127 112.299 23.542C112.221 23.5908 112.123 23.5957 112.006 23.5566C111.889 23.5176 111.786 23.4541 111.698 23.3662C111.62 23.2686 111.591 23.1465 111.61 23C111.63 22.8438 111.64 22.6826 111.64 22.5166C111.64 22.3506 111.635 22.1943 111.625 22.0479C111.625 21.9014 111.649 21.7598 111.698 21.623C111.718 21.5645 111.776 21.3838 111.874 21.0811C111.981 20.7686 112.113 20.3975 112.27 19.9678C112.426 19.5283 112.597 19.0547 112.782 18.5469C112.968 18.0293 113.158 17.5312 113.354 17.0527C113.178 17.0527 113.056 17.0039 112.987 16.9062C112.938 16.8281 112.88 16.7842 112.812 16.7744C112.743 16.7549 112.67 16.7305 112.592 16.7012C112.514 16.6816 112.46 16.6377 112.431 16.5693C112.401 16.501 112.396 16.4424 112.416 16.3936C112.436 16.335 112.421 16.2861 112.372 16.2471C112.323 16.208 112.299 16.1201 112.299 15.9834C112.299 15.9248 112.343 15.8711 112.431 15.8223C112.528 15.7637 112.646 15.7148 112.782 15.6758C112.919 15.6367 113.07 15.6025 113.236 15.5732C113.412 15.5439 113.578 15.5195 113.734 15.5C113.764 15.5 113.798 15.5 113.837 15.5C113.886 15.5 113.935 15.4902 113.983 15.4707C114.198 14.9531 114.442 14.3965 114.716 13.8008C114.989 13.1953 115.268 12.5801 115.551 11.9551C115.844 11.3301 116.137 10.7051 116.43 10.0801C116.723 9.45508 117.001 8.86914 117.265 8.32227C117.528 7.76562 117.768 7.25781 117.982 6.79883C118.207 6.33984 118.393 5.95898 118.539 5.65625C118.422 5.29492 118.314 4.96289 118.217 4.66016C118.129 4.35742 118.051 4.09375 117.982 3.86914C117.914 3.64453 117.86 3.46875 117.821 3.3418C117.782 3.20508 117.763 3.12695 117.763 3.10742C117.753 3.08789 117.753 3.06836 117.763 3.04883C117.782 3 117.831 2.9707 117.909 2.96094C117.831 2.81445 117.792 2.70703 117.792 2.63867C117.792 2.59961 117.802 2.5752 117.821 2.56543C117.841 2.5459 117.89 2.52637 117.968 2.50684C118.046 2.4873 118.129 2.47266 118.217 2.46289C118.305 2.44336 118.388 2.43359 118.466 2.43359C118.544 2.42383 118.598 2.41895 118.627 2.41895C118.637 2.41895 118.661 2.42383 118.7 2.43359C118.759 2.45312 118.842 2.49707 118.949 2.56543C118.959 2.5166 118.969 2.48242 118.979 2.46289C118.998 2.44336 119.018 2.42383 119.037 2.4043L119.081 2.36035C119.14 2.33105 119.203 2.32617 119.271 2.3457C119.34 2.35547 119.403 2.36035 119.462 2.36035C119.521 2.36035 119.56 2.33594 119.579 2.28711C119.608 2.23828 119.672 2.21387 119.77 2.21387C119.896 2.21387 120.004 2.35059 120.092 2.62402C120.102 2.67285 120.17 2.8584 120.297 3.18066C120.424 3.49316 120.585 3.9082 120.78 4.42578C120.976 4.93359 121.2 5.52441 121.454 6.19824C121.718 6.87207 121.991 7.58984 122.274 8.35156C122.558 9.10352 122.841 9.88477 123.124 10.6953C123.417 11.4961 123.695 12.2871 123.959 13.0684C124.506 14.6602 124.965 16.0029 125.336 17.0967C125.707 18.1904 126.005 19.084 126.229 19.7773C126.464 20.4707 126.635 20.9883 126.742 21.3301C126.859 21.6719 126.933 21.877 126.962 21.9453C127.011 22.1016 127.05 22.2285 127.079 22.3262C127.108 22.4141 127.123 22.4971 127.123 22.5752ZM120.81 12.5557C120.556 11.833 120.277 11.0225 119.975 10.124C119.682 9.22559 119.394 8.33691 119.11 7.45801C118.944 7.8877 118.744 8.40527 118.51 9.01074C118.275 9.61621 118.026 10.2412 117.763 10.8857C117.509 11.5303 117.26 12.1602 117.016 12.7754C116.771 13.3906 116.557 13.918 116.371 14.3574L115.961 15.3242L118.598 15.1631C118.822 15.1631 119.091 15.1582 119.403 15.1484C119.931 15.1387 120.692 15.124 121.688 15.1045L120.81 12.5557ZM143.061 1.81836C143.109 2.16016 143.163 2.62891 143.222 3.22461C143.28 3.82031 143.334 4.49902 143.383 5.26074C143.441 6.02246 143.485 6.85254 143.515 7.75098C143.554 8.64941 143.573 9.57227 143.573 10.5195C143.573 11.5742 143.544 12.6387 143.485 13.7129C143.437 14.7773 143.349 15.8076 143.222 16.8037C143.104 17.79 142.938 18.7178 142.724 19.5869C142.509 20.4463 142.24 21.1934 141.918 21.8281C141.752 22.1504 141.518 22.5117 141.215 22.9121C140.912 23.3125 140.541 23.6738 140.102 23.9961C139.662 24.3184 139.154 24.5674 138.578 24.7432C138.002 24.9189 137.357 24.9482 136.645 24.8311C136.137 24.7432 135.668 24.5527 135.238 24.2598C134.818 23.9668 134.452 23.6055 134.14 23.1758C133.827 22.7559 133.583 22.292 133.407 21.7842C133.231 21.2666 133.139 20.7539 133.129 20.2461C133.119 19.6699 133.178 19.1377 133.305 18.6494C133.432 18.1514 133.583 17.7119 133.759 17.3311C133.944 16.9502 134.14 16.6328 134.345 16.3789C134.55 16.125 134.726 15.9443 134.872 15.8369C135.048 15.71 135.17 15.6367 135.238 15.6172C135.316 15.5977 135.395 15.5781 135.473 15.5586C135.57 15.5391 135.639 15.5342 135.678 15.5439C135.727 15.5439 135.756 15.5537 135.766 15.5732C135.785 15.583 135.8 15.6025 135.81 15.6318C135.819 15.6514 135.844 15.666 135.883 15.6758C135.932 15.6953 135.985 15.7051 136.044 15.7051C136.103 15.7051 136.151 15.7051 136.19 15.7051C136.239 15.7051 136.269 15.7148 136.278 15.7344C136.298 15.7441 136.288 15.7783 136.249 15.8369C136.229 15.8662 136.229 15.8857 136.249 15.8955C136.278 15.9053 136.312 15.915 136.352 15.9248C136.4 15.9248 136.439 15.9346 136.469 15.9541C136.508 15.9736 136.522 16.0029 136.513 16.042C136.493 16.0713 136.498 16.1152 136.527 16.1738C136.557 16.2227 136.596 16.2373 136.645 16.2178C136.771 16.1885 136.83 16.1836 136.82 16.2031C136.811 16.2129 136.762 16.2568 136.674 16.335C136.586 16.4033 136.479 16.501 136.352 16.6279C136.225 16.7549 136.112 16.9111 136.015 17.0967C135.761 17.5947 135.57 18.127 135.443 18.6934C135.316 19.2598 135.253 19.8164 135.253 20.3633C135.253 20.7246 135.277 21.0664 135.326 21.3887C135.385 21.7012 135.468 21.9795 135.575 22.2236C135.683 22.4678 135.814 22.668 135.971 22.8242C136.137 22.9707 136.327 23.0586 136.542 23.0879C137.04 23.1562 137.489 23.0293 137.89 22.707C138.29 22.375 138.646 21.9258 138.959 21.3594C139.271 20.793 139.545 20.1436 139.779 19.4111C140.014 18.6787 140.209 17.9463 140.365 17.2139C140.521 16.4717 140.639 15.7637 140.717 15.0898C140.805 14.4062 140.863 13.835 140.893 13.376C140.932 12.7314 140.956 12.0869 140.966 11.4424C140.985 10.7979 140.995 10.1582 140.995 9.52344C140.995 8.39062 140.976 7.31152 140.937 6.28613C140.897 5.25098 140.849 4.32812 140.79 3.51758C140.741 2.70703 140.688 2.04297 140.629 1.52539C140.57 0.998047 140.521 0.675781 140.482 0.558594C140.463 0.509766 140.458 0.470703 140.468 0.441406C140.487 0.412109 140.517 0.392578 140.556 0.382812C140.604 0.363281 140.653 0.358398 140.702 0.368164C140.761 0.37793 140.814 0.392578 140.863 0.412109C140.932 0.431641 140.971 0.412109 140.98 0.353516C140.99 0.285156 141.024 0.236328 141.083 0.207031C141.132 0.1875 141.181 0.197266 141.229 0.236328C141.278 0.275391 141.317 0.294922 141.347 0.294922C141.396 0.294922 141.435 0.275391 141.464 0.236328C141.503 0.197266 141.547 0.1875 141.596 0.207031C141.625 0.226562 141.654 0.246094 141.684 0.265625C141.723 0.285156 141.781 0.285156 141.859 0.265625C141.889 0.255859 141.913 0.236328 141.933 0.207031C141.952 0.167969 141.972 0.133789 141.991 0.104492C142.021 0.0654297 142.045 0.0410156 142.064 0.03125C142.094 0.0214844 142.133 0.0361328 142.182 0.0751953C142.25 0.15332 142.299 0.197266 142.328 0.207031C142.367 0.207031 142.392 0.197266 142.401 0.177734C142.421 0.148438 142.436 0.119141 142.445 0.0898438C142.455 0.0507812 142.47 0.0361328 142.489 0.0458984C142.616 0.104492 142.704 0.15332 142.753 0.192383C142.812 0.231445 142.851 0.304688 142.87 0.412109C142.899 0.519531 142.924 0.680664 142.943 0.895508C142.963 1.11035 143.002 1.41797 143.061 1.81836ZM161.664 22.5752C161.664 22.6533 161.615 22.6973 161.518 22.707C161.42 22.707 161.317 22.707 161.21 22.707C161.161 22.7168 161.112 22.7266 161.063 22.7363C161.015 22.7559 160.961 22.7754 160.902 22.7949C160.854 22.8047 160.805 22.834 160.756 22.8828C160.775 22.9805 160.78 23.0537 160.771 23.1025C160.771 23.1611 160.771 23.2051 160.771 23.2344L160.756 23.293C160.727 23.332 160.668 23.3613 160.58 23.3809C160.492 23.4102 160.399 23.4248 160.302 23.4248C160.282 23.4248 160.253 23.4199 160.214 23.4102C160.146 23.3906 160.077 23.3418 160.009 23.2637C159.843 23.2148 159.647 23.166 159.423 23.1172C159.306 23.0879 159.179 23.0586 159.042 23.0293C158.935 23 158.842 22.9219 158.764 22.7949C158.686 22.668 158.612 22.5215 158.544 22.3555C158.485 22.1797 158.427 22.0039 158.368 21.8281C158.319 21.6426 158.275 21.4814 158.236 21.3447L156.801 16.8184C156.586 16.8184 156.312 16.8232 155.98 16.833C155.658 16.833 155.312 16.8379 154.94 16.8477C154.569 16.8477 154.193 16.8574 153.812 16.877C153.432 16.8867 153.085 16.8965 152.772 16.9062L149.843 17.0527L148.129 21.5352C148.1 21.584 148.056 21.6816 147.997 21.8281C147.948 21.9746 147.895 22.1309 147.836 22.2969C147.777 22.4531 147.724 22.6045 147.675 22.751C147.626 22.8877 147.597 22.9707 147.587 23C147.567 23.0781 147.509 23.127 147.411 23.1465C147.313 23.166 147.23 23.1855 147.162 23.2051C147.104 23.2246 147.055 23.2783 147.016 23.3662C146.977 23.4541 146.918 23.5127 146.84 23.542C146.762 23.5908 146.664 23.5957 146.547 23.5566C146.43 23.5176 146.327 23.4541 146.239 23.3662C146.161 23.2686 146.132 23.1465 146.151 23C146.171 22.8438 146.181 22.6826 146.181 22.5166C146.181 22.3506 146.176 22.1943 146.166 22.0479C146.166 21.9014 146.19 21.7598 146.239 21.623C146.259 21.5645 146.317 21.3838 146.415 21.0811C146.522 20.7686 146.654 20.3975 146.811 19.9678C146.967 19.5283 147.138 19.0547 147.323 18.5469C147.509 18.0293 147.699 17.5312 147.895 17.0527C147.719 17.0527 147.597 17.0039 147.528 16.9062C147.479 16.8281 147.421 16.7842 147.353 16.7744C147.284 16.7549 147.211 16.7305 147.133 16.7012C147.055 16.6816 147.001 16.6377 146.972 16.5693C146.942 16.501 146.938 16.4424 146.957 16.3936C146.977 16.335 146.962 16.2861 146.913 16.2471C146.864 16.208 146.84 16.1201 146.84 15.9834C146.84 15.9248 146.884 15.8711 146.972 15.8223C147.069 15.7637 147.187 15.7148 147.323 15.6758C147.46 15.6367 147.611 15.6025 147.777 15.5732C147.953 15.5439 148.119 15.5195 148.275 15.5C148.305 15.5 148.339 15.5 148.378 15.5C148.427 15.5 148.476 15.4902 148.524 15.4707C148.739 14.9531 148.983 14.3965 149.257 13.8008C149.53 13.1953 149.809 12.5801 150.092 11.9551C150.385 11.3301 150.678 10.7051 150.971 10.0801C151.264 9.45508 151.542 8.86914 151.806 8.32227C152.069 7.76562 152.309 7.25781 152.523 6.79883C152.748 6.33984 152.934 5.95898 153.08 5.65625C152.963 5.29492 152.855 4.96289 152.758 4.66016C152.67 4.35742 152.592 4.09375 152.523 3.86914C152.455 3.64453 152.401 3.46875 152.362 3.3418C152.323 3.20508 152.304 3.12695 152.304 3.10742C152.294 3.08789 152.294 3.06836 152.304 3.04883C152.323 3 152.372 2.9707 152.45 2.96094C152.372 2.81445 152.333 2.70703 152.333 2.63867C152.333 2.59961 152.343 2.5752 152.362 2.56543C152.382 2.5459 152.431 2.52637 152.509 2.50684C152.587 2.4873 152.67 2.47266 152.758 2.46289C152.846 2.44336 152.929 2.43359 153.007 2.43359C153.085 2.42383 153.139 2.41895 153.168 2.41895C153.178 2.41895 153.202 2.42383 153.241 2.43359C153.3 2.45312 153.383 2.49707 153.49 2.56543C153.5 2.5166 153.51 2.48242 153.52 2.46289C153.539 2.44336 153.559 2.42383 153.578 2.4043L153.622 2.36035C153.681 2.33105 153.744 2.32617 153.812 2.3457C153.881 2.35547 153.944 2.36035 154.003 2.36035C154.062 2.36035 154.101 2.33594 154.12 2.28711C154.149 2.23828 154.213 2.21387 154.311 2.21387C154.438 2.21387 154.545 2.35059 154.633 2.62402C154.643 2.67285 154.711 2.8584 154.838 3.18066C154.965 3.49316 155.126 3.9082 155.321 4.42578C155.517 4.93359 155.741 5.52441 155.995 6.19824C156.259 6.87207 156.532 7.58984 156.815 8.35156C157.099 9.10352 157.382 9.88477 157.665 10.6953C157.958 11.4961 158.236 12.2871 158.5 13.0684C159.047 14.6602 159.506 16.0029 159.877 17.0967C160.248 18.1904 160.546 19.084 160.771 19.7773C161.005 20.4707 161.176 20.9883 161.283 21.3301C161.4 21.6719 161.474 21.877 161.503 21.9453C161.552 22.1016 161.591 22.2285 161.62 22.3262C161.649 22.4141 161.664 22.4971 161.664 22.5752ZM155.351 12.5557C155.097 11.833 154.818 11.0225 154.516 10.124C154.223 9.22559 153.935 8.33691 153.651 7.45801C153.485 7.8877 153.285 8.40527 153.051 9.01074C152.816 9.61621 152.567 10.2412 152.304 10.8857C152.05 11.5303 151.801 12.1602 151.557 12.7754C151.312 13.3906 151.098 13.918 150.912 14.3574L150.502 15.3242L153.139 15.1631C153.363 15.1631 153.632 15.1582 153.944 15.1484C154.472 15.1387 155.233 15.124 156.229 15.1045L155.351 12.5557ZM167.479 2.53613C167.479 4.30371 167.445 6.10059 167.377 7.92676C167.309 9.74316 167.26 11.5498 167.23 13.3467C167.221 14.167 167.226 14.9824 167.245 15.793C167.274 16.5938 167.304 17.3604 167.333 18.0928C167.372 18.8154 167.406 19.4795 167.436 20.085C167.465 20.6807 167.479 21.1836 167.479 21.5938C167.479 21.877 167.47 22.1064 167.45 22.2822C167.431 22.4482 167.396 22.5459 167.348 22.5752C167.299 22.624 167.255 22.6533 167.216 22.6631C167.177 22.6729 167.138 22.6777 167.099 22.6777C167.06 22.6777 167.016 22.6777 166.967 22.6777C166.928 22.668 166.879 22.6777 166.82 22.707C166.752 22.7363 166.708 22.7705 166.688 22.8096C166.669 22.8389 166.649 22.873 166.63 22.9121C166.61 22.9512 166.581 22.9902 166.542 23.0293C166.503 23.0684 166.435 23.1074 166.337 23.1465C166.21 23.1758 166.088 23.1416 165.971 23.0439C165.863 22.9561 165.756 22.8828 165.648 22.8242C165.482 22.7266 165.346 22.6484 165.238 22.5898C165.141 22.5215 165.048 22.4189 164.96 22.2822C164.892 22.165 164.833 21.9893 164.784 21.7549C164.735 21.5107 164.696 21.2275 164.667 20.9053C164.638 20.5732 164.618 20.207 164.608 19.8066C164.599 19.4062 164.594 18.9912 164.594 18.5615C164.594 18.0732 164.599 17.585 164.608 17.0967C164.618 16.5986 164.628 16.125 164.638 15.6758C164.657 15.2266 164.672 14.8213 164.682 14.46C164.691 14.0986 164.701 13.8057 164.711 13.5811C164.73 12.8779 164.755 12.1406 164.784 11.3691C164.823 10.5977 164.857 9.83105 164.887 9.06934C164.926 8.29785 164.965 7.55566 165.004 6.84277C165.043 6.12988 165.082 5.48047 165.121 4.89453C165.16 4.29883 165.194 3.7959 165.224 3.38574C165.263 2.96582 165.302 2.67285 165.341 2.50684C165.399 2.30176 165.502 2.18457 165.648 2.15527C165.717 2.12598 165.771 2.13086 165.81 2.16992C165.858 2.20898 165.912 2.18457 165.971 2.09668C165.99 2.04785 166.02 2.01855 166.059 2.00879C166.098 1.99902 166.137 1.99414 166.176 1.99414C166.215 1.99414 166.254 1.99414 166.293 1.99414C166.332 1.99414 166.366 1.98437 166.396 1.96484C166.454 1.90625 166.513 1.89648 166.571 1.93555C166.64 1.96484 166.688 1.99414 166.718 2.02344C166.747 2.0918 166.786 2.14551 166.835 2.18457C166.884 2.21387 166.938 2.2041 166.996 2.15527C167.025 2.12598 167.064 2.11133 167.113 2.11133C167.172 2.11133 167.211 2.13574 167.23 2.18457C167.26 2.2334 167.309 2.28223 167.377 2.33105C167.445 2.37988 167.479 2.44824 167.479 2.53613ZM187.182 2.44824C187.201 2.62402 187.211 2.99023 187.211 3.54688C187.211 4.09375 187.201 4.76758 187.182 5.56836C187.172 6.36914 187.152 7.2627 187.123 8.24902C187.104 9.23535 187.074 10.2607 187.035 11.3252C186.996 12.3799 186.952 13.4443 186.903 14.5186C186.864 15.583 186.82 16.5938 186.771 17.5508C186.723 18.5078 186.669 19.3818 186.61 20.1729C186.552 20.9541 186.493 21.5889 186.435 22.0771C186.435 22.1357 186.405 22.1895 186.347 22.2383C186.298 22.2773 186.244 22.3506 186.186 22.458C186.127 22.5557 186.068 22.6094 186.01 22.6191C185.951 22.6289 185.902 22.6289 185.863 22.6191C185.824 22.6094 185.795 22.6094 185.775 22.6191C185.756 22.6289 185.756 22.6777 185.775 22.7656C185.795 22.8242 185.761 22.873 185.673 22.9121C185.595 22.9414 185.526 22.9316 185.468 22.8828C185.39 22.8242 185.297 22.7559 185.189 22.6777C185.082 22.5898 185.014 22.5459 184.984 22.5459C184.926 22.5361 184.906 22.5605 184.926 22.6191C184.945 22.6777 184.97 22.7412 184.999 22.8096C185.038 22.8779 185.062 22.9414 185.072 23C185.092 23.0684 185.062 23.1074 184.984 23.1172C184.838 23.1367 184.667 23.1025 184.472 23.0146C184.286 22.9268 184.11 22.8242 183.944 22.707C183.808 22.5996 183.603 22.3604 183.329 21.9893C183.056 21.6182 182.729 21.1494 182.348 20.583C181.977 20.0068 181.562 19.3525 181.103 18.6201C180.653 17.8877 180.185 17.1064 179.696 16.2764C179.208 15.4463 178.71 14.5869 178.202 13.6982C177.694 12.8096 177.201 11.9258 176.723 11.0469C176.244 10.1582 175.785 9.29395 175.346 8.4541C174.906 7.61426 174.511 6.83301 174.159 6.11035C174.12 6.52051 174.086 7.08203 174.057 7.79492C174.027 8.49805 173.998 9.28418 173.969 10.1533C173.949 11.0127 173.93 11.9209 173.91 12.8779C173.891 13.835 173.871 14.7773 173.852 15.7051C173.842 16.6328 173.832 17.5117 173.822 18.3418C173.812 19.1719 173.803 19.8848 173.793 20.4805C173.793 20.8711 173.783 21.1494 173.764 21.3154C173.754 21.4717 173.739 21.5791 173.72 21.6377C173.71 21.6963 173.695 21.7402 173.676 21.7695C173.666 21.7891 173.666 21.8574 173.676 21.9746C173.676 22.2871 173.656 22.5752 173.617 22.8389C173.578 23.0928 173.49 23.2344 173.354 23.2637C173.275 23.3027 173.202 23.2881 173.134 23.2197C173.065 23.1611 172.978 23.1465 172.87 23.1758C172.841 23.1758 172.802 23.2002 172.753 23.249C172.714 23.3076 172.641 23.3369 172.533 23.3369C172.445 23.3369 172.338 23.2979 172.211 23.2197C172.084 23.1416 172.001 23 171.962 22.7949L171.903 22.2529C171.894 22.1943 171.879 22.1553 171.859 22.1357C171.85 22.1162 171.835 22.0869 171.815 22.0479C171.806 22.0088 171.796 21.9453 171.786 21.8574C171.776 21.7598 171.767 21.5986 171.757 21.374C171.757 21.3154 171.767 21.042 171.786 20.5537C171.806 20.0557 171.83 19.416 171.859 18.6348C171.898 17.8535 171.938 16.9648 171.977 15.9688C172.025 14.9727 172.074 13.9424 172.123 12.8779C172.182 11.8135 172.235 10.7539 172.284 9.69922C172.343 8.64453 172.401 7.66797 172.46 6.76953C172.528 5.87109 172.592 5.08984 172.65 4.42578C172.709 3.75195 172.763 3.27344 172.812 2.99023C172.763 2.87305 172.724 2.76074 172.694 2.65332C172.675 2.5459 172.665 2.44824 172.665 2.36035C172.655 2.30176 172.66 2.2627 172.68 2.24316C172.709 2.22363 172.743 2.20898 172.782 2.19922C172.831 2.17969 172.88 2.16016 172.929 2.14062C172.978 2.12109 173.026 2.08203 173.075 2.02344C173.095 1.99414 173.109 1.92578 173.119 1.81836C173.139 1.70117 173.173 1.64258 173.222 1.64258C173.358 1.64258 173.471 1.61328 173.559 1.55469C173.646 1.48633 173.769 1.44238 173.925 1.42285C173.925 1.25684 173.969 1.14941 174.057 1.10059C174.096 1.07129 174.14 1.06152 174.188 1.07129C174.354 1.09082 174.481 1.15918 174.569 1.27637C174.667 1.38379 174.74 1.48633 174.789 1.58398C174.838 1.70117 174.877 1.78906 174.906 1.84766C174.936 1.90625 174.975 1.98926 175.023 2.09668C175.092 2.2041 175.224 2.43359 175.419 2.78516C175.624 3.13672 175.873 3.57617 176.166 4.10352C176.459 4.63086 176.791 5.22656 177.162 5.89062C177.533 6.54492 177.919 7.24316 178.319 7.98535C178.729 8.71777 179.149 9.46973 179.579 10.2412C180.009 11.0029 180.429 11.75 180.839 12.4824C181.249 13.2148 181.64 13.9131 182.011 14.5771C182.382 15.2412 182.719 15.8418 183.021 16.3789C183.324 16.9062 183.578 17.3506 183.783 17.7119C183.988 18.0635 184.13 18.2979 184.208 18.415C184.403 18.6982 184.54 18.8594 184.618 18.8984C184.696 18.9277 184.789 18.835 184.896 18.6201C184.945 18.5225 184.989 18.2979 185.028 17.9463C185.077 17.585 185.121 17.1309 185.16 16.584C185.209 16.0371 185.248 15.417 185.277 14.7236C185.316 14.0303 185.351 13.3027 185.38 12.541C185.409 11.7793 185.434 10.998 185.453 10.1973C185.473 9.39648 185.482 8.62012 185.482 7.86816C185.492 7.11621 185.492 6.4082 185.482 5.74414C185.482 5.08008 185.468 4.49414 185.438 3.98633C185.429 3.71289 185.424 3.46875 185.424 3.25391C185.424 3.06836 185.434 2.89746 185.453 2.74121C185.473 2.58496 185.507 2.50684 185.556 2.50684C185.624 2.45801 185.683 2.42871 185.731 2.41895C185.79 2.39941 185.834 2.39453 185.863 2.4043C185.902 2.4043 185.937 2.40918 185.966 2.41895C185.995 2.42871 186.02 2.42871 186.039 2.41895C186.059 2.40918 186.068 2.39453 186.068 2.375C186.068 2.35547 186.068 2.33105 186.068 2.30176C186.078 2.27246 186.093 2.24316 186.112 2.21387C186.132 2.1748 186.176 2.14551 186.244 2.12598C186.322 2.09668 186.381 2.08203 186.42 2.08203C186.469 2.07227 186.508 2.07227 186.537 2.08203C186.566 2.0918 186.591 2.10156 186.61 2.11133C186.63 2.12109 186.659 2.11621 186.698 2.09668C186.776 2.05762 186.84 2.02344 186.889 1.99414C186.938 1.95508 186.981 1.94043 187.021 1.9502C187.06 1.95996 187.089 2.00391 187.108 2.08203C187.138 2.15039 187.162 2.27246 187.182 2.44824Z" fill="black"/>
</svg>
