<svg width="87" height="29" viewBox="0 0 87 29" fill="none" xmlns="http://www.w3.org/2000/svg">
<path d="M28.5645 2.25391C28.5645 2.29297 28.4814 2.49805 28.3154 2.86914C28.1494 3.24023 27.9248 3.7334 27.6416 4.34863C27.3584 4.9541 27.0215 5.66211 26.6309 6.47266C26.25 7.2832 25.8398 8.14258 25.4004 9.05078C24.9609 9.95898 24.5068 10.8965 24.0381 11.8633C23.5693 12.8301 23.1055 13.7773 22.6465 14.7051C22.1973 15.6328 21.7627 16.5215 21.3428 17.3711C20.9326 18.2109 20.5615 18.9629 20.2295 19.627C19.9072 20.291 19.6338 20.8477 19.4092 21.2969C19.1943 21.7363 19.0527 22.0195 18.9844 22.1465C18.9551 22.2246 18.9111 22.2686 18.8525 22.2783C18.8037 22.2881 18.7402 22.293 18.6621 22.293C18.6035 22.293 18.5596 22.2783 18.5303 22.249C18.5107 22.2295 18.4863 22.2344 18.457 22.2637C18.3887 22.3027 18.3203 22.2979 18.252 22.249C18.1934 22.21 18.1494 22.2051 18.1201 22.2344C18.0127 22.332 17.9297 22.3857 17.8711 22.3955C17.8125 22.415 17.7832 22.3613 17.7832 22.2344C17.793 21.9902 17.7539 21.5996 17.666 21.0625C17.5879 20.5156 17.4707 19.876 17.3145 19.1436C17.168 18.4014 16.9922 17.5957 16.7871 16.7266C16.582 15.8574 16.3672 14.9688 16.1426 14.0605C15.918 13.1523 15.6934 12.2539 15.4688 11.3652C15.2441 10.4766 15.0293 9.65137 14.8242 8.88965C14.6191 8.11816 14.4385 7.43457 14.2822 6.83887C14.126 6.24316 14.0039 5.78906 13.916 5.47656C13.7695 5.84766 13.5742 6.35547 13.3301 7C13.0859 7.63477 12.8174 8.35254 12.5244 9.15332C12.2314 9.9541 11.9238 10.8086 11.6016 11.7168C11.2793 12.6152 10.957 13.5088 10.6348 14.3975C10.3125 15.2861 10.0049 16.1455 9.71191 16.9756C9.42871 17.7959 9.1748 18.5283 8.9502 19.1729C8.72559 19.8076 8.54492 20.3252 8.4082 20.7256C8.27148 21.126 8.19824 21.3506 8.18848 21.3994C8.16895 21.4287 8.14453 21.4678 8.11523 21.5166C8.08594 21.5654 8.05176 21.624 8.0127 21.6924C7.97363 21.751 7.91504 21.8242 7.83691 21.9121C7.76855 21.9316 7.70996 21.9463 7.66113 21.9561C7.62207 21.9658 7.57813 21.9707 7.5293 21.9707C7.46094 22.0098 7.40234 22.0439 7.35352 22.0732C7.30469 22.1123 7.26074 22.1416 7.22168 22.1611C7.18262 22.1904 7.14355 22.2148 7.10449 22.2344C7.05566 22.2832 7.00684 22.3223 6.95801 22.3516C6.90918 22.3809 6.86035 22.4053 6.81152 22.4248C6.79199 22.4248 6.74805 22.415 6.67969 22.3955C6.62109 22.376 6.55762 22.3516 6.48926 22.3223C6.43066 22.293 6.37207 22.2588 6.31348 22.2197C6.25488 22.1904 6.2207 22.1562 6.21094 22.1172C6.16211 21.9805 6.08398 21.7266 5.97656 21.3555C5.86914 20.9844 5.7373 20.5254 5.58105 19.9785C5.43457 19.4316 5.26855 18.8115 5.08301 18.1182C4.90723 17.4248 4.71191 16.6924 4.49707 15.9209C4.29199 15.1494 4.07715 14.3535 3.85254 13.5332C3.6377 12.7129 3.42285 11.8975 3.20801 11.0869C3.04199 10.4521 2.86621 9.80273 2.68066 9.13867C2.49512 8.47461 2.30957 7.82031 2.12402 7.17578C1.93848 6.53125 1.75781 5.91602 1.58203 5.33008C1.41602 4.74414 1.25977 4.2168 1.11328 3.74805C0.976562 3.26953 0.859375 2.86914 0.761719 2.54688C0.664062 2.21484 0.600586 1.99023 0.571289 1.87305C0.551758 1.78516 0.576172 1.7168 0.644531 1.66797C0.722656 1.60938 0.805664 1.61914 0.893555 1.69727C0.961914 1.74609 1.01562 1.75098 1.05469 1.71191C1.10352 1.67285 1.15234 1.65332 1.20117 1.65332C1.23047 1.65332 1.27441 1.66309 1.33301 1.68262C1.40137 1.70215 1.46973 1.72656 1.53809 1.75586C1.60645 1.77539 1.66992 1.7998 1.72852 1.8291C1.79688 1.8584 1.85059 1.88281 1.88965 1.90234C1.92871 1.92187 1.95313 1.92676 1.96289 1.91699C1.98242 1.90723 1.99707 1.8877 2.00684 1.8584C2.02637 1.8291 2.04102 1.7998 2.05078 1.77051C2.07031 1.74121 2.10449 1.7168 2.15332 1.69727C2.26074 1.6582 2.36328 1.66309 2.46094 1.71191C2.55859 1.76074 2.64648 1.79492 2.72461 1.81445C2.7832 1.82422 2.8125 1.81934 2.8125 1.7998C2.8125 1.77051 2.80762 1.74121 2.79785 1.71191C2.79785 1.67285 2.80273 1.64355 2.8125 1.62402C2.83203 1.59473 2.88574 1.58496 2.97363 1.59473C3.11035 1.59473 3.22266 1.62891 3.31055 1.69727C3.4082 1.75586 3.49609 1.94141 3.57422 2.25391C3.59375 2.33203 3.65723 2.57129 3.76465 2.97168C3.88184 3.3623 4.02344 3.86523 4.18945 4.48047C4.36523 5.0957 4.56055 5.79395 4.77539 6.5752C4.99023 7.35645 5.21484 8.17188 5.44922 9.02148C5.68359 9.86133 5.91797 10.7109 6.15234 11.5703C6.39648 12.4199 6.62598 13.2305 6.84082 14.002C7.05566 14.7734 7.24609 15.4717 7.41211 16.0967C7.58789 16.7217 7.72949 17.2295 7.83691 17.6201C8.11035 17.083 8.41797 16.4092 8.75977 15.5986C9.10156 14.7783 9.45312 13.8994 9.81445 12.9619C10.1758 12.0244 10.5371 11.0674 10.8984 10.0908C11.2598 9.10449 11.5967 8.17188 11.9092 7.29297C12.2314 6.41406 12.5146 5.62305 12.7588 4.91992C13.0029 4.2168 13.1885 3.67969 13.3154 3.30859C13.3936 3.08398 13.4473 2.88379 13.4766 2.70801C13.5156 2.52246 13.5645 2.35156 13.623 2.19531C13.6816 2.07812 13.7646 1.94629 13.8721 1.7998C13.9795 1.65332 14.0576 1.56543 14.1064 1.53613C14.2432 1.47754 14.3555 1.45801 14.4434 1.47754C14.541 1.4873 14.6582 1.50684 14.7949 1.53613C14.8438 1.5459 14.873 1.53613 14.8828 1.50684C14.9023 1.47754 14.917 1.44336 14.9268 1.4043C14.9365 1.35547 14.9512 1.30664 14.9707 1.25781C14.9902 1.20898 15.0391 1.16504 15.1172 1.12598C15.3613 0.999023 15.5127 0.945313 15.5713 0.964844C15.6299 0.984375 15.6885 1.10645 15.7471 1.33105C15.7568 1.37988 15.8057 1.60449 15.8936 2.00488C15.9912 2.39551 16.1133 2.90332 16.2598 3.52832C16.416 4.15332 16.5869 4.87109 16.7725 5.68164C16.9678 6.49219 17.1729 7.33691 17.3877 8.21582C17.6123 9.09473 17.832 9.9834 18.0469 10.8818C18.2715 11.7705 18.4863 12.6152 18.6914 13.416C18.9062 14.207 19.1016 14.9297 19.2773 15.584C19.4629 16.2285 19.6191 16.7461 19.7461 17.1367C19.873 16.8633 20.0537 16.4873 20.2881 16.0088C20.5322 15.5303 20.8057 14.9834 21.1084 14.3682C21.4111 13.7432 21.7432 13.0693 22.1045 12.3467C22.4658 11.6143 22.832 10.8623 23.2031 10.0908C23.5742 9.31934 23.9404 8.54785 24.3018 7.77637C24.6729 6.99512 25.0195 6.24316 25.3418 5.52051C25.6641 4.79785 25.957 4.12402 26.2207 3.49902C26.4941 2.86426 26.7139 2.3125 26.8799 1.84375C26.9092 1.75586 26.958 1.66797 27.0264 1.58008C27.0947 1.49219 27.1631 1.41406 27.2314 1.3457C27.3096 1.26758 27.3779 1.20898 27.4365 1.16992C27.5049 1.12109 27.5488 1.09668 27.5684 1.09668C27.6465 1.11621 27.7197 1.14062 27.7881 1.16992C27.8564 1.19922 27.9053 1.24316 27.9346 1.30176C27.9736 1.34082 27.9932 1.37988 27.9932 1.41895C28.0029 1.44824 28.0078 1.47754 28.0078 1.50684C28.0176 1.53613 28.0322 1.56055 28.0518 1.58008C28.0713 1.58984 28.1104 1.59473 28.1689 1.59473C28.2666 1.59473 28.3301 1.61914 28.3594 1.66797C28.3887 1.7168 28.4033 1.76563 28.4033 1.81445C28.4131 1.86328 28.418 1.91211 28.418 1.96094C28.418 2 28.4375 2.00977 28.4766 1.99023C28.5254 1.99023 28.5498 2.0293 28.5498 2.10742C28.5596 2.17578 28.5645 2.22461 28.5645 2.25391ZM47.1826 9.40234C47.1924 9.50977 47.1973 9.6123 47.1973 9.70996C47.1973 9.80762 47.1973 9.91016 47.1973 10.0176C47.1973 11.0723 47.0508 12.1562 46.7578 13.2695C46.4746 14.3828 46.0693 15.4424 45.542 16.4482C45.0146 17.4443 44.375 18.3525 43.623 19.1729C42.8711 19.9834 42.0312 20.6182 41.1035 21.0771C40.5566 21.3408 39.9658 21.5361 39.3311 21.6631C38.6963 21.79 38.0566 21.8535 37.4121 21.8535C36.9434 21.8535 36.4795 21.8193 36.0205 21.751C35.5713 21.6826 35.1416 21.5947 34.7314 21.4873C33.8135 21.2236 32.9883 20.8184 32.2559 20.2715C31.5332 19.7148 30.9131 19.0752 30.3955 18.3525C29.8779 17.6299 29.4678 16.8535 29.165 16.0234C28.8721 15.1836 28.7012 14.3535 28.6523 13.5332C28.6426 13.416 28.6328 13.2988 28.623 13.1816C28.623 13.0645 28.623 12.9473 28.623 12.8301C28.623 11.9219 28.7354 11.0186 28.96 10.1201C29.1846 9.21191 29.4873 8.34766 29.8682 7.52734C30.2588 6.69727 30.708 5.9209 31.2158 5.19824C31.7334 4.47559 32.2803 3.84082 32.8564 3.29395C33.4424 2.74707 34.0381 2.30273 34.6436 1.96094C35.2588 1.60938 35.8594 1.38965 36.4453 1.30176C36.5234 1.29199 36.5723 1.28711 36.5918 1.28711C36.6211 1.27734 36.6406 1.27246 36.6504 1.27246C36.6602 1.27246 36.6699 1.27734 36.6797 1.28711C36.6895 1.28711 36.7139 1.28223 36.7529 1.27246C36.9775 1.25293 37.1387 1.24805 37.2363 1.25781C37.334 1.26758 37.3926 1.28223 37.4121 1.30176C37.4316 1.33105 37.4268 1.35059 37.3975 1.36035C37.3779 1.37012 37.3438 1.38965 37.2949 1.41895C37.2754 1.41895 37.251 1.42383 37.2217 1.43359C37.2021 1.44336 37.2021 1.45801 37.2217 1.47754C37.2412 1.52637 37.2217 1.57031 37.1631 1.60938C37.1045 1.64844 37.0654 1.67773 37.0459 1.69727C37.0264 1.7168 37.0215 1.73145 37.0312 1.74121C37.041 1.75098 37.0459 1.75586 37.0459 1.75586C37.0557 1.75586 37.0557 1.76074 37.0459 1.77051C37.0459 1.78027 37.0264 1.79492 36.9873 1.81445C36.8701 1.89258 36.7432 1.96582 36.6064 2.03418C36.4795 2.09277 36.3477 2.16602 36.2109 2.25391C35.5078 2.76172 34.8877 3.41602 34.3506 4.2168C33.8135 5.01758 33.3643 5.90137 33.0029 6.86816C32.6416 7.83496 32.3682 8.85547 32.1826 9.92969C31.9971 10.9941 31.9043 12.0488 31.9043 13.0938C31.9043 13.2305 31.9043 13.3672 31.9043 13.5039C31.9043 13.6309 31.9092 13.7627 31.9189 13.8994C31.9385 14.3193 32.0068 14.7783 32.124 15.2764C32.2412 15.7744 32.3975 16.2725 32.5928 16.7705C32.7979 17.2588 33.042 17.7324 33.3252 18.1914C33.6182 18.6504 33.9502 19.0605 34.3213 19.4219C34.6924 19.7734 35.1074 20.0615 35.5664 20.2861C36.0254 20.501 36.5283 20.6133 37.0752 20.623C37.8955 20.6523 38.6328 20.5205 39.2871 20.2275C39.9414 19.9346 40.5176 19.5439 41.0156 19.0557C41.5234 18.5576 41.958 17.9912 42.3193 17.3564C42.6807 16.7119 42.9785 16.0527 43.2129 15.3789C43.457 14.6953 43.6475 14.0264 43.7842 13.3721C43.9209 12.708 44.0137 12.1123 44.0625 11.585C44.082 11.3799 44.0967 11.1748 44.1064 10.9697C44.1162 10.7549 44.1211 10.5498 44.1211 10.3545C44.1211 9.10449 43.9551 7.99121 43.623 7.01465C43.3008 6.03809 42.8662 5.21289 42.3193 4.53906C41.7822 3.86523 41.1621 3.34766 40.459 2.98633C39.7559 2.61523 39.0283 2.41504 38.2764 2.38574C38.1982 2.37598 38.1055 2.37598 37.998 2.38574C37.8906 2.38574 37.7783 2.38574 37.6611 2.38574C37.5537 2.38574 37.4561 2.39062 37.3682 2.40039C37.29 2.40039 37.2412 2.39551 37.2217 2.38574C37.0947 2.32715 37.0166 2.2832 36.9873 2.25391L36.958 2.22461C36.958 2.14648 36.9775 2.08789 37.0166 2.04883L37.1631 1.97559C37.2119 1.95605 37.2559 1.93652 37.2949 1.91699C37.3438 1.8877 37.3828 1.86328 37.4121 1.84375C37.4316 1.81445 37.4268 1.79492 37.3975 1.78516C37.3682 1.76563 37.3535 1.72168 37.3535 1.65332C37.334 1.60449 37.3486 1.56055 37.3975 1.52148C37.4463 1.47266 37.4805 1.44824 37.5 1.44824C37.5879 1.41895 37.6465 1.4043 37.6758 1.4043C37.7148 1.39453 37.7637 1.38965 37.8223 1.38965C37.9199 1.37988 37.998 1.37012 38.0566 1.36035C38.125 1.34082 38.1836 1.32129 38.2324 1.30176C38.291 1.28223 38.3545 1.26758 38.4229 1.25781C38.4912 1.23828 38.584 1.22363 38.7012 1.21387C38.7891 1.19434 38.8867 1.18457 38.9941 1.18457C39.1016 1.18457 39.2627 1.1748 39.4775 1.15527C40.3174 1.13574 41.084 1.2334 41.7773 1.44824C42.4805 1.65332 43.1104 1.95117 43.667 2.3418C44.2334 2.73242 44.7266 3.19629 45.1465 3.7334C45.5664 4.26074 45.918 4.83691 46.2012 5.46191C46.4941 6.07715 46.7188 6.72168 46.875 7.39551C47.041 8.06934 47.1436 8.73828 47.1826 9.40234ZM53.6572 21.0771C53.667 21.2139 53.6279 21.3506 53.54 21.4873C53.4619 21.6143 53.3643 21.7314 53.2471 21.8389C53.1396 21.9463 53.0273 22.0293 52.9102 22.0879C52.8027 22.1562 52.7197 22.1953 52.6611 22.2051C52.5244 22.2246 52.373 22.21 52.207 22.1611C52.041 22.1123 51.9141 22.0488 51.8262 21.9707C51.7578 21.9121 51.709 21.8438 51.6797 21.7656C51.6602 21.6777 51.6357 21.5557 51.6064 21.3994C51.5576 21.1748 51.5088 20.9941 51.46 20.8574C51.4209 20.7109 51.3867 20.5889 51.3574 20.4912C51.3281 20.3838 51.2988 20.2861 51.2695 20.1982C51.25 20.1104 51.2354 20.0029 51.2256 19.876C51.1182 18.6846 51.0547 17.498 51.0352 16.3164C51.0156 15.125 51.0254 13.9824 51.0645 12.8887C51.1035 11.7949 51.1621 10.7793 51.2402 9.8418C51.3281 8.89453 51.4111 8.07422 51.4893 7.38086C51.5771 6.67773 51.6553 6.12109 51.7236 5.71094C51.792 5.30078 51.8359 5.08105 51.8555 5.05176C51.8848 4.97363 51.9678 4.90039 52.1045 4.83203C52.251 4.76367 52.417 4.71484 52.6025 4.68555C52.7393 4.66602 52.8418 4.64648 52.9102 4.62695C52.9785 4.60742 53.0371 4.58789 53.0859 4.56836C53.1348 4.53906 53.1885 4.51465 53.2471 4.49512C53.3154 4.46582 53.418 4.43164 53.5547 4.39258C53.6719 4.36328 53.7402 4.42188 53.7598 4.56836C53.7793 4.71484 53.7744 4.9834 53.7451 5.37402C53.7158 5.76465 53.6719 6.29688 53.6133 6.9707C53.5645 7.64453 53.5254 8.49414 53.4961 9.51953C53.6035 9.53906 53.7207 9.54883 53.8477 9.54883C53.9844 9.54883 54.1309 9.54883 54.2871 9.54883C54.8047 9.54883 55.4053 9.49512 56.0889 9.3877C56.7725 9.28027 57.4561 9.08984 58.1396 8.81641C58.833 8.5332 59.4873 8.15234 60.1025 7.67383C60.7178 7.18555 61.2158 6.57031 61.5967 5.82812C61.6553 5.68164 61.6846 5.51074 61.6846 5.31543C61.6846 5.04199 61.5918 4.77344 61.4062 4.50977C61.2305 4.23633 60.9473 3.99707 60.5566 3.79199C60.166 3.57715 59.6582 3.40625 59.0332 3.2793C58.4082 3.14258 57.6562 3.07422 56.7773 3.07422C56.2598 3.07422 55.7227 3.11328 55.166 3.19141C54.6094 3.26953 54.043 3.39648 53.4668 3.57227C52.8906 3.74805 52.3096 3.97754 51.7236 4.26074C51.1377 4.54395 50.5615 4.89551 49.9951 5.31543C49.9658 5.34473 49.9121 5.36914 49.834 5.38867C49.7559 5.39844 49.6777 5.40332 49.5996 5.40332C49.4531 5.40332 49.3115 5.34961 49.1748 5.24219C49.0381 5.13477 48.9697 5.02246 48.9697 4.90527C48.9697 4.84668 48.9893 4.79785 49.0283 4.75879C49.0674 4.70996 49.1113 4.66602 49.1602 4.62695C49.2188 4.58789 49.2676 4.55371 49.3066 4.52441C49.3457 4.49512 49.3652 4.4707 49.3652 4.45117C49.3652 4.42188 49.3457 4.38281 49.3066 4.33398C49.2676 4.28516 49.248 4.22168 49.248 4.14355C49.248 4.13379 49.2236 4.12402 49.1748 4.11426C49.126 4.10449 49.0674 4.08984 48.999 4.07031C48.9404 4.05078 48.8867 4.02148 48.8379 3.98242C48.7891 3.93359 48.7646 3.87012 48.7646 3.79199C48.7646 3.7334 48.7939 3.68457 48.8525 3.64551C48.9209 3.60645 48.999 3.55273 49.0869 3.48438C49.2041 3.41602 49.4092 3.28418 49.7021 3.08887C49.9951 2.89355 50.3467 2.67383 50.7568 2.42969C51.1768 2.18555 51.6406 1.93164 52.1484 1.66797C52.6562 1.4043 53.1885 1.16504 53.7451 0.950195C54.3115 0.725586 54.8877 0.544922 55.4736 0.408203C56.0596 0.261719 56.6309 0.188477 57.1875 0.188477C57.7539 0.188477 58.2959 0.286133 58.8135 0.481445C59.3311 0.676758 59.8145 0.935547 60.2637 1.25781C60.7129 1.58008 61.1182 1.95605 61.4795 2.38574C61.8408 2.80566 62.1484 3.25 62.4023 3.71875C62.666 4.17773 62.8662 4.64648 63.0029 5.125C63.1494 5.59375 63.2227 6.03809 63.2227 6.45801C63.2227 6.94629 63.0615 7.41504 62.7393 7.86426C62.4268 8.31348 62.0215 8.7334 61.5234 9.12402C61.0352 9.51465 60.498 9.87109 59.9121 10.1934C59.3262 10.5059 58.7695 10.7793 58.2422 11.0137C57.7441 11.2285 57.2314 11.3848 56.7041 11.4824C56.1865 11.5703 55.708 11.624 55.2686 11.6436C55.7568 11.8291 56.2695 12.083 56.8066 12.4053C57.3535 12.7275 57.8906 13.1768 58.418 13.7529C58.6816 14.0459 58.9404 14.4414 59.1943 14.9395C59.4482 15.4277 59.7021 15.9697 59.9561 16.5654C60.21 17.1611 60.4639 17.791 60.7178 18.4551C60.9814 19.1191 61.2549 19.7783 61.5381 20.4326C61.8311 21.0771 62.1387 21.6924 62.4609 22.2783C62.793 22.874 63.1445 23.3965 63.5156 23.8457C63.8965 24.2949 64.3018 24.6514 64.7314 24.915C65.1709 25.1885 65.6494 25.3252 66.167 25.3252C66.6357 25.3252 67.1436 25.2031 67.6904 24.959C68.2471 24.7246 68.8477 24.3193 69.4922 23.7432C69.7363 23.5479 69.8926 23.3916 69.9609 23.2744C70.0391 23.167 70.0928 23.1133 70.1221 23.1133C70.1514 23.1133 70.1709 23.1328 70.1807 23.1719C70.2002 23.2109 70.21 23.25 70.21 23.2891C70.2197 23.3379 70.2246 23.3818 70.2246 23.4209C70.2246 23.46 70.2295 23.4844 70.2393 23.4941V23.5234C70.2393 23.5723 70.2197 23.6162 70.1807 23.6553C70.21 23.6553 70.2295 23.6699 70.2393 23.6992C70.2588 23.7383 70.2686 23.7822 70.2686 23.8311C70.2686 23.9092 70.249 23.9873 70.21 24.0654C70.1416 24.1631 70.0586 24.334 69.9609 24.5781C69.8633 24.832 69.7314 25.1152 69.5654 25.4277C69.4092 25.7402 69.2139 26.0625 68.9795 26.3945C68.7451 26.7363 68.457 27.0488 68.1152 27.332C67.7832 27.6152 67.3828 27.8447 66.9141 28.0205C66.4453 28.2061 65.9033 28.2988 65.2881 28.2988C64.917 28.2988 64.5312 28.25 64.1309 28.1523C63.7402 28.0547 63.3447 27.8838 62.9443 27.6396C62.5537 27.4053 62.1631 27.0928 61.7725 26.7021C61.3818 26.3115 61.0059 25.8232 60.6445 25.2373C60.459 24.9541 60.2637 24.5098 60.0586 23.9043C59.8633 23.2988 59.6533 22.6152 59.4287 21.8535C59.2139 21.082 58.9844 20.2715 58.7402 19.4219C58.4961 18.5723 58.2324 17.7568 57.9492 16.9756C57.666 16.1943 57.3584 15.4912 57.0264 14.8662C56.7041 14.2314 56.3574 13.748 55.9863 13.416C55.7812 13.2402 55.5713 13.0693 55.3564 12.9033C55.1416 12.7373 54.9268 12.5957 54.7119 12.4785C54.5068 12.3516 54.3018 12.2539 54.0967 12.1855C53.8916 12.1074 53.7012 12.0684 53.5254 12.0684H53.4668C53.4668 12.5957 53.4668 13.1572 53.4668 13.7529C53.4766 14.3486 53.4814 14.9492 53.4814 15.5547C53.4912 16.1504 53.501 16.7363 53.5107 17.3125C53.5205 17.8887 53.5303 18.4258 53.54 18.9238C53.5596 19.4121 53.5791 19.8467 53.5986 20.2275C53.6182 20.5986 53.6377 20.8818 53.6572 21.0771ZM70.9424 2.19531C70.9229 2.29297 70.8936 2.65918 70.8545 3.29395C70.8252 3.91895 70.7861 4.73437 70.7373 5.74023C70.6885 6.83398 70.6201 7.81055 70.5322 8.66992C70.4443 9.51953 70.3711 10.291 70.3125 10.9844C70.6934 10.7207 71.1182 10.3691 71.5869 9.92969C72.0557 9.48047 72.5342 8.99707 73.0225 8.47949C73.5205 7.95215 74.0088 7.41504 74.4873 6.86816C74.9756 6.32129 75.4199 5.80859 75.8203 5.33008C76.2207 4.85156 76.5674 4.43164 76.8604 4.07031C77.1533 3.70898 77.3535 3.45508 77.4609 3.30859C77.6758 3.03516 77.9053 2.78125 78.1494 2.54688C78.4033 2.30273 78.6426 2.08789 78.8672 1.90234C79.0918 1.70703 79.2969 1.55078 79.4824 1.43359C79.6777 1.30664 79.8242 1.22363 79.9219 1.18457C79.9902 1.16504 80.0488 1.16016 80.0977 1.16992C80.1465 1.17969 80.1855 1.2041 80.2148 1.24316C80.2539 1.27246 80.2734 1.33105 80.2734 1.41895C80.3418 1.46777 80.3613 1.50684 80.332 1.53613C80.3027 1.56543 80.3027 1.59473 80.332 1.62402C80.3613 1.66309 80.3906 1.70215 80.4199 1.74121C80.4492 1.78027 80.4395 1.84375 80.3906 1.93164C80.3125 2.10742 80.2295 2.26367 80.1416 2.40039C80.0537 2.53711 79.9316 2.70313 79.7754 2.89844C79.6191 3.09375 79.4043 3.34277 79.1309 3.64551C78.8672 3.94824 78.5107 4.34863 78.0615 4.84668C77.6221 5.31543 77.1143 5.88672 76.5381 6.56055C75.9619 7.23438 75.3418 7.93262 74.6777 8.65527C74.0234 9.37793 73.335 10.0908 72.6123 10.7939C71.8896 11.4971 71.1621 12.1123 70.4297 12.6396C70.7129 12.6982 71.0303 12.7861 71.3818 12.9033C71.7432 13.0205 72.1289 13.1816 72.5391 13.3867C72.959 13.5918 73.4033 13.8457 73.8721 14.1484C74.3506 14.4512 74.8535 14.8174 75.3809 15.2471C75.9863 15.7549 76.5771 16.2627 77.1533 16.7705C77.7295 17.2783 78.3105 17.7373 78.8965 18.1475C79.4824 18.5479 80.083 18.875 80.6982 19.1289C81.3135 19.3828 81.9629 19.5098 82.6465 19.5098C83.0957 19.5098 83.5645 19.4463 84.0527 19.3193C84.5508 19.1924 85.0732 18.9775 85.6201 18.6748C85.7471 18.6064 85.8398 18.5674 85.8984 18.5576C85.9668 18.5479 86.0059 18.5527 86.0156 18.5723C86.0352 18.5918 86.0352 18.626 86.0156 18.6748C85.9961 18.7139 85.9717 18.7529 85.9424 18.792C85.9229 18.8115 85.8887 18.8408 85.8398 18.8799C85.791 18.9092 85.7324 18.9482 85.6641 18.9971C85.6055 19.0361 85.5469 19.085 85.4883 19.1436C85.4297 19.1924 85.3809 19.2461 85.3418 19.3047C85.3125 19.3242 85.3125 19.3389 85.3418 19.3486C85.3711 19.3486 85.3955 19.3584 85.415 19.3779C85.4443 19.3877 85.4541 19.4121 85.4443 19.4512C85.4346 19.4805 85.3711 19.5293 85.2539 19.5977C85.1953 19.6367 85.1465 19.6904 85.1074 19.7588C85.0684 19.8174 85.0293 19.8809 84.9902 19.9492C84.9609 20.0078 84.9219 20.0713 84.873 20.1396C84.8242 20.1982 84.7607 20.2471 84.6826 20.2861C84.5068 20.3838 84.3701 20.5107 84.2725 20.667C84.1846 20.8135 84.1113 20.916 84.0527 20.9746C83.9746 21.0625 83.8037 21.1846 83.54 21.3408C83.2764 21.4971 82.959 21.6484 82.5879 21.7949C82.2266 21.9316 81.8262 22.0391 81.3867 22.1172C80.9473 22.2051 80.5078 22.2148 80.0684 22.1465C79.4043 22.0391 78.7744 21.7852 78.1787 21.3848C77.5928 20.9844 77.0215 20.5156 76.4648 19.9785C75.918 19.4316 75.3857 18.8457 74.8682 18.2207C74.3506 17.5957 73.8379 17.0049 73.3301 16.4482C72.8223 15.8916 72.3096 15.4033 71.792 14.9834C71.2842 14.5537 70.7617 14.2607 70.2246 14.1045C70.2246 14.4951 70.2295 14.9395 70.2393 15.4375C70.2588 15.9355 70.2734 16.4531 70.2832 16.9902C70.3027 17.5176 70.3174 18.04 70.3271 18.5576C70.3467 19.0654 70.3613 19.5293 70.3711 19.9492C70.3906 20.3691 70.4053 20.7207 70.415 21.0039C70.4346 21.2871 70.4492 21.458 70.459 21.5166C70.498 21.7607 70.498 21.9121 70.459 21.9707C70.4199 22.0195 70.3418 22.0586 70.2246 22.0879C70.1758 22.1074 70.1221 22.1025 70.0635 22.0732C70.0146 22.0537 69.9609 22.0684 69.9023 22.1172C69.873 22.1465 69.8535 22.1807 69.8438 22.2197C69.834 22.2588 69.8193 22.2979 69.7998 22.3369C69.7803 22.3857 69.7461 22.4297 69.6973 22.4688C69.6582 22.5078 69.585 22.542 69.4775 22.5713C69.4287 22.5908 69.375 22.6006 69.3164 22.6006C69.2676 22.6006 69.209 22.6006 69.1406 22.6006C69.0625 22.6201 68.96 22.5908 68.833 22.5127C68.7158 22.4443 68.6084 22.3711 68.5107 22.293C68.4619 22.2441 68.4131 22.1758 68.3643 22.0879C68.3154 22.0098 68.2666 21.9316 68.2178 21.8535C68.1689 21.7949 68.1104 21.751 68.042 21.7217C67.9834 21.6924 67.9395 21.6143 67.9102 21.4873C67.8027 21.0381 67.7295 20.4814 67.6904 19.8174C67.6611 19.1533 67.6465 18.4697 67.6465 17.7666C67.6465 17.3564 67.6514 16.9512 67.6611 16.5508C67.6709 16.1406 67.6807 15.7549 67.6904 15.3936C67.71 15.0225 67.7246 14.6807 67.7344 14.3682C67.7539 14.0557 67.7734 13.792 67.793 13.5771L67.1631 13.5039C66.9873 13.5039 66.8604 13.4941 66.7822 13.4746C66.7041 13.4551 66.6406 13.4307 66.5918 13.4014C66.5527 13.3623 66.5137 13.3184 66.4746 13.2695C66.4355 13.2207 66.377 13.1719 66.2988 13.123C66.1426 13.0156 66.0498 12.9131 66.0205 12.8154C65.9912 12.708 66.084 12.5713 66.2988 12.4053C66.4453 12.2783 66.6455 12.1904 66.8994 12.1416C67.1533 12.083 67.4902 12 67.9102 11.8926C67.9297 11.4238 67.9492 10.8965 67.9688 10.3105C67.998 9.72461 68.0322 9.11914 68.0713 8.49414C68.1104 7.85938 68.1494 7.22461 68.1885 6.58984C68.2373 5.94531 68.2861 5.33496 68.335 4.75879C68.3838 4.18262 68.4375 3.65527 68.4961 3.17676C68.5547 2.69824 68.6133 2.30273 68.6719 1.99023C68.6914 1.85352 68.7158 1.75586 68.7451 1.69727C68.7842 1.63867 68.8281 1.59473 68.877 1.56543C68.9355 1.55566 68.9893 1.5752 69.0381 1.62402C69.0869 1.67285 69.1504 1.67285 69.2285 1.62402C69.2871 1.59473 69.3359 1.57031 69.375 1.55078C69.4141 1.52148 69.4434 1.50684 69.4629 1.50684C69.4922 1.49707 69.5166 1.50684 69.5361 1.53613C69.5557 1.56543 69.585 1.61914 69.624 1.69727C69.6338 1.70703 69.6436 1.70703 69.6533 1.69727C69.6729 1.6875 69.6924 1.67285 69.7119 1.65332L69.7705 1.59473C69.8389 1.56543 69.9268 1.5459 70.0342 1.53613C70.1416 1.5166 70.2051 1.5459 70.2246 1.62402C70.2344 1.69238 70.249 1.72168 70.2686 1.71191C70.2881 1.69238 70.3125 1.66309 70.3418 1.62402C70.3809 1.58496 70.4248 1.5459 70.4736 1.50684C70.5225 1.46777 70.5811 1.45801 70.6494 1.47754C70.7861 1.52637 70.8887 1.60938 70.957 1.72656C71.0254 1.83398 71.0205 1.99023 70.9424 2.19531Z" fill="black"/>
</svg>
